<svg xmlns="http://www.w3.org/2000/svg" viewBox="0 0 93 93"><defs><style>.cls-1{fill:#fff;}.cls-2{fill:#17bd6c;}</style></defs><title>Icon_2-1</title><g id="Слой_2" data-name="Слой 2"><g id="Слой_1-2" data-name="Слой 1"><path class="cls-1" d="M53.23,4l4.83,6.93,8-2.77,2.44,8.08,8.45-.17-.17,8.45L84.84,27l-2.77,8L89,39.77,83.9,46.5,89,53.23l-6.93,4.83,2.77,8-8.08,2.44.17,8.45-8.45-.17L66,84.84l-8-2.77L53.23,89,46.5,83.9,39.77,89l-4.83-6.93-8,2.77-2.44-8.08-8.45.17.17-8.45L8.16,66l2.77-8L4,53.23,9.1,46.5,4,39.77l6.93-4.83L8.16,27l8.08-2.44-.17-8.45,8.45.17L27,8.16l8,2.77L39.77,4,46.5,9.1,53.23,4m23.7,12.07h0M39.77,0a4.46,4.46,0,0,0-.63.05,4,4,0,0,0-2.65,1.66l-3.1,4.45L28.28,4.38A4,4,0,0,0,27,4.16a4,4,0,0,0-1.82.44,4,4,0,0,0-2,2.4l-1.57,5.18-5.42-.11h-.08a4,4,0,0,0-2.83,1.17,4.06,4.06,0,0,0-1.17,2.91l.11,5.42L7,23.14a4,4,0,0,0-2.62,5.14l1.78,5.11-4.45,3.1a4,4,0,0,0-.9,5.69L4.08,46.5.81,50.82a4,4,0,0,0,.9,5.69l4.45,3.1L4.38,64.72A4,4,0,0,0,7,69.86l5.18,1.57-.11,5.42a4.06,4.06,0,0,0,1.17,2.91,4,4,0,0,0,2.83,1.17h.08l5.42-.11L23.14,86a4,4,0,0,0,2,2.4,4,4,0,0,0,1.82.44,4,4,0,0,0,1.31-.22l5.11-1.78,3.1,4.45A4,4,0,0,0,39.14,93a4.46,4.46,0,0,0,.63,0,4,4,0,0,0,2.41-.81l4.32-3.27,4.32,3.27a4,4,0,0,0,2.41.81,4.46,4.46,0,0,0,.63,0,4,4,0,0,0,2.65-1.66l3.1-4.45,5.11,1.78A4,4,0,0,0,69.86,86l1.57-5.18,5.42.11h.08a4,4,0,0,0,2.83-1.17,4.06,4.06,0,0,0,1.17-2.91l-.11-5.42L86,69.86a4,4,0,0,0,2.62-5.14l-1.78-5.11,4.45-3.1a4,4,0,0,0,.9-5.69L88.92,46.5l3.27-4.32a4,4,0,0,0-.9-5.69l-4.45-3.1,1.78-5.11A4,4,0,0,0,86,23.14l-5.18-1.57.1-5.27a1.77,1.77,0,0,0,0-.23,4,4,0,0,0-4-4h-.09l-5.41.11L69.86,7a4,4,0,0,0-5.14-2.62L59.61,6.16l-3.1-4.45A4,4,0,0,0,53.86.05a4.46,4.46,0,0,0-.63,0,4,4,0,0,0-2.41.81L46.5,4.08,42.18.81A4,4,0,0,0,39.77,0Z"/><path class="cls-1" d="M36.8,30.64a3.17,3.17,0,0,0-1.71.51L24.81,36.92a1.12,1.12,0,0,0-.56,1.67l.93,1.61a1.1,1.1,0,0,0,1.8.42L35.27,36v26.2c0,.88.28,1.21,1.2,1.21h2c.93,0,1.21-.33,1.21-1.21V31.84c0-.88-.28-1.2-1.21-1.2Z"/><path class="cls-2" d="M54.48,29.7c-.72,0-1,.25-1,1v1.52c-4,.52-6.08,2.76-6.08,6.1A5.67,5.67,0,0,0,49.1,42.5a6,6,0,0,0,1.81,1,13.88,13.88,0,0,0,4.16.9,10.18,10.18,0,0,1,3.07.59,1.89,1.89,0,0,1,1.33,1.92c0,1.82-1.42,2.72-4.28,2.72A4,4,0,0,1,51,47.05c-.34-.77-.68-1-1.46-.68L48,46.93a1,1,0,0,0-.72,1.42,7.07,7.07,0,0,0,6.21,4.77V54.7c0,.72.25,1,1,1h1.7c.72,0,.93-.24.93-1V53.09c4-.59,6.28-2.88,6.28-6.26a6,6,0,0,0-1.65-4.33,5.64,5.64,0,0,0-1.83-1,14.63,14.63,0,0,0-4.13-.8,17.83,17.83,0,0,1-2.24-.34,2.36,2.36,0,0,1-2.14-2.08c0-1.76,1.21-2.54,3.85-2.54a3.91,3.91,0,0,1,4,2.39c.4.74.74.9,1.45.55L62.21,38c.83-.37,1-.77.62-1.52a7,7,0,0,0-5.72-4.3V30.66c0-.71-.21-1-.93-1Z"/><rect class="cls-2" x="44.84" y="59.47" width="21.41" height="3.78" rx="1.5" ry="1.5"/></g></g></svg>