<svg xmlns="http://www.w3.org/2000/svg" viewBox="0 0 84 84"><defs><style>.cls-1{fill:#17bd6c;}.cls-2{fill:none;stroke:#fff;stroke-linecap:round;stroke-linejoin:round;stroke-width:4px;}</style></defs><title>Icon_2-2</title><g id="Слой_2" data-name="Слой 2"><g id="Слой_1-2" data-name="Слой 1"><rect class="cls-1" x="12.94" y="27.17" width="16.87" height="3.95" rx="1.5" ry="1.5" transform="translate(50.52 7.77) rotate(90)"/><rect class="cls-1" x="57.58" y="60.61" width="10.09" height="3.95" rx="1.5" ry="1.5" transform="translate(125.2 -0.05) rotate(90)"/><rect class="cls-1" x="21.81" y="45.46" width="40.37" height="3.95" rx="1.5" ry="1.5" transform="translate(89.44 5.44) rotate(90)"/><rect class="cls-1" x="11.28" y="55.56" width="20.19" height="3.95" rx="1.5" ry="1.5" transform="translate(78.91 36.16) rotate(90)"/><rect class="cls-1" x="48.86" y="32.51" width="27.54" height="3.95" rx="1.5" ry="1.5" transform="translate(97.11 -28.14) rotate(90)"/><rect class="cls-2" x="2" y="2" width="80" height="80" rx="12" ry="12"/><circle class="cls-2" cx="21.34" cy="42.63" r="5.62"/><circle class="cls-2" cx="62.59" cy="52.63" r="5.62"/><circle class="cls-2" cx="42" cy="22.63" r="5.62"/></g></g></svg>