<svg xmlns="http://www.w3.org/2000/svg" viewBox="0 0 89 87.87"><defs><style>.cls-1{fill:#17bd6c;}.cls-2{fill:none;stroke:#fff;stroke-linecap:round;stroke-linejoin:round;stroke-width:4px;}</style></defs><title>Ресурс 2</title><g id="Слой_2" data-name="Слой 2"><g id="Слой_1-2" data-name="Слой 1"><path class="cls-1" d="M39.18,63.43c-.29-1.5-.48-2.84-.82-4.06L30.75,72.15a1.81,1.81,0,0,0,.63,2.47l.16.09A1.8,1.8,0,0,0,34,74.09l5.55-9.33A11.33,11.33,0,0,1,39.18,63.43Z"/><path class="cls-1" d="M71,39l-.11-.15a1.81,1.81,0,0,0-2.51-.46L51.1,50.33a4.85,4.85,0,0,1-.2,1.41c-.39,1.22-.87,2.41-1.28,3.63-.06.24-.13.48-.2.73L70.51,41.51A1.82,1.82,0,0,0,71,39Z"/><path class="cls-1" d="M29.3,56.9a7.2,7.2,0,0,1-7.18-6.68,7.21,7.21,0,0,1,6.66-7.71,7.2,7.2,0,1,1,1,14.37A4.78,4.78,0,0,1,29.3,56.9Zm0-10.81H29a3.6,3.6,0,0,0,.52,7.19,3.6,3.6,0,0,0-.26-7.2Z"/><path class="cls-1" d="M58.69,71.33a7.11,7.11,0,1,1,.22,0Zm0-10.81h-.11A3.61,3.61,0,1,0,62.3,64h0a3.6,3.6,0,0,0-3.6-3.5Z"/><path class="cls-2" d="M38,58.25c-.92-10.52.45-15.56-10.08-20.58,3-3,4.57-6.86,7.77-8.69-3-3-8-4.34-7.1-5.71,5.93-8.91-3.46-12.7-6.15-19.58L8.56,6.48a8.16,8.16,0,0,0-6.4,9.61l12.53,62.3a8.16,8.16,0,0,0,9.61,6.4l17.43-3.51C42,73.2,38.22,65,38,58.25Z"/><path class="cls-2" d="M69.22,4.81,52.41,2c.06,7.39,7.5,14.27-1.22,20.49-1.34,1,2.88,4,4.6,7.86-3.64.57-6.52,3.64-10.35,5.36,8.05,8.44,5,12.66,2.1,22.81-2.19,6.4-1.61,15.4-4.7,22.86L69,85.75a8.16,8.16,0,0,0,9.4-6.7L86.71,29.3A21.28,21.28,0,0,0,69.22,4.81Z"/><path class="cls-2" d="M70.49,5.35l.3,12.74S84,18.09,87,27.86"/></g></g></svg>