<svg xmlns="http://www.w3.org/2000/svg" xmlns:xlink="http://www.w3.org/1999/xlink" viewBox="0 0 146.28 147.33"><defs><style>.cls-1,.cls-2,.cls-3,.cls-4{fill:none;}.cls-2,.cls-3{stroke:#fff;}.cls-2,.cls-3,.cls-4{stroke-miterlimit:10;}.cls-3{stroke-width:2px;}.cls-4{stroke:#e6e6e6;}.cls-5{fill:#e8e8e8;}.cls-6{fill:#fff;}.cls-7{opacity:0.83;}.cls-8{clip-path:url(#clip-path);}.cls-9{fill:#3cd189;}</style><clipPath id="clip-path" transform="translate(0 -9.81)"><path class="cls-1" d="M66.88,156l20.57,2.91c-5,0,79.3,8.11,79.3,3.09V6c0-5-95-6-90-6L66.88,20A9.16,9.16,0,0,1,76,29.13V146.88A9.15,9.15,0,0,1,66.88,156Z"/></clipPath></defs><title>Phones_</title><g id="Слой_2" data-name="Слой 2"><g id="Режим_изоляции" data-name="Режим изоляции"><path class="cls-2" d="M76.13,38.33h1.33A1.67,1.67,0,0,1,79.13,40v9.67a1.67,1.67,0,0,1-1.67,1.67H76.13a0,0,0,0,1,0,0v-13A0,0,0,0,1,76.13,38.33Z"/><path class="cls-2" d="M.5,48.14H1.83A1.67,1.67,0,0,1,3.5,49.81v9.67a1.67,1.67,0,0,1-1.67,1.67H.5a0,0,0,0,1,0,0v-13A0,0,0,0,1,.5,48.14Z" transform="translate(4 99.47) rotate(-180)"/><path class="cls-2" d="M2.17,76.33H3.5v-13H2.17A1.67,1.67,0,0,0,.5,65v9.66A1.67,1.67,0,0,0,2.17,76.33Z" transform="translate(0 -9.81)"/><rect class="cls-3" x="3.63" y="10.33" width="72.5" height="136" rx="9.12" ry="9.12"/><rect class="cls-4" x="9.15" y="24.78" width="61.45" height="103.38"/><rect class="cls-5" x="32.88" y="16.47" width="15" height="3" rx="1.5" ry="1.5"/><circle class="cls-5" cx="26.38" cy="17.97" r="1.71"/><circle class="cls-4" cx="39.88" cy="136.83" r="5.5"/><path class="cls-6" d="M45.33,86a4.58,4.58,0,0,0,3.44,4.43c-1.23,3.57-4,6.07-5.08,6.1-1.84.07-1.7-1.75-3.82-1.62s-1.3,1.49-3.28,1.62-7.37-7.76-5.46-13,7.31-2.7,8.74-2.7,4.78-2.31,8.1,1A4.58,4.58,0,0,0,45.33,86Zm-5.46-6.21s-.85-4.08,3.82-5.4A4.91,4.91,0,0,1,39.87,79.83Z" transform="translate(0 -9.81)"/><g class="cls-7"><g class="cls-8"><path class="cls-2" d="M142.78,43.69h1a2,2,0,0,1,2,2V55a1.69,1.69,0,0,1-1.69,1.69h-1.31a0,0,0,0,1,0,0v-13A0,0,0,0,1,142.78,43.69Z"/><path class="cls-3" d="M127.78,147.5s-15.44,1-21.25,1-21.25-1-21.25-1a15,15,0,0,1-15-15V26.5c0-8.25,7-14.56,15-15,0,0,13.28-.69,20.87-.69,7.23,0,21.63.69,21.63.69,8.1.5,15,6.75,15,15v106A15,15,0,0,1,127.78,147.5Z" transform="translate(0 -9.81)"/><rect class="cls-2" x="75.8" y="16.14" width="61.45" height="104.55"/><rect class="cls-5" x="99.53" y="8.69" width="15" height="3" rx="1.5" ry="1.5"/><circle class="cls-5" cx="95.03" cy="10.19" r="1.74"/><circle class="cls-5" cx="90.03" cy="10.19" r="1.74"/><circle class="cls-5" cx="122.03" cy="10.19" r="2.5"/><path class="cls-9" d="M116.23,74.77a1.65,1.65,0,0,0-1.67,1.62v6.33a1.67,1.67,0,0,0,3.33,0V76.39A1.64,1.64,0,0,0,116.23,74.77Zm-19.07,0a1.65,1.65,0,0,0-1.67,1.62v6.33a1.67,1.67,0,0,0,3.33,0V76.39A1.64,1.64,0,0,0,97.16,74.77Zm2.3,11.56a1.25,1.25,0,0,0,1.25,1.25h1.43v3.56a1.61,1.61,0,1,0,3.22,0V87.58h2.5v3.56a1.61,1.61,0,1,0,3.22,0V87.58h1.43a1.25,1.25,0,0,0,1.26-1.25V74.8H99.46Zm11.07-17,.75-1.29a.54.54,0,0,0-.2-.74.55.55,0,0,0-.75.2l-.81,1.38a8.42,8.42,0,0,0-5.66,0l-.81-1.38a.54.54,0,0,0-.74-.2.52.52,0,0,0-.2.74l.75,1.29a6.17,6.17,0,0,0-3.37,4.8h14.4A6.16,6.16,0,0,0,110.53,69.31Zm-6.88,3a.79.79,0,0,1,0-1.58.79.79,0,1,1,0,1.58Zm6.18,0a.79.79,0,1,1,.8-.79A.79.79,0,0,1,109.83,72.29Z" transform="translate(0 -9.81)"/><rect class="cls-2" x="95.97" y="125.52" width="21.11" height="7.34" rx="2.17" ry="2.17"/></g></g></g></g></svg>