<svg xmlns="http://www.w3.org/2000/svg" viewBox="0 0 141.33 125.17"><defs><style>.cls-1{fill:#fff;}.cls-2,.cls-3,.cls-5{fill:none;stroke-miterlimit:10;}.cls-2{stroke:#e6e6e6;}.cls-3,.cls-5{stroke:#fff;}.cls-3{stroke-width:0.75px;}.cls-4{fill:#3cd189;}.cls-5{stroke-width:2px;fill-rule:evenodd;}</style></defs><title>Win_</title><g id="Слой_2" data-name="Слой 2"><g id="Слой_1-2" data-name="Слой 1"><rect class="cls-1" x="47.8" y="98.98" width="45.73" height="11.75" rx="5.87" ry="5.87"/><rect class="cls-2" x="10.25" y="51.17" width="120.83" height="34.5"/><rect class="cls-3" x="10.25" y="30.67" width="56.67" height="12"/><rect class="cls-3" x="74.25" y="30.67" width="56.67" height="12"/><line class="cls-2" x1="28.92" y1="68.67" x2="41.28" y2="68.67"/><line class="cls-2" x1="49.67" y1="68.67" x2="91.17" y2="68.67"/><circle class="cls-4" cx="70.42" cy="68.67" r="8"/><circle class="cls-2" cx="45.67" cy="68.67" r="4"/><circle class="cls-2" cx="24.92" cy="68.67" r="4"/><circle class="cls-2" cx="115.92" cy="68.67" r="4"/><line class="cls-2" x1="99.25" y1="68.67" x2="111.62" y2="68.67"/><circle class="cls-2" cx="95.17" cy="68.67" r="4"/><path class="cls-5" d="M1,117.17a7,7,0,0,0,7,7H133.33a7,7,0,0,0,7-7V15.67H1Z"/><path class="cls-5" d="M133.33,1H8A7,7,0,0,0,1,8v7.67H140.33V8A7,7,0,0,0,133.33,1Z"/><rect class="cls-1" x="128.2" y="5.97" width="5.22" height="5.22" rx="2.61" ry="2.61"/><rect class="cls-1" x="119.55" y="5.97" width="5.22" height="5.22" rx="2.61" ry="2.61"/><rect class="cls-1" x="110.91" y="5.97" width="5.22" height="5.22" rx="2.61" ry="2.61"/></g></g></svg>