<svg id="Группа_70_копия" data-name="Группа 70 копия" xmlns="http://www.w3.org/2000/svg" width="178" height="65" viewBox="0 0 178 65">
  <metadata><?xpacket begin="﻿" id="W5M0MpCehiHzreSzNTczkc9d"?>
<x:xmpmeta xmlns:x="adobe:ns:meta/" x:xmptk="Adobe XMP Core 5.6-c142 79.160924, 2017/07/13-01:06:39        ">
   <rdf:RDF xmlns:rdf="http://www.w3.org/1999/02/22-rdf-syntax-ns#">
      <rdf:Description rdf:about=""/>
   </rdf:RDF>
</x:xmpmeta>
                                                                                                    
                                                                                                    
                                                                                                    
                                                                                                    
                                                                                                    
                                                                                                    
                                                                                                    
                                                                                                    
                                                                                                    
                                                                                                    
                                                                                                    
                                                                                                    
                                                                                                    
                                                                                                    
                                                                                                    
                                                                                                    
                                                                                                    
                                                                                                    
                                                                                                    
                                                                                                    
                           
<?xpacket end="w"?></metadata>
<defs>
    <style>
      .cls-1 {
        fill: #18293f;
      }

      .cls-2 {
        fill: #778eb0;
      }

      .cls-2, .cls-3, .cls-4 {
        fill-rule: evenodd;
      }

      .cls-3 {
        fill: #fff;
      }

      .cls-4 {
        fill: #d8d8d8;
      }
    </style>
  </defs>
  <rect id="Прямоугольник_скругл._углы_6_копия_2" data-name="Прямоугольник, скругл. углы 6 копия 2" class="cls-1" width="178" height="65" rx="6" ry="6"/>
  <path id="Эллипс_5" data-name="Эллипс 5" class="cls-2" d="M1271.16,3326.87l-0.01,2.74h1.09v-1.86h4.45v1.86h1.09v-2.74h-0.82v-5.46h-4.1l-0.1,2.53a4.3,4.3,0,0,1-.73,2.46l-0.38.47h-0.49Zm2.69-2.95,0.06-1.51h1.96v4.46h-2.93a5.216,5.216,0,0,0,.91-2.95h0Zm6.06-2.51-0.12,2.71a6.853,6.853,0,0,1-.29,2.04,0.9,0.9,0,0,1-.76.61l-0.31.02v0.96h0.43a1.589,1.589,0,0,0,1.41-.73,5.183,5.183,0,0,0,.55-2.34l0.13-2.37h2.17v5.44h1.1v-6.34h-4.31Zm8.25,0a2.672,2.672,0,0,0-1.75.54,1.716,1.716,0,0,0-.65,1.39,1.827,1.827,0,0,0,.33,1.09,1.876,1.876,0,0,0,.94.69l-1.61,2.63h1.18l1.5-2.47h1.65v2.47h1.09v-6.34h-2.68Zm-0.95,1.17a1.535,1.535,0,0,1,.97-0.29h1.57v2.1h-1.73a1.233,1.233,0,0,1-.85-0.29A1.02,1.02,0,0,1,1287.21,3322.58Zm8.54-3.36v8.53h1.14v-3.32l-0.12-3.57,2.81,6.89h0.87l2.82-6.91-0.11,3.59v3.32h1.13v-8.53h-1.46l-2.81,6.96-2.8-6.96h-1.47Zm15.45,8.53v-0.09a3.579,3.579,0,0,1-.22-1.39v-2.92a1.986,1.986,0,0,0-.65-1.51,2.564,2.564,0,0,0-1.73-.55,3.1,3.1,0,0,0-1.27.26,2.278,2.278,0,0,0-.92.7,1.479,1.479,0,0,0-.34.92h1.09a0.867,0.867,0,0,1,.4-0.71,1.562,1.562,0,0,1,.98-0.29,1.412,1.412,0,0,1,1.01.33,1.262,1.262,0,0,1,.34.91v0.5h-1.06a3.6,3.6,0,0,0-2.13.54,1.788,1.788,0,0,0-.76,1.54,1.726,1.726,0,0,0,.6,1.35,2.3,2.3,0,0,0,1.55.53,2.4,2.4,0,0,0,1.81-.79,2.311,2.311,0,0,0,.16.67h1.14Zm-3.83-1.11a0.981,0.981,0,0,1-.34-0.8c0-.78.67-1.17,2-1.17h0.86v1.3a1.588,1.588,0,0,1-.67.69,1.885,1.885,0,0,1-.97.26A1.327,1.327,0,0,1,1307.37,3326.64Zm6.58-.25a2.742,2.742,0,0,1-.46-1.69v-0.2a2.8,2.8,0,0,1,.46-1.72,1.528,1.528,0,0,1,1.29-.6,1.487,1.487,0,0,1,1.51,1.41h1.03a2.3,2.3,0,0,0-.76-1.66,2.59,2.59,0,0,0-1.78-.64,2.833,2.833,0,0,0-1.51.4,2.547,2.547,0,0,0-.98,1.12,3.775,3.775,0,0,0-.35,1.65v0.18a3.421,3.421,0,0,0,.77,2.36,2.645,2.645,0,0,0,2.07.87,2.6,2.6,0,0,0,1.23-.3,2.376,2.376,0,0,0,.93-0.78,1.976,1.976,0,0,0,.38-1.04h-1.03a1.238,1.238,0,0,1-.49.88,1.542,1.542,0,0,1-1.02.35A1.508,1.508,0,0,1,1313.95,3326.39Zm11.83-3.17a5.188,5.188,0,0,0-.43-2.19,3.162,3.162,0,0,0-1.21-1.43,3.526,3.526,0,0,0-3.62,0,3.28,3.28,0,0,0-1.21,1.45,5.126,5.126,0,0,0-.43,2.17v0.62a4.9,4.9,0,0,0,.44,2.12,3.244,3.244,0,0,0,1.22,1.41,3.508,3.508,0,0,0,3.61,0,3.125,3.125,0,0,0,1.2-1.42,5.125,5.125,0,0,0,.43-2.19v-0.54Zm-1.13.62a3.8,3.8,0,0,1-.62,2.28,1.992,1.992,0,0,1-1.7.79,2.025,2.025,0,0,1-1.71-.84,3.84,3.84,0,0,1-.62-2.31v-0.63a3.713,3.713,0,0,1,.63-2.25,2.2,2.2,0,0,1,3.41,0,3.8,3.8,0,0,1,.61,2.33v0.63Zm6.96,0.78a1.275,1.275,0,0,1-.04,1.96,2.19,2.19,0,0,1-1.37.37,2.432,2.432,0,0,1-1.54-.45,1.476,1.476,0,0,1-.57-1.22h-1.14a2.238,2.238,0,0,0,.42,1.33,2.7,2.7,0,0,0,1.18.92,4.127,4.127,0,0,0,1.65.34,3.455,3.455,0,0,0,2.17-.63,1.993,1.993,0,0,0,.82-1.66,2.1,2.1,0,0,0-.3-1.13,2.5,2.5,0,0,0-.89-0.84,7.148,7.148,0,0,0-1.68-.66,4.426,4.426,0,0,1-1.51-.66,1.085,1.085,0,0,1-.45-0.88,1.218,1.218,0,0,1,.47-1.02,2.062,2.062,0,0,1,1.31-.37,1.987,1.987,0,0,1,1.39.45,1.514,1.514,0,0,1,.5,1.22h1.14a2.413,2.413,0,0,0-.38-1.31,2.616,2.616,0,0,0-1.08-.94,3.452,3.452,0,0,0-1.57-.34,3.228,3.228,0,0,0-2.11.66,2.069,2.069,0,0,0-.81,1.67,1.937,1.937,0,0,0,.66,1.49,5.355,5.355,0,0,0,2.12,1.03A5.334,5.334,0,0,1,1331.61,3324.62Z" transform="translate(-1202 -3284)"/>
  <path id="Скачать_для_MacOS" data-name="Скачать для MacOS" class="cls-3" d="M1277.05,3309.04a2.307,2.307,0,0,1-.67,1.48,2.118,2.118,0,0,1-1.44.43,1.919,1.919,0,0,1-1.64-.82,3.831,3.831,0,0,1-.58-2.21v-0.83a3.65,3.65,0,0,1,.62-2.27,2.025,2.025,0,0,1,1.7-.8,1.893,1.893,0,0,1,1.37.46,2.458,2.458,0,0,1,.64,1.48h1.14a3.184,3.184,0,0,0-.96-2.1,3.09,3.09,0,0,0-2.19-.76,3.41,3.41,0,0,0-1.82.48,3.292,3.292,0,0,0-1.21,1.39,4.9,4.9,0,0,0-.43,2.09v0.82a4.346,4.346,0,0,0,.92,2.9,3.01,3.01,0,0,0,2.44,1.09,3.333,3.333,0,0,0,2.25-.74,3.147,3.147,0,0,0,1-2.09h-1.14Zm8.02,2.71h1.38l-3.52-4.39,3.28-4.14h-1.41l-3,3.76h-0.88v-3.76h-1.13v8.53h1.13v-3.83h1.04Zm7.98,0h1.16l-3.28-8.53h-0.99l-3.28,8.53h1.17l0.8-2.23h3.6Zm-2.62-7.14,1.46,3.99h-2.91Zm9.69-1.39v4.07a8.629,8.629,0,0,1-2.28.31,1.905,1.905,0,0,1-1.36-.39,1.724,1.724,0,0,1-.41-1.28v-2.71h-1.14v2.73a2.487,2.487,0,0,0,.73,1.94,3.206,3.206,0,0,0,2.18.63,8.121,8.121,0,0,0,1.16-.07,7.1,7.1,0,0,0,1.12-.24v3.54h1.14v-8.53h-1.14Zm8.74,8.53h1.16l-3.28-8.53h-0.99l-3.28,8.53h1.17l0.81-2.23h3.59Zm-2.62-7.14,1.47,3.99h-2.92Zm10.11-1.39h-6.64v0.92h2.75v7.61h1.13v-7.61h2.76v-0.92Zm2.45,0h-1.13v8.53h3.29a3.082,3.082,0,0,0,2.07-.71,2.6,2.6,0,0,0,.01-3.66,3.168,3.168,0,0,0-2.1-.68h-2.14v-3.48Zm2.12,4.4a1.862,1.862,0,0,1,1.28.43,1.484,1.484,0,0,1,.45,1.14,1.524,1.524,0,0,1-.47,1.19,1.812,1.812,0,0,1-1.31.45h-2.07v-3.21h2.12Z" transform="translate(-1202 -3284)"/>
  <path id="Фигура_5_копия" data-name="Фигура 5 копия" class="cls-4" d="M1247.03,3315.77a6.648,6.648,0,0,0,4.96,6.4c-1.77,5.16-5.74,8.76-7.32,8.82-2.65.1-2.46-1.46-5.51-1.26s-1.87,1.06-4.72,1.26-10.62-11.22-7.87-18.73,10.53-3.9,12.59-3.9,6.9-3.34,11.68,1.44A6.607,6.607,0,0,0,1247.03,3315.77Zm-7.87-8.97s-1.23-5.9,5.51-7.8A7.092,7.092,0,0,1,1239.16,3306.8Z" transform="translate(-1202 -3284)"/>
</svg>
