<svg xmlns="http://www.w3.org/2000/svg" xmlns:xlink="http://www.w3.org/1999/xlink" viewBox="0 0 336.4 255.07"><defs><style>.cls-1{fill:url(#Безымянный_градиент_33);}.cls-2,.cls-3,.cls-4,.cls-6{fill:#fff;}.cls-2,.cls-3,.cls-4{stroke:gray;stroke-miterlimit:10;}.cls-2{stroke-width:2px;}.cls-3,.cls-4{stroke-width:3px;}.cls-3,.cls-5,.cls-6{fill-rule:evenodd;}.cls-5{fill:url(#Безымянный_градиент_13);}</style><radialGradient id="Безымянный_градиент_33" cx="168.2" cy="251.74" r="102.58" gradientTransform="translate(-214.12 419.94) rotate(-90) scale(1 1.52)" gradientUnits="userSpaceOnUse"><stop offset="0" stop-color="#cfedf7"/><stop offset="1" stop-color="#e0f1f7" stop-opacity="0"/></radialGradient><radialGradient id="Безымянный_градиент_13" cx="172.25" cy="166.68" r="144.52" gradientUnits="userSpaceOnUse"><stop offset="0" stop-color="#7efcd3"/><stop offset="1" stop-color="#488db5"/></radialGradient></defs><title>Comp_2_mail</title><g id="Слой_2" data-name="Слой 2"><g id="Слой_1-2" data-name="Слой 1"><path class="cls-1" d="M336.4,255.07c-26.3-66.36-96.64-108.64-168.2-108.64S26.31,188.71,0,255.07Z"/><rect class="cls-2" x="146.33" y="202.93" width="55.25" height="42.59"/><path class="cls-3" d="M47.46,1.5h253c7.69,0,13.92,5.91,13.92,13.21v175c0,7.29-6.23,13.21-13.92,13.21h-253c-7.69,0-13.93-5.92-13.93-13.21v-175C33.53,7.41,39.77,1.5,47.46,1.5Z"/><circle class="cls-2" cx="173.96" cy="184.51" r="5.76"/><path class="cls-4" d="M99.19,245.52H248.73a3.5,3.5,0,0,1,3.5,3.5v4.56a0,0,0,0,1,0,0H95.69a0,0,0,0,1,0,0V249A3.5,3.5,0,0,1,99.19,245.52Z"/><path class="cls-5" d="M49,8.5H299a9,9,0,0,1,9,9v151H40V17.5A9,9,0,0,1,49,8.5Z"/><path class="cls-6" d="M170.13,40.89c7.31-2.13,11.43,3,12.59,3.43.6-.24,2.09-1.57,2-2.28-.2-1.42-5.08-4.18-7.84-4.81a15.37,15.37,0,0,0-13.2,3.15c-.59.53-1.92,1.32-1.3,2.33C164.63,46.37,165,42.38,170.13,40.89ZM179.45,48c1.72-2.27-4.5-4.56-7.77-3.79a7.73,7.73,0,0,0-3.36,1.54c-1.45,1-1.63,1.47-.32,2.81,2.34,2.4,2.36-2.34,7.05-.72a6,6,0,0,1,1.57.83C177.26,49.13,177.91,50,179.45,48Zm-6.17,2.71a2.08,2.08,0,1,0,2,2.08A2.06,2.06,0,0,0,173.28,50.69Zm37.36,34.92c-2.19,2.25-2,4.61-1.7,8.22a13.65,13.65,0,0,1-5.3,3.12,20.45,20.45,0,0,1-7.75.64c-6.78-.65-4.61-2.52-11.53-5.8-5.51-2.62-8.2-1.46-9-3.85-1.1-3.56,4.61-3.72,8.16-4.69,4.41-1.2,16.37-4.49,17.94-7.86,1.34-2.87,3.56-16.29,2.38-19-.38-.88-1.85-1.21-2.86-1.48a51.33,51.33,0,0,0-7.39-1.24c-4.35-.47-12-1.28-16.28-1v.08a4.12,4.12,0,1,1-8.23,0v0c-4.23-.19-22.65.75-25.91,3.11-2.42,1.77.87,17.71,1.87,19.52,1.53,2.82,7.43,4.52,10.64,5.62a119.23,119.23,0,0,0,12.44,3.56c3.67.73,3.66,4.63,0,5.4a23,23,0,0,0-4.12,1.3,26.41,26.41,0,0,0-6.69,4.16c-1.25,1.17-1.19,1.4-3.34,1.86a21,21,0,0,1-5,.41,15.12,15.12,0,0,1-8.4-2.37c-4.25-2.91-.93-3.15-2.81-7.48-4.32-10-18.79-3.8-15.21,6.09a8.12,8.12,0,0,0,10.09,5.14c2.41-.76,1.65-2.39,7.39.53a53,53,0,0,1,9.77,6.49c-1.24,4.81-2.59,10.78-1.14,17.68-2.9-1.46-5.82-4.36-10-3-4,1.33-3.18,7.14-1.45,10.56,2.2,4.34,7,9.61,11.7,10.7a15.91,15.91,0,0,0,6.76.35c2.09-.4,3.9-1.37,7.48-2.9l8.59-4.33h-.15c-10.73-.41-22.11-6.53-16.21-25.78,1.47-4.81,7.64-12.65,16.37-13.23,4.85-.33,9.64.33,12.76,2.53a16.46,16.46,0,0,1,5.34,6c.15.3.36.65.53,1,.43,1,.41,1-.36,1.22l-5.64,1.92c-2.83.7-4-1-4.82-1.92-3.67-4.2-8.38-3.32-11.93-.25-3.77,3.24-6.17,11.61-3.39,16.7,1.43,2.59,4.47,4.33,8.81,4.1,4.57.16,10.15-5.26,10.86-8.28H172.85l17.92-7.33c1.51-.47,1.41,1.08,1.25,2.79a46,46,0,0,1-3.48,12.08L198,122c.67-1.73.94-5.9.86-8-.13-3.13-.84-4.82-1.34-7.48,1-1,11.05-7.42,12.28-7.92,2.17-.88,1.75-.81,3.6.07a8,8,0,0,0,10.43-3.35C228.44,87.12,218.19,77.88,210.64,85.61ZM131.19,94.9c-5.3,1.08-6.33-6.68-1.56-7.65S136,93.93,131.19,94.9Zm20.89-25.6c-1.33-.41-2.46-.86-2.74-2.44a10.27,10.27,0,0,1-.21-2.9c.34-2.25,5.25-2.17,7.91-2.3C156.52,62.67,152.5,68.85,152.08,69.3Zm5.13,2.29c.52-1.14,4.57-8.13,5.54-10l3.73-.22-6.6,11.31Zm12.85,3.78c-2.73-.45-5.09-1.29-7.51-1.76.33-1.16,6.43-11.49,7.19-12.4,7.49-.07,16.4-.15,23.49.68,4,.47,4.73-1.13,4.29,3.48-.2,2.06-.29,2.72-1.48,3.35-3.86,2-13.54,4.87-17.83,6C175,75.53,173.65,76,170.06,75.37Zm47.46,19.51c-5.06.84-6.3-6.61-1.36-7.63a3.78,3.78,0,0,1,4.37,3A3.89,3.89,0,0,1,217.52,94.88ZM204.3,122.35c-4.09,2.12-16.41,8.42-16.41,8.42-5.57,2.9-21,11.28-24.48,11.7,1.44.39,29.58.22,33.72.23,1.78,0,3.82.15,5.37-.54,5.22-2.31,14.1-14.19,10.8-19.51C211.4,119.6,207.29,120.81,204.3,122.35Z"/></g></g></svg>