<svg xmlns="http://www.w3.org/2000/svg" viewBox="0 0 99.9 108.71"><defs><style>.cls-1{fill:#dcfafa;}.cls-1,.cls-2,.cls-3,.cls-4{stroke:#00ca80;}.cls-1,.cls-2,.cls-4{stroke-miterlimit:10;stroke-width:4px;}.cls-2,.cls-4{fill:#fff;}.cls-3{fill:none;stroke-linejoin:round;stroke-width:7px;}.cls-3,.cls-4{stroke-linecap:round;}.cls-5{fill:#00bf79;}</style></defs><title>icon_1-3</title><g id="Слой_2" data-name="Слой 2"><g id="Режим_изоляции" data-name="Режим изоляции"><path class="cls-1" d="M69.68,58.56a8.27,8.27,0,0,0-8.27-8.27h-41a8.28,8.28,0,0,0-8.28,8.27v4.75H69.68Z"/><path class="cls-2" d="M12.17,63.31V84.47a22.25,22.25,0,0,0,22.25,22.24h13A22.24,22.24,0,0,0,69.68,84.47V63.31Z"/><path class="cls-3" d="M58.43,47.57V39.64a19,19,0,0,1,19-19h0a19,19,0,0,1,19,19v9"/><line class="cls-4" x1="2" y1="36.18" x2="18.28" y2="36.18"/><line class="cls-4" x1="41.61" y1="2" x2="41.61" y2="18.28"/><line class="cls-4" x1="13.37" y1="10.66" x2="25.33" y2="22.62"/><circle class="cls-5" cx="40.93" cy="77.27" r="5.56"/><path class="cls-5" d="M40.93,80.94h0a2.15,2.15,0,0,0-2.08,1.62l-2.18,8.6a2.14,2.14,0,0,0,2.08,2.67h4.36a2.14,2.14,0,0,0,2.07-2.67L43,82.56A2.15,2.15,0,0,0,40.93,80.94Z"/></g></g></svg>