<svg xmlns="http://www.w3.org/2000/svg" viewBox="0 0 90.65 104"><defs><style>.cls-1{fill:#dcfafa;}.cls-1,.cls-2,.cls-3,.cls-4{stroke:#00ca80;}.cls-1,.cls-2,.cls-4{stroke-miterlimit:10;}.cls-1,.cls-2,.cls-3{stroke-width:4px;}.cls-2,.cls-4{fill:#fff;}.cls-3{fill:none;stroke-linejoin:round;}.cls-3,.cls-4{stroke-linecap:round;}.cls-4{stroke-width:2px;}</style></defs><title>icon_1-1</title><g id="Слой_2" data-name="Слой 2"><g id="Режим_изоляции" data-name="Режим изоляции"><path class="cls-1" d="M88.65,93.6c0-6.53-19.4-18.35-43.33-18.35S2,87.07,2,93.6,21.4,102,45.32,102,88.65,100.13,88.65,93.6Z"/><path class="cls-1" d="M83.32,61c0-21-17-59-38-59s-38,38-38,59,17,27,38,27S83.32,82,83.32,61Z"/><path class="cls-2" d="M67.22,31c-9.35-10-18.78,2-21.9,5-3.11-3-12.54-15-21.9-5-4.15,5-3,13-2,16s-2.07,20,8.32,28,9.35,9,11.43,10a10.68,10.68,0,0,0,4.15,1,10.71,10.71,0,0,0,4.16-1c2.08-1,1-2,11.43-10s7.27-25,8.31-28S71.38,36,67.22,31Z"/><path class="cls-3" d="M26.82,42.5c1-1,8-5,16,2"/><path class="cls-4" d="M29.82,49.5c3-1,7-2,10,0"/><path class="cls-3" d="M31.82,64.5c1,3,1,3,3,4s8,0,8,0l3-4"/><path class="cls-3" d="M64.82,42.5c-1-1-8-5-16,2"/><path class="cls-4" d="M61.82,49.5c-3-1-7-2-10,0"/><path class="cls-3" d="M59.82,64.5c-1,3-1,3-3,4s-8,0-8,0l-3-4"/><line class="cls-3" x1="45.82" y1="75.5" x2="45.82" y2="85.5"/></g></g></svg>