<svg xmlns="http://www.w3.org/2000/svg" viewBox="0 0 82 95.62"><defs><style>.cls-1{fill:#dcfafa;}.cls-1,.cls-2,.cls-3{stroke:#00ca80;stroke-miterlimit:10;}.cls-1,.cls-3{stroke-width:4px;}.cls-2,.cls-3{fill:#fff;}.cls-2{stroke-width:3px;}.cls-3{stroke-linecap:round;}</style></defs><title>icon_1-2</title><g id="Слой_2" data-name="Слой 2"><g id="Слой_1-2" data-name="Слой 1"><path class="cls-1" d="M76.66,16.56S64,14.85,58,11.85A138.85,138.85,0,0,1,43.92,2.92a5.08,5.08,0,0,0-5.84,0A138.85,138.85,0,0,1,24,11.85c-6,3-18.66,4.71-18.66,4.71A5.22,5.22,0,0,0,2,21.42V54.85c0,4,2,14,14,24,10.16,9.37,19.71,13.25,23.4,14.5a4.88,4.88,0,0,0,3.2,0c3.69-1.25,13.24-5.13,23.4-14.5,12-10,14-20,14-24V21.42A5.22,5.22,0,0,0,76.66,16.56Z"/><circle class="cls-2" cx="41" cy="46.85" r="20"/><polyline class="cls-3" points="32.5 48.34 39.5 56.34 55.5 35.34"/></g></g></svg>