<svg xmlns="http://www.w3.org/2000/svg" viewBox="0 0 141 141"><defs><style>.cls-1{fill:#e8e8e8;}.cls-2{fill:none;stroke:gray;stroke-miterlimit:10;stroke-width:2px;}.cls-3{fill:#3cd189;}.cls-4{fill:#fff;}</style></defs><title>Icon_3-4</title><g id="Слой_2" data-name="Слой 2"><g id="Слой_1-2" data-name="Слой 1"><path class="cls-1" d="M119.82,71c-.21,1-.45,1.88-.58,2.8-.34,2.21-2,3.23-3.69,4.26a2.88,2.88,0,0,0-1,.94c-1,1.75-1.87,3.54-2.86,5.29-.35.62-.55,1.17,0,1.76,1.33,1.52.85,3.36.87,5.1,0,.2-.31.45-.53.61-1,.71-2,1.4-3,2.09a3,3,0,0,0-1,2.52c-.13,1.71-1.14,3-1.89,4.45-.9,1.73-1.85,3.44-2.75,5.17a1.41,1.41,0,0,1-1.3.88,37.86,37.86,0,0,1-4.5.27,2.13,2.13,0,0,1-1.51-1.4,6.47,6.47,0,0,0-1.19-3.24,6,6,0,0,1-1.3-3.76,6.1,6.1,0,0,0-.76-2.11c-.81-1.77-1.8-3.51-1-5.56.23-.61.53-1.19.75-1.8a2,2,0,0,0,.2-1,18.18,18.18,0,0,0-2.57-6.63c-1-1.38-.93-2.13.11-3.44.51-.66.5-1-.28-1.32-.16-.06-.4-.18-.42-.31-.16-1-.92-.75-1.55-.91a13.85,13.85,0,0,1-1.62-.75,3.52,3.52,0,0,0-1.55-.43c-1,.11-1.89.48-2.84.67-1.59.32-3.18.63-4.78.85a2.06,2.06,0,0,1-1.32-.38A9.35,9.35,0,0,1,74,74a2.89,2.89,0,0,1-.52-1.46,1.37,1.37,0,0,0-.94-1.26c-1.7-.64-1.83-2.26-2.26-3.66-.08-.25.18-.68.39-.92A1.41,1.41,0,0,0,71,65.26a6.36,6.36,0,0,1,2.13-6.71,7.36,7.36,0,0,0,2.51-3.41,4.33,4.33,0,0,1,1.53-2.32c.71-.58,1.37-1.23,2.08-1.81.17-.14.62-.25.66-.19.71,1.1,1.8.67,2.68.56,1.86-.22,3.69-.66,5.52-1a7.41,7.41,0,0,0,1.07-.42c.66-.24,1.1.07,1,.75a2.22,2.22,0,0,0,.9,1.91L92.62,54a1,1,0,0,0,.42.3c1,.2,2,.4,3,.53.49.06.83-.17,1-.73a5,5,0,0,1,1-1.23c1.42.84,2.5,1.76,4.21,1.46a9.58,9.58,0,0,1,3.32.41,2.23,2.23,0,0,0,2.72-2.53L108,50.31a6.3,6.3,0,0,0-1.87.32,2.23,2.23,0,0,1-2.69-.25,4.52,4.52,0,0,1-2.12-2.88,1.26,1.26,0,0,0,1.71-1c-1.05.17-2.05.25-3,.5a1.08,1.08,0,0,0-.85,1.48c.09.31,0,1-.16,1-.54.17-.94-.11-1.11-.7-.06-.21-.29-.39-.45-.57S97,48,97,47.83c.08-1-.77-1.61-1.24-2.35a1.29,1.29,0,0,0-.9-.45A2.23,2.23,0,0,1,93,44a1.66,1.66,0,0,0-.64-.6c-.29-.11-.86-.15-.92,0-.16.31-.28.91-.11,1.08a15.49,15.49,0,0,0,2.24,1.8,2.64,2.64,0,0,1,1.31,1.55c-1.5.66-2.09.43-2.94-.79a18.77,18.77,0,0,0-2.18-2.53c-.81-.81-1.73-.44-2.25.9a4.29,4.29,0,0,0-.64-.17A1.58,1.58,0,0,0,85,46a14.32,14.32,0,0,1-1.52,2.25,2.76,2.76,0,0,1-1.3,1,41.08,41.08,0,0,1-4.29.48.81.81,0,0,1-.58-.33,4.42,4.42,0,0,1,.38-3.87,2,2,0,0,1,1.71-.73c.82,0,1.65,0,2.48,0,.46,0,.58-.17.73-.64.53-1.62-.72-2-1.67-2.57a1.15,1.15,0,0,1-.43-.61,7.92,7.92,0,0,1,1.57-.36,3.47,3.47,0,0,0,3.14-1.77,2.83,2.83,0,0,1,2.38-1.8c.87-.08,1.28-.74,1.38-1.62a5.7,5.7,0,0,1,.4-1.23l.28,0a6.05,6.05,0,0,1,.54,1.08c.36,1.2,1,1.65,2.19,1.43l3.13-.62c.47-.48.87-.88,1.25-1.3.22-.25.35-.58.59-.81A4.47,4.47,0,0,1,98.76,33c.2-.06.66.64,1,1a1.49,1.49,0,0,1,.17.31,3,3,0,0,0,.92-3,15.35,15.35,0,0,1-1.79.22,3.66,3.66,0,0,1-1.3-.25c-.89-.37-1-1.06-.5-1.86.31-.46.55-1,.88-1.58a2,2,0,0,0-2.08.9,5.56,5.56,0,0,0-1.51,2.54,11.09,11.09,0,0,1-1.2,2.82,1.31,1.31,0,0,1-2.27-.13c-.14-.29-.31-.56-.38-.69l-2.91.15c-.09,0-.24,0-.25,0a12.06,12.06,0,0,1-.47-2c0-.23.35-.66.61-.72a6.11,6.11,0,0,0,3.26-2.31,9.89,9.89,0,0,1,9.36-3.41,48.46,48.46,0,0,1,5.93,1.76c.09,0,.16.15.33.31-1.27.87-2.49.05-3.68.05.16.77,1.59,2.31,2.26,2.24.46-.05.88-.53,1.3-.83.23-.16.42-.38.65-.54.47-.32,1-.6,1.43-.92.3-.2.57-.44.85-.66l.07.31c.28.17.72.53.79.46,1.22-1,2.71-.56,4.06-.82.78-.15,1.53-.44,2.31-.53a1.46,1.46,0,0,1,1.06.43A64.31,64.31,0,0,1,126.59,38a65.38,65.38,0,0,1,7.62,19.49c.32,1.45.52,2.94.79,4.44a2.75,2.75,0,0,1-2.68-1.11,3.36,3.36,0,0,0-3.12-1.37,18.54,18.54,0,0,1-9-2.59c-1-.56-2.15-1-3.32-1.45a3.1,3.1,0,0,0,.91,3c.64.56,1.19,1.24,1.83,1.8.16.14.53.1.78,0,.76-.16,1.49-.39,2.25-.55a1.41,1.41,0,0,1,1.65.7,10.83,10.83,0,0,0,1.4,1.48c.64.66.54.81-.15,1.31-1.36,1-2.59,2.14-3.95,3.12a22.94,22.94,0,0,1-3.83,2.36c-1,.46-2.4-.63-2.82-1.71a24.66,24.66,0,0,0-1.55-3,13.24,13.24,0,0,1-1-1.67,3.82,3.82,0,0,0-2-2.46,2.76,2.76,0,0,1-1.51-1.73c-.34-.91-.76-1.79-1.15-2.7-.79.17-.85.57-.67,1.34.63,2.71,2.35,4.83,3.73,7.13A21.91,21.91,0,0,1,113.76,70a2.83,2.83,0,0,0,.52,1.11c.18.21.67.45.81.36,1.12-.76,2.36-.32,3.55-.43C119.07,71,119.5,71,119.82,71Z"/><path class="cls-1" d="M48.92,36.94A6.23,6.23,0,0,1,45,38.76c-2.16,0-4,1.13-6,1.8a1,1,0,0,0-.54.73l2.25-.2c.47-.05.81,0,.79.64,0,.19.31.43.52.58s.72.44,1.27.77c-1.45.35-2.16,1.83-3.9,1.4l1.28-1.27c-.35-.61-.88-.54-1.39-.24s-1.07.75-1.62,1.09c-.84.52-1.71,1-2.56,1.53a4.34,4.34,0,0,0-.73.63,23,23,0,0,1-1.62,1.65,3.46,3.46,0,0,1-1.26.52c-.62.16-1.09.38-1.06,1.16a2.68,2.68,0,0,1-1.63,2.7,24.68,24.68,0,0,0-2.21,1.31,2.63,2.63,0,0,0-1,3.41,4.45,4.45,0,0,1-.07,2c0,.16-.48.36-.72.34a.85.85,0,0,1-.59-.5c-.23-.88-.38-1.78-.58-2.67a6,6,0,0,0-.38-.82l-.22,1.46c-.37-.44-.61-.72-.83-1-.76-1-1.54-1-2.31,0-.37.44-.78.86-1.22,1.34-.16-.25-.24-.4-.34-.53a1.88,1.88,0,0,0-3.11-.13c-.68.75-1.38,1.47-2.11,2.16a1.64,1.64,0,0,0-.55,2,9.5,9.5,0,0,1,.2,2.09,2.57,2.57,0,0,0,2.49,2.54,1.64,1.64,0,0,0,1.9-1,2.74,2.74,0,0,1,.4-.88c.33-.3.82-.72,1.17-.67.65.11.51.78.4,1.26s-.4,1.11-.56,1.68c-.23.76,0,1.1.79,1.21h.27c2.09.17,2.23.33,2.18,2.4a8.54,8.54,0,0,0,.07,1.6c.15,1,.93,1.31,1.88,1a3.85,3.85,0,0,1,2.11.19,1.38,1.38,0,0,0,1.78-.72,2.22,2.22,0,0,1,2.18-.93l-.6,1.23,1.23.57,1.13-2.38c1.23,1.5,2.7,1.59,4.24,1.69A4.08,4.08,0,0,1,38,72.54a15.51,15.51,0,0,0,5,2.68,3.93,3.93,0,0,1,1.46,1,9.06,9.06,0,0,1,1.06,1.53c.61,1,.5,1.35-.52,1.89l-.64.34c.81.72,1.74-.91,2.39.3a2.13,2.13,0,0,0-.2.4c0,.13-.06.32,0,.39a.39.39,0,0,0,.38,0,5.74,5.74,0,0,0,.66-.43,1.57,1.57,0,0,1,2.18.61c.23.75.71.6,1.09.41a2,2,0,0,1,1.82,0c1.15.53,2.37.91,3.53,1.41a1.12,1.12,0,0,1,.66.69,6.32,6.32,0,0,1-2.15,5.9,1.67,1.67,0,0,0-.44,1c-.14,1.35-.15,2.72-.34,4.07a8.33,8.33,0,0,1-.76,2,1.46,1.46,0,0,1-1.52,1c-1.57,0-3.62,2.4-3.83,4-.32,2.26-1.22,4.28-3.37,5.38-.54.28-1.35,0-2.23,0a11.52,11.52,0,0,0,.6,1.3c.57,1,.56,1-.35,1.58a13.9,13.9,0,0,0-1.58,1.29,1.91,1.91,0,0,0-.76,2.11c.13.47-.18,1.06-.26,1.61a4,4,0,0,0,0,1c.17,1.58.38,3.16.57,4.71a2.36,2.36,0,0,1,1.49,2.55,1.88,1.88,0,0,1-2.07-.74,4.37,4.37,0,0,0-1.53-1.28A4.42,4.42,0,0,1,35.84,119c-.23-.54-.64-1-.91-1.51a2.28,2.28,0,0,1-.25-.88c-.07-.81,0-1.65-.16-2.45a1.93,1.93,0,0,0-.78-1.05c-.9-.57-.72-1.53-.73-2.26,0-4.41-.91-8.79-.56-13.23a4.14,4.14,0,0,0-3.09-4.43A1.78,1.78,0,0,1,28,91.39a2.9,2.9,0,0,0-1.45-2.29A10.7,10.7,0,0,1,25,87.37a7,7,0,0,1-1.07-1.72,7.8,7.8,0,0,1-.33-1.94c0-.28.08-.6,0-.84a4.22,4.22,0,0,1,.7-3.92c.55-.9,1.1-1.82,1.56-2.77a2.53,2.53,0,0,0-.16-2.4c-.52-1-.86-1-1.91-.69a1.9,1.9,0,0,1-1.18,0,6.06,6.06,0,0,1-3.21-3,1.94,1.94,0,0,0-1.61-1,3.32,3.32,0,0,1-2.27-1,3.32,3.32,0,0,0-2.8-1.1,1.49,1.49,0,0,1-.7-.07,42.2,42.2,0,0,1-4.18-2.29,2.89,2.89,0,0,1-1.11-3.06A62.69,62.69,0,0,1,11.4,45c1.13-2.53,2.53-4.94,3.86-7.38a56,56,0,0,1,6.51-9.09c.43-.52.83-1,1.53-.39a.79.79,0,0,0,.51.11,35,35,0,0,0,6.63-1A4.52,4.52,0,0,0,33.67,24c.69-2.18.69-2.17,2.88-1.6.44.12.9.2,1.38.31l-2.51,1L37.2,26l3.62-.4A12.32,12.32,0,0,1,39.9,27a1.66,1.66,0,0,1-.85.54c-1.21.23-2.44.38-3.67.57-.13,0-.34.08-.38.17-.54,1.34-1.82,1.32-2.93,1.59a8.51,8.51,0,0,0-3.72,2.29,1.7,1.7,0,0,0-.05,2.14.68.68,0,0,0,.26.22c.67.25,1.36.47,2,.72.83.31,1.65.64,2.46.95l-.53,2.36a1.29,1.29,0,0,0,1.56-.61c1.47-2,3-4.07,4.45-6.07a3.36,3.36,0,0,1,4.06-.7c.31.23.35.81.48,1.51l3.51-.58C46.37,34,46.26,36,48.92,36.94Z"/><path class="cls-1" d="M79.86,18.35c-.79.08-1.43.12-2,.21-1.06.15-2,.38-2.12,1.76a1.8,1.8,0,0,1-1.24,1.48c-.93.39-1.83.88-2.88,1.39l2.19,1.33c-1.19.28-2.2.62-2.85-.89l-.12.36.85,1.3c-1.42.34-2.82.63-4.19,1a6.16,6.16,0,0,0-2.27,1,7.45,7.45,0,0,1-4.12,1.64.83.83,0,0,0-.85.8A3.7,3.7,0,0,1,57.11,32a2.7,2.7,0,0,1-1.86-2.14,3.84,3.84,0,0,1,1.22-3.57,2.69,2.69,0,0,0-.68-4.34,6.47,6.47,0,0,0-3.28-1.23c-.4,0-.8-.37-1.38-.66,1.5-.2,2.77-.32,4-.56a10.91,10.91,0,0,0,2.33-.75,10.36,10.36,0,0,1,6.15-.62,34.53,34.53,0,0,0,3.53.31.86.86,0,0,0,.52-.07c1.33-1.14,3-.7,4.54-1.16s2.85.23,4.27.4c1,.12,2,.32,3,.5C79.55,18.11,79.63,18.2,79.86,18.35Z"/><path class="cls-1" d="M40.15,21.45a1.3,1.3,0,0,1,1.67-.63,11.93,11.93,0,0,0,1.52.44,8.83,8.83,0,0,0,1.59-.05c-.18.8-.73.95-1.36,1s-.93.06-.77.65c1.77.55,3.47,1.1,5.19,1.59.53.15.7.38.54.88,0,.09,0,.18,0,.27-.23,1.4-.09,1.63,1.49,1.88a4.78,4.78,0,0,1-1,.81c-.57.23-1.19.31-1.77.52s-1.3.13-1.3,1.05c0,.16-.3.44-.48.46a5.21,5.21,0,0,1-1.81-.06,1.21,1.21,0,0,1-.63-1,1.87,1.87,0,0,1,.85-1.13,5.65,5.65,0,0,1,1.52-.39,4.26,4.26,0,0,0,.62-.26,2.68,2.68,0,0,0-.37-.64A6.48,6.48,0,0,0,41.44,25c-1.06-.1-2.13-.21-3.18-.39-.3-.06-.73-.33-.79-.59a.78.78,0,0,1,.75-1C38.8,23,39.4,23,40,22.87a4.92,4.92,0,0,0,1-.39Z"/><path class="cls-1" d="M118.89,89.4a6.19,6.19,0,0,1,.07,4.78c-.71,1.63-1.22,3.36-1.93,5a1.39,1.39,0,0,1-2.36.23c-1.21-1.31-1.27-1.89-.09-3.31a1.8,1.8,0,0,0,.31-1.86,1.68,1.68,0,0,1,1.17-2c.12,0,.28,0,.34-.07C117.24,91.27,118.07,90.33,118.89,89.4Z"/><path class="cls-1" d="M56.75,17a7.36,7.36,0,0,1-3.87,1.83,16.23,16.23,0,0,0-6.13,2.35c-.49.29-.9.38-1.3-.19a1.59,1.59,0,0,0-.89-.43,5,5,0,0,1-1.36-.37,2,2,0,0,1,.48-.35c.59-.17,1.2-.3,1.8-.46.2,0,.47-.11.54-.25.8-1.6,2.32-1.35,3.7-1.48a4.11,4.11,0,0,0,1.55-.19c1.54-.79,3.23-.28,4.8-.65C56.22,16.8,56.39,16.92,56.75,17Z"/><path class="cls-1" d="M77.48,38.72c-.1-.88,1-1.54.06-2.22a1.93,1.93,0,0,1,2.19-.94c.73.06,1.1-.09,1.09-.94,0-.35.37-.73.64-1,.08-.09.49,0,.61.12a.74.74,0,0,1,.19.66c-.23.48,0,.7.36.91.17.1.4.25.44.41a2.84,2.84,0,0,0,1.85,2.11c-.83,1.36-2.86,2.12-3.65,1.45l.69-.47C81,37.45,81,37.45,82,36.5c-.61-.17-1.18-.55-1.53-.4-1.09.47-1.15.79-.71,1.82Z"/><path class="cls-1" d="M73.59,30.06c-.7-.43-1.28-.77-1.85-1.15,0,0,.09-.4.21-.45a7.17,7.17,0,0,1,.94-.23,22.57,22.57,0,0,1,2.29-.58,3.48,3.48,0,0,1,1.25.29c-.15.34-.22.82-.48,1A23.42,23.42,0,0,1,73.59,30.06Z"/><path class="cls-1" d="M47.79,39.62a2.62,2.62,0,0,1,.71.44c.2.25.49.74.4.85a1.65,1.65,0,0,1-1,.62,11.49,11.49,0,0,1-2.11-.11c-.17,0-.45-.16-.46-.27a.74.74,0,0,1,.27-.51c.5-.43,1-.86,1.56-1.25a1.45,1.45,0,0,1,1-.22Z"/><circle class="cls-2" cx="70.5" cy="70.5" r="69.5"/><path class="cls-3" d="M120.23,52.84c0,7-7.59,14.23-7.59,14.23S105,59.86,105,52.84a7.6,7.6,0,1,1,15.19,0Z"/><circle class="cls-4" cx="112.3" cy="53.02" r="2.76"/><path class="cls-3" d="M108.4,27c0,7-7.6,14.24-7.6,14.24S93.2,34.06,93.2,27a7.6,7.6,0,0,1,15.2,0Z"/><circle class="cls-4" cx="100.46" cy="27.21" r="2.76"/><path class="cls-3" d="M66.33,16.12c0,7-7.6,14.23-7.6,14.23s-7.6-7.21-7.6-14.23a7.6,7.6,0,0,1,15.2,0Z"/><circle class="cls-4" cx="58.4" cy="16.29" r="2.76"/><path class="cls-3" d="M43.2,30.23c0,7-7.6,14.23-7.6,14.23S28,37.25,28,30.23a7.6,7.6,0,0,1,15.2,0Z"/><circle class="cls-4" cx="35.26" cy="30.4" r="2.76"/><path class="cls-3" d="M28.25,56.27c0,7-7.6,14.23-7.6,14.23s-7.6-7.21-7.6-14.23a7.6,7.6,0,0,1,15.2,0Z"/><circle class="cls-4" cx="20.32" cy="56.44" r="2.76"/><path class="cls-3" d="M59.21,71.73c0,7-7.6,14.23-7.6,14.23S44,78.75,44,71.73a7.6,7.6,0,1,1,15.19,0Z"/><circle class="cls-4" cx="51.28" cy="71.91" r="2.76"/></g></g></svg>