<svg xmlns="http://www.w3.org/2000/svg" viewBox="0 0 157.7 129.12"><defs><style>.cls-1{fill:#3cd189;}.cls-2,.cls-5{fill:#fff;}.cls-2,.cls-4,.cls-5{stroke:#a1a1a1;}.cls-10,.cls-2,.cls-3,.cls-6,.cls-7{stroke-miterlimit:10;}.cls-10,.cls-2,.cls-3,.cls-4,.cls-5,.cls-9{stroke-width:2px;}.cls-3{fill:#ededed;}.cls-10,.cls-3{stroke:gray;}.cls-10,.cls-3,.cls-4,.cls-5,.cls-9{stroke-linecap:round;}.cls-10,.cls-4,.cls-6,.cls-7,.cls-9{fill:none;}.cls-4,.cls-5,.cls-9{stroke-linejoin:round;}.cls-6,.cls-7{stroke:#fff;}.cls-6{stroke-width:3px;}.cls-7{stroke-width:0.75px;}.cls-8{fill:#7d7d7d;}.cls-9{stroke:#3cd189;}</style></defs><title>Icon_3-1</title><g id="Слой_2" data-name="Слой 2"><g id="Слой_1-2" data-name="Слой 1"><path class="cls-1" d="M124.23,54.43l1-2.66c-.09-3,2.28-14.32,2.08-20.19h0a7.14,7.14,0,0,1,7.12,7.11v8.72C134.44,53.21,128.14,54.43,124.23,54.43Z"/><path class="cls-2" d="M141.85,86c-9-3.47-16.62-4.18-21-5.18-1.79,4.57-10,8-20,8s-18.25-3.48-20-8.06c-4.39,1-12.11,1.69-21.26,5.22-11.35,4.36-14.67,16.75-14.85,27.41,0,6.07,2.68,9.17,6.87,10.38,20,5.76,79.53,5.78,98.79-.13,4.63-1.33,6.81-7,6.22-12.64C156,101,152.36,90.06,141.85,86Z"/><rect class="cls-3" x="108.72" y="103.77" width="22.98" height="11.49"/><line class="cls-4" x1="112.9" y1="99.59" x2="127.52" y2="99.59"/><path class="cls-5" d="M5.59,45.47a28.2,28.2,0,1,1,3,27.87"/><line class="cls-6" x1="30.91" y1="52.07" x2="30.91" y2="33.27"/><path class="cls-1" d="M2.51,63.21a2.62,2.62,0,0,1,.65-.41c.29-.16.5-.26.62-.32l.73-.27a21.22,21.22,0,0,0,2.33-1,8.62,8.62,0,0,0,1.61-1.06,3.87,3.87,0,0,0,1.33-3.29,4.13,4.13,0,0,0-1.25-3,4.55,4.55,0,0,0-3.36-1.25A5,5,0,0,0,.08,55.76c-.14.32,0,.53.31.65l.84.31c.3.1.51,0,.65-.33a3.29,3.29,0,0,1,3.24-2.08A2.58,2.58,0,0,1,7.8,56.92a2.87,2.87,0,0,1-1.2,2.33A13,13,0,0,1,4,60.49c-.63.25-1.12.47-1.49.64a8.83,8.83,0,0,0-1.22.79A3.4,3.4,0,0,0,0,64.8v1.43c0,.39.14.53.53.53H9.09c.4,0,.51-.14.51-.51V65.5c0-.37-.11-.51-.51-.51H2v-.56A1.94,1.94,0,0,1,2.51,63.21Z"/><path class="cls-1" d="M21.52,61.54H19.91V53.25c0-.39-.13-.51-.52-.51h-.83a.85.85,0,0,0-.72.38l-6.78,8.42a1,1,0,0,0-.18.63v.55c0,.37.12.51.51.51h6.76v3c0,.37.12.51.51.51h.74c.38,0,.51-.14.51-.51v-3h1.61c.39,0,.51-.14.51-.51v-.67C22,61.68,21.91,61.54,21.52,61.54Zm-3.37,0H13.09l5.06-6.23Z"/><line class="cls-5" x1="8.45" y1="81.69" x2="8.45" y2="73.33"/><line class="cls-5" x1="17.05" y1="73.22" x2="8.69" y2="73.22"/><line class="cls-5" x1="31.43" y1="56.77" x2="31.43" y2="34.84"/><line class="cls-5" x1="31.43" y1="56.77" x2="44.85" y2="49.1"/><path class="cls-7" d="M125.56,82.75c-1.32,6.33-10.54,12.14-24.44,12.14s-24-5.61-25.07-12.14"/><circle class="cls-8" cx="90.17" cy="41.95" r="2.98"/><path class="cls-9" d="M127.25,32.29a83.17,83.17,0,0,1-.43,10c-1.26,25.42-15.44,23.5-21.17,23.24"/><path class="cls-10" d="M86.69,29.62c20.18-1.41,30.48-8.73,35.67-15.15,4.42-5.45,4.88-9.07,4.88-9.07C106.54,6.77,109.52,1,97,1,66.83,1.81,72.2,35.93,72.2,35.93a5.26,5.26,0,0,0-2-.11c-3.66.53-3.72,4.84-3,9.26.67,4.05,2.56,7.08,5.71,7.08a12.46,12.46,0,0,0,2.21-.09c2.73,12,8,15.44,9.52,17.23,1,2.09,1,6.27,0,9.4-.34,1-1.69,1.6-3.8,2.1,1.74,4.58,10,8.06,20,8.06s18.19-3.45,20-8c-2.24-.5-3.67-1.08-4-2.14a16,16,0,0,1-.44-8.2"/><path class="cls-10" d="M101.67,76.62c-9,.34-12.58-2.56-17-7.32"/><circle class="cls-8" cx="108.31" cy="41.95" r="2.98"/><circle class="cls-1" cx="106.29" cy="62.08" r="4.57"/><path class="cls-10" d="M121.21,15.81c6.11,5.13,6.11,15.77,6.11,15.77-2.41,5.09-6.64,5.52-6.64,5.52s-.3-11.31-5.87-15.84"/><path class="cls-10" d="M98.86,62.14c-4.18.28-6.73-1-7.3-1.9"/></g></g></svg>