<svg xmlns="http://www.w3.org/2000/svg" viewBox="0 0 141.33 122.17"><defs><style>.cls-1,.cls-4{fill:#e8e8e8;}.cls-1,.cls-11,.cls-5{stroke:#a1a1a1;}.cls-1,.cls-2,.cls-3,.cls-5{stroke-miterlimit:10;}.cls-1,.cls-11,.cls-2,.cls-5{stroke-width:2px;}.cls-1,.cls-2,.cls-6{fill-rule:evenodd;}.cls-2,.cls-3,.cls-5{fill:#fff;}.cls-2{stroke:gray;}.cls-3{stroke:#e6e6e6;}.cls-6,.cls-7{fill:#3cd189;}.cls-8{fill:#d9d9d9;}.cls-9{fill:#bfbfbf;}.cls-10{fill:#ededed;}.cls-11{fill:none;stroke-linecap:round;stroke-linejoin:round;}</style></defs><title>Icon_3-3</title><g id="Слой_2" data-name="Слой 2"><g id="Слой_1-2" data-name="Слой 1"><path class="cls-1" d="M115.33,1H90a7,7,0,0,0-7,7v5.67h39.33V8A7,7,0,0,0,115.33,1Z"/><path class="cls-1" d="M80.33,1H55a7,7,0,0,0-7,7v5.67H87.33V8A7,7,0,0,0,80.33,1Z"/><path class="cls-2" d="M50.33,11.67V8a7,7,0,0,0-7-7H8A7,7,0,0,0,1,8V114.17a7,7,0,0,0,7,7H133.33a7,7,0,0,0,7-7V20A8.35,8.35,0,0,0,132,11.67Z"/><rect class="cls-3" x="12.37" y="81.17" width="35.5" height="11"/><rect class="cls-3" x="12.37" y="97.17" width="35.5" height="11"/><rect class="cls-4" x="10.25" y="19.67" width="120.83" height="8"/><circle class="cls-5" cx="30.12" cy="56.39" r="17.72"/><path class="cls-6" d="M38.87,66.43c-2.06,2.52-5.42,2.74-8.75,2.74s-6.7-.3-8.75-2.74c0-.17.48-1.57.49-1.74.15-1.56.26-2.72,1.5-3.3s3.93-1.75,3.93-1.75.9-.31.57-2.13-.87-1.09-1.5-3.11c-.9-.5-1.05-3-.38-3.1,0-4.27,2.4-4.66,4.12-4.66h.14c1.73,0,4.13.39,4.13,4.66.67.08.52,2.6-.38,3.1-.64,2-1.16,1.28-1.5,3.11s.56,2.13.56,2.13,2.7,1.17,3.94,1.75,1.35,1.74,1.5,3.3C38.5,64.81,38.86,66.31,38.87,66.43Z"/><rect class="cls-7" x="60.58" y="100.67" width="7" height="3.67"/><rect class="cls-7" x="81.01" y="94.67" width="7" height="3.38"/><rect class="cls-7" x="70.8" y="89.67" width="7" height="3.38"/><rect class="cls-7" x="91.22" y="82.67" width="7" height="5"/><rect class="cls-7" x="101.44" y="71.67" width="7" height="12.13"/><rect class="cls-7" x="111.65" y="73.67" width="7" height="6.38"/><rect class="cls-7" x="121.87" y="70.67" width="7" height="5"/><path class="cls-8" d="M79.87,37.67A19,19,0,0,0,62.33,49.36l17.54,7.31Z"/><path class="cls-7" d="M87.72,39.38a18.88,18.88,0,0,0-7.85-1.71v19Z"/><path class="cls-9" d="M98.87,56.67A19,19,0,0,0,87.72,39.38L79.87,56.67,93.3,70.1A18.94,18.94,0,0,0,98.87,56.67Z"/><path class="cls-10" d="M62.33,49.36a19,19,0,0,0,31,20.74L79.87,56.67Z"/><line class="cls-11" x1="128.87" y1="55.67" x2="110.87" y2="55.67"/><line class="cls-11" x1="128.87" y1="49.67" x2="110.87" y2="49.67"/><line class="cls-11" x1="128.87" y1="43.67" x2="110.87" y2="43.67"/><rect class="cls-4" x="60.58" y="104.33" width="7" height="4.33"/><rect class="cls-4" x="81.01" y="98.04" width="7" height="10.63"/><rect class="cls-4" x="70.8" y="93.04" width="7" height="15.63"/><rect class="cls-4" x="91.22" y="87.67" width="7" height="21"/><rect class="cls-4" x="101.44" y="83.79" width="7" height="24.88"/><rect class="cls-4" x="111.65" y="80.04" width="7" height="28.63"/><rect class="cls-4" x="121.87" y="75.67" width="7" height="33"/></g></g></svg>