<svg xmlns="http://www.w3.org/2000/svg" viewBox="0 0 168 142.55"><defs><style>.cls-1,.cls-5,.cls-6{fill:none;}.cls-1{stroke:#b5b5b5;}.cls-1,.cls-2,.cls-6{stroke-miterlimit:10;}.cls-1,.cls-2,.cls-5{stroke-width:2px;}.cls-2{fill:#fff;}.cls-2,.cls-5{stroke:gray;}.cls-3{fill:#3cd189;}.cls-4{fill:#e8e8e8;}.cls-5{stroke-linecap:round;stroke-linejoin:round;}.cls-6{stroke:#e6e6e6;}</style></defs><title>Icon_3-2</title><g id="Слой_2" data-name="Слой 2"><g id="Режим_изоляции" data-name="Режим изоляции"><circle class="cls-1" cx="57.76" cy="57.76" r="56.76"/><ellipse class="cls-1" cx="57.76" cy="57.76" rx="33.6" ry="56.76"/><line class="cls-1" x1="1" y1="57.76" x2="114.52" y2="57.76"/><line class="cls-1" x1="8.27" y1="29.61" x2="107.26" y2="29.61"/><line class="cls-1" x1="8.27" y1="85.91" x2="107.26" y2="85.91"/><line class="cls-1" x1="57.76" y1="0.55" x2="57.76" y2="114.07"/><rect class="cls-2" x="30.25" y="65.49" width="107.75" height="76.06" rx="6.5" ry="6.5"/><circle class="cls-3" cx="100.89" cy="118.44" r="10.43"/><circle class="cls-3" cx="117.01" cy="118.44" r="10.43"/><rect class="cls-4" x="31.31" y="73.94" width="105.64" height="12.68"/><line class="cls-5" x1="41.87" y1="128.87" x2="75.67" y2="128.87"/><rect class="cls-4" x="41.87" y="97.18" width="23.24" height="16.11" rx="3.25" ry="3.25"/><circle class="cls-2" cx="134.5" cy="64.05" r="32.5"/><path class="cls-3" d="M143.33,63.57v-.12c2.28-1.12,2.61-3.2,2.61-6.24,0-4.76-2.74-7.35-8.24-7.35V48A1.83,1.83,0,1,0,134,48v1.84H131.3V48a1.84,1.84,0,0,0-3.67,0v1.84H124a1.83,1.83,0,1,0,0,3.66h3.66v21H124a1.84,1.84,0,0,0,0,3.67h3.66v1.83a1.84,1.84,0,0,0,3.67,0V78.24H134v1.83a1.83,1.83,0,1,0,3.66,0V78.24h1.47c5.24,0,7.72-2.8,7.72-7.72C146.89,66.76,146.33,64.45,143.33,63.57Zm-5-10.12q4.44,0,4.44,4.32c0,2.84-1.48,4.28-4.44,4.28H131.3v-8.6Zm.68,21.19H131.3V65.57h7.75c3,0,4.64,1.63,4.64,4.55S142.13,74.64,139.05,74.64Z"/><circle class="cls-6" cx="134.5" cy="64.05" r="27.01"/></g></g></svg>