<svg xmlns="http://www.w3.org/2000/svg" xmlns:xlink="http://www.w3.org/1999/xlink" viewBox="0 0 258.33 258.33"><defs><style>.cls-1{fill:url(#Безымянный_градиент_9);}.cls-2{fill:#8aa9bd;}.cls-3{fill:url(#Безымянный_градиент_49);}.cls-4{fill:url(#Безымянный_градиент_49-2);}.cls-5{fill:url(#Безымянный_градиент_49-3);}.cls-6{fill:url(#Безымянный_градиент_49-4);}.cls-7{fill:url(#Безымянный_градиент_49-5);}.cls-8{fill:url(#Безымянный_градиент_49-6);}.cls-9{fill:url(#Безымянный_градиент_49-7);}.cls-10{fill:url(#Безымянный_градиент_49-8);}.cls-11{fill:url(#Безымянный_градиент_49-9);}.cls-12{fill:url(#Безымянный_градиент_19);}.cls-13{fill:#fff;}</style><linearGradient id="Безымянный_градиент_9" x1="129.17" y1="22.59" x2="129.17" y2="349.98" gradientUnits="userSpaceOnUse"><stop offset="0" stop-color="#fff"/><stop offset="0.56" stop-color="#e8f7ff"/><stop offset="1" stop-color="#fff"/></linearGradient><linearGradient id="Безымянный_градиент_49" x1="189.23" y1="39.67" x2="189.23" y2="230.09" gradientUnits="userSpaceOnUse"><stop offset="0" stop-color="#85dec2"/><stop offset="1" stop-color="#558cad"/></linearGradient><linearGradient id="Безымянный_градиент_49-2" x1="56.77" y1="39.67" x2="56.77" y2="230.09" xlink:href="#Безымянный_градиент_49"/><linearGradient id="Безымянный_градиент_49-3" x1="119.82" y1="39.67" x2="119.82" y2="230.09" xlink:href="#Безымянный_градиент_49"/><linearGradient id="Безымянный_градиент_49-4" x1="79.11" y1="39.67" x2="79.11" y2="230.09" xlink:href="#Безымянный_градиент_49"/><linearGradient id="Безымянный_градиент_49-5" x1="215.23" y1="39.67" x2="215.23" y2="230.09" xlink:href="#Безымянный_градиент_49"/><linearGradient id="Безымянный_градиент_49-6" x1="90.82" y1="39.67" x2="90.82" y2="230.09" xlink:href="#Безымянный_градиент_49"/><linearGradient id="Безымянный_градиент_49-7" x1="149.14" y1="39.67" x2="149.14" y2="230.09" xlink:href="#Безымянный_градиент_49"/><linearGradient id="Безымянный_градиент_49-8" x1="135.86" y1="39.67" x2="135.86" y2="230.09" xlink:href="#Безымянный_градиент_49"/><linearGradient id="Безымянный_градиент_49-9" x1="85.48" y1="39.67" x2="85.48" y2="230.09" xlink:href="#Безымянный_градиент_49"/><linearGradient id="Безымянный_градиент_19" x1="159.95" y1="26.23" x2="159.95" y2="72.73" gradientUnits="userSpaceOnUse"><stop offset="0" stop-color="#e61c7e"/><stop offset="1" stop-color="#fc520f"/></linearGradient></defs><title>Ресурс 1</title><g id="Слой_2" data-name="Слой 2"><g id="Слой_1-2" data-name="Слой 1"><circle class="cls-1" cx="129.17" cy="129.17" r="127.67"/><path class="cls-2" d="M129.17,3a126.17,126.17,0,0,1,89.21,215.38A126.17,126.17,0,0,1,40,40,125.35,125.35,0,0,1,129.17,3m0-3A129.17,129.17,0,1,0,258.33,129.17,129.17,129.17,0,0,0,129.17,0Z"/><path class="cls-3" d="M221.31,130.19c-.39,1.83-.84,3.51-1.1,5.21-.62,4.14-3.74,6-6.89,8a5.3,5.3,0,0,0-1.83,1.75c-1.84,3.27-3.51,6.63-5.35,9.89-.65,1.16-1,2.17-.06,3.28,2.49,2.84,1.58,6.28,1.62,9.53,0,.38-.57.85-1,1.15-1.82,1.32-3.67,2.61-5.52,3.9-1.65,1.15-1.83,3-2,4.71-.23,3.2-2.13,5.63-3.52,8.3-1.69,3.24-3.46,6.43-5.15,9.67a2.62,2.62,0,0,1-2.43,1.65c-2.81.13-5.63.68-8.41.5a4.06,4.06,0,0,1-2.82-2.61c-.4-2.21-.74-4.35-2.22-6.07-1.77-2.05-2.26-4.41-2.42-7a11.7,11.7,0,0,0-1.42-3.94c-1.53-3.31-3.37-6.55-1.92-10.39.43-1.13,1-2.22,1.4-3.36a3.84,3.84,0,0,0,.37-1.9A34,34,0,0,0,165.89,150c-1.76-2.59-1.73-4,.2-6.45,1-1.22.93-1.89-.52-2.45-.3-.12-.74-.34-.78-.58-.3-1.77-1.71-1.41-2.89-1.7a26.7,26.7,0,0,1-3-1.41,6.68,6.68,0,0,0-2.91-.8c-1.79.21-3.51.89-5.29,1.26-3,.6-5.94,1.17-8.94,1.59a3.9,3.9,0,0,1-2.46-.71,17.76,17.76,0,0,1-3.49-3,5.28,5.28,0,0,1-1-2.72,2.6,2.6,0,0,0-1.76-2.37c-3.18-1.19-3.42-4.21-4.23-6.84-.14-.46.34-1.26.74-1.71a2.6,2.6,0,0,0,.61-2.73c-1.4-4.86.28-9.12,4-12.53,1.89-1.74,4-3.66,4.69-6.38a8,8,0,0,1,2.86-4.33c1.33-1.09,2.56-2.29,3.89-3.38.31-.26,1.15-.46,1.22-.35,1.33,2.06,3.38,1.24,5,1,3.47-.42,6.88-1.23,10.31-1.94a14.56,14.56,0,0,0,2-.79c1.23-.45,2.05.13,1.9,1.39-.18,1.57.68,2.61,1.69,3.58s1.83,1.74,2.76,2.59a2,2,0,0,0,.78.57c1.84.37,3.67.75,5.53,1,.92.12,1.55-.3,2-1.35a9.22,9.22,0,0,1,1.79-2.31c2.64,1.57,4.66,3.3,7.86,2.74,2-.34,4.15.35,6.2.75a4.17,4.17,0,0,0,5.09-4.72c-.15-1-.3-2.07-.51-3.5-1.23.2-2.53.1-3.5.62a4.17,4.17,0,0,1-5-.48c-1.86-1.38-3.52-2.81-4-5.39a2.34,2.34,0,0,0,3.2-1.8c-2,.31-3.82.46-5.6.93a2,2,0,0,0-1.59,2.76c.17.58,0,1.8-.31,1.89-1,.33-1.74-.2-2.06-1.3-.12-.4-.55-.73-.85-1.07s-.77-.54-.75-.78c.13-2-1.45-3-2.34-4.4a2.4,2.4,0,0,0-1.68-.84,4.17,4.17,0,0,1-3.47-1.9,2.9,2.9,0,0,0-1.19-1.12c-.54-.2-1.61-.28-1.73,0-.3.59-.51,1.7-.19,2a28.82,28.82,0,0,0,4.18,3.37,4.81,4.81,0,0,1,2.44,2.89c-2.79,1.23-3.9.81-5.49-1.47a34.56,34.56,0,0,0-4.07-4.73c-1.52-1.51-3.23-.82-4.2,1.67a10.91,10.91,0,0,0-1.19-.32c-1.45-.22-2.7-.1-3.53,1.43a27.8,27.8,0,0,1-2.85,4.21A4.92,4.92,0,0,1,151,89.5a79.12,79.12,0,0,1-8,.9,1.45,1.45,0,0,1-1.08-.62c-1-1.54-.53-5.8.71-7.23a3.72,3.72,0,0,1,3.19-1.36c1.54.07,3.09,0,4.63.06.86,0,1.09-.32,1.37-1.19,1-3-1.35-3.69-3.12-4.81a2.17,2.17,0,0,1-.81-1.13,15.47,15.47,0,0,1,2.94-.69c2.55-.11,4.67-1.05,5.86-3.29,1-1.91,2.16-3.17,4.46-3.37,1.62-.14,2.38-1.39,2.56-3a11.74,11.74,0,0,1,.75-2.31l.53.05a11.82,11.82,0,0,1,1,2c.68,2.25,1.87,3.08,4.09,2.67,2.06-.38,4.1-.81,5.85-1.16.87-.89,1.63-1.64,2.34-2.43.41-.47.65-1.09,1.09-1.51a8.4,8.4,0,0,1,2.6-2c.37-.12,1.24,1.18,1.86,1.85a2.57,2.57,0,0,1,.32.57,5.56,5.56,0,0,0,1.73-5.56,28.63,28.63,0,0,1-3.35.4,6.1,6.1,0,0,1-2.42-.47c-1.66-.68-1.94-2-.95-3.46.58-.87,1-1.83,1.65-2.95-2.06-.41-3,.75-3.88,1.68a10.38,10.38,0,0,0-2.83,4.75,20.58,20.58,0,0,1-2.24,5.26,2.45,2.45,0,0,1-4.24-.24c-.26-.54-.58-1.06-.72-1.3l-5.43.29c-.16,0-.44,0-.46-.09a22.78,22.78,0,0,1-.89-3.78c0-.43.67-1.24,1.15-1.34,2.69-.57,4.37-2.4,6.1-4.31,4.68-5.19,10.58-7.55,17.48-6.38,3.77.64,7.39,2.16,11.08,3.3.17.05.3.27.61.57-2.37,1.63-4.65.09-6.88.08.31,1.46,3,4.32,4.24,4.19.85-.09,1.63-1,2.42-1.54.43-.3.78-.72,1.21-1,.88-.6,1.8-1.12,2.67-1.72.56-.38,1.07-.82,1.6-1.24l.13.59c.51.3,1.33,1,1.48.86,2.27-1.92,5.06-1,7.58-1.53,1.45-.28,2.86-.83,4.31-1a2.73,2.73,0,0,1,2,.8A117.86,117.86,0,0,1,234,68.39a121.69,121.69,0,0,1,14.24,36.39c.59,2.73,1,5.49,1.48,8.31-2.14.12-3.83-.36-5-2.07-1.42-2-3.33-2.59-5.82-2.56-6,.05-11.52-2-16.77-4.86-1.93-1-4-1.76-6.21-2.7-.23,2.37,0,4.18,1.69,5.63,1.22,1,2.23,2.3,3.43,3.36a2,2,0,0,0,1.47.08c1.4-.3,2.78-.74,4.18-1a2.65,2.65,0,0,1,3.1,1.3,20,20,0,0,0,2.61,2.77c1.2,1.24,1,1.51-.29,2.45-2.53,1.84-4.83,4-7.37,5.82a41.65,41.65,0,0,1-7.16,4.41c-1.92.87-4.48-1.17-5.26-3.19a48.63,48.63,0,0,0-2.89-5.54,22.32,22.32,0,0,1-1.78-3.14,7.19,7.19,0,0,0-3.77-4.59A5.19,5.19,0,0,1,201,106c-.62-1.7-1.41-3.35-2.14-5.05-1.47.32-1.58,1.06-1.25,2.51,1.18,5.06,4.38,9,7,13.31,2.2,3.65,4.42,7.26,5.43,11.48a5.31,5.31,0,0,0,1,2.06c.33.4,1.25.85,1.5.68,2.1-1.42,4.43-.6,6.64-.8C219.9,130.13,220.71,130.19,221.31,130.19Z"/><path class="cls-4" d="M88.85,66.47c-2.43,2-4.6,3.36-7.34,3.39-4,0-7.47,2.12-11.15,3.37a1.93,1.93,0,0,0-1,1.37l4.2-.38c.88-.08,1.51,0,1.48,1.21,0,.35.58.78,1,1.07.64.46,1.35.82,2.38,1.44-2.72.65-4,3.42-7.3,2.62l2.41-2.37c-.66-1.15-1.65-1-2.61-.45s-2,1.4-3,2c-1.58,1-3.21,1.87-4.78,2.85a7.63,7.63,0,0,0-1.36,1.18c-1,1-1.93,2.17-3,3.08a6.42,6.42,0,0,1-2.36,1c-1.16.32-2,.73-2,2.18a5,5,0,0,1-3.06,5,40,40,0,0,0-4.12,2.46c-2.3,1.52-2.73,3.63-1.81,6.37a8.29,8.29,0,0,1-.15,3.69c0,.29-.89.67-1.34.63a1.56,1.56,0,0,1-1.09-.92c-.44-1.65-.72-3.34-1.09-5a10.75,10.75,0,0,0-.7-1.52l-.43,2.72c-.68-.82-1.13-1.34-1.55-1.88-1.4-1.8-2.87-1.82-4.3-.09-.69.84-1.46,1.61-2.29,2.52-.29-.47-.45-.75-.63-1-1.51-2.12-4-2.19-5.81-.23-1.27,1.39-2.58,2.74-3.94,4a3.06,3.06,0,0,0-1,3.66,18.43,18.43,0,0,1,.38,3.9c.35,2.9,1.78,4.4,4.65,4.75a3.07,3.07,0,0,0,3.54-1.83,4.69,4.69,0,0,1,.76-1.64c.62-.57,1.52-1.36,2.17-1.26,1.23.2,1,1.45.75,2.35-.26,1.07-.74,2.08-1.05,3.14-.41,1.42,0,2,1.49,2.26.16,0,.33,0,.5,0,3.9.31,4.16.61,4.07,4.48a16.59,16.59,0,0,0,.12,3c.29,1.91,1.75,2.44,3.53,2a7.4,7.4,0,0,1,3.93.34c1.63.53,2.55-.12,3.33-1.34s2.15-1.77,4.07-1.73l-1.11,2.31,2.28,1.06,2.12-4.45c2.3,2.8,5,3,7.92,3.15a7.55,7.55,0,0,1,3.86,2,29.27,29.27,0,0,0,9.29,5,7.42,7.42,0,0,1,2.72,1.87,17.51,17.51,0,0,1,2,2.86c1.14,1.78.93,2.52-1,3.53l-1.2.62c1.51,1.36,3.26-1.69,4.46.58a3.71,3.71,0,0,0-.38.75c-.06.22-.1.58,0,.71A.74.74,0,0,0,85,149a12.52,12.52,0,0,0,1.23-.82c1.28-.82,3.66-.28,4.08,1.15s1.32,1.12,2,.77a3.61,3.61,0,0,1,3.41.08c2.16,1,4.43,1.69,6.6,2.62a2.2,2.2,0,0,1,1.24,1.3,11.84,11.84,0,0,1-4,11,3,3,0,0,0-.81,1.79c-.27,2.53-.28,5.09-.65,7.61a14.61,14.61,0,0,1-1.42,3.84,2.68,2.68,0,0,1-2.83,1.92c-2.93-.05-6.76,4.48-7.17,7.39-.58,4.22-2.27,8-6.28,10.07-1,.52-2.53.07-4.18.07a23.9,23.9,0,0,0,1.12,2.43c1.08,1.81,1.06,1.81-.64,3a24.24,24.24,0,0,0-3,2.41c-1.13,1-1.94,2.13-1.43,3.92.25.89-.34,2-.49,3a7.92,7.92,0,0,0-.09,1.94c.33,3,.72,5.89,1.08,8.8,1.8.54,2.92,2.46,2.78,4.75a3.52,3.52,0,0,1-3.88-1.38,8,8,0,0,0-2.85-2.39,8.32,8.32,0,0,1-4.44-4.44c-.42-1-1.18-1.86-1.7-2.83a4.43,4.43,0,0,1-.47-1.63,43.31,43.31,0,0,0-.29-4.58,3.46,3.46,0,0,0-1.46-2c-1.67-1.08-1.33-2.86-1.35-4.23-.11-8.24-1.71-16.42-1.05-24.71.31-4-1.94-7-5.77-8.29a3.28,3.28,0,0,1-2.59-3.38c0-2-1.31-3.13-2.73-4.29a19.08,19.08,0,0,1-2.9-3.24,13.18,13.18,0,0,1-2-3.21,15,15,0,0,1-.62-3.63c-.07-.52.16-1.11,0-1.57-1.06-2.72-.07-5,1.31-7.31,1-1.69,2.05-3.4,2.91-5.18a4.74,4.74,0,0,0-.29-4.48c-1-1.8-1.62-2-3.57-1.29a3.82,3.82,0,0,1-2.22,0c-2.83-.89-4.52-3.17-6-5.52a3.59,3.59,0,0,0-3-1.94,6.25,6.25,0,0,1-4.26-2,6.22,6.22,0,0,0-5.21-2.07,2.59,2.59,0,0,1-1.31-.13A76.64,76.64,0,0,1,12,118.11c-1.86-1.27-2.42-3.27-2.07-5.71a116.46,116.46,0,0,1,8.83-30.92c2.1-4.73,4.71-9.24,7.21-13.79a103.73,103.73,0,0,1,12.15-17c.81-1,1.55-1.78,2.86-.72a1.4,1.4,0,0,0,1,.21c4.14-.52,8.32-.57,12.4-1.88a8.46,8.46,0,0,0,6-5.94c1.28-4.08,1.29-4.07,5.37-3,.84.22,1.68.38,2.59.58l-4.69,1.87L67,46.07l6.77-.74A24.76,24.76,0,0,1,72,47.83a3.17,3.17,0,0,1-1.58,1c-2.27.43-4.57.71-6.86,1.07-.25,0-.64.13-.7.3-1,2.52-3.4,2.48-5.48,3-2.79.67-4.93,2.41-6.95,4.28a3.19,3.19,0,0,0-.09,4,1.16,1.16,0,0,0,.48.4c1.26.47,2.53.89,3.79,1.36,1.55.57,3.09,1.18,4.59,1.76-.29,1.33-.63,2.85-1,4.41a2.4,2.4,0,0,0,2.91-1.13c2.76-3.81,5.51-7.6,8.33-11.35,1.52-2,5.66-2.77,7.58-1.31.58.44.66,1.52.91,2.83l6.54-1.09C84.09,60.93,83.88,64.79,88.85,66.47Z"/><path class="cls-5" d="M146.65,31.74c-1.48.15-2.67.23-3.84.4-2,.28-3.74.7-3.95,3.28a3.36,3.36,0,0,1-2.31,2.77c-1.75.73-3.43,1.63-5.39,2.59l4.09,2.48c-2.22.52-4.11,1.16-5.32-1.66l-.23.68,1.6,2.44c-2.66.63-5.27,1.17-7.83,1.9a11.38,11.38,0,0,0-4.25,1.78,13.87,13.87,0,0,1-7.69,3.06,1.55,1.55,0,0,0-1.59,1.5c-.38,2-3.79,4.38-5.79,4.24-1.44-.09-3.29-2.28-3.47-4A7.13,7.13,0,0,1,103,46.54c2.56-2.36,1.79-6.33-1.26-8.12-1.9-1.11-3.77-2.27-6.14-2.29-.75,0-1.5-.7-2.57-1.23,2.8-.38,5.17-.6,7.5-1a21,21,0,0,0,4.35-1.4,19.33,19.33,0,0,1,11.49-1.16,66,66,0,0,0,6.61.58,1.53,1.53,0,0,0,1-.14c2.48-2.12,5.69-1.3,8.47-2.16s5.33.44,8,.76c1.86.22,3.7.59,5.54.92C146.07,31.28,146.22,31.46,146.65,31.74Z"/><path class="cls-6" d="M72.47,37.54a2.42,2.42,0,0,1,3.11-1.19,22.4,22.4,0,0,0,2.84.83,18.06,18.06,0,0,0,3-.1c-.32,1.5-1.35,1.79-2.53,1.84-.92,0-1.74.11-1.43,1.2,3.31,1,6.48,2.07,9.69,3,1,.28,1.3.71,1,1.65,0,.15,0,.32-.07.49-.45,2.63-.17,3,2.78,3.52A8.93,8.93,0,0,1,89,50.27c-1.06.43-2.24.59-3.32,1s-2.43.25-2.42,2c0,.3-.56.82-.89.85A9.15,9.15,0,0,1,79,54,2.32,2.32,0,0,1,77.83,52a3.53,3.53,0,0,1,1.59-2.1,11.65,11.65,0,0,1,2.86-.74,7.17,7.17,0,0,0,1.15-.48,5,5,0,0,0-.69-1.19c-2.15-2.21-4.91-3-7.88-3.29-2-.19-4-.39-5.92-.74a2.1,2.1,0,0,1-1.49-1.08,1.47,1.47,0,0,1,1.4-1.86c1.09-.15,2.21-.17,3.29-.37A9.66,9.66,0,0,0,74,39.46Z"/><path class="cls-7" d="M219.56,164.49a11.43,11.43,0,0,1,.14,8.91c-1.32,3.06-2.28,6.28-3.6,9.34-.77,1.8-3,1.93-4.41.45-2.26-2.46-2.39-3.54-.18-6.19a3.34,3.34,0,0,0,.59-3.47,3.15,3.15,0,0,1,2.19-3.69c.21,0,.51,0,.63-.13C216.49,168,218,166.22,219.56,164.49Z"/><path class="cls-8" d="M103.48,29.25a13.77,13.77,0,0,1-7.23,3.43,30.58,30.58,0,0,0-11.47,4.39c-.9.54-1.66.7-2.42-.35a3,3,0,0,0-1.65-.82,9.67,9.67,0,0,1-2.55-.69,3.38,3.38,0,0,1,.9-.64c1.11-.33,2.25-.56,3.37-.87.36-.09.87-.2,1-.47,1.5-3,4.34-2.52,6.91-2.75a8.31,8.31,0,0,0,2.91-.36c2.87-1.49,6-.54,9-1.22C102.48,28.84,102.81,29.06,103.48,29.25Z"/><path class="cls-9" d="M142.19,69.8c-.17-1.64,1.81-2.88.13-4.14,1-1.84,2.53-1.89,4.1-1.76,1.35.11,2-.18,2-1.75,0-.66.69-1.39,1.2-2,.15-.16.91,0,1.15.23a1.42,1.42,0,0,1,.35,1.22c-.44.9-.08,1.32.66,1.72.33.17.75.45.84.76a5.31,5.31,0,0,0,3.45,3.95c-1.56,2.53-5.34,4-6.83,2.7l1.3-.88c-1.74-2.46-1.74-2.46.14-4.24-1.14-.33-2.21-1-2.85-.75-2,.89-2.16,1.49-1.33,3.4Z"/><path class="cls-10" d="M134.94,53.61c-1.31-.79-2.4-1.43-3.46-2.14,0,0,.17-.76.39-.85a12.86,12.86,0,0,1,1.76-.41,38.24,38.24,0,0,1,4.27-1.1,6.85,6.85,0,0,1,2.34.55c-.29.63-.4,1.53-.89,1.83A42.75,42.75,0,0,1,134.94,53.61Z"/><path class="cls-11" d="M86.74,71.48a4.82,4.82,0,0,1,1.32.82c.38.47.92,1.39.75,1.6A3.09,3.09,0,0,1,86.92,75,20.86,20.86,0,0,1,83,74.85c-.32,0-.84-.31-.87-.52a1.35,1.35,0,0,1,.51-.94c.94-.81,1.91-1.61,2.92-2.33a2.71,2.71,0,0,1,1.84-.43Z"/><path class="cls-12" d="M158.92,72.36c-.59-.56-14.47-13.88-14.47-27.31a15.5,15.5,0,1,1,31,0c0,13.43-13.88,26.75-14.47,27.31l-1,1Z"/><path class="cls-13" d="M160,31.05a14,14,0,0,1,14,14c0,12.94-14,26.22-14,26.22S146,58,146,45.05a14,14,0,0,1,14-14m0-3a17,17,0,0,0-17,17c0,14.07,14.33,27.82,14.94,28.4l2.06,2,2.06-2c.61-.58,14.94-14.33,14.94-28.4a17,17,0,0,0-17-17Z"/><circle class="cls-13" cx="159.33" cy="45.37" r="5.09"/></g></g></svg>