<svg id="Группа_1" data-name="Группа 1" xmlns="http://www.w3.org/2000/svg" xmlns:xlink="http://www.w3.org/1999/xlink" width="178" height="65" viewBox="0 0 178 65">
  <metadata><?xpacket begin="﻿" id="W5M0MpCehiHzreSzNTczkc9d"?>
<x:xmpmeta xmlns:x="adobe:ns:meta/" x:xmptk="Adobe XMP Core 5.6-c142 79.160924, 2017/07/13-01:06:39        ">
   <rdf:RDF xmlns:rdf="http://www.w3.org/1999/02/22-rdf-syntax-ns#">
      <rdf:Description rdf:about=""/>
   </rdf:RDF>
</x:xmpmeta>
                                                                                                    
                                                                                                    
                                                                                                    
                                                                                                    
                                                                                                    
                                                                                                    
                                                                                                    
                                                                                                    
                                                                                                    
                                                                                                    
                                                                                                    
                                                                                                    
                                                                                                    
                                                                                                    
                                                                                                    
                                                                                                    
                                                                                                    
                                                                                                    
                                                                                                    
                                                                                                    
                           
<?xpacket end="w"?></metadata>
<defs>
    <style>
      .cls-1 {
        fill: #18293f;
      }

      .cls-2 {
        fill: #a5b9d9;
        opacity: 0.7;
      }

      .cls-2, .cls-3, .cls-4, .cls-5, .cls-6, .cls-7 {
        fill-rule: evenodd;
      }

      .cls-3 {
        fill: #eaeaf1;
      }

      .cls-4 {
        fill: url(#linear-gradient);
      }

      .cls-5 {
        fill: url(#linear-gradient-2);
      }

      .cls-6 {
        fill: url(#linear-gradient-3);
      }

      .cls-7 {
        fill: url(#linear-gradient-4);
      }
    </style>
    <linearGradient id="linear-gradient" x1="36.5" y1="46" x2="36.5" y2="19" gradientUnits="userSpaceOnUse">
      <stop offset="0" stop-color="#58e1e8"/>
      <stop offset="1" stop-color="#007290"/>
    </linearGradient>
    <linearGradient id="linear-gradient-2" x1="27.109" y1="46" x2="40.672" y2="32.438" gradientUnits="userSpaceOnUse">
      <stop offset="0" stop-color="#9b1588"/>
      <stop offset="1" stop-color="#ff0016"/>
    </linearGradient>
    <linearGradient id="linear-gradient-3" x1="43.672" y1="36.906" x2="43.672" y2="28.375" gradientUnits="userSpaceOnUse">
      <stop offset="0" stop-color="#ffb368"/>
      <stop offset="1" stop-color="#ff884c"/>
    </linearGradient>
    <linearGradient id="linear-gradient-4" x1="40.578" y1="32.438" x2="27.141" y2="19" gradientUnits="userSpaceOnUse">
      <stop offset="0" stop-color="#cff185"/>
      <stop offset="1" stop-color="#17d9c9"/>
    </linearGradient>
  </defs>
  <rect id="Прямоугольник_скругл._углы_6" data-name="Прямоугольник, скругл. углы 6" class="cls-1" width="178" height="65" rx="6" ry="6"/>
  <path id="Для_Android" data-name="Для Android" class="cls-2" d="M67.152,23.83h-1.12V16.219H60.9l-0.189,3.65a9.858,9.858,0,0,1-.41,2.294,4.482,4.482,0,0,1-.881,1.667h-0.7l0.006,3.018h1.132v-2.1h6.159v2.092h1.126Zm-5.679-1.671a10.639,10.639,0,0,0,.392-2.51l0.124-2.51H64.9V23.83H60.71A5.845,5.845,0,0,0,61.474,22.159Zm7.865-3.748-0.118,2.713a6.836,6.836,0,0,1-.295,2.039,0.9,0.9,0,0,1-.76.609l-0.312.023V24.75H68.29a1.61,1.61,0,0,0,1.412-.732,5.22,5.22,0,0,0,.551-2.338l0.13-2.373h2.169V24.75h1.1V18.41H69.339Zm8.251,0a2.722,2.722,0,0,0-1.751.536,1.711,1.711,0,0,0-.654,1.4,1.843,1.843,0,0,0,.327,1.087,1.9,1.9,0,0,0,.94.688l-1.6,2.631h1.179l1.5-2.467h1.644V24.75h1.1V18.41H77.59Zm-0.949,1.175a1.475,1.475,0,0,1,.966-0.3h1.568v2.1H77.443A1.239,1.239,0,0,1,76.6,21.1,1.02,1.02,0,0,1,76.641,19.585Zm14.1,5.165H91.9l-3.283-8.531h-0.99L84.35,24.75h1.167l0.807-2.232h3.6Zm-2.617-7.143,1.462,3.99H86.667Zm4.762,0.8v6.34h1.09V20.232a1.912,1.912,0,0,1,.625-0.738,1.58,1.58,0,0,1,.931-0.281,1.268,1.268,0,0,1,.964.328,1.455,1.455,0,0,1,.315,1.014v4.2H97.9V20.561q-0.018-2.268-2.039-2.268a2.329,2.329,0,0,0-1.91.914l-0.035-.8H92.885Zm6.395,3.2a3.74,3.74,0,0,0,.7,2.355,2.181,2.181,0,0,0,1.806.9,2.225,2.225,0,0,0,1.821-.8l0.053,0.68h1v-9h-1.09v3.3a2.375,2.375,0,0,0-3.6.126,3.7,3.7,0,0,0-.7,2.347v0.082Zm1.539-1.781a1.457,1.457,0,0,1,1.249-.615,1.6,1.6,0,0,1,1.5.9v2.912a1.591,1.591,0,0,1-1.515.926,1.449,1.449,0,0,1-1.237-.609,2.8,2.8,0,0,1-.448-1.687A3.08,3.08,0,0,1,100.818,19.828Zm8.616-1.453a1.119,1.119,0,0,0-.483-0.082,1.7,1.7,0,0,0-1.521.85l-0.017-.732h-1.061v6.34h1.09v-4.5a1.438,1.438,0,0,1,1.456-.908,3.291,3.291,0,0,1,.536.041V18.375Zm0.6,3.223a3.42,3.42,0,0,0,.8,2.373,2.69,2.69,0,0,0,2.1.9,2.836,2.836,0,0,0,1.524-.41,2.69,2.69,0,0,0,1.019-1.146,3.754,3.754,0,0,0,.357-1.661V21.574a3.433,3.433,0,0,0-.8-2.385,2.7,2.7,0,0,0-2.107-.9,2.8,2.8,0,0,0-1.5.4,2.733,2.733,0,0,0-1.025,1.148,3.721,3.721,0,0,0-.368,1.676V21.6Zm1.591-1.775a1.568,1.568,0,0,1,1.3-.639,1.59,1.59,0,0,1,1.324.648,2.7,2.7,0,0,1,.5,1.69,2.954,2.954,0,0,1-.49,1.814,1.673,1.673,0,0,1-2.637.009,2.7,2.7,0,0,1-.492-1.693A2.932,2.932,0,0,1,111.621,19.822Zm6.766-1.412H117.3v6.34h1.09V18.41Zm-1.017-1.242a0.622,0.622,0,0,0,.481.176,0.631,0.631,0,0,0,.483-0.176,0.617,0.617,0,0,0,.165-0.439,0.638,0.638,0,0,0-.165-0.445,0.62,0.62,0,0,0-.483-0.182,0.611,0.611,0,0,0-.481.182,0.645,0.645,0,0,0-.162.445A0.624,0.624,0,0,0,117.37,17.168Zm2.5,4.441a3.738,3.738,0,0,0,.7,2.355,2.18,2.18,0,0,0,1.806.9,2.225,2.225,0,0,0,1.821-.8l0.053,0.68h1v-9h-1.09v3.3a2.375,2.375,0,0,0-3.595.126,3.7,3.7,0,0,0-.7,2.347v0.082Zm1.539-1.781a1.457,1.457,0,0,1,1.249-.615,1.6,1.6,0,0,1,1.5.9v2.912a1.591,1.591,0,0,1-1.515.926,1.449,1.449,0,0,1-1.237-.609,2.8,2.8,0,0,1-.448-1.687A3.08,3.08,0,0,1,121.405,19.828Z"/>
  <path id="Фигура_1" data-name="Фигура 1" class="cls-3" d="M95.382,50.548A6.51,6.51,0,0,1,94.1,48.781l1.863-.8a3.959,3.959,0,0,0,.569.885,2.539,2.539,0,0,0,1.893.88,2.5,2.5,0,0,0,1.97-.934,3.324,3.324,0,0,0,.534-1.956V46.123c-1.33,1.723-4.237,1.483-5.864-.3a5.2,5.2,0,0,1,.035-6.9c1.735-1.732,4.31-1.951,5.824-.311l0,0V37.787h2.017v8.838a4.867,4.867,0,0,1-1.836,4.26,4.763,4.763,0,0,1-2.708.789,4.446,4.446,0,0,1-3.019-1.126h0Zm48.366,0.487h0l1.948-4.65-3.449-8.062h1.964l2.458,5.742,2.405-5.742h1.964l-5.325,12.713h-1.965Zm-9.327-4.441h0a3.142,3.142,0,0,1-.865-2.159,2.732,2.732,0,0,1,.715-1.9,4.317,4.317,0,0,1,3.229-1.217,4.18,4.18,0,0,1,2.084.481,1.9,1.9,0,0,0-2.037-1.965,1.972,1.972,0,0,0-1.916,1.254l-1.764-.72a3.639,3.639,0,0,1,3.637-2.326,4.116,4.116,0,0,1,3,1.193,4.194,4.194,0,0,1,.981,3.076V47.2h-1.925V46.323a3.273,3.273,0,0,1-1.054.842,3.676,3.676,0,0,1-1.612.328,3.631,3.631,0,0,1-2.476-.9h0ZM72.854,42.4h0a4.808,4.808,0,1,1,4.807,4.89,4.826,4.826,0,0,1-4.807-4.89h0Zm10.435,0h0a4.808,4.808,0,1,1,4.807,4.89,4.825,4.825,0,0,1-4.807-4.89h0Zm-23.456,2.57h0a7.6,7.6,0,0,1,.087-10.654A7.394,7.394,0,0,1,65.227,32.1a7.477,7.477,0,0,1,5.108,2.056l-1.44,1.515a5.222,5.222,0,0,0-7.444.1,5.656,5.656,0,0,0-.049,7.776,5.283,5.283,0,0,0,7.606.126,4.529,4.529,0,0,0,1.085-2.61H65.216V38.986h6.851a8.563,8.563,0,0,1,.113,1.582,7.017,7.017,0,0,1-1.867,4.691A6.834,6.834,0,0,1,65.3,47.272a7.8,7.8,0,0,1-5.463-2.305h0Zm48.805,0.872h0a5.318,5.318,0,0,1,0-6.93,4.2,4.2,0,0,1,6.3-.011,7.4,7.4,0,0,1,1.235,2.247l-6.409,2.72a2.5,2.5,0,0,0,2.278,1.49,2.638,2.638,0,0,0,2.4-1.36l1.677,1.136h0c-0.192.257-.43,0.511-0.609,0.709a4.837,4.837,0,0,1-6.864,0h0Zm12.04,1.366h0V34.33h4.112a4.094,4.094,0,0,1,4.348,3.9,3.936,3.936,0,0,1-3.968,3.9h-2.543V47.2h-1.949Zm9.735,0h0V34.328h1.949V47.2h-1.949ZM104.317,47h0V32.587h2.134V47h-2.134Zm35.254-3.567h0a3.439,3.439,0,0,0-1.836-.471c-1.387,0-2.17.706-2.17,1.478a1.422,1.422,0,0,0,1.584,1.288,2.443,2.443,0,0,0,2.422-2.295h0ZM80.344,42.395h0a2.695,2.695,0,1,0-2.683,2.951,2.817,2.817,0,0,0,2.683-2.951h0Zm10.434,0h0A2.695,2.695,0,1,0,88.1,45.346a2.817,2.817,0,0,0,2.683-2.951h0Zm10.2,0.889h0a2.956,2.956,0,0,0,.076-0.349,0.15,0.15,0,0,0,.006-0.046,3.153,3.153,0,0,0,.039-0.518,2.991,2.991,0,0,0-.041-0.487,0.248,0.248,0,0,0-.01-0.062,2.54,2.54,0,0,0-.108-0.434,2.636,2.636,0,0,0-2.464-1.939,2.965,2.965,0,0,0,.037,5.887,2.686,2.686,0,0,0,2.464-2.052h0Zm8.454-1.062h0l4.278-1.827a1.97,1.97,0,0,0-1.772-1.01,2.707,2.707,0,0,0-2.506,2.837h0Zm17.718-3.947h0a2.052,2.052,0,0,0-2.179-2.037h-2.343v4.074h2.453A2.048,2.048,0,0,0,127.148,38.274Z"/>
  <path id="Фигура_6" data-name="Фигура 6" class="cls-4" d="M23.992,32.5V20.3a1.3,1.3,0,0,1,1.182-1.289,2,2,0,0,1,1.085.308L48.3,31.549a0.993,0.993,0,0,1,0,1.9L26.259,45.682a2,2,0,0,1-1.085.307A1.3,1.3,0,0,1,23.992,44.7V32.5Z"/>
  <path id="Прямоугольник_98" data-name="Прямоугольник 98" class="cls-5" d="M42.6,36.611L26.259,45.682a2.02,2.02,0,0,1-1.059.3c0.042-.074.064-0.133,0.119-0.217l-0.071,0,0.012-.012L38.339,32.439Z"/>
  <path id="Прямоугольник_97" data-name="Прямоугольник 97" class="cls-6" d="M48.3,33.451L42.08,36.9l-3.74-4.463,4.233-4.067L48.3,31.549A0.993,0.993,0,0,1,48.3,33.451Z"/>
  <path id="Прямоугольник_96" data-name="Прямоугольник 96" class="cls-7" d="M38.339,32.439L25.156,19.015c0.006,0,.012,0,0.018,0a2,2,0,0,1,1.085.308l16.313,9.053Z"/>
</svg>
