<svg id="Группа_1" data-name="Группа 1" xmlns="http://www.w3.org/2000/svg" width="178" height="65" viewBox="0 0 178 65">
  <metadata><?xpacket begin="﻿" id="W5M0MpCehiHzreSzNTczkc9d"?>
<x:xmpmeta xmlns:x="adobe:ns:meta/" x:xmptk="Adobe XMP Core 5.6-c142 79.160924, 2017/07/13-01:06:39        ">
   <rdf:RDF xmlns:rdf="http://www.w3.org/1999/02/22-rdf-syntax-ns#">
      <rdf:Description rdf:about=""/>
   </rdf:RDF>
</x:xmpmeta>
                                                                                                    
                                                                                                    
                                                                                                    
                                                                                                    
                                                                                                    
                                                                                                    
                                                                                                    
                                                                                                    
                                                                                                    
                                                                                                    
                                                                                                    
                                                                                                    
                                                                                                    
                                                                                                    
                                                                                                    
                                                                                                    
                                                                                                    
                                                                                                    
                                                                                                    
                                                                                                    
                           
<?xpacket end="w"?></metadata>
<defs>
    <style>
      .cls-1 {
        fill: #1b293d;
      }

      .cls-2 {
        fill: #a8b9d6;
      }

      .cls-2, .cls-3, .cls-5 {
        fill-rule: evenodd;
      }

      .cls-2, .cls-4 {
        opacity: 0.7;
      }

      .cls-3 {
        fill: #eaeaf0;
      }

      .cls-4 {
        fill: #49a1f1;
      }

      .cls-5 {
        fill: #fff;
      }
    </style>
  </defs>
  <rect id="Прямоугольник_скругл._углы_6" data-name="Прямоугольник, скругл. углы 6" class="cls-1" width="178" height="65" rx="6" ry="6"/>
  <path id="Для_IOS" data-name="Для IOS" class="cls-2" d="M75.611,23.83h-1.12V16.219H69.358l-0.189,3.65a9.858,9.858,0,0,1-.41,2.294,4.482,4.482,0,0,1-.881,1.667h-0.7l0.006,3.018h1.132v-2.1h6.159v2.092H75.6Zm-5.679-1.671a10.633,10.633,0,0,0,.392-2.51l0.124-2.51h2.906V23.83H69.169A5.845,5.845,0,0,0,69.932,22.159ZM77.8,18.41L77.68,21.123a6.832,6.832,0,0,1-.295,2.039,0.9,0.9,0,0,1-.76.609l-0.312.023V24.75h0.436a1.61,1.61,0,0,0,1.412-.732,5.22,5.22,0,0,0,.551-2.338l0.13-2.373H81.01V24.75h1.1V18.41H77.8Zm8.251,0a2.722,2.722,0,0,0-1.751.536,1.711,1.711,0,0,0-.654,1.4,1.843,1.843,0,0,0,.327,1.087,1.9,1.9,0,0,0,.94.688l-1.6,2.631h1.179l1.5-2.467h1.644V24.75h1.1V18.41H86.049ZM85.1,19.585a1.475,1.475,0,0,1,.967-0.3h1.568v2.1H85.9a1.239,1.239,0,0,1-.843-0.29A1.02,1.02,0,0,1,85.1,19.585Zm9.754-3.366H93.722V24.75h1.132V16.219Zm8.67,4a5.275,5.275,0,0,0-.425-2.189,3.192,3.192,0,0,0-1.211-1.436,3.338,3.338,0,0,0-1.818-.5,3.182,3.182,0,0,0-3.018,1.945,5.187,5.187,0,0,0-.43,2.174v0.615a5.038,5.038,0,0,0,.445,2.124,3.2,3.2,0,0,0,3.015,1.907,3.324,3.324,0,0,0,1.815-.492,3.2,3.2,0,0,0,1.2-1.427,5.249,5.249,0,0,0,.425-2.188V20.221Zm-1.126.621a3.793,3.793,0,0,1-.619,2.276,2.187,2.187,0,0,1-3.409-.047,3.813,3.813,0,0,1-.622-2.312V20.133a3.731,3.731,0,0,1,.634-2.253,2,2,0,0,1,1.689-.811,2.026,2.026,0,0,1,1.715.811,3.806,3.806,0,0,1,.613,2.329v0.633Zm6.955,0.782a1.158,1.158,0,0,1,.442.97,1.176,1.176,0,0,1-.478.99,2.233,2.233,0,0,1-1.373.363,2.429,2.429,0,0,1-1.535-.448,1.467,1.467,0,0,1-.575-1.222H104.7a2.242,2.242,0,0,0,.415,1.33,2.774,2.774,0,0,0,1.182.923,4.055,4.055,0,0,0,1.65.337,3.482,3.482,0,0,0,2.175-.624,1.99,1.99,0,0,0,.813-1.661,2.132,2.132,0,0,0-.292-1.131,2.532,2.532,0,0,0-.895-0.841,7.058,7.058,0,0,0-1.674-.66,4.385,4.385,0,0,1-1.515-.66,1.1,1.1,0,0,1-.445-0.883,1.22,1.22,0,0,1,.469-1.018,2.068,2.068,0,0,1,1.305-.367,2.022,2.022,0,0,1,1.4.444,1.556,1.556,0,0,1,.5,1.22h1.138a2.383,2.383,0,0,0-.381-1.307,2.588,2.588,0,0,0-1.072-.937,3.535,3.535,0,0,0-1.577-.34,3.234,3.234,0,0,0-2.107.659,2.06,2.06,0,0,0-.81,1.667,1.948,1.948,0,0,0,.663,1.5,5.33,5.33,0,0,0,2.119,1.022A5.114,5.114,0,0,1,109.353,21.624Z"/>
  <path id="App_Store" data-name="App Store" class="cls-3" d="M72.92,41.931h-4.5l2.244-6.049Zm-7.854,4.487H66.81L67.924,43.3h5.512l1.114,3.119h1.72L71.61,34.262H69.734Zm15.246-.159a3.567,3.567,0,0,0,1.732.4,3.3,3.3,0,0,0,2.715-1.32A5.424,5.424,0,0,0,85.8,41.866,5.426,5.426,0,0,0,84.759,38.4a3.3,3.3,0,0,0-2.715-1.319,3.57,3.57,0,0,0-1.732.395,3.123,3.123,0,0,0-1.2,1.209V37.3H77.6V49.886h1.515V45.05A3.12,3.12,0,0,0,80.312,46.259Zm3.243-1.8a2.348,2.348,0,0,1-3.759,0,4.333,4.333,0,0,1-.684-2.593,4.334,4.334,0,0,1,.684-2.593,2.349,2.349,0,0,1,3.759,0,4.336,4.336,0,0,1,.684,2.593A4.334,4.334,0,0,1,83.555,44.459Zm7.068,1.8a3.566,3.566,0,0,0,1.732.4,3.3,3.3,0,0,0,2.715-1.32,5.424,5.424,0,0,0,1.044-3.468A5.427,5.427,0,0,0,95.07,38.4a3.3,3.3,0,0,0-2.715-1.319,3.57,3.57,0,0,0-1.732.395,3.123,3.123,0,0,0-1.2,1.209V37.3H87.908V49.886h1.515V45.05A3.119,3.119,0,0,0,90.623,46.259Zm3.243-1.8a2.348,2.348,0,0,1-3.759,0,4.333,4.333,0,0,1-.684-2.593,4.334,4.334,0,0,1,.684-2.593,2.349,2.349,0,0,1,3.759,0,4.336,4.336,0,0,1,.684,2.593A4.334,4.334,0,0,1,93.866,44.459ZM108.842,34.2a10.241,10.241,0,0,0-1.752-.155,4.855,4.855,0,0,0-3.149.928,3.1,3.1,0,0,0-1.143,2.54,2.848,2.848,0,0,0,.827,2.174,5.411,5.411,0,0,0,2.678,1.148l1.008,0.2a3.808,3.808,0,0,1,1.814.757,1.8,1.8,0,0,1,.553,1.4,1.83,1.83,0,0,1-.77,1.58,3.7,3.7,0,0,1-2.187.553,6.7,6.7,0,0,1-1.9-.285,9.7,9.7,0,0,1-1.974-.847V45.88a13.836,13.836,0,0,0,2.027.578,9.483,9.483,0,0,0,1.847.2,5.677,5.677,0,0,0,3.493-.912,3.163,3.163,0,0,0,1.192-2.679,3.2,3.2,0,0,0-.881-2.365,5.123,5.123,0,0,0-2.731-1.233l-1-.2a4.23,4.23,0,0,1-1.847-.663,1.5,1.5,0,0,1-.487-1.218,1.708,1.708,0,0,1,.733-1.481,3.558,3.558,0,0,1,2.084-.522,6.316,6.316,0,0,1,1.613.22,10.237,10.237,0,0,1,1.778.668v-1.6A12.691,12.691,0,0,0,108.842,34.2Zm4.718,0.513V37.3h-1.106v1.164h1.106v4.95a3.265,3.265,0,0,0,.663,2.358,3.447,3.447,0,0,0,2.408.648h1.548V45.164h-1.548a1.774,1.774,0,0,1-1.249-.318,2.225,2.225,0,0,1-.307-1.433v-4.95h3.1V37.3h-3.1V34.709H113.56ZM125.288,39.3a4.213,4.213,0,0,1,.7,2.569,4.21,4.21,0,0,1-.7,2.573,2.415,2.415,0,0,1-3.828,0,4.228,4.228,0,0,1-.7-2.577,4.208,4.208,0,0,1,.7-2.577A2.407,2.407,0,0,1,125.288,39.3Zm-5-.949a5.144,5.144,0,0,0-1.118,3.518,5.147,5.147,0,0,0,1.118,3.513,4.383,4.383,0,0,0,6.18,0,5.133,5.133,0,0,0,1.122-3.513,5.131,5.131,0,0,0-1.122-3.518A4.393,4.393,0,0,0,120.288,38.349Zm14.771-1.189c-0.153-.027-0.292-0.047-0.418-0.061a3.156,3.156,0,0,0-.343-0.021,3.908,3.908,0,0,0-1.851.4,3.076,3.076,0,0,0-1.237,1.233V37.3H129.7v9.12h1.515v-4.8a3.632,3.632,0,0,1,.684-2.373,2.4,2.4,0,0,1,1.961-.826,2.928,2.928,0,0,1,.66.069,2.005,2.005,0,0,1,.552.216Zm7.654,1.1a3.76,3.76,0,0,0-2.928-1.185,4.252,4.252,0,0,0-3.28,1.315,5.028,5.028,0,0,0-1.216,3.554,4.617,4.617,0,0,0,1.282,3.436,4.719,4.719,0,0,0,3.476,1.27,8.419,8.419,0,0,0,1.728-.179,9.125,9.125,0,0,0,1.663-.522V44.537a7.539,7.539,0,0,1-1.618.635,6.664,6.664,0,0,1-1.683.212,3.227,3.227,0,0,1-2.338-.81,3.448,3.448,0,0,1-.938-2.357h6.929V41.484A4.609,4.609,0,0,0,142.713,38.263Zm-5.8,2.789a2.982,2.982,0,0,1,.873-1.995,2.835,2.835,0,0,1,2.019-.709,2.316,2.316,0,0,1,1.789.733,2.844,2.844,0,0,1,.692,1.962Z"/>
  <circle id="Эллипс_1" data-name="Эллипс 1" class="cls-4" cx="36" cy="33" r="19"/>
  <path id="Фигура_6" data-name="Фигура 6" class="cls-5" d="M27.131,38.767l-1.08,1.8a1.475,1.475,0,0,0,.524,2.029h0a1.514,1.514,0,0,0,2.055-.517l1.38-2.3C29.5,38.569,28.076,38.54,27.131,38.767Zm10.694-3.59-5.049,0,6.574-10.939a1.475,1.475,0,0,0-.524-2.03h0a1.514,1.514,0,0,0-2.054.517l-0.878,1.461-0.786-1.324a1.514,1.514,0,0,0-2.052-.528h0a1.475,1.475,0,0,0-.535,2.027l1.624,2.735-4.855,8.079-3.779,0a1.5,1.5,0,0,0-1.5,1.48h0a1.5,1.5,0,0,0,1.5,1.482L39.3,38.14a2.509,2.509,0,0,0-.172-1.739A2.671,2.671,0,0,0,37.826,35.177Zm8.688,0-4.091,0L38.053,27.82A5.154,5.154,0,0,0,37,31.9l6.151,10.361a1.514,1.514,0,0,0,2.052.528h0a1.475,1.475,0,0,0,.535-2.027l-1.553-2.616h2.331a1.5,1.5,0,0,0,1.5-1.48h0A1.494,1.494,0,0,0,46.513,35.181Z"/>
</svg>
