<svg xmlns="http://www.w3.org/2000/svg" width="28.97" height="27" viewBox="0 0 28.97 27">
  <metadata><?xpacket begin="﻿" id="W5M0MpCehiHzreSzNTczkc9d"?>
<x:xmpmeta xmlns:x="adobe:ns:meta/" x:xmptk="Adobe XMP Core 5.6-c138 79.159824, 2016/09/14-01:09:01        ">
   <rdf:RDF xmlns:rdf="http://www.w3.org/1999/02/22-rdf-syntax-ns#">
      <rdf:Description rdf:about=""/>
   </rdf:RDF>
</x:xmpmeta>
                                                                                                    
                                                                                                    
                                                                                                    
                                                                                                    
                                                                                                    
                                                                                                    
                                                                                                    
                                                                                                    
                                                                                                    
                                                                                                    
                                                                                                    
                                                                                                    
                                                                                                    
                                                                                                    
                                                                                                    
                                                                                                    
                                                                                                    
                                                                                                    
                                                                                                    
                                                                                                    
                           
<?xpacket end="w"?></metadata>
<defs>
    <style>
      .cls-1 {
        fill: #59a5c7;
        fill-rule: evenodd;
      }
    </style>
  </defs>
  <path id="Прямоугольник_107" data-name="Прямоугольник 107" class="cls-1" d="M1052.84,3315.9c-0.17.57-.18,10.4-0.02,11.06,0.24,0.05.5,0.14,0.76,0.17,1.97,0.27,3.95.54,5.92,0.8q3.555,0.5,7.13.98a2.636,2.636,0,0,0,1.34.01c0.01-.25.03-0.5,0.03-0.75v-11.9a0.362,0.362,0,0,0-.43-0.39c-0.13,0-.27-0.01-0.41-0.01q-6.84,0-13.67.01C1053.27,3315.88,1053.04,3315.89,1052.84,3315.9Zm15.1-13.91c-0.53.08-.98,0.15-1.42,0.21-2.22.3-4.45,0.59-6.67,0.9-2.17.29-4.34,0.6-6.52,0.9-0.58.08-.62,0.08-0.62,0.63v9.2a3.855,3.855,0,0,0,.12.59c0.22,0.01.36,0.02,0.49,0.02h13.95c0.12,0,.23,0,0.35-0.01a0.331,0.331,0,0,0,.36-0.31,2.549,2.549,0,0,0,.02-0.39V3302.6C1068,3302.44,1067.97,3302.27,1067.94,3301.99Zm-28.83,13.91a4.272,4.272,0,0,0-.07.45v8.43c0,0.51.03,0.53,0.58,0.6,1.18,0.16,2.35.31,3.53,0.47q3.675,0.48,7.35.95c0.58,0.07.63,0.02,0.66-.51v-9.52c0-.13,0-0.26-0.01-0.39-0.03-.43-0.08-0.48-0.52-0.5-0.11-.01-0.23-0.01-0.34-0.01q-5.22,0-10.44.01C1039.62,3315.88,1039.4,3315.89,1039.11,3315.9Zm0.01-10.12a74.224,74.224,0,0,0,.06,8.63c0.24,0.01.51,0.03,0.78,0.03h10.23c0.16,0,.32-0.01.48,0a0.4,0.4,0,0,0,.48-0.42c0-.15.01-0.3,0.01-0.45v-8.8c-0.03-.56-0.1-0.61-0.72-0.52-0.22.04-.44,0.1-0.67,0.12q-4.215.555-8.43,1.09C1040.6,3305.56,1039.86,3305.67,1039.12,3305.78Z" transform="translate(-1039.03 -3302)"/>
</svg>
