<svg id="Группа_70" data-name="Группа 70" xmlns="http://www.w3.org/2000/svg" width="178" height="65" viewBox="0 0 178 65">
  <metadata><?xpacket begin="﻿" id="W5M0MpCehiHzreSzNTczkc9d"?>
<x:xmpmeta xmlns:x="adobe:ns:meta/" x:xmptk="Adobe XMP Core 5.6-c142 79.160924, 2017/07/13-01:06:39        ">
   <rdf:RDF xmlns:rdf="http://www.w3.org/1999/02/22-rdf-syntax-ns#">
      <rdf:Description rdf:about=""/>
   </rdf:RDF>
</x:xmpmeta>
                                                                                                    
                                                                                                    
                                                                                                    
                                                                                                    
                                                                                                    
                                                                                                    
                                                                                                    
                                                                                                    
                                                                                                    
                                                                                                    
                                                                                                    
                                                                                                    
                                                                                                    
                                                                                                    
                                                                                                    
                                                                                                    
                                                                                                    
                                                                                                    
                                                                                                    
                                                                                                    
                           
<?xpacket end="w"?></metadata>
<defs>
    <style>
      .cls-1 {
        fill: #18293f;
      }

      .cls-2 {
        fill: #fff;
      }

      .cls-2, .cls-3, .cls-4 {
        fill-rule: evenodd;
      }

      .cls-3 {
        fill: #7b8eab;
      }

      .cls-4 {
        fill: #3aa6cb;
      }
    </style>
  </defs>
  <rect id="Прямоугольник_скругл._углы_6_копия_2" data-name="Прямоугольник, скругл. углы 6 копия 2" class="cls-1" width="178" height="65" rx="6" ry="6"/>
  <path id="Скачать_для_Windows" data-name="Скачать для Windows" class="cls-2" d="M1092.05,3309.04a2.307,2.307,0,0,1-.67,1.48,2.118,2.118,0,0,1-1.44.43,1.919,1.919,0,0,1-1.64-.82,3.831,3.831,0,0,1-.58-2.21v-0.83a3.65,3.65,0,0,1,.62-2.27,2.025,2.025,0,0,1,1.7-.8,1.893,1.893,0,0,1,1.37.46,2.458,2.458,0,0,1,.64,1.48h1.14a3.184,3.184,0,0,0-.96-2.1,3.09,3.09,0,0,0-2.19-.76,3.41,3.41,0,0,0-1.82.48,3.292,3.292,0,0,0-1.21,1.39,4.9,4.9,0,0,0-.43,2.09v0.82a4.346,4.346,0,0,0,.92,2.9,3.01,3.01,0,0,0,2.44,1.09,3.333,3.333,0,0,0,2.25-.74,3.147,3.147,0,0,0,1-2.09h-1.14Zm8.02,2.71h1.38l-3.52-4.39,3.28-4.14h-1.41l-3,3.76h-0.88v-3.76h-1.13v8.53h1.13v-3.83h1.04Zm7.98,0h1.16l-3.28-8.53h-0.99l-3.28,8.53h1.17l0.8-2.23h3.6Zm-2.62-7.14,1.46,3.99h-2.91Zm9.69-1.39v4.07a8.629,8.629,0,0,1-2.28.31,1.905,1.905,0,0,1-1.36-.39,1.724,1.724,0,0,1-.41-1.28v-2.71h-1.14v2.73a2.487,2.487,0,0,0,.73,1.94,3.206,3.206,0,0,0,2.18.63,8.121,8.121,0,0,0,1.16-.07,7.1,7.1,0,0,0,1.12-.24v3.54h1.14v-8.53h-1.14Zm8.74,8.53h1.16l-3.28-8.53h-0.99l-3.28,8.53h1.17l0.81-2.23h3.59Zm-2.62-7.14,1.47,3.99h-2.92Zm10.11-1.39h-6.64v0.92h2.75v7.61h1.13v-7.61h2.76v-0.92Zm2.45,0h-1.13v8.53h3.29a3.082,3.082,0,0,0,2.07-.71,2.6,2.6,0,0,0,.01-3.66,3.168,3.168,0,0,0-2.1-.68h-2.14v-3.48Zm2.12,4.4a1.862,1.862,0,0,1,1.28.43,1.484,1.484,0,0,1,.45,1.14,1.524,1.524,0,0,1-.47,1.19,1.812,1.812,0,0,1-1.31.45h-2.07v-3.21h2.12Z" transform="translate(-1017 -3284)"/>
  <path id="Эллипс_4" data-name="Эллипс 4" class="cls-3" d="M1086.16,3326.87l-0.01,2.74h1.09v-1.86h4.45v1.86h1.09v-2.74h-0.82v-5.46h-4.1l-0.1,2.53a4.3,4.3,0,0,1-.73,2.46l-0.38.47h-0.49Zm2.69-2.95,0.06-1.51h1.96v4.46h-2.93a5.216,5.216,0,0,0,.91-2.95h0Zm6.06-2.51-0.12,2.71a6.853,6.853,0,0,1-.29,2.04,0.9,0.9,0,0,1-.76.61l-0.31.02v0.96h0.43a1.589,1.589,0,0,0,1.41-.73,5.183,5.183,0,0,0,.55-2.34l0.13-2.37h2.17v5.44h1.1v-6.34h-4.31Zm8.25,0a2.672,2.672,0,0,0-1.75.54,1.716,1.716,0,0,0-.65,1.39,1.827,1.827,0,0,0,.33,1.09,1.876,1.876,0,0,0,.94.69l-1.61,2.63h1.18l1.5-2.47h1.65v2.47h1.09v-6.34h-2.68Zm-0.95,1.17a1.535,1.535,0,0,1,.97-0.29h1.57v2.1h-1.73a1.233,1.233,0,0,1-.85-0.29A1.02,1.02,0,0,1,1102.21,3322.58Zm9.04-3.36h-1.13l2.07,8.53h1.03l1.84-6.22,0.13-.65,0.14,0.65,1.77,6.22h1.03l2.08-8.53h-1.14l-1.33,5.83-0.18,1.15-0.24-1.03-1.66-5.95h-0.95l-1.7,5.95-0.24,1.02-0.17-1.13Zm11.23,2.19h-1.09v6.34h1.09v-6.34Zm-1.02-1.24a0.763,0.763,0,0,0,.96,0,0.637,0.637,0,0,0,.17-0.44,0.644,0.644,0,0,0-.17-0.45,0.73,0.73,0,0,0-.96,0,0.637,0.637,0,0,0-.16.45A0.629,0.629,0,0,0,1121.46,3320.17Zm2.76,1.24v6.34h1.09v-4.52a1.966,1.966,0,0,1,.63-0.74,1.6,1.6,0,0,1,.93-0.28,1.27,1.27,0,0,1,.96.33,1.47,1.47,0,0,1,.32,1.01v4.2h1.09v-4.19c-0.02-1.51-.69-2.27-2.04-2.27a2.331,2.331,0,0,0-1.91.92l-0.04-.8h-1.03Zm6.4,3.2a3.751,3.751,0,0,0,.69,2.35,2.178,2.178,0,0,0,1.81.91,2.219,2.219,0,0,0,1.82-.8l0.05,0.68H1136v-9h-1.09v3.3a2.254,2.254,0,0,0-1.78-.76,2.2,2.2,0,0,0-1.82.89,3.711,3.711,0,0,0-.69,2.35v0.08Zm1.53-1.78a1.47,1.47,0,0,1,1.25-.62,1.613,1.613,0,0,1,1.51.9v2.91a1.6,1.6,0,0,1-1.52.93,1.481,1.481,0,0,1-1.24-.61,2.875,2.875,0,0,1-.44-1.69A3.152,3.152,0,0,1,1132.15,3322.83Zm5.25,1.77a3.451,3.451,0,0,0,.8,2.37,2.7,2.7,0,0,0,2.11.9,2.858,2.858,0,0,0,1.52-.41,2.779,2.779,0,0,0,1.02-1.15,3.714,3.714,0,0,0,.36-1.66v-0.08a3.417,3.417,0,0,0-.81-2.38,2.7,2.7,0,0,0-2.11-.9,2.813,2.813,0,0,0-1.5.41,2.726,2.726,0,0,0-1.02,1.15,3.63,3.63,0,0,0-.37,1.67v0.08Zm1.59-1.78a1.592,1.592,0,0,1,1.3-.64,1.616,1.616,0,0,1,1.33.65,2.712,2.712,0,0,1,.49,1.69,2.975,2.975,0,0,1-.48,1.81,1.559,1.559,0,0,1-1.32.65,1.576,1.576,0,0,1-1.32-.64,2.673,2.673,0,0,1-.49-1.69A2.952,2.952,0,0,1,1138.99,3322.82Zm9.71-1.41h-0.87l-1.49,4.75-1.25-4.75H1144l1.85,6.34h0.89l1.5-4.8,1.55,4.8h0.89l1.85-6.34h-1.09l-1.22,4.85Zm8.28,5.32a1.731,1.731,0,0,1-.99.25,1.655,1.655,0,0,1-1.08-.32,1.094,1.094,0,0,1-.44-0.86h-1.09a1.807,1.807,0,0,0,.33,1.04,2.161,2.161,0,0,0,.92.76,3.269,3.269,0,0,0,1.36.27,2.8,2.8,0,0,0,1.77-.52,1.6,1.6,0,0,0,.69-1.36,1.481,1.481,0,0,0-.25-0.86,1.877,1.877,0,0,0-.75-0.61,5.836,5.836,0,0,0-1.32-.43,3.882,3.882,0,0,1-1.13-.38,0.658,0.658,0,0,1-.31-0.59,0.82,0.82,0,0,1,.33-0.68,1.532,1.532,0,0,1,.93-0.26,1.4,1.4,0,0,1,.96.33,0.975,0.975,0,0,1,.38.76h1.1a1.771,1.771,0,0,0-.68-1.42,2.672,2.672,0,0,0-1.76-.56,2.594,2.594,0,0,0-1.69.54,1.647,1.647,0,0,0-.66,1.32,1.376,1.376,0,0,0,.23.81,1.723,1.723,0,0,0,.72.58,5.272,5.272,0,0,0,1.31.43,2.947,2.947,0,0,1,1.16.42,0.8,0.8,0,0,1,.34.68A0.751,0.751,0,0,1,1156.98,3326.73Z" transform="translate(-1017 -3284)"/>
  <path id="Прямоугольник_107" data-name="Прямоугольник 107" class="cls-4" d="M1052.84,3315.9c-0.17.57-.18,10.4-0.02,11.06,0.24,0.05.5,0.14,0.76,0.17,1.97,0.27,3.95.54,5.92,0.8q3.555,0.5,7.13.98a2.636,2.636,0,0,0,1.34.01c0.01-.25.03-0.5,0.03-0.75v-11.9a0.362,0.362,0,0,0-.43-0.39c-0.13,0-.27-0.01-0.41-0.01q-6.84,0-13.67.01C1053.27,3315.88,1053.04,3315.89,1052.84,3315.9Zm15.1-13.91c-0.53.08-.98,0.15-1.42,0.21-2.22.3-4.45,0.59-6.67,0.9-2.17.29-4.34,0.6-6.52,0.9-0.58.08-.62,0.08-0.62,0.63v9.2a3.855,3.855,0,0,0,.12.59c0.22,0.01.36,0.02,0.49,0.02h13.95c0.12,0,.23,0,0.35-0.01a0.331,0.331,0,0,0,.36-0.31,2.549,2.549,0,0,0,.02-0.39V3302.6C1068,3302.44,1067.97,3302.27,1067.94,3301.99Zm-28.83,13.91a4.272,4.272,0,0,0-.07.45v8.43c0,0.51.03,0.53,0.58,0.6,1.18,0.16,2.35.31,3.53,0.47q3.675,0.48,7.35.95c0.58,0.07.63,0.02,0.66-.51v-9.52c0-.13,0-0.26-0.01-0.39-0.03-.43-0.08-0.48-0.52-0.5-0.11-.01-0.23-0.01-0.34-0.01q-5.22,0-10.44.01C1039.62,3315.88,1039.4,3315.89,1039.11,3315.9Zm0.01-10.12a74.224,74.224,0,0,0,.06,8.63c0.24,0.01.51,0.03,0.78,0.03h10.23c0.16,0,.32-0.01.48,0a0.4,0.4,0,0,0,.48-0.42c0-.15.01-0.3,0.01-0.45v-8.8c-0.03-.56-0.1-0.61-0.72-0.52-0.22.04-.44,0.1-0.67,0.12q-4.215.555-8.43,1.09C1040.6,3305.56,1039.86,3305.67,1039.12,3305.78Z" transform="translate(-1017 -3284)"/>
</svg>
