<svg xmlns="http://www.w3.org/2000/svg" viewBox="0 0 240 70"><defs><style>.cls-1{fill:#008ad1;fill-rule:evenodd;}</style></defs><title>logo</title><g id="Слой_3" data-name="Слой 3"><path class="cls-1" d="M32.89,38.92a4.42,4.42,0,1,0-4.42,4.42,4.42,4.42,0,0,0,4.42-4.42ZM70.26,13.66H80.77a1.52,1.52,0,0,1,.5.08,1.28,1.28,0,0,1,.43.25l0,0a1.26,1.26,0,0,1,.24.35v0a1.16,1.16,0,0,1,.09.45,1.17,1.17,0,0,1-.09.46,1.19,1.19,0,0,1-.24.36l0,0a1.26,1.26,0,0,1-.44.29,1.4,1.4,0,0,1-.52.09H70.58a1.08,1.08,0,0,0-.41.07.65.65,0,0,0-.25.18,1,1,0,0,0-.14.27v0a1.27,1.27,0,0,0-.05.38v5.82h10a1.62,1.62,0,0,1,.52.08,1.3,1.3,0,0,1,.44.25l0,0a1.25,1.25,0,0,1,.26.38,1.16,1.16,0,0,1,.09.46,1.18,1.18,0,0,1-.09.46,1.2,1.2,0,0,1-.26.38h0a1.29,1.29,0,0,1-.42.28h0a1.49,1.49,0,0,1-.54.09h-10v6.3a1.07,1.07,0,0,0,.05.34.8.8,0,0,0,.14.26.65.65,0,0,0,.25.19,1.08,1.08,0,0,0,.41.07H80.83a1.6,1.6,0,0,1,.52.08,1.29,1.29,0,0,1,.41.23l.05,0a1.2,1.2,0,0,1,.26.39,1.17,1.17,0,0,1,.09.45,1.19,1.19,0,0,1-.08.43v0a1.15,1.15,0,0,1-.24.36l0,0a1.26,1.26,0,0,1-.45.29,1.5,1.5,0,0,1-.53.09H70.26a3.46,3.46,0,0,1-1.34-.25,2.8,2.8,0,0,1-1-.76,3,3,0,0,1-.58-1,3.47,3.47,0,0,1-.19-1.17V16.84a3.54,3.54,0,0,1,.19-1.18,3.06,3.06,0,0,1,.56-1l0,0a2.8,2.8,0,0,1,1-.76,3.46,3.46,0,0,1,1.34-.25Zm18.14,5a3.79,3.79,0,0,1,1-.12h5.54a7.47,7.47,0,0,1,2.21.3,4.54,4.54,0,0,1,1.69.93,3.79,3.79,0,0,1,1,1.44,5,5,0,0,1,.33,1.87,5.43,5.43,0,0,1-.13,1.25,3.62,3.62,0,0,1-.41,1h0a3.16,3.16,0,0,1-.77.92l-.25.18.4.22a3.75,3.75,0,0,1,.95.81h0a3.4,3.4,0,0,1,.65,1.17,4.61,4.61,0,0,1,.21,1.43,5,5,0,0,1-.39,2,4.07,4.07,0,0,1-1.17,1.54,4.71,4.71,0,0,1-1.59.87,6.29,6.29,0,0,1-2,.29H89.24a2.66,2.66,0,0,1-1-.17,1.93,1.93,0,0,1-.75-.52,2,2,0,0,1-.43-.73,2.78,2.78,0,0,1-.14-.9V20.82a3,3,0,0,1,.15-1,1.81,1.81,0,0,1,.48-.75h0a2.1,2.1,0,0,1,.8-.41Zm6.67,8.92H89.58v4.17a1,1,0,0,0,0,.31.44.44,0,0,0,.09.17.41.41,0,0,0,.17.1,1.21,1.21,0,0,0,.38,0h4.67a5.27,5.27,0,0,0,1.33-.15h0a3.13,3.13,0,0,0,1-.46,2.1,2.1,0,0,0,.67-.74,2.07,2.07,0,0,0,.22-1,2.13,2.13,0,0,0-.22-1,2.4,2.4,0,0,0-.68-.8h0a3.18,3.18,0,0,0-1-.52,4,4,0,0,0-1.21-.17Zm-5.49-5.88v3.47h5.48a3.71,3.71,0,0,0,1.1-.15,2,2,0,0,0,.74-.4l0,0a1.59,1.59,0,0,0,.45-.62,2.71,2.71,0,0,0,0-1.85,1.57,1.57,0,0,0-.48-.63h0a2.34,2.34,0,0,0-.86-.4,5.22,5.22,0,0,0-1.3-.14H90.26a1.07,1.07,0,0,0-.36.05.48.48,0,0,0-.18.11.59.59,0,0,0-.1.2,1.41,1.41,0,0,0,0,.37ZM105.07,38.1a1.84,1.84,0,0,1-.09-.57V19.2Q105,18,106.29,18t1.31,1.17v.73l.24-.24a5.81,5.81,0,0,1,1.2-.87h0a6,6,0,0,1,1.47-.56,7.41,7.41,0,0,1,4.75.49,6.4,6.4,0,0,1,2.36,2A8.5,8.5,0,0,1,119,23.44a12.25,12.25,0,0,1,0,6.47,8.48,8.48,0,0,1-1.3,2.64v0a6.37,6.37,0,0,1-5.49,2.74,7.38,7.38,0,0,1-1.77-.21,6.52,6.52,0,0,1-1.6-.62,5.49,5.49,0,0,1-1.11-.76l-.09-.09v4a1.54,1.54,0,0,1-.1.56,1.36,1.36,0,0,1-.28.45l0,0a1.21,1.21,0,0,1-.43.28,1.14,1.14,0,0,1-.48.07,1.31,1.31,0,0,1-.49-.1,1.33,1.33,0,0,1-.42-.28l0,0a1.52,1.52,0,0,1-.27-.49Zm9.07-17.16a4.07,4.07,0,0,0-5.41,1.39h0a7.87,7.87,0,0,0-1.11,4.36,9.6,9.6,0,0,0,.28,2.41,6.52,6.52,0,0,0,.83,1.93,4.07,4.07,0,0,0,6.9,0,6.44,6.44,0,0,0,.85-1.93,9.4,9.4,0,0,0,.29-2.4,9.55,9.55,0,0,0-.29-2.43,6.44,6.44,0,0,0-.85-1.93,4.15,4.15,0,0,0-1.48-1.4ZM127,18.74a7.46,7.46,0,0,1,3.23-.68,7.38,7.38,0,0,1,3.21.68,6.67,6.67,0,0,1,2.45,2,8.49,8.49,0,0,1,1.37,2.7,11.25,11.25,0,0,1,.45,3.27,10.92,10.92,0,0,1-.45,3.22,8.37,8.37,0,0,1-1.37,2.66,6.67,6.67,0,0,1-2.45,2,7.39,7.39,0,0,1-3.21.68,7.47,7.47,0,0,1-3.23-.68,6.64,6.64,0,0,1-2.44-2l0,0a8.41,8.41,0,0,1-1.34-2.66,11.12,11.12,0,0,1-.44-3.22,11.43,11.43,0,0,1,.44-3.26,8.55,8.55,0,0,1,1.34-2.7h0a6.65,6.65,0,0,1,2.46-2Zm5.29,2.21a4.42,4.42,0,0,0-2.06-.47,4.52,4.52,0,0,0-2.09.47,4.34,4.34,0,0,0-1.57,1.41,7.57,7.57,0,0,0-1.16,4.35,9.14,9.14,0,0,0,.3,2.4,6.34,6.34,0,0,0,.87,1.92,4.35,4.35,0,0,0,1.57,1.41,4.53,4.53,0,0,0,2.09.47,4.42,4.42,0,0,0,2.06-.47A4.25,4.25,0,0,0,133.81,31v0a6.23,6.23,0,0,0,.91-1.92,8.77,8.77,0,0,0,.31-2.4,8.89,8.89,0,0,0-.31-2.42,6.21,6.21,0,0,0-.91-1.93h0A4.26,4.26,0,0,0,132.3,21Zm13.63-7.29h10.77a5,5,0,0,1,1.47.19,2.68,2.68,0,0,1,1.1.62h0a2.77,2.77,0,0,1,.66,1.14,5.08,5.08,0,0,1,.21,1.52v17a1.19,1.19,0,0,1-.1.49v0a1.17,1.17,0,0,1-.33.41,1.21,1.21,0,0,1-.88.29,1.42,1.42,0,0,1-.48-.08,1.29,1.29,0,0,1-.43-.25l0,0a1.26,1.26,0,0,1-.29-.45,1.5,1.5,0,0,1-.09-.53V17.17a2.53,2.53,0,0,0-.06-.63.61.61,0,0,0-.13-.27h0a.56.56,0,0,0-.24-.13h0a2.18,2.18,0,0,0-.57-.06H145.77a1.9,1.9,0,0,0-.56.07.47.47,0,0,0-.21.11h0a.76.76,0,0,0-.14.3,2.48,2.48,0,0,0-.06.59V34.11a1.16,1.16,0,0,1-.45.93,1.21,1.21,0,0,1-.88.29,1.34,1.34,0,0,1-.47-.09h0a1.29,1.29,0,0,1-.72-.74,1.49,1.49,0,0,1-.09-.53V17a4.43,4.43,0,0,1,.22-1.46,2.57,2.57,0,0,1,.68-1.06l0,0a3.1,3.1,0,0,1,1.19-.58,6.39,6.39,0,0,1,1.6-.18Zm18.8,24.45a1.85,1.85,0,0,1-.09-.57V19.2q0-1.17,1.31-1.17a1.42,1.42,0,0,1,.94.28,1.09,1.09,0,0,1,.37.88v.73l.24-.24a5.82,5.82,0,0,1,1.2-.87h0a6.06,6.06,0,0,1,1.47-.56,7.41,7.41,0,0,1,4.75.49,6.4,6.4,0,0,1,2.36,2,8.48,8.48,0,0,1,1.31,2.67,12.25,12.25,0,0,1,0,6.47,8.48,8.48,0,0,1-1.3,2.64v0a6.37,6.37,0,0,1-5.49,2.74,7.38,7.38,0,0,1-1.77-.21,6.51,6.51,0,0,1-1.6-.62,5.5,5.5,0,0,1-1.13-.78l-.07-.07v4a1.55,1.55,0,0,1-.1.56,1.36,1.36,0,0,1-.31.47,1.21,1.21,0,0,1-.43.28,1.14,1.14,0,0,1-.48.07,1.31,1.31,0,0,1-.49-.1,1.33,1.33,0,0,1-.42-.28l0,0a1.52,1.52,0,0,1-.27-.49Zm9.07-17.16a4.07,4.07,0,0,0-5.41,1.39h0a6.5,6.5,0,0,0-.83,1.93,9.76,9.76,0,0,0-.28,2.43,9.59,9.59,0,0,0,.28,2.41,6.53,6.53,0,0,0,.83,1.93,4.13,4.13,0,0,0,1.47,1.4,4.45,4.45,0,0,0,3.95,0,4.16,4.16,0,0,0,1.48-1.4,6.46,6.46,0,0,0,.85-1.93,9.4,9.4,0,0,0,.29-2.4,9.55,9.55,0,0,0-.29-2.43,6.45,6.45,0,0,0-.85-1.93,4.15,4.15,0,0,0-1.48-1.4Zm23-2.06a1.52,1.52,0,0,1,.1.57V33.94a1.48,1.48,0,0,1-.1.55,1.38,1.38,0,0,1-.31.46,1.28,1.28,0,0,1-.43.28,1.36,1.36,0,0,1-1,0,1.26,1.26,0,0,1-.42-.28,1.21,1.21,0,0,1-.3-.47,1.64,1.64,0,0,1-.09-.55V23.6L186,33.34V34a1.31,1.31,0,0,1-.11.53,1.29,1.29,0,0,1-.3.42l0,0a1.29,1.29,0,0,1-.41.25,1.37,1.37,0,0,1-.47.08,1.58,1.58,0,0,1-.47-.07,1.33,1.33,0,0,1-.42-.22l0,0a1.15,1.15,0,0,1-.29-.4v0a1.35,1.35,0,0,1-.1-.52V19.3a1.34,1.34,0,0,1,.09-.49v0a1.15,1.15,0,0,1,.29-.42l0,0a1.33,1.33,0,0,1,.42-.22,1.57,1.57,0,0,1,.47-.07,1.46,1.46,0,0,1,.42.06h0a1.3,1.3,0,0,1,.37.2l0,0a1.16,1.16,0,0,1,.32.4v0a1.25,1.25,0,0,1,.11.53v10.5L194.23,20v-.52a1.74,1.74,0,0,1,.09-.57,1.23,1.23,0,0,1,.3-.48l0,0a1.28,1.28,0,0,1,.42-.25,1.43,1.43,0,0,1,.48-.08,1.32,1.32,0,0,1,.5.09,1.25,1.25,0,0,1,.41.27h0a1.24,1.24,0,0,1,.32.46Zm5,15V19.51a1.9,1.9,0,0,1,.09-.59,1.36,1.36,0,0,1,.26-.46l.06-.06a1.29,1.29,0,0,1,.43-.25,1.47,1.47,0,0,1,.49-.08,1.24,1.24,0,0,1,.49.1,1.27,1.27,0,0,1,.39.26l0,0a1.35,1.35,0,0,1,.31.49,1.65,1.65,0,0,1,.1.58v5.71h8.41V19.36a1.5,1.5,0,0,1,.09-.53,1.26,1.26,0,0,1,.29-.45l0,0a1.39,1.39,0,0,1,.41-.21,1.55,1.55,0,0,1,.47-.07,1.35,1.35,0,0,1,.48.09,1.27,1.27,0,0,1,.38.23l0,0a1.24,1.24,0,0,1,.31.43v0a1.49,1.49,0,0,1,.1.56V34a1.47,1.47,0,0,1-.1.55A1.37,1.37,0,0,1,215,35l0,0a1.3,1.3,0,0,1-.38.24h0a1.4,1.4,0,0,1-.45.09h0a1.5,1.5,0,0,1-.48-.08,1.33,1.33,0,0,1-.42-.24l0,0a1.4,1.4,0,0,1-.28-.46,1.58,1.58,0,0,1-.09-.54V27.63h-8.41v6.26a1.66,1.66,0,0,1-.1.58,1.35,1.35,0,0,1-.31.49,1.32,1.32,0,0,1-.37.28h0a1.17,1.17,0,0,1-.5.11h0a1.45,1.45,0,0,1-.48-.12,1.42,1.42,0,0,1-.41-.28l0,0a1.52,1.52,0,0,1-.27-.5,1.86,1.86,0,0,1-.09-.57ZM220,18.56h12.81a1.6,1.6,0,0,1,.52.08,1.28,1.28,0,0,1,.44.26l0,0a1.24,1.24,0,0,1,.26.38,1.16,1.16,0,0,1,.09.46,1.28,1.28,0,0,1-.07.42v0a1.23,1.23,0,0,1-.2.35l0,.05a1.26,1.26,0,0,1-.43.28h0a1.51,1.51,0,0,1-.53.09h-5V34a1.4,1.4,0,0,1-.09.5v0a1.24,1.24,0,0,1-.32.45,1.3,1.3,0,0,1-.37.26h0a1.23,1.23,0,0,1-.49.1,1.41,1.41,0,0,1-.47-.08h0a1.35,1.35,0,0,1-.42-.25l0,0a1.4,1.4,0,0,1-.28-.46,1.56,1.56,0,0,1-.09-.53V21H220a1.12,1.12,0,0,1-.86-.34,1.26,1.26,0,0,1-.3-.89V19.7a1.13,1.13,0,0,1,.28-.81h0a1.12,1.12,0,0,1,.8-.32ZM98.7,49.56a.86.86,0,0,1,.45-.65.94.94,0,0,1,.68-.09.92.92,0,0,1,.59.4,1,1,0,0,1,.13.8h0A4.73,4.73,0,0,1,99,52.42a5.19,5.19,0,0,1-3.43,1.12,5,5,0,0,1-4-1.67,6.73,6.73,0,0,1-1.46-4.55A6.37,6.37,0,0,1,91.69,43a5,5,0,0,1,3.91-1.75,5.35,5.35,0,0,1,3.44,1,4.14,4.14,0,0,1,1.44,2.51,1,1,0,0,1-.15.69.89.89,0,0,1-.57.41.82.82,0,0,1-.68-.12,1,1,0,0,1-.42-.68,2.44,2.44,0,0,0-1.05-1.65,3.67,3.67,0,0,0-2-.49,3.21,3.21,0,0,0-2.55,1.11,4.82,4.82,0,0,0-1,3.26,5.12,5.12,0,0,0,1,3.44,3.23,3.23,0,0,0,2.55,1.05,3.39,3.39,0,0,0,2-.53,2.84,2.84,0,0,0,1.12-1.71Zm8.75-3.75v6.8a.89.89,0,0,1-.29.68.87.87,0,0,1-.63.26.94.94,0,0,1-.63-.23l0,0,0,0a1,1,0,0,1-.25-.68v-6.8H103a.79.79,0,0,1-.84-.86.78.78,0,0,1,.84-.87h6.9a1,1,0,0,1,.66.23h0a.85.85,0,0,1,.25.6.88.88,0,0,1-.21.58h0a.94.94,0,0,1-.68.27Zm4-.74a.82.82,0,0,1,0-.76,1,1,0,0,1,.47-.41,1,1,0,0,1,.66-.07.8.8,0,0,1,.56.51l2.11,5.44,2.08-5.38a.82.82,0,0,1,.55-.53,1.07,1.07,0,0,1,.61,0,1,1,0,0,1,.56.36.77.77,0,0,1,.08.76l-3.51,8.74a3.57,3.57,0,0,1-1,1.35,2.17,2.17,0,0,1-1.39.48h-.7a.88.88,0,0,1-.69-1.45h0a.91.91,0,0,1,.66-.25h.7a.33.33,0,0,0,.25-.09,2.11,2.11,0,0,0,.32-.5l.44-1-2.83-7.16Zm8.68,6.69a6.71,6.71,0,0,0,1.47-2.64,12.4,12.4,0,0,0,.46-3.57,1.46,1.46,0,0,1,.41-1.13,1.79,1.79,0,0,1,1.17-.33h2.28a1.79,1.79,0,0,1,1.24.42,1.47,1.47,0,0,1,.47,1.13v5.89a1.31,1.31,0,0,0,.06.45.64.64,0,0,0,.31.21,1,1,0,0,1,.58.42,1.33,1.33,0,0,1,.18.65l.13,1.4a.73.73,0,0,1-.58.82.68.68,0,0,1-.82-.51,3.68,3.68,0,0,0-.73-1.39,1,1,0,0,0-.75-.31h-4.29a.5.5,0,0,0-.39.2,2.55,2.55,0,0,0-.44,1.29v0a.83.83,0,0,1-.77.71.69.69,0,0,1-.74-.82l.11-1.81a1.26,1.26,0,0,1,.08-.51v0a1.49,1.49,0,0,1,.29-.32l.25-.22Zm16.05-4.16-4,4.74v.29a.91.91,0,0,1-.92.91,1,1,0,0,1-.61-.2l0,0a.87.87,0,0,1-.29-.67v-8a.86.86,0,0,1,.29-.66l0,0a1,1,0,0,1,.61-.2.94.94,0,0,1,.6.2.85.85,0,0,1,.32.68v5.07l4-4.79v-.2a1,1,0,0,1,.27-.71l0,0a.92.92,0,0,1,.63-.23.87.87,0,0,1,.64.25.92.92,0,0,1,.3.71v7.8a1,1,0,0,1-.28.7.92.92,0,0,1-1.29,0,1,1,0,0,1-.27-.7v-5Zm5.4,1.76a2.4,2.4,0,0,1-.73-.71,2.94,2.94,0,0,1-.51-1.69,2.76,2.76,0,0,1,.86-2.13,3,3,0,0,1,2.09-.73h2.35a1.9,1.9,0,0,1,1.35.45,1.66,1.66,0,0,1,.44,1.21v6.86a1,1,0,0,1-.28.69l0,0a.92.92,0,0,1-.62.23.94.94,0,0,1-.63-.23l0,0,0,0a1,1,0,0,1-.25-.68V49.7h-2.2L141.77,53v0a1.08,1.08,0,0,1-.52.46h-.05a1,1,0,0,1-.64-.05.85.85,0,0,1-.46-.5.9.9,0,0,1,.09-.74l1.42-2.87Zm15-5.27h4.26a1.73,1.73,0,0,1,1.3.5,1.91,1.91,0,0,1,.45,1.32v6.72a.91.91,0,0,1-.92.93.94.94,0,0,1-.63-.23h0a.94.94,0,0,1-.27-.68V46.28a1,1,0,0,0-.08-.45l-.1,0h-3.67a1.16,1.16,0,0,0-.22,0,1.75,1.75,0,0,0,0,.45v6.34a.91.91,0,0,1-.92.93.94.94,0,0,1-.63-.23h0a.94.94,0,0,1-.27-.68V45.83a1.75,1.75,0,0,1,.46-1.28,1.85,1.85,0,0,1,1.33-.47Zm13.94,6.23a1,1,0,0,1,.51-.55h0a1,1,0,0,1,.67,0,.83.83,0,0,1,.51.46,1,1,0,0,1,0,.79,4,4,0,0,1-1.46,1.86,4,4,0,0,1-2.29.67,3.52,3.52,0,0,1-3-1.55,5.52,5.52,0,0,1-1-3.29,5.64,5.64,0,0,1,1-3.33,3.5,3.5,0,0,1,3-1.55,3.54,3.54,0,0,1,3,1.55,5.58,5.58,0,0,1,1,3.33v.67h-6.06a3.72,3.72,0,0,0,.56,1.57,1.72,1.72,0,0,0,1.52.88,1.84,1.84,0,0,0,1.27-.44,3.06,3.06,0,0,0,.74-1.05Zm9.19.63-.35.16a4.46,4.46,0,0,1-1.72.33,3.53,3.53,0,0,1-1.84-.47,2.2,2.2,0,0,1-1.12-2v-4.2a1,1,0,0,1,.27-.7.9.9,0,0,1,.65-.27.92.92,0,0,1,.62.23.93.93,0,0,1,.3.71v4a.87.87,0,0,0,.23.66,1.38,1.38,0,0,0,.93.27,2.79,2.79,0,0,0,1.29-.33,3,3,0,0,0,.73-.49v-4.1a1,1,0,0,1,.27-.71.9.9,0,0,1,.65-.27.88.88,0,0,1,.64.26.93.93,0,0,1,.29.72v7.74a1,1,0,0,1-.27.73.86.86,0,0,1-.66.3.87.87,0,0,1-.66-.3,1.06,1.06,0,0,1-.25-.72V50.94Zm9.68,1.85a4,4,0,0,1-.64.36,5,5,0,0,1-2,.38,3.54,3.54,0,0,1-2.4-.75,2.67,2.67,0,0,1-.84-2.08,2.79,2.79,0,0,1,.59-1.87A4.62,4.62,0,0,1,187,47.65a7.74,7.74,0,0,0,2-.45.55.55,0,0,0,.24-.54.94.94,0,0,0-.34-.8,2.44,2.44,0,0,0-1.37-.32,2,2,0,0,0-1.3.36,1.34,1.34,0,0,0-.4.92.86.86,0,0,1-.38.6.91.91,0,0,1-.62.17.87.87,0,0,1-.59-.28.81.81,0,0,1-.21-.74,3.1,3.1,0,0,1,1.17-2.09,3.94,3.94,0,0,1,2.35-.66,4.47,4.47,0,0,1,2.43.58,2.45,2.45,0,0,1,1.1,2.18V51.5a.28.28,0,0,0,0,.1.22.22,0,0,0,.13,0,.86.86,0,1,1,0,1.73,2.84,2.84,0,0,1-1.47-.29,1,1,0,0,1-.27-.28Zm8.85-7v6.8a.89.89,0,0,1-.29.68.87.87,0,0,1-.63.26.94.94,0,0,1-.63-.23l0,0,0,0a1,1,0,0,1-.25-.68v-6.8h-2.58A.79.79,0,0,1,193,45a.78.78,0,0,1,.84-.87h6.9a1,1,0,0,1,.66.23h0a.85.85,0,0,1,.25.6.88.88,0,0,1-.21.58h0a.94.94,0,0,1-.68.27Zm11,1.78-4,4.74v.29a.91.91,0,0,1-.92.91,1,1,0,0,1-.61-.2l0,0a.87.87,0,0,1-.29-.67v-8a.86.86,0,0,1,.29-.66l0,0a1,1,0,0,1,.61-.2.94.94,0,0,1,.6.2.85.85,0,0,1,.32.68v5.07l4-4.79v-.2a1,1,0,0,1,.29-.73.92.92,0,0,1,.63-.23.87.87,0,0,1,.64.25.92.92,0,0,1,.3.71v7.8a1,1,0,0,1-.28.7.92.92,0,0,1-1.29,0,1,1,0,0,1-.27-.7v-5Zm-86.73,3.94h3.29V45.83h-1.9v0a12.4,12.4,0,0,1-.53,3.62,9.66,9.66,0,0,1-.86,2.06ZM145.59,48V46s0-.12,0-.14a.7.7,0,0,0-.27,0h-2.15a.91.91,0,0,0-.69.24,1.29,1.29,0,0,0-.22.82,1.25,1.25,0,0,0,.25.83.9.9,0,0,0,.71.27Zm20.94-.33h4.05a3.34,3.34,0,0,0-.52-1.26,1.74,1.74,0,0,0-1.51-.84,1.72,1.72,0,0,0-1.49.82,3.33,3.33,0,0,0-.53,1.27Zm22.67,3.09V48.9L189,49a11.87,11.87,0,0,1-1.9.37,2.86,2.86,0,0,0-1.41.49,1.13,1.13,0,0,0-.31.88,1,1,0,0,0,.29.81,1.78,1.78,0,0,0,1.1.28,3.47,3.47,0,0,0,1.63-.35,2.07,2.07,0,0,0,.8-.73ZM32,17.73a3.51,3.51,0,1,1-3.51-3.51A3.51,3.51,0,0,1,32,17.73Zm0,42.35a3.51,3.51,0,1,1-3.51-3.51A3.51,3.51,0,0,1,32,60.08ZM69.23,49.81a2.12,2.12,0,1,1-2.12-2.12,2.12,2.12,0,0,1,2.12,2.12Zm-7-10.89a3,3,0,1,1-3-3,3,3,0,0,1,3,3Zm0,10.89a3,3,0,1,1-3-3,3,3,0,0,1,3,3ZM31.48,8.57a3,3,0,1,1-3-3,3,3,0,0,1,3,3Zm22,30.35a3.51,3.51,0,1,1-3.51-3.51,3.51,3.51,0,0,1,3.51,3.51Zm0,10.89a3.51,3.51,0,1,1-3.51-3.51,3.51,3.51,0,0,1,3.51,3.51Zm-9.5,0a4.42,4.42,0,1,0-4.42,4.42A4.42,4.42,0,0,0,44,49.81ZM43.67,28a4.13,4.13,0,1,1-4.13-4.13A4.13,4.13,0,0,1,43.67,28ZM44,38.92a4.42,4.42,0,1,0-4.42,4.42A4.42,4.42,0,0,0,44,38.92Zm-32.12,0a3,3,0,1,1-3-3,3,3,0,0,1,3,3Zm0-10.89a3,3,0,1,1-3-3,3,3,0,0,1,3,3Zm9.79,0a3.51,3.51,0,1,1-3.51-3.51A3.51,3.51,0,0,1,21.62,28Zm0,10.89a3.51,3.51,0,1,1-3.51-3.51,3.51,3.51,0,0,1,3.51,3.51Zm0,10.89a3.51,3.51,0,1,1-3.51-3.51,3.51,3.51,0,0,1,3.51,3.51Zm11.31,0a4.42,4.42,0,1,1-4.42-4.42,4.42,4.42,0,0,1,4.42,4.42Zm0-21.78a4.42,4.42,0,1,0-4.42,4.42A4.42,4.42,0,0,0,32.89,28Z"/></g></svg>