<?xml version="1.0" encoding="UTF-8"?>
<svg width="9px" height="17px" viewBox="0 0 9 17" version="1.1" xmlns="http://www.w3.org/2000/svg" xmlns:xlink="http://www.w3.org/1999/xlink">
    <!-- Generator: sketchtool 52.3 (67297) - http://www.bohemiancoding.com/sketch -->
    <title>5F562AF4-E05E-4D8B-992B-38FEFAEFD548</title>
    <desc>Created with sketchtool.</desc>
    <g id="Page-1" stroke="none" stroke-width="1" fill="none" fill-rule="evenodd">
        <g id="Tablet_site_-profile" transform="translate(-96.000000, -614.000000)" fill="#0077FF">
            <g id="Lv.1-Copy-3" transform="translate(86.941901, 607.284654)">
                <path d="M11.9691533,16.0196049 L16.5590743,16.0196049 L16.5590743,13.872508 L11.9691533,13.872508 L11.9691533,11.7928182 L17.740689,11.7928182 L17.740689,11.5702182 L17.740689,9.28517204 L14.7958917,9.28517204 L14.7958917,6.99176531 L12.2304226,6.99176531 L12.2304226,9.28517204 L11.4342956,9.28517204 L10.2942582,9.28517204 C9.61619,9.28517204 9.06644661,9.84532971 9.06644661,10.5355986 L9.06644661,19.373758 C9.06644661,20.0640269 9.61619,20.6241846 10.2942582,20.6241846 L11.4342956,20.6241846 L12.1785794,20.6241846 L12.1785794,22.9175913 L14.7440485,22.9175913 L14.7440485,20.6241846 L17.9598677,20.6241846 L17.9598677,18.3386159 L17.9598677,18.1165384 L11.9691533,18.1165384 L11.9691533,16.0196049 Z" id="Combined-Shape-Copy"></path>
            </g>
        </g>
    </g>
</svg>