<?xml version="1.0" encoding="UTF-8"?>
<svg width="10px" height="17px" viewBox="0 0 10 17" version="1.1" xmlns="http://www.w3.org/2000/svg" xmlns:xlink="http://www.w3.org/1999/xlink">
    <!-- Generator: sketchtool 52.3 (67297) - http://www.bohemiancoding.com/sketch -->
    <title>144587D1-5555-4655-ACD3-9D2717D1DE7C</title>
    <desc>Created with sketchtool.</desc>
    <g id="Page-1" stroke="none" stroke-width="1" fill="none" fill-rule="evenodd">
        <g id="Desktop-HD_site_profile" transform="translate(-516.000000, -516.585796)" fill="#939393">
            <g id="Lvl1_inactive" transform="translate(515.000000, 516.000000)">
                <g id="Group-4" transform="translate(0.747449, 0.480165)">
                    <path d="M3.54569434,9.65004626 L8.15430516,9.65004626 L8.15430516,7.49420656 L3.54569434,7.49420656 L3.54569434,5.40604837 L9.34073125,5.40604837 L9.34073125,5.18254199 L9.34073125,2.88819129 L6.38394303,2.88819129 L6.38394303,0.585445982 L3.80802748,0.585445982 L3.80802748,2.88819129 L3.00865873,2.88819129 L1.86397917,2.88819129 C1.18314994,2.88819129 0.63116804,3.45062988 0.63116804,4.14370952 L0.63116804,13.0178572 C0.63116804,13.7109368 1.18314994,14.2733754 1.86397917,14.2733754 L3.00865873,14.2733754 L3.75597316,14.2733754 L3.75597316,16.5761207 L6.33188872,16.5761207 L6.33188872,14.2733754 L9.56080247,14.2733754 L9.56080247,11.9785 L9.56080247,11.7555183 L3.54569434,11.7555183 L3.54569434,9.65004626 Z" id="Combined-Shape-Copy"></path>
                </g>
            </g>
        </g>
    </g>
</svg>