<?xml version="1.0" encoding="UTF-8"?>
<svg width="108px" height="32px" viewBox="0 0 108 32" version="1.1" xmlns="http://www.w3.org/2000/svg" xmlns:xlink="http://www.w3.org/1999/xlink">
    <!-- Generator: sketchtool 52.1 (67048) - http://www.bohemiancoding.com/sketch -->
    <title>23E5666A-576F-42B7-B0A7-F966946DE62F</title>
    <desc>Created with sketchtool.</desc>
    <g id="Page-1" stroke="none" stroke-width="1" fill="none" fill-rule="evenodd">
        <g id="Desktop-HD_site_fees" transform="translate(-164.499506, -19.000000)" fill="#0077FF">
            <path d="M170.655,37.2593246 L170.655,41.2723246 L182.326,41.2723246 L182.326,41.6973246 L182.326,46.0713246 L176.061,46.0713246 L176.061,50.4603246 L171.063,50.4603246 L171.063,46.0713246 L169.613,46.0713246 L167.392,46.0713246 C166.071,46.0713246 165,44.9993246 165,43.6783246 L165,26.7643246 C165,25.4433246 166.071,24.3713246 167.392,24.3713246 L169.613,24.3713246 L171.164,24.3713246 L171.164,19.9823246 L176.162,19.9823246 L176.162,24.3713246 L181.899,24.3713246 L181.899,28.7443246 L181.899,29.1703246 L170.655,29.1703246 L170.655,33.1503246 L179.597,33.1503246 L179.597,37.2593246 L170.655,37.2593246 Z M200.5378,35.3199246 L200.5378,24.3719246 L205.5348,24.3719246 L205.5348,46.0709246 L200.8918,46.0709246 C199.6898,46.0709246 198.5838,45.4159246 198.0068,44.3609246 L192.8138,34.3339246 L191.2578,31.4039246 L191.2688,35.1229246 L191.2688,46.0709246 L186.2718,46.0709246 L186.2718,24.3719246 L190.9998,24.3719246 C192.1768,24.3719246 193.2638,24.9999246 193.8508,26.0189246 L198.9928,35.4629246 L200.5278,38.2789246 L200.5378,35.3199246 Z M266.4621,24.3716246 L272.2161,24.3716246 L264.5551,38.4976246 L264.5551,46.0706246 L258.9001,46.0706246 L258.9001,38.4976246 L251.2401,24.3716246 L257.0921,24.3716246 L260.1501,30.3226246 L261.7601,33.3896246 L263.4041,30.3226246 L266.4621,24.3716246 Z M247.778,37.2418246 C247.06,37.8458246 246.187,38.2988246 245.16,38.6028246 L251.24,46.0708246 L245.36,46.0708246 L239.658,39.0658246 L237.257,39.0658246 L237.257,46.0708246 L231.602,46.0708246 L231.602,36.7718246 C231.602,35.4498246 232.674,34.3788246 233.996,34.3788246 L237.257,34.3788246 L238.398,34.3788246 L240.912,34.3788246 C242.139,34.3788246 243.044,34.1428246 243.625,33.6718246 C244.205,33.2008246 244.487,32.7568246 244.487,31.7698246 C244.487,30.8058246 244.205,30.3488246 243.625,29.8778246 C243.044,29.4058246 242.139,29.1708246 240.912,29.1708246 L238.398,29.1708246 L237.257,29.1708246 L231.602,29.1708246 L231.602,24.3718246 L241.564,24.3718246 C244.26,24.3718246 246.331,24.9908246 247.778,26.2288246 C249.224,27.4678246 249.948,29.4978246 249.948,31.8208246 C249.948,34.0348246 249.224,36.0248246 247.778,37.2418246 Z M208.8586,28.7447246 L208.8586,24.3717246 L228.6836,24.3717246 L228.6836,28.7447246 L228.6836,29.1707246 L221.6146,29.1707246 L221.6146,46.0707246 L215.9596,46.0707246 L215.9596,29.1707246 L208.8586,29.1707246 L208.8586,28.7447246 Z" id="Combined-Shape"></path>
        </g>
    </g>
</svg>