<?xml version="1.0" encoding="UTF-8"?>
<svg width="19px" height="18px" viewBox="0 0 19 18" version="1.1" xmlns="http://www.w3.org/2000/svg" xmlns:xlink="http://www.w3.org/1999/xlink">
    <!-- Generator: sketchtool 52.1 (67048) - http://www.bohemiancoding.com/sketch -->
    <title>EE59EB86-30E0-4FAB-AFF9-4AA0F32F34FA</title>
    <desc>Created with sketchtool.</desc>
    <g id="Page-1" stroke="none" stroke-width="1" fill="none" fill-rule="evenodd">
        <g id="Desktop-HD_night" transform="translate(-1103.000000, -241.000000)" fill="#0077FF">
            <g id="icon_active-star" transform="translate(1103.000000, 241.000000)">
                <path d="M10.1273436,1.29578471 L11.8708537,6.605904 C11.9448567,6.83346659 12.1589719,6.98680275 12.3997283,6.98680275 L18.0407283,6.98680275 C18.57947,6.98680275 18.8034523,7.66949052 18.3683148,7.98397615 L13.8038114,11.2655654 C13.6094302,11.406205 13.5275336,11.6533008 13.6015366,11.8808634 L15.3450467,17.1909827 C15.5118,17.6988477 14.9247098,18.1207663 14.4885856,17.8072573 L9.92506881,14.5256681 C9.73068767,14.3850285 9.46625037,14.3850285 9.27088252,14.5256681 L4.70736577,17.8072573 C4.27124157,18.1207663 3.68415131,17.6988477 3.85090468,17.1909827 L5.59441476,11.8808634 C5.66841773,11.6533008 5.5865211,11.406205 5.39213996,11.2655654 L0.828623207,7.98397615 C0.392499012,7.66949052 0.616481348,6.98680275 1.155223,6.98680275 L6.79720976,6.98680275 C7.03796611,6.98680275 7.25109467,6.83346659 7.32608435,6.605904 L9.06860772,1.29578471 C9.23536109,0.787919709 9.96059024,0.787919709 10.1273436,1.29578471" id="Fill-52"></path>
            </g>
        </g>
    </g>
</svg>