<?xml version="1.0" encoding="UTF-8"?>
<svg width="11px" height="11px" viewBox="0 0 11 11" version="1.1" xmlns="http://www.w3.org/2000/svg" xmlns:xlink="http://www.w3.org/1999/xlink">
    <!-- Generator: sketchtool 52.3 (67297) - http://www.bohemiancoding.com/sketch -->
    <title>52CBAB06-B129-4FBE-AE6A-54CB395DE004</title>
    <desc>Created with sketchtool.</desc>
    <g id="Page-1" stroke="none" stroke-width="1" fill="none" fill-rule="evenodd">
        <g id="Mobile_site_profile" transform="translate(-135.000000, -17.000000)" fill="#0077FF" fill-rule="nonzero">
            <g id="mobile_home_icon_daymode" transform="translate(134.998786, 16.952730)">
                <g id="house-black-silhouette-without-door-copy-2" transform="translate(0.326633, 0.349573)">
                    <path d="M10.0685712,4.84579691 C10.2534037,4.64251767 10.2355553,4.33095135 10.0287196,4.15007403 L5.47185445,0.162796227 C5.26501882,-0.0180810848 4.93341041,-0.0142920342 4.73092886,0.17133821 L0.158575093,4.36265972 C-0.0439064553,4.54828996 -0.0538444039,4.85945744 0.13657201,5.05738547 L0.25120741,5.17677381 C0.441391163,5.37470185 0.748802824,5.39830032 0.937391187,5.22932196 L1.27910373,4.92330626 L1.27910373,9.40342655 C1.27910373,9.67829891 1.50182678,9.90082254 1.77649972,9.90082254 L3.55881596,9.90082254 C3.8334889,9.90082254 4.05621195,9.67829891 4.05621195,9.40342655 L4.05621195,6.26915046 L6.32957586,6.26915046 L6.32957586,9.40342655 C6.32562063,9.67809948 6.5221527,9.90062312 6.79682563,9.90062312 L8.68563414,9.90062312 C8.96030708,9.90062312 9.18303013,9.67809948 9.18303013,9.40322713 L9.18303013,4.98639063 C9.18303013,4.98639063 9.27742403,5.069085 9.39385424,5.1714226 C9.51008503,5.27356078 9.7542129,5.19166411 9.93904545,4.98818544 L10.0685712,4.84579691 Z" id="Shape"></path>
                </g>
            </g>
        </g>
    </g>
</svg>