<?xml version="1.0" encoding="UTF-8"?>
<svg width="86px" height="81px" viewBox="0 0 86 81" version="1.1" xmlns="http://www.w3.org/2000/svg" xmlns:xlink="http://www.w3.org/1999/xlink">
    <!-- Generator: sketchtool 52.3 (67297) - http://www.bohemiancoding.com/sketch -->
    <title>FEC63A06-8278-415D-AFBC-C7BFC84FAAD9</title>
    <desc>Created with sketchtool.</desc>
    <g id="Page-1" stroke="none" stroke-width="1" fill="none" fill-rule="evenodd">
        <g id="Desktop-HD_site_deposit_withdrawal" transform="translate(-677.000000, -720.000000)">
            <g id="Group-3" transform="translate(629.000000, 720.685330)">
                <g id="icon-history" transform="translate(48.000000, 0.000000)">
                    <g id="003-paper" transform="translate(0.500000, 0.172371)">
                        <path d="M68.9761926,7.01281837 L68.9761926,70.4398645 L53.0586097,76.6113881 L44.7813285,79.790289 L18.5705134,79.790289 C14.1662342,79.790289 10.6117219,76.6576534 10.6117219,72.7774707 L10.6117219,18.8566894 L2.97142027,10.5344463 L5.30586097,0 L61.0174012,0 C65.4216804,0 68.9761926,3.13202692 68.9761926,7.01281837 Z" id="Path" fill="#FAECD8"></path>
                        <path d="M68.9761926,7.01281837 L68.9761926,70.4398645 L53.0586097,76.6113881 L53.0586097,0 L61.0174012,0 C65.4216804,0 68.9761926,3.13202692 68.9761926,7.01281837 Z" id="Path" fill="#F8E5CA"></path>
                        <path d="M10.6117219,18.8566894 L0,18.8566894 L0,4.67521225 C0,2.09288806 2.37520191,0 5.30586097,0 C8.23652003,0 10.6117219,2.09288806 10.6117219,4.67521225 L10.6117219,18.8566894 Z" id="Path" fill="#F8E5CA"></path>
                        <path d="M79.5879146,65.7646523 L79.5879146,72.7774707 C79.5879146,76.6576534 76.0334023,79.790289 71.6291231,79.790289 L18.5705134,79.790289 C22.9747926,79.790289 26.5293049,76.6576534 26.5293049,72.7774707 L26.5293049,65.7646523 L79.5879146,65.7646523 Z" id="Path" fill="#F4D7AF"></path>
                        <path d="M81.7634557,28.7683828 L75.9270086,30.4040984 L76.5107915,33.443595 L66.8006515,41.99899 L60.5400118,43.8222011 L61.4415938,46.6742023 L53.0586097,54.0607942 L50.1935829,56.5858957 L31.4634793,56.5858957 L31.4634793,40.0820313 L46.054597,27.1783238 L50.0871895,27.3189453 L50.2992858,23.4850278 L53.0586097,21.0536739 L62.237473,12.9189264 C67.2780409,8.52434862 75.9802054,8.52434862 81.0207733,12.9189264 C83.5141136,15.1165196 84.8937756,18.0616599 84.8937756,21.1942955 C84.8937756,23.9994229 83.7794066,26.6639286 81.7634557,28.7683828 Z" id="Path" fill="#E63950"></path>
                        <path d="M81.7634557,28.7683828 L75.9270086,30.4040984 L76.5107915,33.443595 L66.8006515,41.99899 L60.5400118,43.8222011 L61.4415938,46.6742023 L53.0586097,54.0607942 L53.0586097,21.0536739 L62.237473,12.9189264 C67.2780409,8.52434862 75.9802054,8.52434862 81.0207733,12.9189264 C83.5141136,15.1165196 84.8937756,18.0616599 84.8937756,21.1942955 C84.8937756,23.9994229 83.7794066,26.6639286 81.7634557,28.7683828 Z" id="Path" fill="#CC2E43"></path>
                        <path d="M53.0586097,65.7646523 L79.5879146,65.7646523 L79.5879146,72.7774707 C79.5879146,76.6576534 76.0334023,79.790289 71.6291231,79.790289 L53.0586097,79.790289 L53.0586097,65.7646523 Z" id="Path" fill="#F1C992"></path>
                        <path d="M81.7634557,28.7683828 C81.5513594,29.0021434 81.2860664,29.2352953 81.0207733,29.4690559 L76.5101007,33.443595 L61.4947905,33.443595 L51.7853412,41.99899 L66.8006515,41.99899 L61.4422846,46.6742023 L46.4794802,46.6742023 L28.4927497,62.5230501 L24.7254503,59.2035277 L49.8218964,37.0900172 L46.054597,27.1783238 L50.2992858,23.4850278 L53.0586097,30.8253545 L54.0133884,33.3967212 L69.7720718,19.5579712 L73.4861745,22.8306198 L66.8006515,28.7683828 L81.7634557,28.7683828 Z" id="Path" fill="#804231"></path>
                        <g id="Group" transform="translate(53.058610, 19.480051)" fill="#663325">
                            <polygon id="Path" points="8.3836749 27.1941512 0 27.1941512 0 22.518939 13.7420418 22.518939"></polygon>
                            <path d="M28.704846,9.28833176 C28.4927497,9.52209237 28.2274566,9.75524427 27.9621636,9.98900488 L23.4514909,13.963544 L8.43618082,13.963544 L-1.13686838e-13,21.3970098 L-1.13686838e-13,11.3453034 L0.954778717,13.9166702 L16.7134621,0.0779202041 L20.4275647,3.35056878 L13.7420418,9.28833176 L28.704846,9.28833176 Z" id="Path"></path>
                        </g>
                    </g>
                </g>
            </g>
        </g>
    </g>
</svg>