<?xml version="1.0" encoding="UTF-8"?>
<svg width="38px" height="37px" viewBox="0 0 38 37" version="1.1" xmlns="http://www.w3.org/2000/svg" xmlns:xlink="http://www.w3.org/1999/xlink">
    <!-- Generator: sketchtool 52.3 (67297) - http://www.bohemiancoding.com/sketch -->
    <title>40EA8BF3-DB2A-4DCD-9395-91B1E3944D3E</title>
    <desc>Created with sketchtool.</desc>
    <g id="Page-1" stroke="none" stroke-width="1" fill="none" fill-rule="evenodd">
        <g id="Tablet_site_-contacts" transform="translate(-692.000000, -439.000000)">
            <g id="icon_instagram" transform="translate(691.984971, 438.775346)">
                <g id="Group-20" transform="translate(0.619793, 0.000000)">
                    <ellipse id="Oval" fill="#0077FF" cx="18.6301912" cy="18.5044281" rx="18.4" ry="18.0923046"></ellipse>
                    <g id="instagram-logo" transform="translate(7.672108, 7.304428)" fill="#FFFFFF">
                        <path d="M15.8033829,0 L6.02332423,0 C2.70206526,0 0,2.70219431 0,6.02345321 L0,15.8035117 C0,19.1248997 2.70206526,21.8269649 6.02332423,21.8269649 L15.8033829,21.8269649 C19.1249001,21.8269649 21.8269653,19.1247706 21.8269653,15.8035117 L21.8269653,6.02345321 C21.8270944,2.70219431 19.1249001,0 15.8033829,0 Z M19.8905005,15.8035125 C19.8905005,18.0570627 18.0570622,19.8903719 15.8035121,19.8903719 L6.0233243,19.8903719 C3.76990334,19.890501 1.9365942,18.0570627 1.9365942,15.8035125 L1.9365942,6.0234535 C1.9365942,3.77003246 3.76990334,1.93659416 6.0233243,1.93659416 L15.803383,1.93659416 C18.0569331,1.93659416 19.8903713,3.77003246 19.8903713,6.0234535 L19.8903713,15.8035125 L19.8905005,15.8035125 Z" id="Shape" fill-rule="nonzero"></path>
                        <path d="M10.913483,5.2894843 C7.81222108,5.2894843 5.28922615,7.81247908 5.28922615,10.9137409 C5.28922615,14.0148735 7.81222108,16.5377392 10.913483,16.5377392 C14.014745,16.5377392 16.5377399,14.0148735 16.5377399,10.9137409 C16.5377399,7.81247908 14.014745,5.2894843 10.913483,5.2894843 Z M10.9134829,14.6010163 C8.88018815,14.6010163 7.22582035,12.9469067 7.22582035,10.9136119 C7.22582035,8.88018806 8.88005904,7.22594933 10.9134829,7.22594933 C12.9469067,7.22594933 14.6011454,8.88018806 14.6011454,10.9136119 C14.6011454,12.9469067 12.9467776,14.6010163 10.9134829,14.6010163 Z" id="Shape" fill-rule="nonzero"></path>
                        <path d="M16.7736176,3.64738152 C16.4005004,3.64738152 16.0339677,3.79843586 15.7704618,4.06310373 C15.5056648,4.32648053 15.3534485,4.69314235 15.3534485,5.06755055 C15.3534485,5.4407968 15.5057939,5.80732952 15.7704618,6.07199738 C16.0338386,6.33537419 16.4005004,6.48771959 16.7736176,6.48771959 C17.1480258,6.48771959 17.5133965,6.33537419 17.7780644,6.07199738 C18.0427323,5.80732952 18.1937866,5.44066769 18.1937866,5.06755055 C18.1937866,4.69314235 18.0427323,4.32648053 17.7780644,4.06310373 C17.5146876,3.79843586 17.1480258,3.64738152 16.7736176,3.64738152 Z" id="Path"></path>
                    </g>
                </g>
            </g>
        </g>
    </g>
</svg>