<?xml version="1.0" encoding="UTF-8"?>
<svg width="19px" height="15px" viewBox="0 0 19 15" version="1.1" xmlns="http://www.w3.org/2000/svg" xmlns:xlink="http://www.w3.org/1999/xlink">
    <!-- Generator: sketchtool 52.3 (67297) - http://www.bohemiancoding.com/sketch -->
    <title>E00CF42E-256B-4806-96BD-C5F96090B6B0</title>
    <desc>Created with sketchtool.</desc>
    <g id="Page-1" stroke="none" stroke-width="1" fill="none" fill-rule="evenodd">
        <g id="Desktop-HD_site_profile" transform="translate(-1158.000000, -537.585796)" fill="#0077FF">
            <g id="icon_email" transform="translate(1157.541217, 537.914493)">
                <g id="envelope" transform="translate(0.900060, 0.199368)">
                    <path d="M1.68723419,4.2855666 C1.90960579,4.44248425 2.57991597,4.90853004 3.6981991,5.68346345 C4.81651658,6.45839686 5.67322447,7.05507566 6.26835711,7.4735342 C6.33374233,7.51940349 6.47265586,7.61911338 6.68516642,7.77280129 C6.89771134,7.92659228 7.07431671,8.05086886 7.21484512,8.14566541 C7.3554766,8.24042759 7.52548505,8.34673441 7.72504225,8.46441407 C7.92453074,8.58199064 8.11257768,8.67043077 8.2891487,8.72897854 C8.46575408,8.78800735 8.62923431,8.81724687 8.77962375,8.81724687 L8.78948479,8.81724687 L8.79938019,8.81724687 C8.94976963,8.81724687 9.11331858,8.78797299 9.28992396,8.72897854 C9.46642627,8.67043077 9.65464499,8.58188757 9.85396169,8.46441407 C10.0533815,8.34659698 10.2233899,8.24039324 10.3640214,8.14566541 C10.5046529,8.05086886 10.6811208,7.92659228 10.8937344,7.77280129 C11.1062106,7.61897594 11.245296,7.51940349 11.3106812,7.4735342 C11.912239,7.05507566 13.4426929,5.99231671 15.9015621,4.28536044 C16.3789463,3.95197484 16.7777859,3.5496994 17.0981838,3.07880899 C17.4188222,2.60812473 17.5789696,2.11435121 17.5789696,1.59776329 C17.5789696,1.16607653 17.4235637,0.796545232 17.1128894,0.48920377 C16.8022495,0.18179359 16.4343331,0.028174398 16.0093807,0.028174398 L1.56948582,0.028174398 C1.06595433,0.028174398 0.678453271,0.198182845 0.407051347,0.538199737 C0.135683782,0.878285348 0,1.30337518 0,1.81343488 C0,2.22543393 0.179903845,2.67189507 0.539539741,3.15254345 C0.899141277,3.63322618 1.28183208,4.01093492 1.68723419,4.2855666 Z" id="Path"></path>
                    <path d="M16.5978828,5.33509742 C14.4530551,6.78680053 12.8244373,7.91501343 11.7128198,8.71949561 C11.3400587,8.99405857 11.0376649,9.20839016 10.8054323,9.36197499 C10.5731996,9.5156629 10.2643464,9.67261492 9.87842579,9.83276233 C9.49264266,9.99315026 9.13310983,10.0731037 8.79951805,10.0731037 L8.78951958,10.0731037 L8.77965854,10.0731037 C8.44613548,10.0731037 8.08639649,9.99315026 7.70061336,9.83276233 C7.31483023,9.67261492 7.0057708,9.5156629 6.77360687,9.36197499 C6.54151166,9.20839016 6.23901481,8.99405857 5.8662881,8.71949561 C4.98336424,8.07210288 3.35825109,6.94382126 0.990879917,5.33509742 C0.61801578,5.08675039 0.287756833,4.80208588 0,4.48168799 L0,12.2703633 C0,12.7022562 0.1536192,13.0715813 0.461029395,13.3789572 C0.768370872,13.6864361 1.13793654,13.840124 1.56958897,13.840124 L16.0095189,13.840124 C16.4410683,13.840124 16.8105996,13.6864361 17.1179754,13.3789572 C17.4254543,13.0714783 17.5790048,12.7022906 17.5790048,12.2703633 L17.5790048,4.48168799 C17.2977418,4.79545459 16.9708501,5.0801191 16.5978828,5.33509742 Z" id="Path"></path>
                </g>
            </g>
        </g>
    </g>
</svg>