<?xml version="1.0" encoding="UTF-8"?>
<svg width="26px" height="13px" viewBox="0 0 26 13" version="1.1" xmlns="http://www.w3.org/2000/svg" xmlns:xlink="http://www.w3.org/1999/xlink">
    <!-- Generator: sketchtool 52.3 (67297) - http://www.bohemiancoding.com/sketch -->
    <title>2426C582-4AB3-4677-A553-86E873D3A55F</title>
    <desc>Created with sketchtool.</desc>
    <g id="Page-1" stroke="none" stroke-width="1" fill="none" fill-rule="evenodd">
        <g id="Desktop-HD_site_balances" transform="translate(-595.000000, -259.000000)" fill="#0077FF">
            <g id="icon_switch" transform="translate(594.000000, 259.000000)">
                <g id="icon_swtich_daymode" transform="translate(0.042040, 0.071850)">
                    <g id="Group-335-Copy" transform="translate(13.373591, 6.566387) rotate(90.000000) translate(-13.373591, -6.566387) translate(7.373591, -6.433613)">
                        <path d="M4.98019144,0.47337557 L0.124076041,8.88425263 C-0.223093612,9.48487743 0.210335986,10.2345935 0.903610355,10.2345935 L10.6158412,10.2345935 C11.3091155,10.2345935 11.7425451,9.48487743 11.3953755,8.88425263 L6.53926007,0.47337557 C6.19315535,-0.126184292 5.32629615,-0.126184292 4.98019144,0.47337557" id="Fill-331"></path>
                        <path d="M6.53957955,24.5894197 L11.3956949,16.1785426 C11.7417997,15.5779178 11.309435,14.8271368 10.6161606,14.8271368 L0.903929836,14.8271368 C0.210655467,14.8271368 -0.222774131,15.5779178 0.124395522,16.1785426 L4.98051092,24.5894197 C5.32661564,25.1889796 6.19240989,25.1889796 6.53957955,24.5894197" id="Fill-333"></path>
                    </g>
                </g>
            </g>
        </g>
    </g>
</svg>