<?xml version="1.0" encoding="UTF-8"?>
<svg width="17px" height="18px" viewBox="0 0 17 18" version="1.1" xmlns="http://www.w3.org/2000/svg" xmlns:xlink="http://www.w3.org/1999/xlink">
    <!-- Generator: sketchtool 52.3 (67297) - http://www.bohemiancoding.com/sketch -->
    <title>7A81405D-0B19-4758-BA48-E7D481F45957</title>
    <desc>Created with sketchtool.</desc>
    <g id="Page-1" stroke="none" stroke-width="1" fill="none" fill-rule="evenodd">
        <g id="Desktop-HD_site_deposit_withdrawal_two" transform="translate(-977.000000, -1432.000000)" fill="#0077FF">
            <g id="Group-4" transform="translate(164.000000, 1400.000000)">
                <g id="icon_document" transform="translate(813.362422, 31.654485)">
                    <g id="004-writing" transform="translate(0.081376, 0.508566)">
                        <path d="M11.3107096,7.62226224 C11.3107096,7.23955538 11.0004835,6.92932931 10.6177767,6.92932931 L3.48056747,6.92932931 C3.09786061,6.92932931 2.78763454,7.23955538 2.78763454,7.62226224 C2.78763454,8.0049691 3.09786061,8.31519517 3.48056747,8.31519517 L10.6177767,8.31519517 C11.0004835,8.31519517 11.3107096,8.0049691 11.3107096,7.62226224 Z" id="Path"></path>
                        <path d="M3.48056747,9.70106103 C3.09786061,9.70106103 2.78763454,10.0112871 2.78763454,10.393994 C2.78763454,10.7767008 3.09786061,11.0869269 3.48056747,11.0869269 L7.81524406,11.0869269 C8.19795092,11.0869269 8.50817699,10.7767008 8.50817699,10.393994 C8.50817699,10.0112871 8.19795092,9.70106103 7.81524406,9.70106103 L3.48056747,9.70106103 Z" id="Path"></path>
                        <path d="M5.10895985,16.3532172 L2.79148031,16.3532172 C2.02731388,16.3532172 1.40561445,15.7315177 1.40561445,14.9673513 L1.40561445,2.77173172 C1.40561445,2.00756529 2.02731388,1.38586586 2.79148031,1.38586586 L11.3107096,1.38586586 C12.074876,1.38586586 12.6965754,2.00756529 12.6965754,2.77173172 L12.6965754,7.03326925 C12.6965754,7.41597611 13.0068015,7.72620218 13.3895084,7.72620218 C13.7722152,7.72620218 14.0824413,7.41597611 14.0824413,7.03326925 L14.0824413,2.77173172 C14.0824413,1.24339885 12.8390425,0 11.3107096,0 L2.79148031,0 C1.26314744,0 0.0197485885,1.24339885 0.0197485885,2.77173172 L0.0197485885,14.9673513 C0.0197485885,16.4956842 1.26314744,17.739083 2.79148031,17.739083 L5.10895985,17.739083 C5.49166671,17.739083 5.80189279,17.428857 5.80189279,17.0461501 C5.80189279,16.6634432 5.49166671,16.3532172 5.10895985,16.3532172 Z" id="Path"></path>
                        <path d="M15.3097988,10.0326987 C14.4992751,9.22217509 13.1804852,9.22214044 12.3704812,10.0321444 L8.56617548,13.828031 C8.4853795,13.9086537 8.42578727,14.007951 8.39259578,14.1171573 L7.56409052,16.8447145 C7.49063963,17.0865481 7.55463199,17.349135 7.73112201,17.5300252 C7.86333361,17.6655282 8.04294182,17.739083 8.22715804,17.739083 C8.28879443,17.739083 8.35101981,17.7308371 8.41210184,17.7138949 L11.2089524,16.9391613 C11.3240485,16.9072863 11.4289586,16.8462043 11.5134964,16.7618051 L15.3098334,12.9726053 C16.1203571,12.1620816 16.1203571,10.8432917 15.3097988,10.0326987 Z M10.6634063,15.6522462 L9.25633668,16.042021 L9.66811207,14.6863324 L12.2350475,12.125079 L13.2152011,13.1052326 L10.6634063,15.6522462 Z M14.3303727,11.9922438 L14.196117,12.1262224 L13.2161366,11.146242 L13.3499419,11.0127138 C13.6201165,10.7425392 14.0597131,10.7425392 14.3298877,11.0127138 C14.6000622,11.2828883 14.6000622,11.722485 14.3303727,11.9922438 Z" id="Shape" fill-rule="nonzero"></path>
                        <path d="M10.6177767,4.15759759 L3.48056747,4.15759759 C3.09786061,4.15759759 2.78763454,4.46782366 2.78763454,4.85053052 C2.78763454,5.23323738 3.09786061,5.54346345 3.48056747,5.54346345 L10.6177767,5.54346345 C11.0004835,5.54346345 11.3107096,5.23323738 11.3107096,4.85053052 C11.3107096,4.46782366 11.0004835,4.15759759 10.6177767,4.15759759 Z" id="Path"></path>
                    </g>
                </g>
            </g>
        </g>
    </g>
</svg>