<?xml version="1.0" encoding="UTF-8"?>
<svg width="45px" height="32px" viewBox="0 0 45 32" version="1.1" xmlns="http://www.w3.org/2000/svg" xmlns:xlink="http://www.w3.org/1999/xlink">
    <!-- Generator: sketchtool 52.3 (67297) - http://www.bohemiancoding.com/sketch -->
    <title>5ADD276B-2947-4228-9456-0FD8AF5B3D42</title>
    <desc>Created with sketchtool.</desc>
    <g id="Page-1" stroke="none" stroke-width="1" fill="none" fill-rule="evenodd">
        <g id="Desktop-HD_site_profile" transform="translate(-196.000000, -1022.585796)">
            <g id="Icon_key" transform="translate(195.000000, 1022.512548)">
                <g id="002-key" transform="translate(0.990945, 0.376378)">
                    <path d="M44.8470665,20.1416513 L40.1754971,16.5481363 L18.8300183,16.5481363 C17.1051311,13.6733244 13.7990974,11.5172154 10.0618418,11.5172154 C4.52782883,11.5172154 0,14.9669897 0,20.572873 C0,26.1787564 4.52782883,31.7127694 10.0618418,31.7127694 C13.7990974,31.7127694 17.7519638,29.4129198 19.5487213,26.5381079 L40.1754971,26.5381079 L44.8470665,20.1416513 Z" id="Path" fill="#8C4402"></path>
                    <path d="M44.8470665,20.1416513 L40.1754971,15.1107303 L18.8300183,15.1107303 C17.1051311,12.2359184 13.7990974,10.0798094 10.0618418,10.0798094 C4.52782883,10.0798094 0,14.6795085 0,20.2135216 C0,25.7475346 4.52782883,30.2753634 10.0618418,30.2753634 C13.7990974,30.2753634 17.1051311,27.9755138 18.8300183,25.1007019 L40.1036268,25.1007019 L44.8470665,20.1416513 Z" id="Path" fill="#FFAD40"></path>
                    <path d="M0,20.2853919 C0,25.8194049 4.52782883,30.3472337 10.0618418,30.3472337 C13.7990974,30.3472337 17.1051311,28.0473841 18.8300183,25.1725722 L40.1036268,25.1725722 L44.7751962,20.1416513 L40.1036268,15.1107303 L18.8300183,15.1107303 C17.1051311,12.2359184 13.7990974,10.0798094 10.0618418,10.0798094" id="Path" fill="#FFA33E"></path>
                    <path d="M0,20.2853919 C0,25.8194049 4.52782883,30.2753634 10.0618418,30.2753634 C13.7990974,30.2753634 17.1051311,28.0473841 18.8300183,25.1725722 L40.1036268,25.1725722 L44.7751962,20.1416513 L40.1036268,15.1107303 L18.8300183,15.1107303" id="Path" fill="#F29233"></path>
                    <g id="Group" transform="translate(0.000000, 20.123684)" fill="#CE6D0D">
                        <path d="M0,0.161708172 C0,5.69572118 4.52782883,10.22355 10.0618418,10.22355 C13.7990974,10.22355 17.1051311,7.92370045 18.8300183,5.0488885 L40.1036268,5.0488885 L44.7751962,0.0179675747" id="Path"></path>
                        <path d="M10.0618418,10.22355 C13.7990974,10.22355 17.1051311,8.13931135 18.8300183,5.0488885" id="Path"></path>
                    </g>
                    <polyline id="Path" fill="#E2821A" points="18.8300183 25.1725722 40.1754971 25.1725722 44.8470665 20.1416513"></polyline>
                    <ellipse id="Oval" fill="#492E15" cx="3.80912584" cy="20.2853919" rx="1.72488717" ry="2.94668225"></ellipse>
                    <path d="M2.08423867,20.2853919 C2.08423867,21.9384087 2.87481195,23.2320741 3.80912584,23.2320741 C4.74343972,23.2320741 5.53401301,21.9384087 5.53401301,20.2853919" id="Path" fill="#000000"></path>
                    <g id="Group" transform="translate(18.865953, 23.088334)" fill="#BF6104">
                        <polygon id="Path" points="21.3095436 2.08423867 21.3095436 2.08423867 19.3690455 0.0718702989 18.0753802 1.36553568 16.8535851 0.143740598 15.63179 1.36553568 14.4099949 0.143740598 13.1881998 1.36553568 11.9664048 0.143740598 10.6727394 1.36553568 9.4509443 0.143740598 8.22914922 1.36553568 7.00735414 0.143740598 5.78555906 1.36553568 4.56376398 0.143740598 3.2700986 1.36553568 2.04830352 0.0718702989 0.0359351494 2.08423867"></polygon>
                    </g>
                    <polygon id="Path" fill="#FFAD40" points="19.476851 15.8294333 39.5286644 15.8294333 21.7048303 16.6918769"></polygon>
                    <polygon id="Path" fill="#FFA33E" points="40.1754971 16.4043957 43.1221793 19.6385592 39.8161456 18.3448938"></polygon>
                    <path d="M3.66538524,23.7351662 C4.74343972,25.8912752 7.18702989,27.8317732 10.0618418,27.8317732 C12.9366538,27.8317732 15.3083737,25.8912752 16.4582984,23.7351662 L3.66538524,23.7351662 Z" id="Path" fill="#BF6104"></path>
                    <g id="Group" transform="translate(15.272439, 0.000000)" fill="#F29233">
                        <path d="M13.6194216,10.0798094 C13.6194216,10.5110312 13.3319404,10.7985124 12.9007186,10.7985124 C12.4694969,10.7985124 12.1820157,10.5110312 12.1820157,10.0798094 L12.1820157,0.736670563 C12.1820157,0.30544877 12.4694969,0.0179675747 12.9007186,0.0179675747 C13.3319404,0.0179675747 13.6194216,0.30544877 13.6194216,0.736670563 L13.6194216,10.0798094 Z" id="Path"></path>
                        <path d="M19.2971752,11.1578639 C19.009694,11.4453451 18.506602,11.4453451 18.2191208,11.1578639 C17.9316396,10.8703827 17.9316396,10.3672906 18.2191208,10.0798094 L24.4718368,3.82709341 C24.759318,3.53961222 25.2624101,3.53961222 25.5498912,3.82709341 C25.8373724,4.11457461 25.8373724,4.6176667 25.5498912,4.9051479 L19.2971752,11.1578639 Z" id="Path"></path>
                        <path d="M6.50426205,11.1578639 C6.79174324,11.4453451 7.29483533,11.4453451 7.58231653,11.1578639 C7.86979773,10.8703827 7.86979773,10.3672906 7.58231653,10.0798094 L1.32960053,3.82709341 C1.04211933,3.53961222 0.539027241,3.53961222 0.251546046,3.82709341 C-0.0359351494,4.11457461 -0.0359351494,4.6176667 0.251546046,4.9051479 L6.50426205,11.1578639 Z" id="Path"></path>
                    </g>
                </g>
            </g>
        </g>
    </g>
</svg>