<?xml version="1.0" encoding="UTF-8"?>
<svg width="12px" height="13px" viewBox="0 0 12 13" version="1.1" xmlns="http://www.w3.org/2000/svg" xmlns:xlink="http://www.w3.org/1999/xlink">
    <!-- Generator: sketchtool 52.1 (67048) - http://www.bohemiancoding.com/sketch -->
    <title>C045CE7C-CA0A-40AC-B8AF-298C03D16BEE</title>
    <desc>Created with sketchtool.</desc>
    <g id="Page-1" stroke="none" stroke-width="1" fill="none" fill-rule="evenodd">
        <g id="Desktop-HD_site_fees" transform="translate(-1263.499506, -30.000000)" fill="#0077FF">
            <g id="icon_logout_daymode" transform="translate(1263.672038, 29.649739)">
                <path d="M8.41552897,3.58386096 C8.69052897,3.58386096 8.91352897,3.36086096 8.91352897,3.08586096 L8.91352897,1.79686096 C8.91352897,1.11886096 8.35552897,0.56786096 7.67152897,0.56786096 L1.71452897,0.56786096 C1.02852897,0.56786096 0.471528969,1.11886096 0.471528969,1.79686096 L0.471528969,12.080861 C0.471528969,12.758861 1.02852897,13.309861 1.71452897,13.309861 L7.67152897,13.309861 C8.35552897,13.309861 8.91352897,12.758861 8.91352897,12.080861 L8.91352897,10.790861 C8.91352897,10.516861 8.69052897,10.293861 8.41552897,10.293861 C8.14152897,10.293861 7.91852897,10.516861 7.91852897,10.790861 L7.91852897,12.080861 C7.91852897,12.208861 7.80752897,12.313861 7.67152897,12.313861 L1.71452897,12.313861 C1.57752897,12.313861 1.46752897,12.208861 1.46752897,12.080861 L1.46752897,1.79686096 C1.46752897,1.66786096 1.57752897,1.56286096 1.71452897,1.56286096 L7.67152897,1.56286096 C7.80752897,1.56286096 7.91852897,1.66786096 7.91852897,1.79686096 L7.91852897,3.08586096 C7.91852897,3.36086096 8.14152897,3.58386096 8.41552897,3.58386096" id="Fill-6"></path>
                <path d="M8.02682897,10.119861 C7.86382897,10.119861 7.71182897,10.056861 7.59782897,9.93986096 C7.36882897,9.70386096 7.37382897,9.32386096 7.60882897,9.09486096 L9.20582897,7.53686096 L4.69282897,7.53686096 C4.36282897,7.53686096 4.09482897,7.26886096 4.09482897,6.93886096 C4.09482897,6.60886096 4.36282897,6.34186096 4.69282897,6.34186096 L9.20582897,6.34186096 L7.60882897,4.78386096 C7.37282897,4.55386096 7.36782897,4.17486096 7.59782897,3.93786096 C7.71182897,3.82186096 7.86382897,3.75786096 8.02582897,3.75786096 C8.18282897,3.75786096 8.33082897,3.81786096 8.44282897,3.92886096 L11.091829,6.51186096 C11.208829,6.62386096 11.271829,6.77586096 11.272829,6.93886096 C11.272829,7.10086096 11.208829,7.25386096 11.091829,7.36686096 L8.44282897,9.94986096 C8.33182897,10.058861 8.18282897,10.119861 8.02682897,10.119861" id="Fill-7"></path>
            </g>
        </g>
    </g>
</svg>