<?xml version="1.0" encoding="UTF-8"?>
<svg width="46px" height="50px" viewBox="0 0 46 50" version="1.1" xmlns="http://www.w3.org/2000/svg" xmlns:xlink="http://www.w3.org/1999/xlink">
    <!-- Generator: sketchtool 52.3 (67297) - http://www.bohemiancoding.com/sketch -->
    <title>DE46DE23-5A13-4EC2-BAED-DB7D46514FA3</title>
    <desc>Created with sketchtool.</desc>
    <g id="Page-1" stroke="none" stroke-width="1" fill="none" fill-rule="evenodd">
        <g id="Desktop-HD_site_profile" transform="translate(-765.000000, -1006.585796)">
            <g id="icon_memo" transform="translate(765.000000, 1006.484349)">
                <g id="001-document" transform="translate(0.262649, 0.356732)">
                    <path d="M39.4285714,1.71428571 C39.4256417,0.768833679 38.6597378,0.00292969286 37.7142857,0 L11.1428571,0 L11.1428571,8.57142857 C11.1428571,9.51813621 10.3752791,10.2857143 9.42857143,10.2857143 L0,10.2857143 L0,48 C0.00292969286,48.945452 0.768833679,49.711356 1.71428571,49.7142857 L37.7142857,49.7142857 C38.6597378,49.711356 39.4256417,48.945452 39.4285714,48 L39.4285714,1.71428571 Z" id="Path" fill="#FFE9CC"></path>
                    <polygon id="Path" fill="#939598" points="13.1342076 45.1527623 14.3458426 36.6675503 19.8009208 38.4856306 21.6198381 43.9407087"></polygon>
                    <path d="M11.1428571,49.7142857 L37.7142857,49.7142857 C38.6609934,49.7142857 39.4285714,48.9467076 39.4285714,48 L39.4285714,23.2207031 C34.7465123,36.0456194 24.2460938,45.8805804 11.1428571,49.7142857 Z" id="Path" fill="#FFE2BD"></path>
                    <polygon id="Path" fill="#ACABB1" points="32.5295759 18.4846541 34.953683 16.0605469 42.2268416 23.3337054 39.8027344 25.7578125"></polygon>
                    <path d="M39.2519531,13.3715123 C38.961914,13.3999721 38.6752232,13.4543806 38.3948102,13.5343191 C37.5523158,13.7741351 36.7851563,14.2253069 36.1661551,14.8455636 L34.9578684,16.063058 L42.226423,23.3316128 L43.4347098,22.1229074 C44.9773995,20.5814732 45.3800223,18.2347935 44.4395926,16.2672991 C43.499163,14.2998047 41.4203404,13.1392299 39.2519531,13.3715123 Z" id="Path" fill="#C6C5CA"></path>
                    <path d="M32.5337612,18.4800503 L14.3450056,36.6683873 L19.1999163,39.0908203 L30.1054688,28.1810826 L19.1999163,39.0908203 L20.2943638,41.2792969 L21.6265346,43.9361049 L39.2569755,26.3065011 L39.805664,25.7578125 L38.3981584,24.3507255 L32.5337612,18.4800503 Z M32.6116071,25.6749441 L33.8244977,24.4628906 L32.6116071,25.6749441 Z" id="Shape" fill="#FFD733" fill-rule="nonzero"></path>
                    <path d="M11.1428571,8.57142857 L11.1428571,0 L0,10.2857143 L9.42857143,10.2857143 C10.3752791,10.2857143 11.1428571,9.51813621 11.1428571,8.57142857 Z" id="Path" fill="#FFA993"></path>
                    <path d="M21.4938616,37.6506696 C21.1469029,37.6510881 20.8338449,37.4422434 20.7011719,37.1216518 C20.5684989,36.8010602 20.6421596,36.4319196 20.8878348,36.186663 L30.085798,26.9916295 C30.2958985,26.7501395 30.6231864,26.6463449 30.9341518,26.7220982 C31.2451172,26.797433 31.4882813,27.0401786 31.5640346,27.351144 C31.6402065,27.6621094 31.5368304,27.9893973 31.2961774,28.1999163 L22.0998884,37.3995536 C21.9391741,37.5602679 21.7211217,37.6506696 21.4938616,37.6506696 Z" id="Path" fill="#F1F2F2"></path>
                    <path d="M33.1138393,26.0298549 C32.7672991,26.0294364 32.4550781,25.8210101 32.3224051,25.5004185 C32.1897321,25.1802455 32.2629744,24.8115235 32.5078125,24.5666852 L33.7198661,23.3546316 C34.0563616,23.0298549 34.5908203,23.0344587 34.9214565,23.3650949 C35.2520926,23.695731 35.2566964,24.2301898 34.9319196,24.5666852 L33.7198661,25.7787388 C33.5595703,25.9398717 33.3415179,26.0302735 33.1138393,26.0298549 Z" id="Path" fill="#F1F2F2"></path>
                    <path d="M24,23.1428571 L6,23.1428571 C5.52664618,23.1428571 5.14285714,22.7590681 5.14285714,22.2857143 C5.14285714,21.8123605 5.52664618,21.4285714 6,21.4285714 L24,21.4285714 C24.4733538,21.4285714 24.8571429,21.8123605 24.8571429,22.2857143 C24.8571429,22.7590681 24.4733538,23.1428571 24,23.1428571 Z" id="Path" fill="#FF7956"></path>
                    <path d="M18.8571429,28.2857143 L6,28.2857143 C5.52664618,28.2857143 5.14285714,27.9019253 5.14285714,27.4285714 C5.14285714,26.9552176 5.52664618,26.5714286 6,26.5714286 L18.8571429,26.5714286 C19.3304967,26.5714286 19.7142857,26.9552176 19.7142857,27.4285714 C19.7142857,27.9019253 19.3304967,28.2857143 18.8571429,28.2857143 Z" id="Path" fill="#FF7956"></path>
                    <path d="M13.7142857,33.4285714 L6,33.4285714 C5.52664618,33.4285714 5.14285714,33.0447824 5.14285714,32.5714286 C5.14285714,32.0980748 5.52664618,31.7142857 6,31.7142857 L13.7142857,31.7142857 C14.1876395,31.7142857 14.5714286,32.0980748 14.5714286,32.5714286 C14.5714286,33.0447824 14.1876395,33.4285714 13.7142857,33.4285714 Z" id="Path" fill="#FF7956"></path>
                    <path d="M29.1428571,18 L12.8571429,18 C12.383789,18 12,17.616211 12,17.1428571 C12,16.6695033 12.383789,16.2857143 12.8571429,16.2857143 L29.1428571,16.2857143 C29.616211,16.2857143 30,16.6695033 30,17.1428571 C30,17.616211 29.616211,18 29.1428571,18 Z" id="Path" fill="#FF7956"></path>
                    <path d="M9.42857143,18 L6,18 C5.52664618,18 5.14285714,17.616211 5.14285714,17.1428571 C5.14285714,16.6695033 5.52664618,16.2857143 6,16.2857143 L9.42857143,16.2857143 C9.90192525,16.2857143 10.2857143,16.6695033 10.2857143,17.1428571 C10.2857143,17.616211 9.90192525,18 9.42857143,18 Z" id="Path" fill="#FF7956"></path>
                </g>
            </g>
        </g>
    </g>
</svg>