<?xml version="1.0" encoding="UTF-8"?>
<svg width="8px" height="9px" viewBox="0 0 8 9" version="1.1" xmlns="http://www.w3.org/2000/svg" xmlns:xlink="http://www.w3.org/1999/xlink">
    <!-- Generator: sketchtool 52.1 (67048) - http://www.bohemiancoding.com/sketch -->
    <title>BCE8C97F-9B23-43C0-91A9-03B3D1D6FD11</title>
    <desc>Created with sketchtool.</desc>
    <g id="Page-1" stroke="none" stroke-width="1" fill="none" fill-rule="evenodd">
        <g id="Desktop-HD_night" transform="translate(-1091.000000, -32.000000)" fill="#0077FF">
            <g id="icon_nightmode_nightmode" transform="translate(1091.000000, 32.000000)">
                <path d="M7.41746294,6.71335839 C7.35056184,6.62492128 7.2377857,6.59239269 7.13838978,6.63102039 C6.86027236,6.73572179 6.55826169,6.79061379 6.24000361,6.79061379 C4.7184815,6.79061379 3.48176692,5.47422243 3.48176692,3.85694161 C3.48176692,2.88413348 3.93287146,1.97841557 4.6898096,1.43356169 C4.7758253,1.37053755 4.81692169,1.25973704 4.79398417,1.15198609 C4.77104665,1.04525165 4.68885387,0.963930179 4.58563503,0.947665884 C4.46808025,0.930385071 4.35148119,0.92428596 4.2339264,0.92428596 C2.15999237,0.92428596 0.473128969,2.71844098 0.473128969,4.92428596 C0.473128969,7.13013094 2.15999237,8.92428596 4.2339264,8.92428596 C5.54996657,8.92428596 6.74749623,8.21373958 7.43657753,7.02136347 C7.49200987,6.92479422 7.4834083,6.80179549 7.41746294,6.71335839" id="Fill-340"></path>
            </g>
        </g>
    </g>
</svg>