<?xml version="1.0" encoding="UTF-8"?>
<svg width="19px" height="18px" viewBox="0 0 19 18" version="1.1" xmlns="http://www.w3.org/2000/svg" xmlns:xlink="http://www.w3.org/1999/xlink">
    <!-- Generator: sketchtool 52.1 (67048) - http://www.bohemiancoding.com/sketch -->
    <title>E2A209BC-B65D-4DF8-B9A7-831609C639F8</title>
    <desc>Created with sketchtool.</desc>
    <g id="Page-1" stroke="none" stroke-width="1" fill="none" fill-rule="evenodd">
        <g id="Desktop-HD_night" transform="translate(-1103.000000, -267.000000)" fill="#D3D3D3">
            <g id="Icon_inactivestar_-nightmode" transform="translate(1103.000000, 267.000000)">
                <path d="M10.1273436,0.875232942 L11.8708537,6.18553077 C11.9448567,6.41212431 12.1589719,6.56546563 12.3997283,6.56546563 L18.0407283,6.56546563 C18.57947,6.56546563 18.8034523,7.24817635 18.3683148,7.56267256 L13.8038114,10.8443722 C13.6094302,10.9850164 13.5275336,11.2330973 13.6015366,11.4606675 L15.3450467,16.7699887 C15.5118,17.2778707 14.9247098,17.7007802 14.4885856,17.386284 L9.92506881,14.1045844 C9.73068767,13.9639402 9.46625037,13.9639402 9.27088252,14.1045844 L4.70736577,17.386284 C4.27124157,17.7007802 3.68415131,17.2778707 3.85090468,16.7699887 L5.59441476,11.4606675 C5.66841773,11.2330973 5.5865211,10.9850164 5.39213996,10.8443722 L0.828623207,7.56267256 C0.392499012,7.24817635 0.616481348,6.56546563 1.155223,6.56546563 L6.79720976,6.56546563 C7.03796611,6.56546563 7.25109467,6.41212431 7.32608435,6.18553077 L9.06860772,0.875232942 C9.23536109,0.367350862 9.96059024,0.367350862 10.1273436,0.875232942" id="Fill-54"></path>
            </g>
        </g>
    </g>
</svg>