<?xml version="1.0" encoding="UTF-8"?>
<svg width="38px" height="44px" viewBox="0 0 38 44" version="1.1" xmlns="http://www.w3.org/2000/svg" xmlns:xlink="http://www.w3.org/1999/xlink">
    <!-- Generator: sketchtool 52.3 (67297) - http://www.bohemiancoding.com/sketch -->
    <title>FC271182-D272-45AC-BC41-81531B882075</title>
    <desc>Created with sketchtool.</desc>
    <g id="Page-1" stroke="none" stroke-width="1" fill="none" fill-rule="evenodd">
        <g id="Desktop-HD_site_profile" transform="translate(-197.000000, -705.585796)">
            <g id="icon_sms_authentication" transform="translate(197.000000, 705.000000)">
                <g id="smartphone" transform="translate(0.494484, 0.749593)">
                    <path d="M21.3578187,43.3206324 L2.54321988,43.3206324 C1.13903387,43.3206324 0,42.1815985 0,40.7774125 L0,2.54321988 C0,1.13903387 1.13903387,0 2.54321988,0 L21.3570718,0 C22.7620047,0 23.9010386,1.13903387 23.9010386,2.54321988 L23.9010386,40.7766656 C23.9010386,42.1815985 22.7620047,43.3206324 21.3578187,43.3206324 Z" id="Path" fill="#424A60"></path>
                    <rect id="Rectangle" fill="#E7ECED" x="0" y="4.48144473" width="23.9010386" height="29.8762982"></rect>
                    <circle id="Oval" fill="#262B35" cx="11.9505193" cy="38.8391877" r="2.24072236"></circle>
                    <path d="M11.9505193,2.98762982 L8.96288946,2.98762982 C8.54984964,2.98762982 8.215982,2.65376219 8.215982,2.24072236 C8.215982,1.82768254 8.54984964,1.49381491 8.96288946,1.49381491 L11.9505193,1.49381491 C12.3635591,1.49381491 12.6974267,1.82768254 12.6974267,2.24072236 C12.6974267,2.65376219 12.3635591,2.98762982 11.9505193,2.98762982 Z" id="Path" fill="#262B35"></path>
                    <path d="M14.9381491,2.98762982 L14.1912416,2.98762982 C13.7782018,2.98762982 13.4443342,2.65376219 13.4443342,2.24072236 C13.4443342,1.82768254 13.7782018,1.49381491 14.1912416,1.49381491 L14.9381491,1.49381491 C15.3511889,1.49381491 15.6850566,1.82768254 15.6850566,2.24072236 C15.6850566,2.65376219 15.3511889,2.98762982 14.9381491,2.98762982 Z" id="Path" fill="#262B35"></path>
                    <polygon id="Path" fill="#25AE88" points="37.3453727 8.96288946 10.4567044 8.96288946 10.4567044 23.1541311 13.4443342 23.1541311 13.4443342 27.6355758 19.4195938 23.1541311 37.3453727 23.1541311"></polygon>
                    <g id="Group" transform="translate(14.191242, 13.444334)" fill="#57D8AB">
                        <path d="M0.746907455,1.49381491 L8.215982,1.49381491 C8.62827492,1.49381491 8.96288946,1.15994728 8.96288946,0.746907455 C8.96288946,0.333867632 8.62827492,0 8.215982,0 L0.746907455,0 C0.33461454,0 0,0.333867632 0,0.746907455 C0,1.15994728 0.33461454,1.49381491 0.746907455,1.49381491 Z" id="Path"></path>
                        <path d="M18.6726864,3.73453727 L0.746907455,3.73453727 C0.33461454,3.73453727 0,4.06840491 0,4.48144473 C0,4.89448455 0.33461454,5.22835218 0.746907455,5.22835218 L18.6726864,5.22835218 C19.0849793,5.22835218 19.4195938,4.89448455 19.4195938,4.48144473 C19.4195938,4.06840491 19.0849793,3.73453727 18.6726864,3.73453727 Z" id="Path"></path>
                    </g>
                </g>
            </g>
        </g>
    </g>
</svg>