<?xml version="1.0" encoding="UTF-8"?>
<svg width="10px" height="10px" viewBox="0 0 10 10" version="1.1" xmlns="http://www.w3.org/2000/svg" xmlns:xlink="http://www.w3.org/1999/xlink">
    <!-- Generator: sketchtool 52.1 (67048) - http://www.bohemiancoding.com/sketch -->
    <title>BC7C1181-D96A-4D58-8A75-C50B3B2F6157</title>
    <desc>Created with sketchtool.</desc>
    <g id="Page-1" stroke="none" stroke-width="1" fill="none" fill-rule="evenodd">
        <g id="Desktop-HD_night" transform="translate(-1165.000000, -31.000000)" fill="#0077FF">
            <g id="icon_daymode_nightmode" transform="translate(1165.000000, 31.000000)">
                <path d="M5.3927174,2.83007604 C3.34081657,2.28561323 1.51205624,4.11437356 2.05651905,6.16627439 C2.29552732,7.06677026 3.02445294,7.79668761 3.92594054,8.03569588 C5.97784137,8.58015869 7.8066017,6.75139836 7.26213889,4.69949753 C7.02313062,3.79900166 6.294205,3.06908431 5.3927174,2.83007604 Z M4.6588331,8.38974546 C4.44560996,8.38974546 4.27403971,8.56230745 4.27403971,8.77553059 L4.27403971,9.5461091 C4.27403971,9.75933224 4.44560996,9.93288596 4.6588331,9.93288596 C4.87205624,9.93288596 5.04461823,9.75933224 5.04461823,9.5461091 L5.04461823,8.77553059 C5.04461823,8.56230745 4.87205624,8.38974546 4.6588331,8.38974546 Z M7.50313062,7.73123307 C7.43370913,7.66181158 7.33651905,7.61817522 7.23040335,7.61817522 C7.01718021,7.61817522 6.84461823,7.79172894 6.84461823,8.00396034 C6.84461823,8.11007604 6.88825459,8.20726613 6.95767608,8.27668761 L7.47238682,8.79139836 C7.54180831,8.86081984 7.63800666,8.90445621 7.74511409,8.90445621 C7.9573455,8.90445621 8.13089922,8.73090249 8.13089922,8.51767935 C8.13089922,8.41255538 8.08726285,8.3153653 8.01784137,8.24594381 L7.50313062,7.73123307 Z M8.77354385,5.04660497 L8.0019736,5.04660497 C7.78875046,5.04660497 7.61618847,5.22015869 7.61618847,5.43338183 C7.61618847,5.64561323 7.78875046,5.81916695 8.0019736,5.81916695 L8.77354385,5.81916695 C8.98676699,5.81916695 9.15932897,5.64561323 9.15932897,5.43338183 C9.15932897,5.22015869 8.98676699,5.04660497 8.77354385,5.04660497 Z M1.81552732,3.13453885 C1.8849488,3.20396034 1.98114715,3.2475967 2.08726285,3.2475967 C2.30048599,3.2475967 2.47403971,3.07404298 2.47403971,2.86181158 C2.47403971,2.75569588 2.43040335,2.65850579 2.36098186,2.58908431 L1.84627112,2.07437356 C1.77684963,2.00495208 1.67965955,1.96131571 1.57354385,1.96131571 C1.36131244,1.96131571 1.18775872,2.13486943 1.18775872,2.34809257 C1.18775872,2.45321654 1.23139508,2.55040662 1.30081657,2.61982811 L1.81552732,3.13453885 Z M7.23040335,3.2475967 C7.33651905,3.2475967 7.43370913,3.20396034 7.50313062,3.13453885 L8.01684963,2.61982811 C8.08726285,2.55040662 8.13089922,2.45321654 8.13089922,2.34809257 C8.13089922,2.13486943 7.9573455,1.96131571 7.74511409,1.96131571 C7.63800666,1.96131571 7.54180831,2.00495208 7.47238682,2.07437356 L6.95767608,2.58908431 C6.88825459,2.65850579 6.84461823,2.75569588 6.84461823,2.86181158 C6.84461823,3.07404298 7.01718021,3.2475967 7.23040335,3.2475967 Z M4.6588331,2.47602646 C4.87205624,2.47602646 5.04461823,2.30346447 5.04461823,2.09024133 L5.04461823,1.31966282 C5.04461823,1.10643968 4.87205624,0.93288596 4.6588331,0.93288596 C4.44560996,0.93288596 4.27403971,1.10643968 4.27403971,1.31966282 L4.27403971,2.09024133 C4.27403971,2.30346447 4.44560996,2.47602646 4.6588331,2.47602646 Z M2.08726285,7.61817522 C1.98114715,7.61817522 1.8849488,7.66181158 1.81552732,7.73123307 L1.30081657,8.24594381 C1.23139508,8.3153653 1.18775872,8.41255538 1.18775872,8.51767935 C1.18775872,8.73090249 1.3603207,8.90445621 1.57354385,8.90445621 C1.67965955,8.90445621 1.77684963,8.86081984 1.84627112,8.79139836 L2.35999013,8.27668761 C2.43040335,8.20726613 2.47403971,8.11007604 2.47403971,8.00495208 C2.47403971,7.79172894 2.30147773,7.61817522 2.08726285,7.61817522 Z M1.70246946,5.43338183 C1.70246946,5.22015869 1.52891575,5.04660497 1.31668434,5.04660497 L0.545114093,5.04660497 C0.331890953,5.04660497 0.159328969,5.22015869 0.159328969,5.43338183 C0.159328969,5.64561323 0.331890953,5.81916695 0.545114093,5.81916695 L1.31668434,5.81916695 C1.52891575,5.81916695 1.70246946,5.64561323 1.70246946,5.43338183 Z" id="Fill-342"></path>
            </g>
        </g>
    </g>
</svg>