<svg xmlns="http://www.w3.org/2000/svg" width="67" height="75" viewBox="0 0 67 75">
  <defs>
    <style>
      .cls-1 {
        fill: #a3c828;
        fill-rule: evenodd;
      }
    </style>
  </defs>
  <path id="android" class="cls-1" d="M1105.8,481a1.674,1.674,0,0,1,.82.214,1.581,1.581,0,0,1,.6,2.182l-2.25,3.787c5.66,2.993,9.55,8.129,10.08,14.06h-43.1c0.53-5.93,4.42-11.067,10.08-14.06l-2.25-3.787a1.581,1.581,0,0,1,.6-2.182,1.674,1.674,0,0,1,.82-0.214,1.638,1.638,0,0,1,1.42.8l2.41,4.063a25.282,25.282,0,0,1,16.94,0l2.41-4.063a1.638,1.638,0,0,1,1.42-.8m-2.91,14.917a2.324,2.324,0,1,0-2.38-2.323,2.357,2.357,0,0,0,2.38,2.323m-18.48,0a2.324,2.324,0,1,0-2.38-2.323,2.348,2.348,0,0,0,2.38,2.323m37.61,7.264a4.87,4.87,0,0,1,4.98,4.75v18.563a4.98,4.98,0,0,1-9.95,0V507.926a4.867,4.867,0,0,1,4.97-4.75m-57.04,0a4.861,4.861,0,0,1,4.97,4.75v18.563a4.98,4.98,0,0,1-9.95,0V507.926a4.87,4.87,0,0,1,4.98-4.75m49.69,0.084v33.8a3.72,3.72,0,0,1-3.75,3.687h-4.29v10.44a4.81,4.81,0,0,1-9.62,0v-10.44h-7.49v10.44a4.81,4.81,0,0,1-9.62,0v-10.44h-4.29a3.72,3.72,0,0,1-3.75-3.687v-33.8h42.81" transform="translate(-1060 -481)"/>
</svg>
