<?xml version="1.0" encoding="utf-8"?>
<!-- Generator: Adobe Illustrator 19.0.0, SVG Export Plug-In . SVG Version: 6.00 Build 0)  -->
<svg version="1.1" id="Layer_1" xmlns="http://www.w3.org/2000/svg" xmlns:xlink="http://www.w3.org/1999/xlink" x="0px" y="0px"
	 width="70px" height="70px" viewBox="0 0 70 70" style="enable-background:new 0 0 70 70;" xml:space="preserve">
<style type="text/css">
	.st0{clip-path:url(#SVGID_2_);}
	.st1{clip-path:url(#SVGID_4_);fill:#F44336;}
	.st2{clip-path:url(#SVGID_4_);fill:#00B060;}
	.st3{clip-path:url(#SVGID_4_);fill:#FFC107;}
	.st4{clip-path:url(#SVGID_4_);fill:#2196F3;}
	.st5{filter:url(#Adobe_OpacityMaskFilter);}
	.st6{clip-path:url(#SVGID_6_);fill:url(#SVGID_8_);}
	.st7{clip-path:url(#SVGID_6_);mask:url(#SVGID_7_);fill:url(#SVGID_9_);}
	.st8{filter:url(#Adobe_OpacityMaskFilter_1_);}
	.st9{clip-path:url(#SVGID_11_);fill:url(#SVGID_13_);}
	.st10{clip-path:url(#SVGID_11_);mask:url(#SVGID_12_);fill:url(#SVGID_14_);}
	.st11{filter:url(#Adobe_OpacityMaskFilter_2_);}
	.st12{clip-path:url(#SVGID_16_);fill:url(#SVGID_18_);}
	.st13{clip-path:url(#SVGID_16_);mask:url(#SVGID_17_);fill:url(#SVGID_19_);}
	.st14{filter:url(#Adobe_OpacityMaskFilter_3_);}
	.st15{clip-path:url(#SVGID_21_);fill:url(#SVGID_23_);}
	.st16{clip-path:url(#SVGID_21_);mask:url(#SVGID_22_);fill:url(#SVGID_24_);}
</style>
<g>
	<defs>
		<rect id="SVGID_1_" x="0" y="0" width="70" height="70"/>
	</defs>
	<clipPath id="SVGID_2_">
		<use xlink:href="#SVGID_1_"  style="overflow:visible;"/>
	</clipPath>
	<g class="st0">
		<defs>
			<rect id="SVGID_3_" x="0" y="0" width="70" height="70"/>
		</defs>
		<clipPath id="SVGID_4_">
			<use xlink:href="#SVGID_3_"  style="overflow:visible;"/>
		</clipPath>
		<path class="st1" d="M20.4,35c0-8.1,6.5-14.6,14.6-14.6c2.2,0,4.3,0.5,6.3,1.5h26.2C62.2,9.1,49.7,0,35,0
			C23.8,0,13.8,5.3,7.4,13.5l13.2,22.7C20.5,35.8,20.4,35.4,20.4,35"/>
		<path class="st2" d="M35,49.6c-7.6,0-13.8-5.9-14.5-13.4L7.4,13.5C2.8,19.5,0,26.9,0,35c0,17.7,13.2,32.3,30.2,34.6l13-22.6
			C40.9,48.6,38.1,49.6,35,49.6"/>
		<path class="st3" d="M41.3,21.9c4.9,2.3,8.3,7.3,8.3,13.1c0,5-2.5,9.4-6.4,12l-13,22.6c1.6,0.2,3.1,0.4,4.8,0.4
			c19.3,0,35-15.7,35-35c0-4.6-0.9-9.1-2.6-13.1H41.3z"/>
		<path class="st4" d="M35,23.3c6.4,0,11.7,5.2,11.7,11.7S41.4,46.7,35,46.7S23.3,41.4,23.3,35S28.6,23.3,35,23.3"/>
	</g>
	<g class="st0">
		<defs>
			<path id="SVGID_5_" d="M41.3,21.9c2.9,1.4,5.3,3.7,6.7,6.6l19.4-6.6H41.3z"/>
		</defs>
		<clipPath id="SVGID_6_">
			<use xlink:href="#SVGID_5_"  style="overflow:visible;"/>
		</clipPath>
		<defs>
			<filter id="Adobe_OpacityMaskFilter" filterUnits="userSpaceOnUse" x="38" y="8.8" width="32.8" height="32.8">
				<feColorMatrix  type="matrix" values="1 0 0 0 0  0 1 0 0 0  0 0 1 0 0  0 0 0 1 0"/>
			</filter>
		</defs>
		<mask maskUnits="userSpaceOnUse" x="38" y="8.8" width="32.8" height="32.8" id="SVGID_7_">
			<g class="st5">
				
					<linearGradient id="SVGID_8_" gradientUnits="userSpaceOnUse" x1="33.7566" y1="59.5647" x2="36.6733" y2="59.5647" gradientTransform="matrix(4.4881 4.4881 -4.4881 4.4881 161.9751 -401.8534)">
					<stop  offset="0" style="stop-color:#1A1A1A"/>
					<stop  offset="1" style="stop-color:#000000"/>
				</linearGradient>
				<polygon class="st6" points="38,25.2 54.3,41.6 70.7,25.2 54.3,8.8 				"/>
			</g>
		</mask>
		
			<linearGradient id="SVGID_9_" gradientUnits="userSpaceOnUse" x1="33.7566" y1="59.5647" x2="36.6733" y2="59.5647" gradientTransform="matrix(4.4881 4.4881 -4.4881 4.4881 161.9751 -401.8534)">
			<stop  offset="0" style="stop-color:#000000"/>
			<stop  offset="1" style="stop-color:#000000"/>
		</linearGradient>
		<polygon class="st7" points="38,25.2 54.3,41.6 70.7,25.2 54.3,8.8 		"/>
	</g>
	<g class="st0">
		<defs>
			<path id="SVGID_10_" d="M20.5,36.1c-0.3-3.2,0.6-6.4,2.3-9.1L7.4,13.5L20.5,36.1z"/>
		</defs>
		<clipPath id="SVGID_11_">
			<use xlink:href="#SVGID_10_"  style="overflow:visible;"/>
		</clipPath>
		<defs>
			<filter id="Adobe_OpacityMaskFilter_1_" filterUnits="userSpaceOnUse" x="-3.9" y="5.8" width="38.1" height="38.1">
				<feColorMatrix  type="matrix" values="1 0 0 0 0  0 1 0 0 0  0 0 1 0 0  0 0 0 1 0"/>
			</filter>
		</defs>
		<mask maskUnits="userSpaceOnUse" x="-3.9" y="5.8" width="38.1" height="38.1" id="SVGID_12_">
			<g class="st8">
				
					<linearGradient id="SVGID_13_" gradientUnits="userSpaceOnUse" x1="32.4962" y1="62.0891" x2="35.4129" y2="62.0891" gradientTransform="matrix(6.1308 6.1308 -6.1308 6.1308 187.0346 -564.5991)">
					<stop  offset="0" style="stop-color:#1A1A1A"/>
					<stop  offset="1" style="stop-color:#000000"/>
				</linearGradient>
				<polygon class="st9" points="-3.9,24.8 15.1,43.9 34.2,24.8 15.1,5.8 				"/>
			</g>
		</mask>
		
			<linearGradient id="SVGID_14_" gradientUnits="userSpaceOnUse" x1="32.4962" y1="62.0891" x2="35.4129" y2="62.0891" gradientTransform="matrix(6.1308 6.1308 -6.1308 6.1308 187.0346 -564.5991)">
			<stop  offset="0" style="stop-color:#000000"/>
			<stop  offset="1" style="stop-color:#000000"/>
		</linearGradient>
		<polygon class="st10" points="-3.9,24.8 15.1,43.9 34.2,24.8 15.1,5.8 		"/>
	</g>
	<g class="st0">
		<defs>
			<path id="SVGID_15_" d="M34.2,49.5l-4,20.1L43.2,47C40.6,48.8,37.4,49.7,34.2,49.5"/>
		</defs>
		<clipPath id="SVGID_16_">
			<use xlink:href="#SVGID_15_"  style="overflow:visible;"/>
		</clipPath>
		<defs>
			<filter id="Adobe_OpacityMaskFilter_2_" filterUnits="userSpaceOnUse" x="18.8" y="40.4" width="35.8" height="35.8">
				<feColorMatrix  type="matrix" values="1 0 0 0 0  0 1 0 0 0  0 0 1 0 0  0 0 0 1 0"/>
			</filter>
		</defs>
		<mask maskUnits="userSpaceOnUse" x="18.8" y="40.4" width="35.8" height="35.8" id="SVGID_17_">
			<g class="st11">
				
					<linearGradient id="SVGID_18_" gradientUnits="userSpaceOnUse" x1="33.8646" y1="64.1383" x2="36.7813" y2="64.1383" gradientTransform="matrix(2.7639 2.7639 -2.7639 2.7639 114.7019 -218.219)">
					<stop  offset="0" style="stop-color:#1A1A1A"/>
					<stop  offset="1" style="stop-color:#000000"/>
				</linearGradient>
				<polygon class="st12" points="18.8,58.3 36.7,76.2 54.6,58.3 36.7,40.4 				"/>
			</g>
		</mask>
		
			<linearGradient id="SVGID_19_" gradientUnits="userSpaceOnUse" x1="33.8646" y1="64.1383" x2="36.7813" y2="64.1383" gradientTransform="matrix(2.7639 2.7639 -2.7639 2.7639 114.7019 -218.219)">
			<stop  offset="0" style="stop-color:#000000"/>
			<stop  offset="1" style="stop-color:#000000"/>
		</linearGradient>
		<polygon class="st13" points="18.8,58.3 36.7,76.2 54.6,58.3 36.7,40.4 		"/>
	</g>
	<g class="st0">
		<defs>
			<circle id="SVGID_20_" cx="35" cy="35" r="35"/>
		</defs>
		<clipPath id="SVGID_21_">
			<use xlink:href="#SVGID_20_"  style="overflow:visible;"/>
		</clipPath>
		<defs>
			<filter id="Adobe_OpacityMaskFilter_3_" filterUnits="userSpaceOnUse" x="-26.8" y="-26.8" width="123.6" height="123.6">
				<feColorMatrix  type="matrix" values="1 0 0 0 0  0 1 0 0 0  0 0 1 0 0  0 0 0 1 0"/>
			</filter>
		</defs>
		<mask maskUnits="userSpaceOnUse" x="-26.8" y="-26.8" width="123.6" height="123.6" id="SVGID_22_">
			<g class="st14">
				
					<linearGradient id="SVGID_23_" gradientUnits="userSpaceOnUse" x1="35.7375" y1="61.288" x2="38.6542" y2="61.288" gradientTransform="matrix(21.7566 10.1453 -10.1453 21.7566 -152.4709 -1675.7792)">
					<stop  offset="0" style="stop-color:#333333"/>
					<stop  offset="1" style="stop-color:#000000"/>
				</linearGradient>
				<polygon class="st15" points="-26.8,57.5 57.5,96.8 96.8,12.5 12.5,-26.8 				"/>
			</g>
		</mask>
		
			<linearGradient id="SVGID_24_" gradientUnits="userSpaceOnUse" x1="35.7375" y1="61.288" x2="38.6542" y2="61.288" gradientTransform="matrix(21.7566 10.1453 -10.1453 21.7566 -152.4709 -1675.7791)">
			<stop  offset="0" style="stop-color:#FFFFFF"/>
			<stop  offset="1" style="stop-color:#FFFFFF"/>
		</linearGradient>
		<polygon class="st16" points="-26.8,57.5 57.5,96.8 96.8,12.5 12.5,-26.8 		"/>
	</g>
</g>
</svg>
