<svg xmlns="http://www.w3.org/2000/svg" width="59" height="71" viewBox="0 0 59 71">
  <defs>
    <style>
      .cls-1 {
        fill: #c3c3c3;
        fill-rule: evenodd;
      }
    </style>
  </defs>
  <path id="IOS" class="cls-1" d="M547.37,516.88A16.733,16.733,0,0,0,557,532.059C553.306,542.836,546.319,551,540.994,551c-4.389,0-7.366-3.072-12.111-3.12C524.126,547.928,521,551,516.6,551c-7.607,0-18.6-16.577-18.6-33.674s12-20.963,16.161-20.963c6.164,0,12.684,2.625,15.036,2.625s7.616-3.071,13.783-3.071c2.513,0,8.338,1.865,12.193,6.782A16.739,16.739,0,0,0,547.37,516.88Zm-20.28-19.841c-1.265-7.338,5.568-16.92,14.031-17.039C542.635,488.786,534.483,496.934,527.09,497.039Z" transform="translate(-498 -480)"/>
</svg>
