<svg id="Linux-_Ubuntu_" data-name="Linux-(Ubuntu)" xmlns="http://www.w3.org/2000/svg" width="73" height="74" viewBox="0 0 73 74">
  <metadata><?xpacket begin="﻿" id="W5M0MpCehiHzreSzNTczkc9d"?>
<x:xmpmeta xmlns:x="adobe:ns:meta/" x:xmptk="Adobe XMP Core 5.6-c142 79.160924, 2017/07/13-01:06:39        ">
   <rdf:RDF xmlns:rdf="http://www.w3.org/1999/02/22-rdf-syntax-ns#">
      <rdf:Description rdf:about=""/>
   </rdf:RDF>
</x:xmpmeta>
                                                                                                    
                                                                                                    
                                                                                                    
                                                                                                    
                                                                                                    
                                                                                                    
                                                                                                    
                                                                                                    
                                                                                                    
                                                                                                    
                                                                                                    
                                                                                                    
                                                                                                    
                                                                                                    
                                                                                                    
                                                                                                    
                                                                                                    
                                                                                                    
                                                                                                    
                                                                                                    
                           
<?xpacket end="w"?></metadata>
<defs>
    <style>
      .cls-1 {
        fill: #ff6309;
      }

      .cls-1, .cls-2, .cls-3 {
        fill-rule: evenodd;
      }

      .cls-2 {
        fill: #ffb516;
      }

      .cls-3 {
        fill: #c91c17;
      }
    </style>
  </defs>
  <path id="Эллипс_2" data-name="Эллипс 2" class="cls-1" d="M1064.23,740.761A7.239,7.239,0,1,1,1057,748,7.236,7.236,0,0,1,1064.23,740.761Zm35.88-10.457a18.09,18.09,0,0,0-7.19,1.479l-6.22-10.813a30.285,30.285,0,0,1,20.11-2.186,10.441,10.441,0,0,0,15.12,8.8,30.184,30.184,0,0,1,8.03,17.88l-11.91-.013A18.221,18.221,0,0,0,1100.11,730.3Z" transform="translate(-1057 -711)"/>
  <path id="Эллипс_2_копия_2" data-name="Эллипс 2 копия 2" class="cls-2" d="M1117.24,770.522a7.239,7.239,0,1,1-7.23,7.239A7.236,7.236,0,0,1,1117.24,770.522Zm-35.34-21.986a18.211,18.211,0,0,0,6.38,13.859l-6.06,10.494a30.325,30.325,0,0,1-11.51-16.423,10.466,10.466,0,0,0,0-16.4,30.323,30.323,0,0,1,11.61-16.5l6.25,10.86A18.21,18.21,0,0,0,1081.9,748.536Z" transform="translate(-1057 -711)"/>
  <path id="Эллипс_1" data-name="Эллипс 1" class="cls-3" d="M1117.51,711a7.239,7.239,0,1,1-7.23,7.239A7.236,7.236,0,0,1,1117.51,711Zm-17.4,55.768a18.219,18.219,0,0,0,18.09-16.224l11.8,0.012a30.228,30.228,0,0,1-7.74,18.036,10.437,10.437,0,0,0-15.46,9.162,30.275,30.275,0,0,1-20.22-2.247l6-10.372A18.079,18.079,0,0,0,1100.11,766.768Z" transform="translate(-1057 -711)"/>
</svg>
