<?xml version="1.0" encoding="utf-8"?>
<!-- Generator: Adobe Illustrator 19.0.0, SVG Export Plug-In . SVG Version: 6.00 Build 0)  -->
<svg version="1.1" id="Группа_1" xmlns="http://www.w3.org/2000/svg" xmlns:xlink="http://www.w3.org/1999/xlink" x="0px"
	 y="0px" width="67.3px" height="63.3px" viewBox="-195 293 67.3 63.3" style="enable-background:new -195 293 67.3 63.3;"
	 xml:space="preserve">
<style type="text/css">
	.st0{fill:url(#Прямоугольник_скругл._углы_1_1_);}
	.st1{fill:url(#Прямоугольник_скругл._углы_2_1_);}
</style>
<linearGradient id="Прямоугольник_скругл._углы_1_1_" gradientUnits="userSpaceOnUse" x1="-161.4775" y1="437.9167" x2="-161.4775" y2="501" gradientTransform="matrix(1 0 0 -1 0 794)">
	<stop  offset="0" style="stop-color:#136EF5"/>
	<stop  offset="1" style="stop-color:#00D0FE"/>
</linearGradient>
<path id="Прямоугольник_скругл._углы_1" class="st0" d="M-192,293h61c1.7,0,3,1.4,3,3v57c0,1.7-1.4,3-3,3
	h-61c-1.7,0-3-1.4-3-3v-57C-195,294.4-193.6,293-192,293z"/>
<linearGradient id="Прямоугольник_скругл._углы_2_1_" gradientUnits="userSpaceOnUse" x1="-147.4589" y1="437.9167" x2="-147.4589" y2="501" gradientTransform="matrix(1 0 0 -1 0 794)">
	<stop  offset="0" style="stop-color:#C3D1DF"/>
	<stop  offset="1" style="stop-color:#FFFFFF"/>
</linearGradient>
<path id="Прямоугольник_скругл._углы_2" class="st1" d="M-128,296v57c0,1.7-1.4,3-3,3h-23.2
	c-2.1-5.4-2.5-22.9-2.4-25.3c0-0.9-1.5-1.5-1.5-1.5s-2,0-4.6,0c0.9,0-1.5,0.1-1.8,0c-1.9,0-2.3-1.3-2.4-2.7
	c0.2-16.3,4.6-28.5,7.3-33.5h28.7C-129.3,293-128,294.4-128,296z"/>
<path id="Фигура_1" d="M-146.4,309.2c0.8,0,1.4,0.6,1.4,1.4v4.3c0,0.8-0.6,1.4-1.4,1.4c-0.8,0-1.4-0.6-1.4-1.4v-4.3
	C-147.8,309.8-147.1,309.2-146.4,309.2z M-176.3,309.2c0.8,0,1.4,0.6,1.4,1.4v4.3c0,0.8-0.6,1.4-1.4,1.4c-0.8,0-1.4-0.6-1.4-1.4
	v-4.3C-177.6,309.8-177,309.2-176.3,309.2z M-161.7,343.3c-8.2,0-15.3-2.9-20.1-8.2c-0.4-0.5-0.4-1.3,0.1-1.7c0,0,0,0,0,0
	c0.5-0.4,1.3-0.4,1.7,0.1c6,6.7,14.6,7.5,19.2,7.4c7.6-0.2,14.9-3.2,18.3-7.3c0.4-0.5,1.2-0.6,1.7-0.2c0.5,0.4,0.6,1.2,0.2,1.7
	c0,0,0,0,0,0c-3.8,4.8-11.7,8-20.1,8.2C-161,343.3-161.3,343.3-161.7,343.3z"/>
</svg>
