<svg id="Слой_1" data-name="Слой 1" xmlns="http://www.w3.org/2000/svg" width="9.97mm" height="8.89mm" viewBox="0 0 28.27 25.19"><defs><style>.cls-1{fill:#1d3a53;}.cls-2{fill:#f4cd5e;}</style></defs><title>chat</title><path class="cls-1" d="M-291.92,456.05a1,1,0,0,1-.45-.1,1,1,0,0,1-.55-.9v-3.39h-1.69a3.85,3.85,0,0,1-3.85-3.84V434.71a3.85,3.85,0,0,1,3.85-3.84H-274a3.85,3.85,0,0,1,3.84,3.84v13.11a3.85,3.85,0,0,1-3.84,3.84h-11.74l-5.56,4.19A1,1,0,0,1-291.92,456.05Zm-2.69-23.18a1.84,1.84,0,0,0-1.85,1.84v13.11a1.85,1.85,0,0,0,1.85,1.84h2.69a1,1,0,0,1,1,1v2.39l4.23-3.19a1,1,0,0,1,.6-.2H-274a1.85,1.85,0,0,0,1.84-1.84V434.71a1.84,1.84,0,0,0-1.84-1.84Z" transform="translate(298.46 -430.87)"/><path class="cls-2" d="M-276.49,439.72h-15.74a1,1,0,0,1-1-1,1,1,0,0,1,1-1h15.74a1,1,0,0,1,1,1A1,1,0,0,1-276.49,439.72Z" transform="translate(298.46 -430.87)"/><path class="cls-2" d="M-280.57,444.48H-292.2a1,1,0,0,1-1-1,1,1,0,0,1,1-1h11.63a1,1,0,0,1,1,1A1,1,0,0,1-280.57,444.48Z" transform="translate(298.46 -430.87)"/></svg>