<svg xmlns="http://www.w3.org/2000/svg" viewBox="0 0 45 45"><defs><style>.cls-1,.cls-2{fill:none;stroke-width:2px;}.cls-1{stroke:#008ad1;stroke-miterlimit:10;}.cls-2{stroke:#f4cc5b;stroke-linecap:round;stroke-linejoin:round;}.cls-3{fill:#f4cc5b;}</style></defs><title>ico5</title><g id="Слой_1" data-name="Слой 1"><path class="cls-1" d="M3,32.42H42a0,0,0,0,1,0,0v1.73a1.6,1.6,0,0,1-1.6,1.6H4.56A1.6,1.6,0,0,1,3,34.15V32.42a0,0,0,0,1,0,0Z"/><path class="cls-1" d="M8.28,9.25H36.72a2,2,0,0,1,2,2v20.9a0,0,0,0,1,0,0H6.3a0,0,0,0,1,0,0V11.22A2,2,0,0,1,8.28,9.25Z"/><path class="cls-2" d="M12.86,14c.3-.07,2.36,0,2.36,0L18,23H28.59l2.07-6.15H20.84"/><circle class="cls-3" cx="18.66" cy="27.09" r="1.72"/><circle class="cls-3" cx="27.37" cy="27.09" r="1.72"/></g></svg>