<svg xmlns="http://www.w3.org/2000/svg" viewBox="0 0 90 90"><defs><style>.cls-1{fill:#1d3b54;opacity:0.27;}.cls-2,.cls-4{fill:none;}.cls-2{stroke:#1d3b54;}.cls-2,.cls-3,.cls-4{stroke-linecap:round;stroke-linejoin:round;stroke-width:3px;}.cls-3{fill:#fff;}.cls-3,.cls-4{stroke:#f4cc5b;}</style></defs><title>ico_uslugi5</title><g id="Слой_1" data-name="Слой 1"><rect class="cls-1" x="13.66" y="57.31" width="25.47" height="4.49"/><rect class="cls-1" x="13.66" y="26.19" width="25.47" height="4.49"/><rect class="cls-1" x="13.66" y="19.35" width="29.03" height="4.49"/><rect class="cls-1" x="13.66" y="65.03" width="34.49" height="7.89"/><path class="cls-2" d="M49.88,10.81h-36a6.38,6.38,0,0,0-6.38,6.38V72.81a6.38,6.38,0,0,0,6.38,6.38h36a6.38,6.38,0,0,0,6.38-6.38V17.19Z"/><polyline class="cls-2" points="49.59 11.29 49.59 18.33 55.47 18.33"/><circle class="cls-1" cx="22.63" cy="43.93" r="8.27"/><path class="cls-3" d="M77.87,72.34,43.31,46.5l3.48-4.65L81.34,67.69a2.9,2.9,0,0,1,.59,4.06h0A2.9,2.9,0,0,1,77.87,72.34Z"/><polyline class="cls-4" points="43.31 46.5 35.99 37.4 46.78 41.85"/><line class="cls-4" x1="71.44" y1="67.54" x2="74.92" y2="62.89"/></g></svg>