<svg xmlns="http://www.w3.org/2000/svg" viewBox="0 0 55 55"><defs><style>.cls-1,.cls-2{fill:none;stroke:#fff;stroke-linecap:round;stroke-linejoin:round;}.cls-1{stroke-width:2px;}.cls-2{stroke-width:1.5px;}</style></defs><title>Ico_footer6</title><g id="Слой_5" data-name="Слой 5"><polyline class="cls-1" points="11.41 43.25 11.41 8.96 43.59 8.96 43.59 46.04"/><path class="cls-2" d="M34.33,21.2v-6.6h2.59a1.25,1.25,0,0,1,1.25,1.25h0a1.25,1.25,0,0,1-1.25,1.25H33.11"/><line class="cls-2" x1="33.11" y1="19.56" x2="37.56" y2="19.56"/><line class="cls-2" x1="16.9" y1="14.59" x2="26.87" y2="14.59"/><line class="cls-2" x1="16.9" y1="18.21" x2="24.27" y2="18.21"/><line class="cls-2" x1="16.9" y1="20.79" x2="24.27" y2="20.79"/><rect class="cls-2" x="15.41" y="28.18" width="23.91" height="10.96"/><line class="cls-2" x1="16.54" y1="31.88" x2="38.17" y2="31.88"/><line class="cls-2" x1="16.54" y1="35.43" x2="38.17" y2="35.43"/><line class="cls-2" x1="30.15" y1="28.18" x2="30.15" y2="38.58"/><polyline class="cls-1" points="11.41 43.92 14.33 46.19 17.25 43.92 20.18 46.19 23.11 43.92 26.03 46.19 28.95 43.92 31.88 46.19 34.8 43.92 37.73 46.19 40.66 43.92 43.59 46.19"/></g></svg>