<svg xmlns="http://www.w3.org/2000/svg" viewBox="0 0 55 55"><defs><style>.cls-1{fill:#fff;}</style></defs><title>Ico_footer2</title><g id="Слой_5" data-name="Слой 5"><path class="cls-1" d="M46,12.86H9a2.39,2.39,0,0,0-2.39,2.39V39.75A2.39,2.39,0,0,0,9,42.14H46a2.39,2.39,0,0,0,2.39-2.39V15.25A2.39,2.39,0,0,0,46,12.86ZM46,39.68,9,39.75,9,15.32l37-.06Zm0,0"/><path class="cls-1" d="M12.53,24.11,13.77,33h3L22.5,22H19.3l-2.42,5.1c-.34.73-.63,1.39-.89,2,0-.63-.09-1.25-.15-1.87L15.34,22H10.46l5.07,4Zm0,0"/><path class="cls-1" d="M24.69,33l2.08-11H23.91L21.82,33Zm0,0"/><path class="cls-1" d="M26.37,32.36a5.54,5.54,0,0,0,3.16.81c2.71,0,4.54-1.53,4.54-3.81,0-1.25-.73-2.24-2.23-3-.83-.47-1.34-.78-1.34-1.18s.39-.77,1.31-.77a3.72,3.72,0,0,1,1.72.43l.33.18.92-2.46-.24-.13a5.34,5.34,0,0,0-2.61-.57c-2.59,0-4.41,1.53-4.41,3.69,0,1.57,1.24,2.45,2.33,3s1.22.83,1.22,1.17c0,.67-.72.9-1.32.9A4.57,4.57,0,0,1,27.47,30l-.33-.2-1,2.39Zm0,0"/><path class="cls-1" d="M36.83,33l1.24-2.7h2.48l.22,2.7h3l-1.3-11H39.13L33.77,33Zm3-6.81c.11-.24.23-.53.34-.82,0,.26.05.5.06.72L40.4,28H39Zm0,0"/></g></svg>