<svg xmlns="http://www.w3.org/2000/svg" viewBox="0 0 90 90"><defs><style>.cls-1,.cls-4{fill:none;stroke-linecap:round;stroke-linejoin:round;stroke-width:3px;}.cls-1{stroke:#1d3b54;}.cls-2,.cls-3{fill:#1d3b54;}.cls-2{opacity:0.27;}.cls-4{stroke:#f4cc5b;}</style></defs><title>ico_uslugi3</title><g id="Слой_1" data-name="Слой 1"><rect class="cls-1" x="5.67" y="17.81" width="78.66" height="54.38" rx="7.11" ry="7.11"/><path class="cls-2" d="M42.54,23.29h12a0,0,0,0,1,0,0v78.66a0,0,0,0,1,0,0h-12a7.11,7.11,0,0,1-7.11-7.11V30.4A7.11,7.11,0,0,1,42.54,23.29Z" transform="translate(-17.62 107.62) rotate(-90)"/><circle class="cls-3" cx="13.15" cy="25.1" r="1.67"/><circle class="cls-3" cx="13.15" cy="64.78" r="1.67"/><circle class="cls-3" cx="77.27" cy="25.1" r="1.67"/><circle class="cls-3" cx="77.27" cy="64.78" r="1.67"/><line class="cls-1" x1="33.32" y1="61.72" x2="53.34" y2="61.72"/><polyline class="cls-1" points="50.43 56.7 56.68 61.72 50.43 66.45"/><line class="cls-4" x1="25.71" y1="43.22" x2="62.87" y2="43.22"/><line class="cls-4" x1="19.21" y1="33.88" x2="69.36" y2="33.88"/></g></svg>