<svg xmlns="http://www.w3.org/2000/svg" viewBox="0 0 90 90"><defs><style>.cls-1,.cls-3,.cls-4,.cls-5{fill:none;stroke-width:3px;}.cls-1,.cls-4{stroke:#1d3b54;}.cls-1,.cls-3{stroke-miterlimit:10;}.cls-2{fill:#1d3b54;opacity:0.27;}.cls-3,.cls-5{stroke:#f4cc5b;}.cls-4,.cls-5{stroke-linecap:round;stroke-linejoin:round;}</style></defs><title>ico_uslugi1</title><g id="Слой_1" data-name="Слой 1"><path class="cls-1" d="M39.53,26.59V59.08a6.37,6.37,0,0,1-6.35,6.35H12.67a6.37,6.37,0,0,1-6.35-6.35V26.59a6.37,6.37,0,0,1,6.35-6.35H33.17Z"/><path class="cls-2" d="M38.8,26.59V59.08a6.37,6.37,0,0,1-6.35,6.35H11.93a6.37,6.37,0,0,1-6.35-6.35V26.59a6.37,6.37,0,0,1,6.35-6.35H32.44Z"/><polyline class="cls-1" points="31.61 21.07 31.61 28.05 38.76 28.05"/><line class="cls-1" x1="12.42" y1="56.55" x2="33.1" y2="56.55"/><line class="cls-1" x1="12.42" y1="50.46" x2="33.1" y2="50.46"/><line class="cls-1" x1="12.42" y1="44.36" x2="33.1" y2="44.36"/><path class="cls-3" d="M84.42,33V65.46a6.37,6.37,0,0,1-6.35,6.35H57.56a6.37,6.37,0,0,1-6.35-6.35V33a6.37,6.37,0,0,1,6.35-6.35H78.07Z"/><polyline class="cls-3" points="76.5 27.45 76.5 34.43 83.65 34.43"/><line class="cls-3" x1="57.31" y1="62.94" x2="77.99" y2="62.94"/><line class="cls-3" x1="57.31" y1="56.84" x2="77.99" y2="56.84"/><line class="cls-3" x1="57.31" y1="50.75" x2="77.99" y2="50.75"/><path class="cls-4" d="M35.19,16.06a20.17,20.17,0,0,1,28.52,0"/><path class="cls-4" d="M57,17.08h7.57V9.68"/><path class="cls-5" d="M47.79,73.94a20.17,20.17,0,0,1-28.52,0"/><path class="cls-5" d="M26,72.92H18.41v7.41"/></g></svg>