<svg xmlns="http://www.w3.org/2000/svg" viewBox="0 0 55 55"><defs><style>.cls-1{fill:#008ad1;}.cls-2{fill:#f5c957;}</style></defs><title>ico_time</title><g id="Слой_5" data-name="Слой 5"><path class="cls-1" d="M36.92,11.18c-1-.46-2.07-1-3.14-1.37a18.74,18.74,0,1,0,11.3,24.33,16.7,16.7,0,0,0,1.25-6.24c0-.75.26-1.1,1-1,.53,0,1.07,0,1.6,0,1.22,0,1.32.09,1.28,1.27A22,22,0,0,1,47.47,38.4a22.58,22.58,0,0,1-35.74,5.29C5,37,3.07,28.85,6.23,19.93S16,6.09,25.29,4.93a21.58,21.58,0,0,1,14,3.13.8.8,0,0,0,1.21-.16c.72-.79,1.49-1.53,2.26-2.27.62-.59,1.1-.45,1.32.39q1.27,4.86,2.52,9.72c.26,1-.06,1.3-1.09,1l-9.64-2.5c-1-.25-1.09-.69-.38-1.4.48-.47,1-.89,1.51-1.33Z"/><path class="cls-2" d="M22.18,30c.88,0,1.51,0,2.14,0a5.14,5.14,0,0,1,1.06.16c.57.15,1,.43.85,1.13A1.12,1.12,0,0,1,25.1,32.3c-1.82,0-3.65.06-5.47,0-1.27-.06-1.67-.94-.9-2s1.6-1.87,2.4-2.81c.51-.6,1-1.2,1.48-1.84a3.54,3.54,0,0,0,.53-1,1,1,0,0,0-.54-1.42c-.6-.24-1,.1-1.33.6a7.92,7.92,0,0,0-.45,1,1.08,1.08,0,0,1-1.34.74,1.22,1.22,0,0,1-1-1.31A3.89,3.89,0,0,1,25,21.73a2.93,2.93,0,0,1,.66,3.64A30.56,30.56,0,0,1,23,29C22.82,29.29,22.58,29.51,22.18,30Z"/><path class="cls-2" d="M32.07,29.87c-1.47,0-2.9,0-4.32,0-1.06,0-1.38-.57-1-1.56A9.26,9.26,0,0,1,27.52,27q1.54-2.46,3.11-4.91A2.07,2.07,0,0,1,33,21a2,2,0,0,1,1.44,2.14c0,1.48,0,3,0,4.43,1.32.19,1.86.6,1.84,1.34s-.57,1-1.77,1.14c0,.43,0,.88-.07,1.32a1.19,1.19,0,0,1-1.22,1.15c-.71.09-.92-.43-1-1S32.13,30.51,32.07,29.87Zm-2.51-2.31h2.51V23.47Z"/><path class="cls-1" d="M29,42.57c0,.11,0,.22,0,.34,0,1.49-.48,1.89-1.95,1.48a1.07,1.07,0,0,1-.55-.78,20.44,20.44,0,0,1,0-2.1c0-.63.28-.9.91-.93C28.92,40.52,29,40.58,29,42.57Z"/><path class="cls-1" d="M42.66,28.73h-.34c-1.38,0-1.87-.71-1.4-2a.84.84,0,0,1,.6-.45,14.49,14.49,0,0,1,2.44,0c.26,0,.54.38.69.65s0,.49,0,.74c.05.68-.2,1.08-.95,1.05-.36,0-.73,0-1.09.05Z"/><path class="cls-1" d="M29,12.48q0,.25,0,.5c0,1.29-.09,1.38-1.38,1.36-1,0-1.12-.15-1.14-1.11,0-.62,0-1.23,0-1.85s.29-.93.93-.89a4.13,4.13,0,0,0,.59,0c.71-.06,1.05.24,1,1C29,11.81,29,12.15,29,12.48Z"/><path class="cls-1" d="M12.78,26.22H13c1.49,0,1.89.5,1.49,2a.9.9,0,0,1-.65.51,15.49,15.49,0,0,1-2.44,0c-.21,0-.48-.33-.58-.56a2.14,2.14,0,0,1,0-.83c0-1,.11-1.09,1.13-1.1h.84Z"/></g></svg>