<svg xmlns="http://www.w3.org/2000/svg" viewBox="0 0 90 90"><defs><style>.cls-1,.cls-3{fill:none;stroke-linecap:round;stroke-linejoin:round;stroke-width:3px;}.cls-1{stroke:#1d3b54;}.cls-2{fill:#1d3b54;opacity:0.27;}.cls-3{stroke:#f4cc5b;}</style></defs><title>ico_uslugi4</title><g id="Слой_1" data-name="Слой 1"><rect class="cls-1" x="10.97" y="15.25" width="68.17" height="48.76" rx="7.11" ry="7.11"/><path class="cls-2" d="M10.86,54.64H79a0,0,0,0,1,0,0v2.86a7.11,7.11,0,0,1-7.11,7.11H18a7.11,7.11,0,0,1-7.11-7.11V54.64A0,0,0,0,1,10.86,54.64Z"/><polyline class="cls-1" points="35.35 64.01 32.13 74.75 59.23 74.75 56.2 64.01"/><line class="cls-1" x1="12.23" y1="54.64" x2="77.65" y2="54.64"/><path class="cls-3" d="M60,40.55s-3.33-12.84-3-12.69S67.56,35.8,67.56,35.8l-4.87.63Z"/><line class="cls-3" x1="65.92" y1="41.58" x2="62.95" y2="36.85"/><line class="cls-3" x1="21.37" y1="27.16" x2="45.68" y2="27.16"/><line class="cls-3" x1="21.37" y1="34.08" x2="41.2" y2="34.08"/><line class="cls-3" x1="21.37" y1="41.01" x2="45.68" y2="41.01"/><line class="cls-1" x1="28.49" y1="74.75" x2="62.67" y2="74.75"/></g></svg>