<svg xmlns="http://www.w3.org/2000/svg" viewBox="0 0 90 90"><defs><style>.cls-1,.cls-3{fill:none;stroke-linecap:round;stroke-linejoin:round;stroke-width:3px;}.cls-1{stroke:#1d3b54;}.cls-2{fill:#1d3b54;opacity:0.27;}.cls-3{stroke:#f4cc5b;}</style></defs><title>ico_uslugi8</title><g id="Слой_1" data-name="Слой 1"><path class="cls-1" d="M23.22,31.64v35a7.11,7.11,0,0,0,7.11,7.11H59.09A7.11,7.11,0,0,0,66.2,66.6v-35"/><path class="cls-2" d="M23.22,64.33V66.6a7.11,7.11,0,0,0,7.11,7.11H59.09A7.11,7.11,0,0,0,66.2,66.6V64.33"/><path class="cls-1" d="M66.2,31.64l5.13,2.72a6,6,0,0,0,7.79-2l.07-.11a6,6,0,0,0-1.63-8.18L66.2,16.29,54,16.54a8.88,8.88,0,1,1-17.75,0l-13.05-.25-10.89,7.8a6,6,0,0,0-1.59,8h0a6,6,0,0,0,8,2.06l4.52-2.51"/><polyline class="cls-3" points="31.53 54.63 45.22 37.62 58.91 54.63"/><path class="cls-3" d="M39.15,46.51l1.29,2.32a.56.56,0,0,0,.12.17c.21.18.53,0,.73-.23a18.48,18.48,0,0,1,2.52-2.08.82.82,0,0,1,.43-.18.78.78,0,0,1,.42.16,5.44,5.44,0,0,1,1.48,1.46c.33.16.69-.15.93-.43l1.6-1.89"/><circle class="cls-3" cx="33.86" cy="35.72" r="3.28"/></g></svg>