<svg xmlns="http://www.w3.org/2000/svg" viewBox="0 0 90 90"><defs><style>.cls-1,.cls-3{fill:none;stroke-linecap:round;stroke-linejoin:round;stroke-width:3px;}.cls-1{stroke:#3089d6;}.cls-2{fill:#3089d6;opacity:0.27;}.cls-3{stroke:#f4cc5b;}</style></defs><title>ico_uslugi_h_6</title><g id="Слой_1" data-name="Слой 1"><rect class="cls-1" x="4.57" y="16.27" width="80.85" height="56.85" rx="7.02" ry="7.02"/><path class="cls-2" d="M51.16,16.87H85.43a0,0,0,0,1,0,0V73.73a0,0,0,0,1,0,0H51.16a7,7,0,0,1-7-7V23.9A7,7,0,0,1,51.16,16.87Z" transform="translate(129.56 90.6) rotate(180)"/><line class="cls-1" x1="45" y1="72.21" x2="45" y2="18.39"/><line class="cls-3" x1="11.69" y1="26.35" x2="37.44" y2="26.35"/><line class="cls-3" x1="11.69" y1="34.54" x2="37.44" y2="34.54"/><line class="cls-3" x1="11.69" y1="42.74" x2="37.44" y2="42.74"/><line class="cls-3" x1="11.69" y1="50.93" x2="37.44" y2="50.93"/><line class="cls-3" x1="11.69" y1="59.12" x2="37.44" y2="59.12"/><line class="cls-1" x1="52.62" y1="50.93" x2="78.37" y2="50.93"/><line class="cls-1" x1="52.62" y1="59.12" x2="78.37" y2="59.12"/><circle class="cls-1" cx="64.77" cy="34.54" r="5.08"/></g></svg>