<svg xmlns="http://www.w3.org/2000/svg" viewBox="0 0 55 55"><defs><style>.cls-1{fill:#fff;}</style></defs><title>Ico_footer3</title><g id="Слой_5" data-name="Слой 5"><path class="cls-1" d="M46,12.86H9a2.39,2.39,0,0,0-2.39,2.39V39.75A2.39,2.39,0,0,0,9,42.14H46a2.39,2.39,0,0,0,2.39-2.39V15.25A2.39,2.39,0,0,0,46,12.86ZM46,39.68,9,39.75,9,15.32l37-.06Zm0,0"/><path class="cls-1" d="M29.27,24l-2,4.26h-.2V23.11H24.31v8.77h2.37A1.59,1.59,0,0,0,28.13,31l2-4.26h.2v5.18h2.79V23.11H30.71a1.59,1.59,0,0,0-1.45.93"/><path class="cls-1" d="M18.79,24.27l-1.16,4h-.2l-1.16-4a1.6,1.6,0,0,0-1.53-1.15H11.95v8.77h2.79V26.7h.2l1.59,5.18h2l1.59-5.18h.2v5.18h2.79V23.11H20.33a1.6,1.6,0,0,0-1.53,1.15"/><path class="cls-1" d="M34.28,27.1v4.79h2.79V29.1h3a3,3,0,0,0,2.82-2Z"/><path class="cls-1" d="M40.06,23.11H33.88a4.39,4.39,0,0,0,4.31,3.59H43a3,3,0,0,0,.06-.6,3,3,0,0,0-3-3"/></g></svg>