<svg xmlns="http://www.w3.org/2000/svg" viewBox="0 0 45 45"><defs><style>.cls-1,.cls-2{fill:none;stroke-linecap:round;stroke-linejoin:round;stroke-width:2px;}.cls-1{stroke:#1d3b54;}.cls-2{stroke:#f4cc5b;}</style></defs><title>ico_h3</title><g id="Слой_1" data-name="Слой 1"><path class="cls-1" d="M10.5,16h7.7l9.29-5.4V32l-9.05-4.72H10.5a5.61,5.61,0,0,1-5.61-5.61h0A5.61,5.61,0,0,1,10.5,16Z"/><line class="cls-1" x1="11.55" y1="16.04" x2="11.55" y2="26.51"/><polyline class="cls-1" points="11.7 27.26 11.7 34.36 16.55 34.36 15.13 27.26"/><path class="cls-2" d="M30.64,19.21a2.92,2.92,0,0,1,0,4.13"/><path class="cls-2" d="M34.37,18.15a4.42,4.42,0,0,1,0,6.26"/><path class="cls-2" d="M37.84,15.8a7.74,7.74,0,0,1,0,10.95"/></g></svg>