<svg xmlns="http://www.w3.org/2000/svg" viewBox="0 0 55 55"><defs><style>.cls-1{fill:#fff;}</style></defs><title>Ico_footer1</title><g id="Слой_5" data-name="Слой 5"><path class="cls-1" d="M16.95,25.56a4.24,4.24,0,0,0-1.49.27l-.18,1.06a3.87,3.87,0,0,1,1.34-.22c.46,0,.8.05.8.43a.85.85,0,0,1,0,.31l-.53,0c-1.07,0-2.19.45-2.19,1.83a1.17,1.17,0,0,0,1.19,1.33A1.62,1.62,0,0,0,17.12,30l0,.47h1.09l.48-3.4a1.46,1.46,0,0,0-1.7-1.49Zm-.61,3.95a.45.45,0,0,1-.48-.46c0-.34.18-.75,1.09-.75a.71.71,0,0,1,.27,0c0,.21-.13,1.18-.87,1.18ZM20.2,27.1c0,.62,1.47.31,1.47,1.85s-1.59,1.57-1.87,1.57a3.89,3.89,0,0,1-1.38-.15l.16-1.08a3.83,3.83,0,0,0,1.1.19c.33,0,.76,0,.76-.43,0-.6-1.54-.45-1.54-1.87,0-1.25.93-1.61,1.84-1.61a5.74,5.74,0,0,1,1.14.1l-.16,1.09s-.67-.06-.84-.06c-.44,0-.68.1-.68.41ZM23.13,29c0,.17,0,.4.45.4.11,0,.23,0,.32,0l-.16,1.05a3.19,3.19,0,0,1-.93.16.92.92,0,0,1-1-1c0-.49.7-4.52.73-4.55H23.8l-.12.72h.61l-.16,1.16h-.65Zm4.76-.51a8.77,8.77,0,0,0,.17-1.12,1.66,1.66,0,0,0-1.76-1.81c-1.24,0-2.16,1.34-2.16,2.85a1.94,1.94,0,0,0,2.13,2.16,3.19,3.19,0,0,0,1.3-.2l.22-1.19a3.89,3.89,0,0,1-1.31.3c-1.32,0-1.09-1-1.09-1ZM26.3,26.64c.7,0,.57.78.57.85H25.49c0-.08.13-.85.8-.85ZM15.1,24.57l-1,5.88H12.86l.7-4.43L12,30.46h-.85L11,26l-.75,4.43H9.07l1-5.88h1.8l.07,3.61,1.21-3.61Zm15.62-.77H24.31c.06-.12.29-.61.63-1.24h5.29a12.47,12.47,0,0,1,.5,1.24Zm-1.17-2.46H25.62c.25-.42.53-.84.83-1.24h2.2a11.7,11.7,0,0,1,.9,1.24ZM27.5,36.1a11.89,11.89,0,0,1-1.19-1.27h2.39a11.25,11.25,0,0,1-1.18,1.24h0l0,0Zm2.06-2.46H25.45a11.36,11.36,0,0,1-.68-1.24h5.47a11.5,11.5,0,0,1-.68,1.24Zm1.47-8a4.76,4.76,0,0,0-.46,1.43c-.85-.3-.92,1.36-1.28,3.4H28l.77-4.79h1.15l-.11.69s.41-.75,1-.75a1.33,1.33,0,0,1,.24,0Zm2.28,3.71a3,3,0,0,0,1-.3l-.22,1.35a5.75,5.75,0,0,1-1.08.17c-1.47,0-2.22-1-2.22-2.55,0-2.32,1.39-3.56,2.81-3.56a4.45,4.45,0,0,1,1.39.3l-.2,1.31a2.2,2.2,0,0,0-1.14-.36c-.84,0-1.59.8-1.59,2.26a1.22,1.22,0,0,0,1.23,1.39Zm12.06.43a.31.31,0,0,0-.14.14.36.36,0,0,0,0,.19.35.35,0,0,0,0,.18.34.34,0,0,0,.14.14.41.41,0,0,0,.19.05.42.42,0,0,0,.19-.05.33.33,0,0,0,.14-.14.35.35,0,0,0,.05-.18.36.36,0,0,0-.05-.19.35.35,0,0,0-.14-.14.38.38,0,0,0-.37,0Zm.45.17a.31.31,0,0,1,0,.15.31.31,0,0,1,0,.16.29.29,0,0,1-.11.12.31.31,0,0,1-.31,0,.31.31,0,0,1-.12-.12.32.32,0,0,1,0-.16.27.27,0,0,1,0-.15.28.28,0,0,1,.12-.12.32.32,0,0,1,.15,0,.31.31,0,0,1,.15,0,.26.26,0,0,1,.12.12Zm-5-1.42c0,1,.5,2,1.53,2A1.55,1.55,0,0,0,43.49,30l-.05.44h1.2l.95-5.87H44.34l-.27,1.65a1.63,1.63,0,0,0-1.19-.65c-1.13,0-2.08,1.37-2.08,2.93Zm3-.72c0,.65-.32,1.52-1,1.52-.44,0-.65-.37-.65-1,0-1,.43-1.59,1-1.59s.67.31.67,1Zm2,6.19,0,0a.15.15,0,0,0,.08,0,.11.11,0,0,0,0-.08.12.12,0,0,0,0-.06l-.05,0h-.24v.4h.07V34h0l.05,0a.24.24,0,0,1,.07.09l0,.06h.08l0-.08L45.78,34Zm-.09-.07h-.08V33.8h.14l0,0a.09.09,0,0,1,0,0,.07.07,0,0,1,0,0Zm3.24-21.06H6.07A1.16,1.16,0,0,0,4.91,14V41a1.16,1.16,0,0,0,1.16,1.16H48.93A1.16,1.16,0,0,0,50.09,41V14a1.16,1.16,0,0,0-1.16-1.16ZM46,34.12a.37.37,0,0,1-.51.14.36.36,0,0,1-.14-.14.39.39,0,0,1-.05-.19.4.4,0,0,1,.05-.19.37.37,0,0,1,.14-.14.36.36,0,0,1,.18-.05.4.4,0,0,1,.19.05.33.33,0,0,1,.14.14.38.38,0,0,1,.05.19.4.4,0,0,1,0,.19Zm.84-6.62A11.59,11.59,0,0,1,27.5,36.1a11.6,11.6,0,1,1-7.85-20.2h.07a11.56,11.56,0,0,1,7.77,3,11.6,11.6,0,0,1,19.37,8.6Zm-1.48,2.4v.4h.07v-.17h.09a.36.36,0,0,1,.07.1l0,.06h.08l-.05-.08-.06-.08,0,0a.12.12,0,0,0,.08,0,.1.1,0,0,0,0-.07.1.1,0,0,0,0-.06.1.1,0,0,0,0,0h-.24Zm.23.09a0,0,0,0,1,0,0,.06.06,0,0,1,0,0l-.08,0h-.08V30h.14l0,0ZM37,25.56a4.25,4.25,0,0,0-1.5.27l-.18,1.06a3.88,3.88,0,0,1,1.35-.22c.46,0,.8.05.8.43a.78.78,0,0,1,0,.31l-.53,0c-1.07,0-2.19.45-2.19,1.83a1.17,1.17,0,0,0,1.19,1.33A1.61,1.61,0,0,0,37.13,30l0,.47h1.09l.48-3.4A1.46,1.46,0,0,0,37,25.56Zm-.61,3.95a.45.45,0,0,1-.48-.46c0-.34.18-.75,1.09-.75a.7.7,0,0,1,.27,0c0,.21-.13,1.18-.87,1.18Zm4.58-2.45c-.86-.3-.92,1.36-1.29,3.4H38.39l.77-4.79h1.15l-.11.69s.41-.75,1-.75a1.33,1.33,0,0,1,.24,0,4.68,4.68,0,0,0-.46,1.43Zm0,0"/></g></svg>