<svg xmlns="http://www.w3.org/2000/svg" viewBox="0 0 90 90"><defs><style>.cls-1,.cls-3{fill:none;stroke-linecap:round;stroke-linejoin:round;stroke-width:3px;}.cls-1{stroke:#1d3b54;}.cls-2{fill:#1d3b54;opacity:0.27;}.cls-3{stroke:#f4cc5b;}</style></defs><title>ico_uslugi7</title><g id="Слой_1" data-name="Слой 1"><rect class="cls-1" x="10.98" y="14.62" width="68.17" height="60.76" rx="7.11" ry="7.11" transform="translate(90.06 -0.06) rotate(90)"/><path class="cls-2" d="M37.1,40.87h8.56A7.11,7.11,0,0,1,52.77,48V94.52a7.11,7.11,0,0,1-7.11,7.11H37.1a0,0,0,0,1,0,0V40.87A0,0,0,0,1,37.1,40.87Z" transform="translate(116.19 26.31) rotate(90)"/><path class="cls-3" d="M25,56.34a6.94,6.94,0,0,1,4-5.45c3.27-1.55,5.82-1.82,7.09-2.82a7.18,7.18,0,0,1,2.27-1.27V41.17"/><path class="cls-3" d="M64.3,56.34a6.94,6.94,0,0,0-4-5.45c-3.27-1.55-5.82-1.82-7.09-2.82a7.18,7.18,0,0,0-2.27-1.27V41.17"/><path class="cls-3" d="M53.75,31.93c0,6.38-4,12.86-9,12.86s-9-6.49-9-12.86"/><path class="cls-3" d="M53.61,34c1-2.05,3.32-11.65-4.86-15.26A9.06,9.06,0,0,0,38.39,20.8s-1.88-.9-3.29,3a11,11,0,0,0,.65,8.09,7.18,7.18,0,0,0,4.15-3.46,15.2,15.2,0,0,0,1.44-3.39,29.28,29.28,0,0,0,6.26,2.42,15.19,15.19,0,0,0,5.56.24S54,31.83,53.61,34Z"/><path class="cls-3" d="M52.86,37.2a4.5,4.5,0,0,0,1.74-2.11,10,10,0,0,0,.29-3.6"/><path class="cls-3" d="M36.53,37a4.5,4.5,0,0,1-1.74-2.11,10,10,0,0,1-.29-3.6"/><path class="cls-3" d="M38.39,46.79A8.19,8.19,0,0,0,44.79,50a7.43,7.43,0,0,0,6.15-3.23"/><line class="cls-1" x1="14.68" y1="63.18" x2="75.44" y2="63.18"/></g></svg>