<svg xmlns="http://www.w3.org/2000/svg" viewBox="0 0 55 55"><defs><style>.cls-1{fill:#fff;}</style></defs><title>Ico_footer5</title><g id="Слой_5" data-name="Слой 5"><path class="cls-1" d="M44,22.79V18.05a5.38,5.38,0,0,0-5.43-5.43H14.68a5.38,5.38,0,0,0-5.43,5.43v18.9a5.38,5.38,0,0,0,5.43,5.43H38.58A5.38,5.38,0,0,0,44,36.95V32.43a3.77,3.77,0,0,0,1.74-3.08V25.87A3.77,3.77,0,0,0,44,22.79Zm-.43,6.56a1.49,1.49,0,0,1-1.52,1.52H31a1.48,1.48,0,0,1-1.52-1.52V25.87A1.49,1.49,0,0,1,31,24.35H42.05a1.49,1.49,0,0,1,1.52,1.52Zm-5,10.86H14.68a3.34,3.34,0,0,1-3.26-3.26V18.05a3.34,3.34,0,0,1,3.26-3.26H38.58a3.34,3.34,0,0,1,3.26,3.26v4.13H31a3.81,3.81,0,0,0-3.69,3.69v3.48A3.81,3.81,0,0,0,31,33H41.84v3.91a3.34,3.34,0,0,1-3.26,3.26Zm0,0"/><path class="cls-1" d="M31.19,26.74a1.31,1.31,0,0,0-.22.87.8.8,0,0,0,.22.65,1.65,1.65,0,0,0,.87.43c.22,0,.43-.22.65-.43.22,0,.43-.43.43-.65a1.13,1.13,0,0,0-.43-.87,1,1,0,0,0-1.52,0Zm0,0"/></g></svg>