<svg xmlns="http://www.w3.org/2000/svg" viewBox="0 0 90 90"><defs><style>.cls-1,.cls-2{fill:none;stroke-linecap:round;stroke-linejoin:round;stroke-width:3px;}.cls-1{stroke:#1d3b54;}.cls-2{stroke:#f4cc5b;}.cls-3{fill:#1d3b54;opacity:0.27;}</style></defs><title>ico_uslugi2</title><g id="Слой_1" data-name="Слой 1"><polyline class="cls-1" points="12.82 51.71 5.06 51.71 5.06 34.24"/><polyline class="cls-1" points="84.94 34.24 84.94 51.71 77.18 51.71"/><path class="cls-2" d="M12.82,34.27H77.18a0,0,0,0,1,0,0V67.46a7,7,0,0,1-7,7H19.82a7,7,0,0,1-7-7V34.27A0,0,0,0,1,12.82,34.27Z"/><path class="cls-1" d="M12.18,16.79H77.82a7.12,7.12,0,0,1,7.12,7.12V34.27a0,0,0,0,1,0,0H5.06a0,0,0,0,1,0,0V23.91A7.12,7.12,0,0,1,12.18,16.79Z"/><path class="cls-3" d="M12.18,15.54H77.82a7.12,7.12,0,0,1,7.12,7.12V33a0,0,0,0,1,0,0H5.06a0,0,0,0,1,0,0V22.66A7.12,7.12,0,0,1,12.18,15.54Z"/><polyline class="cls-2" points="21.67 67.14 35.36 50.13 49.05 67.14"/><polyline class="cls-2" points="45 53.01 56.12 40.86 72.46 58.64"/><path class="cls-2" d="M29.29,59l1.29,2.32a.56.56,0,0,0,.12.17c.21.18.53,0,.73-.23a18.48,18.48,0,0,1,2.52-2.08.82.82,0,0,1,.43-.18.78.78,0,0,1,.42.16,5.44,5.44,0,0,1,1.48,1.46c.33.16.69-.15.93-.43l1.6-1.89"/><path class="cls-2" d="M50.08,48.27c.94.81,1.14,2.26,2.12,3a1.12,1.12,0,0,0,.7.28,1.45,1.45,0,0,0,.88-.47,20.38,20.38,0,0,0,1.9-2c.23-.28.54-.59.89-.52a1,1,0,0,1,.45.29l1.33,1.26a.63.63,0,0,0,.32.2.63.63,0,0,0,.44-.18,17.65,17.65,0,0,0,3.09-3"/><circle class="cls-2" cx="23.99" cy="45.03" r="3.28"/></g></svg>