<svg xmlns="http://www.w3.org/2000/svg" viewBox="0 0 160 160"><defs><style>.cls-1{fill:#f4cc5b;}.cls-10,.cls-2{fill:#1d3b54;}.cls-3{fill:#9da1b0;}.cls-4{fill:#3b4e67;}.cls-5,.cls-7{fill:#57647a;}.cls-6{fill:#757b90;}.cls-10,.cls-12,.cls-14,.cls-16,.cls-7,.cls-8,.cls-9{fill-rule:evenodd;}.cls-8{fill:#c7c8d2;}.cls-9{fill:#e9e8ed;}.cls-11,.cls-12{fill:#848897;}.cls-13,.cls-14{fill:#a8acc0;}.cls-15{fill:#fafafa;}.cls-16{fill:none;stroke:#1d3b54;stroke-linecap:round;stroke-miterlimit:10;}</style></defs><title>icoblock1</title><g id="Слой_1" data-name="Слой 1"><circle class="cls-1" cx="80" cy="81.79" r="74.8"/><ellipse class="cls-2" cx="80" cy="141.43" rx="63.41" ry="3.71"/><path class="cls-3" d="M56.94,46.44h48.13a17.28,17.28,0,0,1,17.28,17.28v55.36a0,0,0,0,1,0,0H39.66a0,0,0,0,1,0,0V63.73A17.28,17.28,0,0,1,56.94,46.44Z"/><path class="cls-4" d="M56.94,46.44h48.13a17.28,17.28,0,0,1,17.28,17.28v5.07a0,0,0,0,1,0,0H39.66a0,0,0,0,1,0,0V63.73A17.28,17.28,0,0,1,56.94,46.44Z"/><circle class="cls-5" cx="36.52" cy="90.11" r="11.51"/><rect class="cls-5" x="31.28" y="90.11" width="16.76" height="44.98"/><circle class="cls-5" cx="125.49" cy="90.99" r="11.51"/><rect class="cls-5" x="113.97" y="90.99" width="16.76" height="44.98" transform="translate(244.71 226.97) rotate(-180)"/><rect class="cls-5" x="31.28" y="117.69" width="99.45" height="24.44" rx="6.25" ry="6.25"/><rect class="cls-4" x="39.66" y="102.51" width="82.69" height="24.44" rx="6.25" ry="6.25"/><path class="cls-6" d="M45.9,102.51h70.2a6.25,6.25,0,0,1,6.25,6.25V113a0,0,0,0,1,0,0H39.66a0,0,0,0,1,0,0v-4.22A6.25,6.25,0,0,1,45.9,102.51Z"/><g id="Businessman"><rect class="cls-2" x="60.59" y="92.76" width="40.7" height="23.66" rx="9.26" ry="9.26"/><path class="cls-7" d="M68.32,56.46H93c6.65,0,10.19,5.56,12.09,11.75l4.7,15.36L83.08,91.75,52.21,83.57l4-15.36C57.87,61.95,61.67,56.46,68.32,56.46Z"/><polygon class="cls-7" points="72.78 56.46 88.51 56.46 84.35 71.96 77.02 72.3 72.78 56.46"/><polygon class="cls-8" points="51.77 83.77 53.01 80.77 109.02 81.13 110.31 84.33 51.77 83.77"/><path class="cls-9" d="M63.7,80.92H56.38a5.37,5.37,0,0,0,0,10.73H63.7a5.37,5.37,0,0,0,0-10.73Z"/><path class="cls-9" d="M98.75,81.79h7.32a5.37,5.37,0,0,1,0,10.73H98.75a5.37,5.37,0,0,1,0-10.73Z"/><path class="cls-8" d="M85.06,56.42V50.64c0-1.25-1.43-2.27-3.18-2.27H78.45c-1.75,0-3.18,1-3.18,2.27v5.77c0,1.6.22,3.35,4,3.35S85.06,58,85.06,56.42Z"/><path class="cls-8" d="M75.63,142.88l-1.3-5.75a2.55,2.55,0,0,0-2.6-1.95l-3.58,0a2.56,2.56,0,0,0-2.64,1.9l-1.42,5.72c-.33,1.34,1.51,4.06,5.73,4.1S75.94,144.23,75.63,142.88Z"/><path class="cls-10" d="M76.33,145.64a1.88,1.88,0,0,1-.75,1.4c-1.57,1.32-4.91,1.61-7.41,1.13a7,7,0,0,1-3.63-1.58c-1.56-1.64-1.07-3.29-1-4.91.15-3.63,12.19-3.5,12.48.07Z"/><path class="cls-7" d="M75.49,145.63l.07-3.94c0-.85-1.66-1.56-3.72-1.57l-4.05,0c-2.06,0-3.74.68-3.77,1.53L64,143.42C63.72,149.13,75.43,148.82,75.49,145.63Z"/><path class="cls-8" d="M87.44,141.95l1.23-5.75a2.45,2.45,0,0,1,2.47-1.95l3.41,0a2.46,2.46,0,0,1,2.51,1.9l1.35,5.72c.32,1.34-1.43,4.06-5.45,4.1S87.16,143.29,87.44,141.95Z"/><path class="cls-10" d="M86.67,145.15a1.91,1.91,0,0,0,.72,1.4c1.49,1.32,4.67,1.61,7,1.13a6.5,6.5,0,0,0,3.45-1.58c1.48-1.64,1-3.29,1-4.91-.14-3.63-11.59-3.5-11.86.07Z"/><path class="cls-7" d="M87.48,145.15l-.07-3.94c0-.85,1.57-1.56,3.53-1.57l3.85,0c2,0,3.55.68,3.59,1.53l.07,1.79C98.66,148.65,87.53,148.34,87.48,145.15Z"/><path class="cls-10" d="M76.77,109.5v24.17c0,5.71-13.9,5.71-13.9,0V109.5a7,7,0,1,1,13.9,0Z"/><path class="cls-10" d="M85,109.5v24.17c0,5.71,13.9,5.71,13.9,0V109.5a7,7,0,1,0-13.9,0Z"/></g><g id="Laptop"><rect class="cls-11" x="56.33" y="99.26" width="48.45" height="2.92" rx="0.67" ry="0.67"/><rect class="cls-2" x="56.33" y="70.41" width="48.45" height="29.78" rx="1.84" ry="1.84"/><path class="cls-12" d="M59.13,71.58H102a1.74,1.74,0,0,1,1.76,1.71V97.56A1.74,1.74,0,0,1,102,99.26H59.13a1.74,1.74,0,0,1-1.76-1.71V73.28A1.74,1.74,0,0,1,59.13,71.58Z"/><rect class="cls-13" x="57.1" y="100.73" width="46.9" height="1.13" rx="0.26" ry="0.26"/><path class="cls-14" d="M87.5,71.58,58,98.85l.2.14a1.94,1.94,0,0,0,1,.27h.84l.3-.27L90,71.58Zm10.18,0h4.2a1.78,1.78,0,0,1,1.84,1.71V97.56a1.68,1.68,0,0,1-.85,1.43,1.94,1.94,0,0,1-1,.27H67.77l.29-.27Z"/></g><path class="cls-15" d="M70.43,26.25h19.8a0,0,0,0,1,0,0V46.72a9.9,9.9,0,0,1-9.9,9.9h0a9.9,9.9,0,0,1-9.9-9.9V26.25A0,0,0,0,1,70.43,26.25Z"/><rect class="cls-2" x="71.93" y="35" width="4.93" height="1.47" rx="0.74" ry="0.74"/><rect class="cls-2" x="82.96" y="35" width="4.93" height="1.47" rx="0.74" ry="0.74"/><circle class="cls-2" cx="75.42" cy="39.03" r="1.03"/><circle class="cls-2" cx="85.42" cy="39.11" r="1.03"/><path class="cls-10" d="M77.8,41.92a3.87,3.87,0,0,0,2.2.72,2.09,2.09,0,0,0,1.64-.72,2,2,0,0,1-2.15,1.36C77.74,43.13,77.8,41.92,77.8,41.92Z"/><path class="cls-9" d="M68.12,35.42s-.32,6.12.4,6.51a5.41,5.41,0,0,0,1.89.44l.14-7S68.14,35,68.12,35.42Z"/><path class="cls-9" d="M92.4,35s.32,6.12-.4,6.51a5.41,5.41,0,0,1-1.89.44L90,35S92.38,34.52,92.4,35Z"/><path class="cls-10" d="M70.66,38.79l-.1-8.09s-.44-4.08,3.48-4.08,3.84.66,5.39.44,2.44-.44,2.44-.44L80,28.4a10.67,10.67,0,0,0,4.21-.81,3.53,3.53,0,0,1,4.09.3c1.69,1.4,1.81,2.47,1.81,5.42s.16,5.81.16,5.81H91V35.27s1.13-1.14,1.28.19.16,1.68.16,1.68,1-7.71.41-10.52S90.22,20.34,87.34,19a8.54,8.54,0,0,0-4.95-.89s.89-.59.89-1.33a1.83,1.83,0,0,0-.22-1A2.14,2.14,0,0,1,81.62,17a10.21,10.21,0,0,1-1.74.52l-2.73-.89L78,18a9.22,9.22,0,0,0-7.76,3.92c-3,4.28-2.22,6.58-2.36,8.42a57,57,0,0,0,.21,6.16s-.14-1.28.75-1.28,1.2.41,1.2.93.14,2.6.14,2.6Z"/><path class="cls-16" d="M76.86,47.65s.94.72,3.47.72,3.14-.95,3.14-.95"/><circle class="cls-2" cx="36.52" cy="90.11" r="3.83"/><circle class="cls-2" cx="126.19" cy="90.99" r="3.83"/><circle class="cls-1" cx="80.38" cy="86.04" r="2.58"/></g></svg>