<svg xmlns="http://www.w3.org/2000/svg" viewBox="0 0 160 160"><defs><style>.cls-1{fill:#f4cc5b;}.cls-2{fill:#1d3b54;}.cls-3{fill:#f9f7f0;}.cls-4,.cls-5{fill:none;stroke:#757b90;stroke-linecap:round;stroke-linejoin:round;stroke-width:4px;}.cls-5{stroke-dasharray:2 10;}</style></defs><title>icoblock3</title><g id="Слой_1" data-name="Слой 1"><circle class="cls-1" cx="80" cy="81.79" r="74.8"/><circle class="cls-2" cx="79.59" cy="83.41" r="39.57"/><circle class="cls-1" cx="79.59" cy="83.41" r="32.82"/><circle class="cls-3" cx="79.59" cy="83.42" r="30.78"/><circle class="cls-2" cx="79.59" cy="83.42" r="1.3"/><path class="cls-2" d="M79.59,58.42a.28.28,0,0,1-.28-.28V54.21a.28.28,0,0,1,.57,0v3.93A.28.28,0,0,1,79.59,58.42Z"/><path class="cls-2" d="M79.59,112.9a.28.28,0,0,1-.28-.28V108.7a.28.28,0,0,1,.57,0v3.92A.28.28,0,0,1,79.59,112.9Z"/><path class="cls-2" d="M93.69,60.65l-.07,0a.14.14,0,0,1,0-.19l1.21-2a.14.14,0,0,1,.19,0,.14.14,0,0,1,0,.19l-1.21,2A.14.14,0,0,1,93.69,60.65Z"/><path class="cls-2" d="M64.28,108.43l-.07,0a.14.14,0,0,1,0-.19l1.21-2a.14.14,0,0,1,.19,0,.14.14,0,0,1,0,.19l-1.21,2A.14.14,0,0,1,64.28,108.43Z"/><path class="cls-2" d="M103.06,70.42a.14.14,0,0,1-.07-.26L105,69a.14.14,0,1,1,.14.25l-2,1.13Z"/><path class="cls-2" d="M54.1,97.82a.14.14,0,0,1-.07-.26l2-1.12a.14.14,0,0,1,.19.05.14.14,0,0,1-.05.19l-2,1.12Z"/><path class="cls-2" d="M104.46,98.87l-.07,0-2-1.21a.14.14,0,0,1,0-.19.14.14,0,0,1,.19,0l2,1.21a.14.14,0,0,1-.07.26Z"/><path class="cls-2" d="M56.68,69.46l-.07,0-2-1.21a.14.14,0,1,1,.15-.24l2,1.21a.14.14,0,0,1-.07.26Z"/><path class="cls-2" d="M93.85,109a.14.14,0,0,1-.12-.07l-1.13-2a.14.14,0,0,1,.05-.19.14.14,0,0,1,.19.05l1.13,2a.14.14,0,0,1-.05.19Z"/><path class="cls-2" d="M66.45,60.08a.14.14,0,0,1-.12-.07L65.2,58a.14.14,0,0,1,.05-.19.14.14,0,0,1,.19.05l1.13,2a.14.14,0,0,1-.05.19Z"/><path class="cls-2" d="M108.8,83.7h-3.93a.28.28,0,1,1,0-.57h3.93a.28.28,0,0,1,0,.57Z"/><path class="cls-2" d="M54.31,83.7H50.38a.28.28,0,0,1,0-.57h3.93a.28.28,0,0,1,0,.57Z"/><path class="cls-2" d="M83.11,85.93a.28.28,0,0,1-.15,0L64.47,74.35a.28.28,0,0,1,.3-.48L83.26,85.41a.28.28,0,0,1-.15.52Z"/><path class="cls-2" d="M75.88,85.94a.28.28,0,0,1-.14-.53L100,71.86a.28.28,0,1,1,.28.49L76,85.9A.28.28,0,0,1,75.88,85.94Z"/><path class="cls-4" d="M58.91,128.59a50.48,50.48,0,1,1,44.4-90.67"/><path class="cls-5" d="M125.67,63.19a50.48,50.48,0,0,1-69,64.31"/><polyline class="cls-4" points="97.92 41.98 106.81 39.66 103.21 30.94"/></g></svg>