<svg xmlns="http://www.w3.org/2000/svg" viewBox="0 0 160 160"><defs><style>.cls-1,.cls-6{fill:#f4cc5b;}.cls-2{fill:#1d3b54;}.cls-3{fill:#757b90;}.cls-4{fill:#9da1b0;}.cls-5{fill:#b8baca;}.cls-6{stroke:#1d3b54;stroke-miterlimit:10;}</style></defs><title>icoblock2</title><g id="Слой_1" data-name="Слой 1"><circle class="cls-1" cx="80" cy="81.79" r="74.8"/><rect class="cls-2" x="51.85" y="74.21" width="57.34" height="32.09"/><path class="cls-3" d="M108.15,106.3a8,8,0,0,0,8-8V65.45H43.9v32.9a8,8,0,0,0,8,8V81.24a2.86,2.86,0,0,1,2.86-2.86h50.58a2.86,2.86,0,0,1,2.86,2.86Z"/><path class="cls-4" d="M51.85,54.2a8,8,0,0,0-8,8v3.3H116.1v-3.3a8,8,0,0,0-8-8Z"/><rect class="cls-5" x="57.23" y="41.12" width="45.74" height="20.7" rx="3.57" ry="3.57"/><polyline class="cls-6" points="102.97 84.17 102.97 114.6 94.49 122.46 57.23 122.46 57.23 84.17"/><polygon class="cls-2" points="102.97 114.6 94.49 114.6 94.49 122.46 102.97 114.6"/></g></svg>