<svg xmlns="http://www.w3.org/2000/svg" viewBox="0 0 160 160"><defs><style>.cls-1{fill:#f4cc5b;}.cls-10,.cls-2{fill:#1d3b54;}.cls-3{fill:#a7a9ac;}.cls-4{fill:#c7c8d2;}.cls-5{fill:#57647a;}.cls-6{fill:#405269;}.cls-7{fill:#e6e7e8;}.cls-8{fill:#e9e8ed;}.cls-9{fill:#fafafa;}.cls-10{fill-rule:evenodd;}.cls-11{fill:#fff;}.cls-12{fill:#3b4e67;}.cls-13{fill:#a8acc0;}.cls-14{fill:none;stroke:#1d3b54;stroke-linecap:round;stroke-linejoin:round;}.cls-15{fill:#6c7488;}</style></defs><title>icoblock4</title><g id="Слой_1" data-name="Слой 1"><circle class="cls-1" cx="80" cy="81.79" r="74.8"/><ellipse class="cls-2" cx="81.13" cy="131.73" rx="44.98" ry="2.34"/><g id="businessman"><rect class="cls-3" x="97.06" y="33.59" width="10.19" height="3.88"/><rect class="cls-4" x="97.82" y="30.73" width="8.68" height="16.36"/><polyline class="cls-2" points="89.89 84.58 89.89 128.8 99.83 128.8 100.96 84.58 103.34 84.58 104.48 128.8 114.41 128.8 114.41 84.58 114.41 76.25 103.72 76.25 100.58 76.25 89.89 76.25 89.89 84.58"/><path class="cls-5" d="M101.24,130.51c0,3-13.2,3-13.2,0s3-4.23,6.6-4.23S101.24,127.55,101.24,130.51Z"/><path class="cls-5" d="M116.26,130.51c0,3-13.2,3-13.2,0s3-4.23,6.6-4.23S116.26,127.55,116.26,130.51Z"/><polygon class="cls-6" points="114.4 76.25 89.89 76.25 89.89 73.52 114.41 73.52 114.4 76.25"/><path class="cls-2" d="M103.27,77H101a1.53,1.53,0,0,1-1.53-1.53v-1.1A1.53,1.53,0,0,1,101,72.8h2.24a1.53,1.53,0,0,1,1.53,1.53v1.1A1.53,1.53,0,0,1,103.27,77ZM101,73.56a.78.78,0,0,0-.78.78v1.1a.78.78,0,0,0,.78.78h2.24a.78.78,0,0,0,.78-.78v-1.1a.78.78,0,0,0-.78-.78Z"/><path class="cls-5" d="M120.05,47.9c0-6-5.41-12.36-12-13.22l-.4,0-5.45,7.81L96.7,34.64l-.4,0c-6.64.86-12.05,7.22-12.05,13.22l4.32,1.25V72a1.51,1.51,0,0,0,1.51,1.51h24.14A1.51,1.51,0,0,0,115.73,72V49.15Z"/><polygon class="cls-7" points="97.06 33.59 102.15 39.48 99.14 42.26 94.9 34.75 97.06 33.59"/><polygon class="cls-7" points="107.25 33.59 102.15 39.48 105.17 42.26 109.41 34.75 107.25 33.59"/><path class="cls-8" d="M92.72,17.52a1.89,1.89,0,0,0-1.89,1.89v2a1.89,1.89,0,1,0,3.77,0v-2A1.89,1.89,0,0,0,92.72,17.52Z"/><path class="cls-8" d="M111.58,17.52a1.89,1.89,0,0,0-1.89,1.89v2a1.89,1.89,0,1,0,3.77,0v-2A1.89,1.89,0,0,0,111.58,17.52Z"/><path class="cls-9" d="M102.15,4.17a9.43,9.43,0,0,0-9.43,9.43v9.81a9.43,9.43,0,1,0,18.86,0V13.6A9.43,9.43,0,0,0,102.15,4.17Z"/><path class="cls-2" d="M105.58,26.83a3.42,3.42,0,0,1-6.79,0Z"/><path class="cls-2" d="M112.39,6.63a6,6,0,0,0,1.05-3.52,6.78,6.78,0,0,1-1.77.16A2.75,2.75,0,0,0,112.2,2a.09.09,0,0,0-.13-.09,5.64,5.64,0,0,1-4.33-.21A11.08,11.08,0,0,0,102.15.55c-7.93,0-10.23,6.07-10.23,6.07-1.78,4.18-1.28,9.93.81,15.29l.12.27a10.71,10.71,0,0,1-.18-1.31c0-1.72-.17-3.55.05-3.35,1.6-2.13,2.15-6.45,2.15-6.45a48.72,48.72,0,0,0,7.29.89,48.72,48.72,0,0,0,7.29-.89s.54,4.32,2.14,6.45c.22-.2,0,1.64.06,3.35a10.72,10.72,0,0,1-.18,1.31l.12-.27C113.67,16.56,114.16,10.81,112.39,6.63Z"/><path class="cls-2" d="M111.51,17l-1.27.24a1.88,1.88,0,0,0-1.87-1.71h-3.77a1.88,1.88,0,0,0-1.88,1.8h-1.15a1.88,1.88,0,0,0-1.88-1.8H95.93a1.88,1.88,0,0,0-1.87,1.71L92.8,17a.38.38,0,0,0-.14.74l1.49.28.28,1.69a1.89,1.89,0,0,0,1.89,1.85h3a1.89,1.89,0,0,0,1.89-1.85l.27-1.63h1.35l.27,1.63A1.89,1.89,0,0,0,105,21.53h3a1.89,1.89,0,0,0,1.89-1.85l.28-1.69,1.49-.28a.38.38,0,1,0-.14-.74Zm-11.05,2.62v.06a1.13,1.13,0,0,1-1.13,1.13h-3a1.13,1.13,0,0,1-1.13-1.13l-.32-1.95a.37.37,0,0,0,0-.16l0-.18a1.13,1.13,0,0,1,1.13-1.1H99.7a1.13,1.13,0,0,1,1.13,1.1Zm8.67,0v.06A1.13,1.13,0,0,1,108,20.78h-3a1.13,1.13,0,0,1-1.13-1.13l-.38-2.29a1.13,1.13,0,0,1,1.13-1.1h3.77a1.13,1.13,0,0,1,1.13,1.1l0,.18a.37.37,0,0,0,0,.16Z"/></g><circle class="cls-2" cx="97.41" cy="19.34" r="0.84"/><circle class="cls-2" cx="105.78" cy="19.34" r="0.84"/><path class="cls-10" d="M100.7,23.33a3.16,3.16,0,0,0,1.8.59,1.71,1.71,0,0,0,1.34-.59,1.61,1.61,0,0,1-1.76,1.11C100.65,24.32,100.7,23.33,100.7,23.33Z"/><g id="woman"><polygon class="cls-8" points="52.36 130.09 48.02 130.09 46.57 93.09 53.81 93.09 52.36 130.09"/><path class="cls-5" d="M52.53,126s-.53,3.09-2.34,3.09S47.85,126,47.85,126a14.64,14.64,0,0,0-.49,3c0,2.21.87,3.45,2.83,3.45S53,131.24,53,129A14.64,14.64,0,0,0,52.53,126Z"/><polygon class="cls-8" points="56.4 130.09 60.75 130.09 62.2 93.09 54.95 93.09 56.4 130.09"/><path class="cls-5" d="M56.24,126s.53,3.09,2.34,3.09S60.91,126,60.91,126a14.64,14.64,0,0,1,.49,3c0,2.21-.87,3.45-2.83,3.45s-2.83-1.24-2.83-3.45A14.64,14.64,0,0,1,56.24,126Z"/><ellipse class="cls-5" cx="54.38" cy="44.6" rx="11.28" ry="6.42"/><rect class="cls-4" x="50.22" y="35.05" width="8.33" height="16.8"/><path class="cls-2" d="M63.78,65H43.85s-4.9,7.51-.11,28.74a.39.39,0,0,0,.36.23H63.52a.39.39,0,0,0,.36-.23C68.68,72.53,63.78,65,63.78,65Z"/><path class="cls-5" d="M63.08,53.95c3.36-3.51,4.45-10.47-4.47-14.3l-4.22,9.79-4.22-9.79c-8.92,3.83-7.83,10.79-4.47,14.3,0,0-1.19,4.47-3.81,14.7h25C64.26,58.42,63.08,53.95,63.08,53.95Z"/><path class="cls-5" d="M47.15,78.11C39.75,71.87,36.64,61.59,37.73,55c1.6-9.79,6.06-15.7,12.22-16.21l.46,5.52c-4,.33-6.34,6.2-7.22,11.59-.94,5.74.5,11.24,6.67,18.5Z"/><polygon class="cls-2" points="54.74 68.65 54.02 68.65 54.02 49.13 54.38 49.44 54.74 49.13 54.74 68.65"/><polygon class="cls-11" points="46.01 40.73 49.98 42.23 48.42 44.41 54.38 49.44 50.16 37.84 46.01 40.73"/><polygon class="cls-11" points="62.75 40.73 58.61 37.84 54.38 49.44 60.34 44.41 58.78 42.23 62.75 40.73"/><path class="cls-2" d="M69.74,41.18c-1.41-.42-2.79-1.67-4.12-2.3a12,12,0,0,0,.55,1.6,8,8,0,0,1-3.48-3,17.48,17.48,0,0,1-2.77-11.26,7.75,7.75,0,0,1,.54-2.6A4.66,4.66,0,0,1,61.63,22a2.5,2.5,0,0,1,1.11-.61,2.33,2.33,0,0,1,1.59.31,5.74,5.74,0,0,1,2.33,3.09c1.44,3.76,1.08,7.93,1.59,11.91A9.38,9.38,0,0,0,69.74,41.18Z"/><path class="cls-8" d="M45.33,22.56a1.81,1.81,0,0,0-1.81,1.81v1.88a1.81,1.81,0,1,0,3.62,0V24.37A1.81,1.81,0,0,0,45.33,22.56Z"/><path class="cls-8" d="M63.44,22.56a1.81,1.81,0,0,0-1.81,1.81v1.88a1.81,1.81,0,1,0,3.62,0V24.37A1.81,1.81,0,0,0,63.44,22.56Z"/><path class="cls-9" d="M54.38,9.74c-4,0-9.05,5.05-9.05,9.05v9.42c0,4,5.05,9.05,9.05,9.05s9.05-5.05,9.05-9.05V18.79C63.44,14.79,58.38,9.74,54.38,9.74Z"/><path class="cls-2" d="M57.64,31.65a3.28,3.28,0,0,1-6.52,0Z"/><path class="cls-2" d="M54.38,7C41.71,7,42.31,24.07,45.7,26.78c0,0-3.12-13.2,8.68-13.18s8.68,13.18,8.68,13.18C66.46,24.07,67.06,7,54.38,7Z"/><path class="cls-2" d="M61.16,21.21a6.92,6.92,0,0,1-1.86-2.28,8.39,8.39,0,0,0,5.13,1.92c-2.21-3.26-1.27-8.87-3.49-10.07C49.23,4.43,45.81,15,45.81,15s-3.29,7.7-.48,7.61c1.8-.06,4.12-4.12,5.55-7a14.18,14.18,0,0,0,5.42,4.59,5.24,5.24,0,0,1-1.59-2.72A13.37,13.37,0,0,0,61.16,21.21Z"/><path class="cls-2" d="M51.6,23.51a2.09,2.09,0,0,0-1.68-1.16,2.24,2.24,0,0,0-2,.95h-.11a1.06,1.06,0,0,1-.31-.08,1.41,1.41,0,0,1-.41-.28,0,0,0,0,0-.05,0A0,0,0,0,0,47,23a1.56,1.56,0,0,0,.08.15,1.47,1.47,0,0,0,.24.31,1.42,1.42,0,0,0,.34.24l.14.06.07,0a.23.23,0,0,0,.23-.13,2,2,0,0,1,1.81-.93,1.74,1.74,0,0,1,1.39.94.18.18,0,1,0,.33-.14Z"/><path class="cls-2" d="M57.17,23.51a2.09,2.09,0,0,1,1.68-1.16,2.24,2.24,0,0,1,2,.95H61a1.06,1.06,0,0,0,.31-.08,1.41,1.41,0,0,0,.41-.28,0,0,0,0,1,.05,0,0,0,0,0,1,0,.06,1.56,1.56,0,0,1-.08.15,1.47,1.47,0,0,1-.24.31,1.42,1.42,0,0,1-.34.24l-.14.06-.06,0a.23.23,0,0,1-.23-.13,2,2,0,0,0-1.81-.93,1.74,1.74,0,0,0-1.39.94.18.18,0,0,1-.33-.14Z"/></g><circle class="cls-2" cx="49.73" cy="24.11" r="0.77"/><circle class="cls-2" cx="58.93" cy="24.11" r="0.77"/><path class="cls-10" d="M52.74,27.76a2.89,2.89,0,0,0,1.65.54,1.57,1.57,0,0,0,1.22-.54,1.47,1.47,0,0,1-1.61,1C52.7,28.66,52.74,27.76,52.74,27.76Z"/><rect class="cls-12" x="50.41" y="44.55" width="48.06" height="34.58" rx="1.69" ry="1.69"/><rect class="cls-13" x="52.56" y="47.2" width="43.76" height="29.29" rx="0.96" ry="0.96"/><path class="cls-1" d="M83.79,67.1l-3.12,6.5L83,73.19l.87,2s3.28-6.42,3.12-6.5Z"/><path class="cls-1" d="M85.25,67.55,88,74.21l1.26-2,2,.66s-2.6-6.73-2.76-6.66Z"/><circle class="cls-12" cx="86.3" cy="64.57" r="5.01"/><line class="cls-14" x1="57.64" y1="53.48" x2="81.87" y2="53.48"/><line class="cls-14" x1="57.64" y1="56.73" x2="81.87" y2="56.73"/><line class="cls-14" x1="57.64" y1="59.99" x2="75.38" y2="59.99"/><line class="cls-14" x1="57.64" y1="65.18" x2="75.38" y2="65.18"/><line class="cls-14" x1="57.64" y1="68.1" x2="75.38" y2="68.1"/><circle class="cls-1" cx="86.24" cy="64.64" r="3.27"/><path class="cls-8" d="M55.5,77.27l-1-.41c-.29-.12-.61-.29-1-.45s-.73-.34-1.09-.54c-.73-.39-1.46-.78-2-1.12l-.64-.39-.24-.15-2.48,3.9.27.17.72.43c.59.37,1.4.81,2.22,1.25.4.22.83.41,1.22.61s.75.38,1.07.51l1.06.46a2.61,2.61,0,0,0,2,.05,2.1,2.1,0,0,0,1.26-1.27,2.35,2.35,0,0,0-.12-1.79A2.63,2.63,0,0,0,55.5,77.27Z"/><path class="cls-8" d="M54.89,75.56a5.61,5.61,0,0,0-1.48-.48,7.68,7.68,0,0,0-1.31-.14,6.64,6.64,0,0,0-1.38.1.75.75,0,0,0-.42,1,.83.83,0,0,0,1.06.44l.27,0a5.61,5.61,0,0,1,.67,0,5.24,5.24,0,0,1,1.95.48.78.78,0,0,0,1-.39A.77.77,0,0,0,54.89,75.56Z"/><path class="cls-8" d="M89.27,76.64a.86.86,0,0,0,.81.37,6,6,0,0,1,3.17.68.86.86,0,1,0,.86-1.5,7.69,7.69,0,0,0-4.23-.9.86.86,0,0,0-.61,1.35Z"/><path class="cls-8" d="M97.63,80.5a64.33,64.33,0,0,1-8.16,1.91,2.59,2.59,0,1,1-.86-5.1,59.9,59.9,0,0,0,7.79-1.83Z"/><path class="cls-15" d="M95.28,81.73c12.28-1.76,18.32-8.16,21.5-13.09,4.7-7.28,3.27-20.74,3.27-20.74l-6.58,1.23c-.1.61,3.17,23.68-19.07,26.46Z"/></g></svg>