<svg xmlns="http://www.w3.org/2000/svg" viewBox="0 0 25 25"><defs><style>.cls-1{fill:#f4cc5b;}</style></defs><title>people</title><g id="Слой_1" data-name="Слой 1"><path class="cls-1" d="M13.86,9.23c0,2.28-1.36,4.69-3,4.69s-3-2.41-3-4.69,1.36-3.55,3-3.55S13.86,7,13.86,9.23Z"/><path class="cls-1" d="M13.93,13.26h-.06c-.53,1.77-1.71,2.94-3.08,2.94S8.24,15,7.71,13.26H7.65a2.88,2.88,0,0,0-2.88,2.88v2.53A1.14,1.14,0,0,0,5.91,19.8h9.76a1.14,1.14,0,0,0,1.14-1.14V16.13A2.88,2.88,0,0,0,13.93,13.26Z"/><path class="cls-1" d="M15,5.2a2.56,2.56,0,0,0-1.8.7A3.54,3.54,0,0,1,15,9.33a6.76,6.76,0,0,1-.76,3.08,1.68,1.68,0,0,0,.75.18c1.5,0,2.72-2.16,2.72-4.21S16.48,5.2,15,5.2Z"/><path class="cls-1" d="M17.72,11.46h-.06a5.32,5.32,0,0,1-1.14,1.61A3.46,3.46,0,0,1,17.47,15v3.57h2a1.14,1.14,0,0,0,1.14-1.14v-3.1A2.88,2.88,0,0,0,17.72,11.46Z"/></g></svg>