<svg xmlns="http://www.w3.org/2000/svg" viewBox="0 0 63.84 35.88"><defs><style>.cls-1{fill:#fff;}.cls-2{fill:#43bdef;}</style></defs><title>tw_h</title><g id="Слой_1" data-name="Слой 1"><rect class="cls-1" width="63.84" height="35.88"/><path id="_Контур_" data-name="&lt;Контур&gt;" class="cls-2" d="M41,12.94a7.5,7.5,0,0,1-2.13.58,3.68,3.68,0,0,0,1.63-2,7.5,7.5,0,0,1-2.36.89,3.74,3.74,0,0,0-2.71-1.16,3.66,3.66,0,0,0-3.62,4.49,10.61,10.61,0,0,1-7.66-3.82,3.6,3.6,0,0,0-.5,1.84,3.65,3.65,0,0,0,1.65,3,3.75,3.75,0,0,1-1.68-.46v0a3.59,3.59,0,0,0,.25,1.33A3.71,3.71,0,0,0,26.57,20a3.84,3.84,0,0,1-1,.13,3.72,3.72,0,0,1-.7-.07,3.71,3.71,0,0,0,3.47,2.54,7.53,7.53,0,0,1-4.62,1.57,7.69,7.69,0,0,1-.89-.05,10.65,10.65,0,0,0,5.7,1.64,10.35,10.35,0,0,0,10.32-8.2,10.05,10.05,0,0,0,.25-2.21c0-.16,0-.32,0-.47A7.47,7.47,0,0,0,41,12.94Z"/></g></svg>