<svg xmlns="http://www.w3.org/2000/svg" viewBox="0 0 63.84 35.88"><defs><style>.cls-1{fill:#4c75a3;}.cls-2{fill:#fff;}</style></defs><title>vk</title><g id="Слой_1" data-name="Слой 1"><rect class="cls-1" width="63.84" height="35.88"/><path class="cls-2" d="M41.73,14.19a5.38,5.38,0,0,0-2.15-.2,12.5,12.5,0,0,0-2.15.1,13.32,13.32,0,0,0-1.27,2.35C35.48,17.74,34.64,19,34.1,19c-.69,0-.53-2.15-.49-3.72,0-1-.14-1.37-.29-1.47A6.19,6.19,0,0,0,32,13.31s-3-.23-3.42,1.08c.57.07,1.55-.11,1.17,3.91,0,.19-.46,1.85-1.86-.39-.35-.55-1.69-3.9-2.15-3.91a10.61,10.61,0,0,0-3.62.2c-.5.28.67,2.59,2.64,5.67,1.61,2.52,3.32,4.49,6.26,5a7.23,7.23,0,0,0,2.44-.1c.31-.15-.07-2.34,1-2.54.47-.09,2.25,2.27,2.93,2.54a7,7,0,0,0,2.25.2c1,0,2.14.09,2.25-.59.25-1.51-3-3.47-3.13-4.4-.07-.67,1.2-1.9,1.86-2.84C41.36,16,42.23,14.61,41.73,14.19Z"/></g></svg>