<?xml version="1.0" encoding="utf-8"?>
<!-- Generator: Adobe Illustrator 21.1.0, SVG Export Plug-In . SVG Version: 6.00 Build 0)  -->
<svg version="1.1" id="Layer_1" xmlns="http://www.w3.org/2000/svg" xmlns:xlink="http://www.w3.org/1999/xlink" x="0px" y="0px"
	 viewBox="0 0 403.3 201" style="enable-background:new 0 0 403.3 201;" xml:space="preserve">
<style type="text/css">
	.st0{fill:url(#SVGID_1_);}
	.st1{fill:url(#SVGID_2_);}
	.st2{fill:url(#SVGID_3_);}
</style>
<title>logo-mark-verticalairswap-web_</title>
<g>
	<g id="Layer_1_1_">
		<g>
			
				<linearGradient id="SVGID_1_" gradientUnits="userSpaceOnUse" x1="100.1" y1="763" x2="302.9" y2="763" gradientTransform="matrix(1 0 0 1 0 -692)">
				<stop  offset="0" style="stop-color:#0025FF"/>
				<stop  offset="1" style="stop-color:#00A4FF"/>
			</linearGradient>
			<path class="st0" d="M201.6,0.3l-90.4,90.2l-11.1,11.1l3.9,3.4c0.9,0.8,1.8,1.6,2.8,2.4c3.1,2.6,6.4,5.1,9.7,7.5
				c12.5,8.8,26.3,15.6,40.9,20.1c14.3,4.5,29.2,6.7,44.2,6.7c11.9,0,23.7-1.4,35.2-4.2c16.6-4,32.3-10.9,46.6-20.4
				c3.5-2.3,7-4.9,10.3-7.5c1.9-1.5,3.7-3,5.4-4.6l3.8-3.4L201.6,0.3z M290.2,104.9c-3.2,2.6-6.5,5-9.9,7.2
				c-13.7,9.1-28.8,15.7-44.8,19.6c-11.1,2.7-22.5,4.1-33.9,4.1c-29.3,0.1-57.9-8.9-81.8-25.8c-3.2-2.2-6.3-4.7-9.4-7.2l-1.9-1.6
				l93-92.8l93,92.8C293.2,102.5,291.7,103.7,290.2,104.9L290.2,104.9z"/>
			
				<linearGradient id="SVGID_2_" gradientUnits="userSpaceOnUse" x1="133.3" y1="798.55" x2="273.1" y2="798.55" gradientTransform="matrix(1 0 0 1 0 -692)">
				<stop  offset="0" style="stop-color:#0025FF"/>
				<stop  offset="1" style="stop-color:#00A4FF"/>
			</linearGradient>
			<path class="st1" d="M137.8,100.1l-4.5,1.9h5.5c30,0,59.5,8.3,85.1,24l0.3,0.2l0.4-0.1c16.7-3,32.7-9.2,47.1-18.3l1.4-0.9
				l-1.4-0.8C250,93.5,225.2,86.9,200,86.9C178.6,87,157.4,91.5,137.8,100.1z M225.4,120.1c-19.4-11.7-41.1-19.3-63.6-22.3
				c12.4-3.4,25.2-5.1,38.1-5.1c21.4,0,42.4,4.9,61.5,14.5C250.2,113.4,238.1,117.7,225.4,120.1L225.4,120.1z"/>
			
				<linearGradient id="SVGID_3_" gradientUnits="userSpaceOnUse" x1="171.4" y1="861.95" x2="258.9" y2="861.95" gradientTransform="matrix(1 0 0 1 0 -692)">
				<stop  offset="0" style="stop-color:#0025FF"/>
				<stop  offset="1" style="stop-color:#00A4FF"/>
			</linearGradient>
			<path class="st2" d="M258.9,139.8c0,0-14.8,9.2-20.4,11.9c-18.6,10.5-39.4,16.6-60.7,17.9l-6.4,0.4l30.2,30.1l42.9-42.8
				C249.6,151.7,254.4,145.8,258.9,139.8z M184.4,174.8c16.5-1.7,32.6-6.1,47.6-13.2L201.6,192L184.4,174.8z"/>
		</g>
	</g>
</g>
</svg>
