<svg xmlns="http://www.w3.org/2000/svg" width="19" height="19" viewBox="0 0 19 19">
  <defs>
    <style>
      .cls-1 {
        fill: #f46779;
        fill-rule: evenodd;
      }
    </style>
  </defs>
  <path id="Эллипс_14_копия" data-name="Эллипс 14 копия" class="cls-1" d="M821.5,417a9.5,9.5,0,1,1-9.5,9.5A9.5,9.5,0,0,1,821.5,417Zm0,1a8.5,8.5,0,1,1-8.5,8.5A8.5,8.5,0,0,1,821.5,418Zm3.01,5.469a0.685,0.685,0,0,1,0,.968l-5.073,5.073a0.685,0.685,0,1,1-.968-0.969l5.072-5.072A0.684,0.684,0,0,1,824.51,423.469Zm0,6.062a0.685,0.685,0,0,0,0-.968l-5.073-5.073a0.685,0.685,0,1,0-.968.969l5.072,5.072A0.684,0.684,0,0,0,824.51,429.531Z" transform="translate(-812 -417)"/>
</svg>
