<?xml version="1.0" encoding="utf-8"?>
<!-- Generator: Adobe Illustrator 22.1.0, SVG Export Plug-In . SVG Version: 6.00 Build 0)  -->
<svg version="1.1" id="Layer_1" xmlns="http://www.w3.org/2000/svg" xmlns:xlink="http://www.w3.org/1999/xlink" x="0px" y="0px"
	 viewBox="0 0 253.8 253.8" style="enable-background:new 0 0 253.8 253.8;" xml:space="preserve">
<style type="text/css">
	.st0{fill:url(#SVGID_1_);}
	.st1{fill:url(#SVGID_2_);}
	.st2{fill:url(#SVGID_3_);}
</style>
<g>
	<linearGradient id="SVGID_1_" gradientUnits="userSpaceOnUse" x1="9.23" y1="249.0449" x2="243.23" y2="6.0449">
		<stop  offset="0" style="stop-color:#FBB04E"/>
		<stop  offset="6.044445e-02" style="stop-color:#F8AA55"/>
		<stop  offset="0.161" style="stop-color:#F19964"/>
		<stop  offset="0.2893" style="stop-color:#E87F74"/>
		<stop  offset="0.4387" style="stop-color:#DE5680"/>
		<stop  offset="0.5341" style="stop-color:#D72C84"/>
		<stop  offset="0.9944" style="stop-color:#78398B"/>
	</linearGradient>
	<path class="st0" d="M184.9,83c-1.4-3.5-3-6-5.6-8.6c-2.6-2.6-5.1-4.2-8.6-5.6c-2.6-1-6.6-2.2-13.8-2.6c-7.9-0.4-10.2-0.4-30.1-0.4
		c-19.9,0-22.2,0.1-30.1,0.4c-7.3,0.3-11.2,1.5-13.8,2.6c-3.5,1.4-6,3-8.6,5.6c-2.6,2.6-4.2,5.1-5.6,8.6c-1,2.6-2.2,6.6-2.6,13.8
		c-0.4,7.9-0.4,10.2-0.4,30.1c0,19.9,0.1,22.2,0.4,30.1c0.3,7.3,1.5,11.2,2.6,13.8c1.4,3.5,3,6,5.6,8.6c2.6,2.6,5.1,4.2,8.6,5.6
		c2.6,1,6.6,2.2,13.8,2.6c7.9,0.4,10.2,0.4,30.1,0.4s22.2-0.1,30.1-0.4c7.3-0.3,11.2-1.5,13.8-2.6c3.5-1.4,6-3,8.6-5.6
		c2.6-2.6,4.2-5.1,5.6-8.6c1-2.6,2.2-6.6,2.6-13.8c0.4-7.9,0.4-10.2,0.4-30.1c0-19.9-0.1-22.2-0.4-30.1
		C187.2,89.5,186,85.6,184.9,83z M126.9,165.1c-21.1,0-38.2-17.1-38.2-38.2c0-21.1,17.1-38.2,38.2-38.2s38.2,17.1,38.2,38.2
		C165.1,148,148,165.1,126.9,165.1z M166.6,96.1c-4.9,0-8.9-4-8.9-8.9c0-4.9,4-8.9,8.9-8.9s8.9,4,8.9,8.9
		C175.6,92.1,171.6,96.1,166.6,96.1z"/>
	<linearGradient id="SVGID_2_" gradientUnits="userSpaceOnUse" x1="9.23" y1="249.0449" x2="243.23" y2="6.0449">
		<stop  offset="0" style="stop-color:#FBB04E"/>
		<stop  offset="6.044445e-02" style="stop-color:#F8AA55"/>
		<stop  offset="0.161" style="stop-color:#F19964"/>
		<stop  offset="0.2893" style="stop-color:#E87F74"/>
		<stop  offset="0.4387" style="stop-color:#DE5680"/>
		<stop  offset="0.5341" style="stop-color:#D72C84"/>
		<stop  offset="0.9944" style="stop-color:#78398B"/>
	</linearGradient>
	<circle class="st1" cx="126.9" cy="126.9" r="24.8"/>
	<linearGradient id="SVGID_3_" gradientUnits="userSpaceOnUse" x1="9.23" y1="249.0449" x2="243.2299" y2="6.0449">
		<stop  offset="0" style="stop-color:#FBB04E"/>
		<stop  offset="6.044445e-02" style="stop-color:#F8AA55"/>
		<stop  offset="0.161" style="stop-color:#F19964"/>
		<stop  offset="0.2893" style="stop-color:#E87F74"/>
		<stop  offset="0.4387" style="stop-color:#DE5680"/>
		<stop  offset="0.5341" style="stop-color:#D72C84"/>
		<stop  offset="0.9944" style="stop-color:#78398B"/>
	</linearGradient>
	<path class="st2" d="M228.8,0H25C11.2,0,0,11.2,0,25v203.8c0,13.8,11.2,25,25,25h203.8c13.8,0,25-11.2,25-25V25
		C253.8,11.2,242.6,0,228.8,0z M200.9,157.6c-0.4,7.9-1.6,13.3-3.5,18.1c-1.9,4.9-4.4,9.1-8.6,13.2c-4.1,4.1-8.3,6.7-13.2,8.6
		c-4.7,1.8-10.2,3.1-18.1,3.5c-7.9,0.4-10.5,0.4-30.7,0.4s-22.8-0.1-30.7-0.4c-7.9-0.4-13.3-1.6-18.1-3.5c-4.9-1.9-9.1-4.4-13.2-8.6
		c-4.1-4.1-6.7-8.3-8.6-13.2c-1.8-4.7-3.1-10.2-3.5-18.1c-0.4-7.9-0.4-10.5-0.4-30.7s0.1-22.8,0.4-30.7c0.4-7.9,1.6-13.3,3.5-18.1
		c1.9-4.9,4.4-9.1,8.6-13.2c4.1-4.1,8.3-6.7,13.2-8.6c4.7-1.8,10.2-3.1,18.1-3.5c7.9-0.4,10.5-0.4,30.7-0.4s22.8,0.1,30.7,0.4
		c7.9,0.4,13.3,1.6,18.1,3.5c4.9,1.9,9.1,4.4,13.2,8.6c4.1,4.1,6.7,8.3,8.6,13.2c1.8,4.7,3.1,10.2,3.5,18.1
		c0.4,7.9,0.4,10.5,0.4,30.7S201.3,149.6,200.9,157.6z"/>
</g>
</svg>
