<?xml version="1.0" encoding="utf-8"?>
<!-- Generator: Adobe Illustrator 22.1.0, SVG Export Plug-In . SVG Version: 6.00 Build 0)  -->
<svg version="1.1" id="icons" xmlns="http://www.w3.org/2000/svg" xmlns:xlink="http://www.w3.org/1999/xlink" x="0px" y="0px"
	 viewBox="0 0 55.6 54.9" style="enable-background:new 0 0 55.6 54.9;" xml:space="preserve">
<style type="text/css">
	.st0{fill:#A68461;stroke:#A68461;stroke-width:2;stroke-miterlimit:10;}
</style>
<g>
	<path class="st0" d="M54.6,44.8c-0.1-1-0.8-1.8-1.9-2.6l-11.8-8.1c-0.6-0.4-1.3-0.6-2.1-0.6c-1.1,0-2.2,0.5-2.9,1.4l-3.1,4.3
		c-0.2,0.3-0.3,0.8-0.3,1.2c-1.2,0.2-4.6,0.1-10.2-5.5c-5.4-5.4-8-9.4-7.6-11.8c0.1,0,0.1-0.1,0.2-0.1c0.3-0.1,0.5-0.2,0.7-0.3
		l4.2-3.2c1.5-1.1,1.8-3.4,0.7-5L12.1,2.9c-1.6-2.2-3.5-2.5-5.6-0.7C5.2,3.3,3,6,2.1,7.6c-0.5,0.9-0.7,1.8-0.6,2.7
		c-0.3,1.3-1,5.1,0.1,10.5C3.2,28,7.4,35,14.1,41.4c11.2,10.8,21,12.5,25.9,12.5c0,0,0,0,0,0c2.9,0,4.9-0.5,5.8-0.9
		c0.9,0,1.7-0.2,2.5-0.7c1.6-0.9,4.2-3.2,5.3-4.5C54.4,46.7,54.7,45.7,54.6,44.8z M52,46.5c-0.9,1.2-3.4,3.3-4.8,4.1
		c-0.2,0.1-0.4,0.2-0.6,0.3c-1.4-0.6-3.7-1.8-4.4-2.7c-0.3-0.4-1-0.5-1.4-0.2c-0.4,0.3-0.5,1-0.2,1.4c0.6,0.8,1.8,1.6,2.9,2.2
		c-0.9,0.2-2.1,0.4-3.6,0.4h0c-4.6,0-13.8-1.5-24.5-11.9C0.2,25.3,3.1,12,3.5,10.6c0-0.1,0-0.3,0-0.4c-0.1-0.5,0-1.1,0.3-1.6
		c0.8-1.4,2.8-3.9,3.9-4.9C8.3,3.2,8.7,3,9.1,3c0.2,0,0.6,0,1.4,1l8.5,11.6c0.5,0.7,0.4,1.7-0.2,2.2L14.5,21c0,0,0,0-0.1,0
		c-1.1-0.8-2.6-2.1-3.1-2.9c-0.3-0.5-0.9-0.6-1.4-0.3c-0.5,0.3-0.6,0.9-0.3,1.4c0.6,1,2.2,2.3,3.2,3.1c-0.8,3.3,1.7,7.6,8.1,14
		c5.1,5.1,8.8,6.1,11,6.1c1,0,1.7-0.2,2.1-0.4c0.3-0.2,0.5-0.4,0.5-0.7c0-0.1,0-0.3,0-0.5c0-0.1,0-0.3,0-0.4l3-4.2
		c0.5-0.6,1.5-0.8,2.2-0.3l11.8,8.1c0.7,0.4,1,0.9,1.1,1.2C52.7,45.4,52.5,45.9,52,46.5z"/>
	<path class="st0" d="M26.7,12.5c7.7,2.4,13.8,8.4,16.2,16.1c0.1,0.4,0.5,0.7,1,0.7c0.1,0,0.2,0,0.3,0c0.5-0.2,0.8-0.7,0.7-1.3
		c-2.6-8.4-9.1-14.9-17.5-17.4c-0.5-0.2-1.1,0.1-1.2,0.7C25.8,11.8,26.1,12.4,26.7,12.5z"/>
	<path class="st0" d="M28,5.1c11.6,2.7,20.5,12.1,22.6,23.8c0.1,0.5,0.5,0.8,1,0.8c0.1,0,0.1,0,0.2,0c0.5-0.1,0.9-0.6,0.8-1.2
		C50.3,16.1,40.9,6.1,28.5,3.2C28,3,27.4,3.4,27.3,3.9C27.2,4.4,27.5,5,28,5.1z"/>
</g>
</svg>
