<?xml version="1.0" encoding="utf-8"?>
<!-- Generator: Adobe Illustrator 22.1.0, SVG Export Plug-In . SVG Version: 6.00 Build 0)  -->
<svg version="1.1" id="Layer_1" xmlns="http://www.w3.org/2000/svg" xmlns:xlink="http://www.w3.org/1999/xlink" x="0px" y="0px"
	 viewBox="0 0 253.8 253.8" style="enable-background:new 0 0 253.8 253.8;" xml:space="preserve">
<style type="text/css">
	.st0{fill:#5181B8;}
</style>
<g>
	<path class="st0" d="M138.2,138c-2.3-0.9-5.4-1.4-9.4-1.5c-4-0.1-9.4-0.2-16.1-0.2h-7.9V175h3c9.8,0,16.6-0.6,20.4-0.7
		c3.8-0.1,7.6-1.5,11.5-3.2c3.4-1.5,5.9-3.6,7.5-6.5c1.6-2.9,2.4-6.1,2.4-9.7c0-4.6-0.9-8.3-2.8-10.9
		C144.8,141.3,142,139.3,138.2,138z"/>
	<path class="st0" d="M124,110.8c2.6-0.1,5.3-1.1,8-2.4c3-1.4,5.1-3.4,6.3-5.8c1.1-2.5,1.7-5.4,1.7-8.7c0-2.4-0.6-4.9-1.9-7.5
		c-1.2-2.6-3.2-4.4-5.8-5.6c-2.5-1.1-5.4-1.7-8.8-1.8c-3.4-0.1-8.5-0.2-15.2-0.2h-3.6v32.5h5.7C116.9,111.3,121.4,110.9,124,110.8z"
		/>
	<path class="st0" d="M228.8,0H25C11.2,0,0,11.2,0,25v203.8c0,13.8,11.2,25,25,25h203.8c13.8,0,25-11.2,25-25V25
		C253.8,11.2,242.6,0,228.8,0z M184.1,175.3c-2.8,5.6-6.6,10.4-11.4,14.1c-5.6,4.4-11.8,7.8-18.6,9.7c-6.8,1.9-15.3,3.3-25.8,3.3
		H67.3V51.3h54c11,0,19.4,0.5,25,1.3c5.7,0.8,11,2.7,16,5.4c5.4,2.9,9.4,6.8,12,11.6c2.7,4.8,3.9,10.4,3.9,16.7
		c0,7.3-1.9,13.8-5.6,19.6c-3.7,5.7-9.1,9.9-15.4,12.6v0.8c8.8,1.9,16.9,5.9,22.5,11.9c5.6,6,8.5,14.2,8.5,24.4
		C188.2,163.1,186.9,169.7,184.1,175.3z"/>
</g>
</svg>
