<?xml version="1.0" encoding="utf-8"?>
<!-- Generator: Adobe Illustrator 22.1.0, SVG Export Plug-In . SVG Version: 6.00 Build 0)  -->
<svg version="1.1" id="Layer_1" xmlns="http://www.w3.org/2000/svg" xmlns:xlink="http://www.w3.org/1999/xlink" x="0px" y="0px"
	 viewBox="0 0 253.8 253.8" style="enable-background:new 0 0 253.8 253.8;" xml:space="preserve">
<style type="text/css">
	.st0{fill:#DC3730;}
</style>
<g>
	<polygon class="st0" points="111.2,149.8 153.5,127.6 111.2,105.4 	"/>
	<path class="st0" d="M228.8,0H25C11.2,0,0,11.2,0,25v203.8c0,13.8,11.2,25,25,25h203.8c13.8,0,25-11.2,25-25V25
		C253.8,11.2,242.6,0,228.8,0z M205.2,165.8c-2,8.5-8.9,14.8-17.3,15.7c-19.8,2.2-39.9,2.2-59.9,2.2c-20,0-40.1,0-59.9-2.2
		c-8.4-0.9-15.3-7.2-17.3-15.7C48,153.7,48,140.5,48,128c0-12.5,0-25.7,2.8-37.8c2-8.5,8.9-14.8,17.3-15.7
		c19.8-2.2,39.9-2.2,59.9-2.2c20,0,40.1,0,59.9,2.2c8.4,0.9,15.3,7.2,17.3,15.7c2.8,12.1,2.8,25.4,2.8,37.8
		C208.1,140.5,208,153.7,205.2,165.8z"/>
</g>
</svg>
