<?xml version="1.0" encoding="UTF-8"?>
<svg width="32px" height="45px" viewBox="0 0 32 45" version="1.1" xmlns="http://www.w3.org/2000/svg" xmlns:xlink="http://www.w3.org/1999/xlink">
    <!-- Generator: sketchtool 52.4 (67378) - http://www.bohemiancoding.com/sketch -->
    <title>32B693AA-BE47-4AAB-B1F3-FBA6EB570CF4</title>
    <desc>Created with sketchtool.</desc>
    <g id="Page-1" stroke="none" stroke-width="1" fill="none" fill-rule="evenodd">
        <g id="Desktop-HD_site_about" transform="translate(-1045.000000, -233.000000)" fill="#0077FF" fill-rule="nonzero">
            <g id="Group" transform="translate(1044.416020, 229.000000)">
                <g id="icon_liquidity" transform="translate(0.000000, 4.000000)">
                    <g id="drop-silhouette" transform="translate(0.981903, 0.922529)">
                        <path d="M24.8301408,12.2761726 C21.7087023,7.12403642 18.2368901,2.66495348 16.4450575,0.465442405 C16.2052737,0.170880409 15.8454831,-0.000114838985 15.4657106,-4.07990141e-16 C15.0858232,-4.07990141e-16 14.7261475,0.170995248 14.4862489,0.465557244 C12.694531,2.66575735 9.22271886,7.1263332 6.10128042,12.2789288 C2.07870046,18.9192634 0.0390452548,24.4093707 0.0390452548,28.5964001 C0.0390452548,37.1026385 6.95935731,44.0229506 15.4655958,44.0229506 C23.9718342,44.0229506 30.8921462,37.1026385 30.8921462,28.5964001 C30.8922611,24.4066146 28.8528356,18.9157034 24.8301408,12.2761726 Z M17.5825376,38.3410622 C16.6817406,38.5714292 15.7467216,38.6881056 14.80286,38.6881056 C9.03955068,38.6881056 4.35078978,34.3323777 4.35078978,28.9784694 C4.35078978,27.6859566 4.69186156,26.175824 5.36424382,24.4902174 C5.47781957,24.2054167 5.80143583,24.0429195 6.12045853,24.1118229 C6.43925155,24.1804966 6.65331142,24.458407 6.62046747,24.7606632 C6.58119254,25.1221763 6.56121055,25.4753062 6.56121055,25.8098321 C6.56121055,31.636188 11.2559431,36.5152371 17.4815941,37.1583354 C17.7914297,37.1903755 18.0331658,37.4221206 18.0578562,37.7109406 C18.0826614,37.9997607 17.8830712,38.26412 17.5825376,38.3410622 Z" id="Shape"></path>
                    </g>
                </g>
            </g>
        </g>
    </g>
</svg>