<?xml version="1.0" encoding="UTF-8"?>
<svg width="46px" height="33px" viewBox="0 0 46 33" version="1.1" xmlns="http://www.w3.org/2000/svg" xmlns:xlink="http://www.w3.org/1999/xlink">
    <!-- Generator: sketchtool 52.4 (67378) - http://www.bohemiancoding.com/sketch -->
    <title>1ACADB1A-1B79-4DFE-AF09-0E37CDD65D2C</title>
    <desc>Created with sketchtool.</desc>
    <g id="Page-1" stroke="none" stroke-width="1" fill="none" fill-rule="evenodd">
        <g id="Desktop-HD_site_about" transform="translate(-194.000000, -547.000000)">
            <g id="icon_team" transform="translate(194.000000, 547.000000)">
                <g id="001-team" transform="translate(0.673588, 0.000000)">
                    <path d="M32.88042,13.8998971 L32.88042,14.4126403 C32.88042,15.0409387 32.9817299,15.6650785 33.1803681,16.2610817 L34.3417602,19.7452579 L36.5337705,19.7452579 L36.5337705,11.7077983 L35.0724303,11.7077983 C33.8618432,11.7078868 32.88042,12.6892215 32.88042,13.8998971 Z" id="Path" fill="#5A4146"></path>
                    <path d="M42.884973,15.4177762 L41.6485496,19.7453464 L35.8031004,14.6306557 C34.9959833,14.6306557 34.3417602,13.976344 34.3417602,13.1693155 C34.3417602,11.9587284 35.3231834,10.9773052 36.5337705,10.9773052 L41.6484612,10.9773052 C42.4555782,10.9773052 43.1098014,11.6316168 43.1098014,12.4386454 L43.1098014,13.8120362 C43.1098898,14.3550396 43.0341507,14.8954771 42.884973,15.4177762 Z" id="Path" fill="#694B4B"></path>
                    <rect id="Rectangle" fill="#E6AF78" x="35.802658" y="21.9377991" width="4.3840206" height="3.23386552"></rect>
                    <path d="M35.8031004,23.2795139 C36.4807708,23.5548645 37.219758,23.709882 37.9951107,23.709882 C38.7704633,23.709882 39.5094505,23.5548645 40.187121,23.2795139 L40.187121,21.9373567 L35.8031004,21.9373567 L35.8031004,23.2795139 Z" id="Path" fill="#D29B6E"></path>
                    <path d="M43.7119981,24.7170529 L40.186944,23.7099705 L37.9951107,25.1644977 L35.8031004,23.709882 L32.2782232,24.7170529 C31.337147,24.9859445 30.6884097,25.8460612 30.6884097,26.8247415 L30.6884097,32.1668266 C30.6884097,32.5703851 31.0155212,32.8974967 31.4190798,32.8974967 L44.57123,32.8974967 C44.9747886,32.8974967 45.3019001,32.5703851 45.3019001,32.1668266 L45.3019001,26.8247415 C45.3019001,25.8459728 44.6530743,24.9859445 43.7119981,24.7170529 Z" id="Path" fill="#D5DCED"></path>
                    <polygon id="Path" fill="#AFB9D2" points="38.7257808 32.8974082 37.2644406 32.8974082 37.6297756 25.1712222 38.3604457 25.1712222"></polygon>
                    <path d="M37.9951107,22.6680268 C35.573848,22.6680268 33.6110901,20.7051804 33.6110901,18.2840062 L33.6110901,17.4279595 C33.6110901,17.0404159 33.7650457,16.6687103 34.0390691,16.3945984 L35.3640612,15.0696063 C35.6446322,14.7890354 36.0282827,14.6277358 36.4248512,14.6402115 C38.7605535,14.7139156 40.8279836,15.2142715 41.9581421,16.318063 C42.2348199,16.5882817 42.3792197,16.9662694 42.3792197,17.3529282 L42.3792197,18.2840062 C42.3792197,20.7052689 40.4163734,22.6680268 37.9951107,22.6680268 Z" id="Path" fill="#F0C087"></path>
                    <path d="M35.8031004,17.6091671 C35.8031004,16.766304 36.5109425,16.0963314 37.3521245,16.1499504 C38.8271792,16.2440935 41.0160042,16.4905995 42.3588693,17.1365055 C42.3150715,16.8282402 42.1826166,16.5372286 41.9581421,16.3179745 C40.8279836,15.2141831 38.7605535,14.7138271 36.4248512,14.6401231 L36.4247628,14.6402115 L36.4247628,14.6401231 C36.0282827,14.6276473 35.6445437,14.7890354 35.3640612,15.0695178 L34.0391576,16.3944214 C33.7650457,16.6684448 33.6110901,17.0401505 33.6110901,17.4277826 L33.6110901,18.2838292 C33.6110901,20.2831295 34.9507699,21.9664667 36.7804535,22.4936321 C36.1714437,21.7422577 35.8031888,20.7884403 35.8031888,19.7451694 L35.8031004,17.6091671 Z" id="Path" fill="#E6AF78"></path>
                    <path d="M42.3792197,29.0019756 C42.3792197,28.4205718 42.6101533,27.8630576 43.0212326,27.4519782 L44.9020578,25.571153 C45.1534302,25.9304714 45.3019001,26.3630515 45.3019001,26.82483 L45.3019001,32.166915 C45.3019001,32.5704736 44.9747886,32.8975851 44.57123,32.8975851 L42.3792197,32.8975851 L42.3792197,29.0019756 Z" id="Path" fill="#C7CFE2"></path>
                    <path d="M38.3604457,26.6325624 L37.6297756,26.6325624 C37.4280406,26.6325624 37.2644406,26.4689624 37.2644406,26.2672273 L37.2644406,25.1712222 L38.7257808,25.1712222 L38.7257808,26.2672273 C38.7257808,26.4689624 38.5622692,26.6325624 38.3604457,26.6325624 Z" id="Path" fill="#959CB5"></path>
                    <g id="Group" transform="translate(34.949708, 23.093351)" fill="#C7CFE2">
                        <path d="M3.04540254,2.07123473 L1.80694415,3.01717733 C1.59361821,3.180158 1.28517598,3.11485956 1.15626022,2.87932507 L0.0453019001,0.850472391 L0.492481204,0.168377961 C0.59166759,0.0170766928 0.803046964,-0.00867106682 0.935678895,0.114316514 L3.04540254,2.07123473 Z" id="Path"></path>
                        <path d="M3.04540254,2.07123473 L4.28386093,3.01726581 C4.49718687,3.18024648 4.80562911,3.11494804 4.93454487,2.87941355 L6.04550318,0.850560871 L5.59832388,0.168466441 C5.49913749,0.0171651731 5.28775812,-0.00858258655 5.15512619,0.114404994 L3.04540254,2.07123473 Z" id="Path"></path>
                    </g>
                    <path d="M13.079331,22.3629468 C12.4549257,20.7085426 11.9597016,17.8645212 11.852729,16.3838038 C11.6492244,13.566061 9.52578627,11.2691131 6.65530923,11.2691131 C3.78483219,11.2691131 1.6613941,13.5661495 1.45788947,16.3838038 C1.35091682,17.8644327 0.855692727,20.7085426 0.231287436,22.3629468 C0.0937006099,22.7276625 0.252522701,23.1298053 0.611664132,23.292609 C1.28075196,23.5958309 2.70731942,24.1898875 4.42781834,24.4212634 L8.88271164,24.4212634 C10.5951589,24.1893566 12.0317246,23.5949461 12.6988658,23.292609 C13.0580958,23.1298053 13.2169178,22.7276625 13.079331,22.3629468 Z" id="Path" fill="#5A4146"></path>
                    <path d="M12.6989543,23.2926975 C13.0580073,23.1298938 13.2169178,22.727751 13.0792425,22.3630353 C12.4549257,20.7086311 11.9596132,17.8646097 11.852729,16.3838923 C11.6493128,13.5661495 9.52578627,11.2692016 6.65539771,11.2692016 C6.64814233,11.2692016 6.64097542,11.2692016 6.63372004,11.2692901 C4.43118059,11.2782266 3.65281962,14.2820434 5.54886341,15.402823 C5.66273752,15.4701565 5.73573374,15.5025403 5.73573374,15.5025403 L7.39642,24.4213519 L8.88280012,24.4213519 C10.5952473,24.1892681 12.0318131,23.5949461 12.6989543,23.2926975 Z" id="Path" fill="#694B4B"></path>
                    <path d="M11.9404129,25.8882663 L9.5758661,24.7060814 C9.08073049,24.4585136 8.76795272,23.9524064 8.7680412,23.3988738 L8.76821817,21.206775 L4.3840206,21.206775 L4.3840206,23.3989623 C4.3840206,23.9524949 4.07133132,24.4584251 3.5761957,24.7059929 L1.21164887,25.8882663 C0.469033931,26.2595296 0,27.0185133 0,27.8487238 L0,32.1667381 C0,32.5702081 0.327111572,32.8974082 0.7306701,32.8974082 L12.4214802,32.8974082 C12.8250387,32.8974082 13.1521503,32.5702081 13.1521503,32.1667381 L13.1521503,27.8488122 C13.1521503,27.0185133 12.6830279,26.2595296 11.9404129,25.8882663 Z" id="Path" fill="#E6AF78"></path>
                    <path d="M6.57611938,24.129367 C7.36288598,24.129367 8.11647247,23.9671826 8.80732645,23.6784715 C8.78918799,23.5863635 8.7680412,23.4947864 8.7680412,23.3987853 L8.76821817,21.2066866 L4.3840206,21.2066866 L4.3840206,23.3988738 C4.3840206,23.4954058 4.36287382,23.5874253 4.3445584,23.6798872 C5.03585478,23.9670941 5.78908735,24.129367 6.57611938,24.129367 Z" id="Path" fill="#D29B6E"></path>
                    <path d="M11.9404129,25.8882663 L10.2559255,25.0460226 C9.47482163,26.2521857 8.12010016,27.0521358 6.57611938,27.0521358 C5.03213861,27.0521358 3.67732866,26.2521857 2.8962248,25.0459341 L1.21173735,25.8882663 C0.469122411,26.2595296 0,27.0185133 0,27.8487238 L0,32.1667381 C0,32.5702966 0.327111572,32.8974082 0.7306701,32.8974082 L12.4214802,32.8974082 C12.8250387,32.8974082 13.1521503,32.5702966 13.1521503,32.1667381 L13.1521503,27.8488122 C13.1521503,27.0185133 12.6830279,26.2595296 11.9404129,25.8882663 Z" id="Path" fill="#D5DCED"></path>
                    <path d="M6.57611938,22.6680268 C4.34712433,22.6680268 2.50673463,21.0045976 2.22846417,18.8514302 C2.18811717,18.5394487 2.33809123,18.2335724 2.61892762,18.0919155 C2.95532962,17.9222103 3.44418313,17.6360651 3.91224378,17.2184382 C4.43348108,16.7533859 4.7392689,16.2629398 4.9119824,15.9029135 C5.06071774,15.5928786 5.40260551,15.4175107 5.73582222,15.5025403 C8.30847466,16.15871 10.0599417,17.4971511 10.695407,18.0436053 C10.865997,18.1903056 10.9642986,18.4066398 10.9467795,18.6310258 C10.7697304,20.8899272 8.88058811,22.6680268 6.57611938,22.6680268 Z" id="Path" fill="#F0C087"></path>
                    <path d="M10.6953185,18.0435168 C10.0599417,17.4970626 8.30838618,16.1586215 5.73573374,15.5024518 C5.40251703,15.4174223 5.06062926,15.5927902 4.91189392,15.902825 C4.78112007,16.1755212 4.56496276,16.5228948 4.24422177,16.8775237 C4.24413329,16.8784085 4.24386785,16.8791164 4.24377937,16.8800012 C4.14423906,16.9928135 4.03823969,17.1058913 3.91224378,17.2184382 C3.44418313,17.6361536 2.95532962,17.9222103 2.61892762,18.0919155 C2.33809123,18.2335724 2.18820565,18.5395372 2.22846417,18.8515186 C2.47842095,20.785255 3.99161059,22.3244579 5.91145557,22.6180354 C5.0366511,22.0229171 4.38410908,21.2044746 4.38410908,19.7454348 L4.38410908,18.7034911 C4.55009808,18.580946 4.71723731,18.4587547 4.88517287,18.3088691 C5.29129733,17.9464539 5.64583779,17.5273229 5.93012491,17.0760735 C7.89819163,17.690215 9.23247416,18.7131355 9.73831589,19.1481045 C9.87678751,19.2694995 10.2204449,19.5862588 10.6224993,19.9634502 C10.7954782,19.5471506 10.9098832,19.1005021 10.9466025,18.6311143 C10.9642101,18.4066398 10.8659085,18.1903056 10.6953185,18.0435168 Z" id="Path" fill="#E6AF78"></path>
                    <path d="M0.445409698,26.5316064 C0.163953947,26.9051701 0,27.3634095 0,27.8487238 L0,32.1667381 C0,32.5702966 0.327111572,32.8974082 0.7306701,32.8974082 L2.9226804,32.8974082 L2.9226804,29.215744 C2.9226804,28.7718384 2.7208569,28.3519111 2.37419118,28.0746139 L0.445409698,26.5316064 Z" id="Path" fill="#C7CFE2"></path>
                    <path d="M33.1485152,24.8910936 L27.0349707,22.6679383 L22.6509501,24.129367 L18.2669295,22.6680268 L12.153385,24.8911821 C10.9983635,25.311198 10.2294699,26.4088843 10.2294699,27.6378753 L10.2294699,32.1668266 C10.2294699,32.5702966 10.5565815,32.8974967 10.96014,32.8974967 L34.3417602,32.8974967 C34.7453187,32.8974967 35.0724303,32.5702966 35.0724303,32.1668266 L35.0724303,27.6378753 C35.0724303,26.4087958 34.3036252,25.3111095 33.1485152,24.8910936 Z" id="Path" fill="#FF507D"></path>
                    <polygon id="Path" fill="#707487" points="21.8855072 25.5907956 21.1896099 32.8974082 24.1122903 32.8974082 23.4163929 25.5907956"></polygon>
                    <path d="M23.418074,26.5946044 L21.8838261,26.5946044 C21.6013086,26.5946044 21.3723216,26.3656174 21.3723216,26.0830999 L21.3723216,24.129367 L23.9294901,24.129367 L23.92949,26.0830999 C23.9295785,26.3655289 23.7005916,26.5946044 23.418074,26.5946044 Z" id="Path" fill="#5B5D6E"></path>
                    <path d="M34.2859291,25.6464497 C34.7792951,26.1760042 35.0724303,26.8812804 35.0724303,27.6377868 L35.0724303,32.1667381 C35.0724303,32.5702966 34.7453187,32.8974082 34.3417602,32.8974082 L30.6884097,32.8974082 L30.6884097,30.4546448 C30.6884097,29.6794691 30.996321,28.9360578 31.5444563,28.388011 L34.2859291,25.6464497 Z" id="Path" fill="#D23C69"></path>
                    <path d="M30.6884097,7.59948223 L30.6884097,1.47841689 C30.6884097,0.671299837 30.034098,0.0170766928 29.2270695,0.0170766928 L20.4589398,0.0170766928 C17.2306485,0.0170766928 14.6134905,2.63414623 14.6134905,5.86252598 L14.6134905,7.59948223 C14.6134905,8.38483314 14.7401058,9.16505219 14.9884699,9.9100561 L15.2317022,10.6397529 C15.3062026,10.8632541 15.3441606,11.0972844 15.3441606,11.3329074 L15.3441606,11.7078868 L29.9576511,11.7078868 L29.9576511,11.3329074 C29.9576511,11.0972844 29.9956091,10.8632541 30.0701095,10.6397529 L30.3133418,9.9100561 C30.5617944,9.16496371 30.6884097,8.38474466 30.6884097,7.59948223 Z" id="Path" fill="#5A4146"></path>
                    <path d="M18.2669295,2.98541292 C18.2669295,4.62477543 19.5959032,5.95374914 21.2352657,5.95374914 L21.6462566,5.95374914 L21.8446293,11.7077983 L29.9576511,11.7077983 L29.9576511,11.3328189 C29.9576511,11.0971959 29.9956091,10.8631656 30.0701095,10.6396644 L30.3133418,9.90996762 C30.5617059,9.16496371 30.6883212,8.38474466 30.6883212,7.59939375 L30.6883212,1.47841689 C30.6883212,0.671299837 30.0340096,0.0170766928 29.226981,0.0170766928 L21.2352657,0.0170766928 C19.5959032,0.0170766928 18.2669295,1.3460504 18.2669295,2.98541292 Z" id="Path" fill="#694B4B"></path>
                    <rect id="Rectangle" fill="#E6AF78" x="18.2667525" y="17.5536015" width="8.76839513" height="6.57585394"></rect>
                    <path d="M18.2669295,20.0239707 C19.5576797,20.7717175 21.052023,21.2065981 22.6509501,21.2065981 C24.2498771,21.2065981 25.7443089,20.7717175 27.0349707,20.0239707 L27.0349707,17.5532476 L18.266841,17.5532476 L18.2669295,20.0239707 Z" id="Path" fill="#D29B6E"></path>
                    <g id="Group" transform="translate(16.722772, 21.412226)" fill="#D23C69">
                        <path d="M5.92817834,2.71714073 L3.59778489,5.04753417 C3.28456472,5.36075434 2.76686664,5.32545071 2.49912533,4.97259138 L0.0828175362,1.78871721 L0.714832131,0.456823653 C0.901348548,0.0637942774 1.38781309,-0.0802516083 1.75819152,0.148027498 L5.92817834,2.71714073 Z" id="Path"></path>
                        <path d="M5.92817834,2.71714073 L8.25857179,5.04753417 C8.57179196,5.36075434 9.08949004,5.32545071 9.35723135,4.97259138 L11.7735391,1.78871721 L11.1415245,0.456823653 C10.9550081,0.0637942774 10.4685436,-0.0802516083 10.0981652,0.148027498 L5.92817834,2.71714073 Z" id="Path"></path>
                    </g>
                    <path d="M22.6509501,19.7453464 C18.6155417,19.7453464 15.3441606,16.4739652 15.3441606,12.4385569 L15.3441606,11.5825102 C15.3441606,11.1949666 15.4981163,10.823261 15.7721397,10.5491491 L16.3774332,9.94385556 C16.6514566,9.66983215 16.8054123,9.29812652 16.8054123,8.91049445 L16.8054123,7.15893895 C16.8054123,6.82059038 17.0326297,6.52665891 17.3618648,6.44888475 C19.089973,6.04072525 24.4675386,5.0739013 28.1271712,7.76547122 C28.3648292,7.94021976 28.4962224,8.22733825 28.4962224,8.52233148 L28.4962224,8.91049445 C28.4962224,9.29803804 28.6501781,9.66974367 28.9242015,9.94385556 L29.529495,10.5491491 C29.8035184,10.8231725 29.9574741,11.1948782 29.9574741,11.5825102 L29.9574741,12.4385569 C29.9577396,16.4739652 26.6863584,19.7453464 22.6509501,19.7453464 Z" id="Path" fill="#F0C087"></path>
                    <path d="M28.1272597,7.7655597 C25.5533685,5.87252425 22.1344022,5.79059151 19.7282697,6.04975024 C18.7133125,6.15902337 17.8746964,6.32793222 17.3620417,6.44897323 C17.0328066,6.52674739 16.8055893,6.82067886 16.8055893,7.15902743 L16.8055893,8.91049445 C16.8055893,9.29812652 16.6516336,9.66983215 16.3775217,9.94394404 L15.7722282,10.5492376 C15.4981163,10.8233495 15.3441606,11.1950551 15.3441606,11.5826872 L15.3441606,12.4386454 C15.3441606,16.1746364 18.1498701,19.2502992 21.7680054,19.6869494 C20.50725,18.3739906 19.7281812,16.5947408 19.7281812,14.6306557 L19.7281812,9.28989786 C19.7281812,8.54940645 20.2787939,7.93057541 21.0134456,7.83846745 C22.7669477,7.61859397 25.9786047,7.48640444 28.4962224,8.91067141 L28.4962224,8.52241996 C28.4963994,8.22742673 28.3647407,7.94021976 28.1272597,7.7655597 Z" id="Path" fill="#E6AF78"></path>
                    <path d="M11.015971,25.6464497 C10.522605,26.1760042 10.2294699,26.8812804 10.2294699,27.6377868 L10.2294699,32.1667381 C10.2294699,32.5702966 10.5565815,32.8974082 10.96014,32.8974082 L14.6134905,32.8974082 L14.6134905,30.4546448 C14.6134905,29.6794691 14.3055791,28.9360578 13.7574438,28.388011 L11.015971,25.6464497 Z" id="Path" fill="#D23C69"></path>
                </g>
            </g>
        </g>
    </g>
</svg>