<?xml version="1.0" encoding="UTF-8"?>
<svg width="32px" height="42px" viewBox="0 0 32 42" version="1.1" xmlns="http://www.w3.org/2000/svg" xmlns:xlink="http://www.w3.org/1999/xlink">
    <!-- Generator: sketchtool 52.3 (67297) - http://www.bohemiancoding.com/sketch -->
    <title>B3FD0403-FE3E-491E-B895-15A3631A84AD</title>
    <desc>Created with sketchtool.</desc>
    <defs>
        <polygon id="path-1" points="0 0 31.3310736 0 31.3310736 41.7747526 0 41.7747526"></polygon>
    </defs>
    <g id="Page-1" stroke="none" stroke-width="1" fill="none" fill-rule="evenodd">
        <g id="Desktop-HD_site_about" transform="translate(-637.000000, -236.000000)">
            <g id="Group-3" transform="translate(634.475415, 229.000000)">
                <g id="icon_password" transform="translate(0.492055, 6.780213)">
                    <g id="Group-3" transform="translate(18.099046, 21.503191) scale(-1, 1) translate(-18.099046, -21.503191) translate(2.291724, 0.426762)">
                        <mask id="mask-2" fill="white">
                            <use xlink:href="#path-1"></use>
                        </mask>
                        <g id="Clip-2"></g>
                        <path d="M22.6279706,15.6655351 L8.70310309,15.6655351 L8.70310309,12.1842779 C8.70310309,8.34524267 11.8265011,5.22184502 15.6655368,5.22184502 C19.5045725,5.22184502 22.6279706,8.34524267 22.6279706,12.1842779 L22.6279706,15.6655351 Z M18.2713183,33.8459605 C18.2985698,34.0915504 18.2195894,34.3380378 18.0546933,34.5225158 C17.8897973,34.7069122 17.6535088,34.8123282 17.4062054,34.8123282 L13.9249481,34.8123282 C13.6776447,34.8123282 13.4413562,34.7069122 13.2764601,34.5225158 C13.1115641,34.3381194 13.0325021,34.091632 13.0597536,33.8459605 L13.6087816,28.9088693 C12.7172331,28.2603814 12.1843602,27.2345337 12.1843602,26.1092261 C12.1843602,24.1893006 13.7456103,22.6279689 15.6656175,22.6279689 C17.5856248,22.6279689 19.1468749,24.189219 19.1468749,26.1092261 C19.1468749,27.2345337 18.6140019,28.2603814 17.7224534,28.9088693 L18.2713183,33.8459605 Z M30.4607388,15.6655351 L27.849816,15.6655351 L27.849816,12.1842779 C27.849816,5.46580309 22.3840939,0 15.6655368,0 C8.94697972,0 3.4812576,5.46580309 3.4812576,12.1842779 L3.4812576,15.6655351 L0.870334798,15.6655351 C0.389272272,15.6655351 0,16.0548073 0,16.5358698 L0,38.2935846 C0,40.2135101 1.56125025,41.7747602 3.4812576,41.7747602 L27.8498976,41.7747602 C29.7698234,41.7747602 31.3310736,40.2135101 31.3310736,38.293503 L31.3310736,16.5358698 C31.3310736,16.0548073 30.9418014,15.6655351 30.4607388,15.6655351 Z" id="Fill-1" fill="#0077FF" mask="url(#mask-2)"></path>
                    </g>
                </g>
            </g>
        </g>
    </g>
</svg>