<?xml version="1.0" encoding="UTF-8"?>
<svg width="44px" height="44px" viewBox="0 0 44 44" version="1.1" xmlns="http://www.w3.org/2000/svg" xmlns:xlink="http://www.w3.org/1999/xlink">
    <!-- Generator: sketchtool 52.4 (67378) - http://www.bohemiancoding.com/sketch -->
    <title>F2C49C15-5EFC-4E2A-80CF-94730D208A4A</title>
    <desc>Created with sketchtool.</desc>
    <g id="Page-1" stroke="none" stroke-width="1" fill="none" fill-rule="evenodd">
        <g id="Desktop-HD_site_about" transform="translate(-190.000000, -235.000000)" fill="#0077FF" fill-rule="nonzero">
            <g id="Group-2" transform="translate(189.534810, 229.000000)">
                <g id="icon_performance" transform="translate(0.000000, 6.000000)">
                    <g id="003-level" transform="translate(0.209877, 0.780213)">
                        <path d="M22.0684293,12.8457401 C20.4918823,12.8457401 19.2138204,14.123802 19.2138204,15.700349 L19.2138204,39.9645247 C19.2138204,41.5410717 20.4918823,42.8191337 22.0684293,42.8191337 C23.6449763,42.8191337 24.9230382,41.5410717 24.9230382,39.9645247 L24.9230382,15.700349 C24.9230382,14.123802 23.6449763,12.8457401 22.0684293,12.8457401 Z" id="Shape"></path>
                        <path d="M12.7909503,21.4095668 C11.2144034,21.4095668 9.93634142,22.6876288 9.93634142,24.2641757 L9.93634142,39.9645247 C9.93634142,41.5410717 11.2144034,42.8191337 12.7909503,42.8191337 C14.3674973,42.8191337 15.6455592,41.5410717 15.6455592,39.9645247 L15.6455592,24.2641757 C15.6455592,22.6876288 14.3674973,21.4095668 12.7909503,21.4095668 Z" id="Shape"></path>
                        <path d="M3.51347137,31.400698 C1.93692439,31.400698 0.658862461,32.67876 0.658862461,34.2553069 L0.658862461,39.9645247 C0.658862461,41.5410717 1.93692439,42.8191337 3.51347137,42.8191337 C5.09001835,42.8191337 6.36808028,41.5410717 6.36808028,39.9645247 L6.36808028,34.2553069 C6.36808028,32.67876 5.09001835,31.400698 3.51347137,31.400698 Z" id="Shape"></path>
                        <path d="M31.3459083,4.28191337 C29.7693613,4.28191337 28.4912993,5.5599753 28.4912993,7.13652228 L28.4912993,39.9645247 C28.4912993,41.5410717 29.7693613,42.8191337 31.3459083,42.8191337 C32.9224552,42.8191337 34.2005172,41.5410717 34.2005172,39.9645247 L34.2005172,7.13652228 C34.2005172,5.5599753 32.9224552,4.28191337 31.3459083,4.28191337 Z" id="Shape"></path>
                        <path d="M40.6233872,0 C39.0468402,0 37.7687783,1.27806193 37.7687783,2.85460891 L37.7687783,39.9645247 C37.7687783,41.5410717 39.0468402,42.8191337 40.6233872,42.8191337 C42.1999342,42.8191337 43.4779961,41.5410717 43.4779961,39.9645247 L43.4779961,2.85460891 C43.4779961,1.27806193 42.1999342,0 40.6233872,0 Z" id="Shape"></path>
                    </g>
                </g>
            </g>
        </g>
    </g>
</svg>