<?xml version="1.0" encoding="UTF-8"?>
<svg width="46px" height="44px" viewBox="0 0 46 44" version="1.1" xmlns="http://www.w3.org/2000/svg" xmlns:xlink="http://www.w3.org/1999/xlink">
    <!-- Generator: sketchtool 52.4 (67378) - http://www.bohemiancoding.com/sketch -->
    <title>EBDF3401-2022-442F-ACD7-43CA232ADD8B</title>
    <desc>Created with sketchtool.</desc>
    <g id="Page-1" stroke="none" stroke-width="1" fill="none" fill-rule="evenodd">
        <g id="Desktop-HD_site_about" transform="translate(-195.000000, -875.000000)">
            <g id="icon_technology" transform="translate(195.000000, 875.000000)">
                <g id="003-database" transform="translate(0.108050, 0.000000)">
                    <path d="M18.0983607,25.6393443 L18.0983607,25.3565574 L18.0983607,25.0737705 L18.0983607,18.5696721 L18.0983607,18.2868852 L18.124,18.2868852 C18.1081639,18.3803934 18.0983607,18.4746557 18.0983607,18.5696721 C18.0983607,16.7319344 21.0106885,15.1370164 25.2879344,14.3278689 L2.72078689,14.3278689 C1.21862295,14.3278689 0,15.5457377 0,17.0486557 L0,25.9341967 C0,27.4378689 1.21862295,28.6557377 2.72078689,28.6557377 L18.0983607,28.6557377 L18.0983607,25.6393443 Z" id="Path" fill="#424A60"></path>
                    <path d="M18.124,39.2131148 L18.0983607,39.2131148 L18.0983607,32.4262295 L18.0983607,32.1434426 L18.0983607,31.8606557 L18.0983607,28.6557377 L2.72078689,28.6557377 C1.21862295,28.6557377 0,29.8736066 0,31.3765246 L0,40.2620656 C0,41.7657377 1.21862295,42.9836066 2.72078689,42.9836066 L24.3769836,42.9836066 C20.8138689,42.1774754 18.3834098,40.7989836 18.124,39.2131148 Z" id="Path" fill="#556080"></path>
                    <path d="M41.016918,14.3278689 L2.72078689,14.3278689 C1.21862295,14.3278689 0,13.1092459 0,11.607082 L0,2.72078689 C0,1.21862295 1.21862295,0 2.72078689,0 L41.0161639,0 C42.519082,0 43.7377049,1.21862295 43.7377049,2.72078689 L43.7377049,11.6063279 C43.7377049,13.1092459 42.519082,14.3278689 41.016918,14.3278689 Z" id="Path" fill="#556080"></path>
                    <circle id="Oval" fill="#7383BF" cx="7.16393443" cy="7.16393443" r="2.63934426"></circle>
                    <circle id="Oval" fill="#7383BF" cx="36.9508197" cy="6.03278689" r="1"></circle>
                    <circle id="Oval" fill="#7383BF" cx="33.9344262" cy="6.03278689" r="1"></circle>
                    <circle id="Oval" fill="#7383BF" cx="38.4590164" cy="8.29508197" r="1"></circle>
                    <circle id="Oval" fill="#7383BF" cx="35.442623" cy="8.29508197" r="1"></circle>
                    <circle id="Oval" fill="#7383BF" cx="30.9180328" cy="6.03278689" r="1"></circle>
                    <circle id="Oval" fill="#7383BF" cx="32.4262295" cy="8.29508197" r="1"></circle>
                    <circle id="Oval" fill="#7383BF" cx="27.9016393" cy="6.03278689" r="1"></circle>
                    <circle id="Oval" fill="#7383BF" cx="29.4098361" cy="8.29508197" r="1"></circle>
                    <circle id="Oval" fill="#7383BF" cx="24.8852459" cy="6.03278689" r="1"></circle>
                    <circle id="Oval" fill="#7383BF" cx="26.3934426" cy="8.29508197" r="1"></circle>
                    <circle id="Oval" fill="#7383BF" cx="7.16393443" cy="21.4918033" r="2.63934426"></circle>
                    <circle id="Oval" fill="#7383BF" cx="7.16393443" cy="35.8196721" r="2.63934426"></circle>
                    <g id="Group" transform="translate(17.344262, 30.163934)" fill="#1A9172">
                        <path d="M14.3278689,5.8442623 C6.83137705,5.8442623 0.754098361,3.69206557 0.754098361,1.03688525 L0.754098361,9.04918033 L0.779737705,9.04918033 C1.19298361,11.5723934 7.09983607,13.5737705 14.3278689,13.5737705 C21.5559016,13.5737705 27.4627541,11.5723934 27.876,9.04918033 L27.9016393,9.04918033 L27.9016393,1.03688525 C27.9016393,3.69206557 21.8243607,5.8442623 14.3278689,5.8442623 Z" id="Path"></path>
                        <path d="M0.754098361,0.754098361 L0.754098361,1.03688525 C0.754098361,0.941868852 0.763901639,0.847606557 0.779737705,0.754098361 L0.754098361,0.754098361 Z" id="Path"></path>
                        <path d="M27.876,0.754098361 C27.8918361,0.847606557 27.9016393,0.941868852 27.9016393,1.03688525 L27.9016393,0.754098361 L27.876,0.754098361 Z" id="Path"></path>
                    </g>
                    <g id="Group" transform="translate(17.344262, 21.868852)" fill="#25AE88">
                        <path d="M14.3278689,6.03278689 C6.83137705,6.03278689 0.754098361,3.88059016 0.754098361,1.22540984 L0.754098361,9.6147541 L0.779737705,9.6147541 C1.19298361,12.1379672 7.09983607,14.1393443 14.3278689,14.1393443 C21.5559016,14.1393443 27.4627541,12.1379672 27.876,9.6147541 L27.9016393,9.6147541 L27.9016393,1.22540984 C27.9016393,3.88059016 21.8243607,6.03278689 14.3278689,6.03278689 Z" id="Path"></path>
                        <path d="M0.754098361,0.942622951 L0.754098361,1.22540984 C0.754098361,1.13039344 0.763901639,1.03613115 0.779737705,0.942622951 L0.754098361,0.942622951 Z" id="Path"></path>
                        <path d="M27.876,0.942622951 C27.8918361,1.03613115 27.9016393,1.13039344 27.9016393,1.22540984 L27.9016393,0.942622951 L27.876,0.942622951 Z" id="Path"></path>
                    </g>
                    <ellipse id="Oval" fill="#88C057" cx="31.6721311" cy="15.3647541" rx="13.5737705" ry="4.80737705"></ellipse>
                    <g id="Group" transform="translate(17.344262, 14.327869)" fill="#61B872">
                        <path d="M14.3278689,5.8442623 C6.83137705,5.8442623 0.754098361,3.69206557 0.754098361,1.03688525 L0.754098361,9.04918033 L0.779737705,9.04918033 C1.19298361,11.5723934 7.09983607,13.5737705 14.3278689,13.5737705 C21.5559016,13.5737705 27.4627541,11.5723934 27.876,9.04918033 L27.9016393,9.04918033 L27.9016393,1.03688525 C27.9016393,3.69206557 21.8243607,5.8442623 14.3278689,5.8442623 Z" id="Path"></path>
                        <path d="M0.754098361,0.754098361 L0.754098361,1.03688525 C0.754098361,0.941868852 0.763901639,0.847606557 0.779737705,0.754098361 L0.754098361,0.754098361 Z" id="Path"></path>
                        <path d="M27.876,0.754098361 C27.8918361,0.847606557 27.9016393,0.941868852 27.9016393,1.03688525 L27.9016393,0.754098361 L27.876,0.754098361 Z" id="Path"></path>
                    </g>
                </g>
            </g>
        </g>
    </g>
</svg>