<?xml version="1.0" encoding="UTF-8"?>
<svg width="53px" height="52px" viewBox="0 0 53 52" version="1.1" xmlns="http://www.w3.org/2000/svg" xmlns:xlink="http://www.w3.org/1999/xlink">
    <!-- Generator: sketchtool 52.4 (67378) - http://www.bohemiancoding.com/sketch -->
    <title>78607057-9531-407E-A09F-1AB5AE65804E</title>
    <desc>Created with sketchtool.</desc>
    <g id="Page-1" stroke="none" stroke-width="1" fill="none" fill-rule="evenodd">
        <g id="Desktop-HD_site_about" transform="translate(-762.000000, -868.000000)">
            <g id="icon_resources" transform="translate(762.000000, 868.000000)">
                <g id="004-warehouse" transform="translate(0.562211, 0.000000)">
                    <polygon id="Path" fill="#5A5A5A" points="6.13478595 19.7117713 45.3571879 19.7117713 45.3571879 49.98342 6.13478595 49.98342"></polygon>
                    <polygon id="Path" fill="#444444" points="25.7459869 19.7117713 45.3571879 19.7117713 45.3571879 49.98342 25.7459869 49.98342"></polygon>
                    <polygon id="Path" fill="#FED2A4" points="21.2203252 24.3380033 15.1861095 21.3208954 9.1518938 24.3380033 12.9232786 31.1264959 21.2203252 36.4064347"></polygon>
                    <polygon id="Path" fill="#FFBD86" points="21.2203252 36.4064347 9.1518938 24.3380033 6.13478595 31.1264959 9.1518938 36.4064347 14.1489787 37.9149886"></polygon>
                    <polygon id="Path" fill="#FED2A4" points="33.2887566 36.4064347 21.2203252 36.4064347 24.99171 43.1949273 33.2887566 48.4748661"></polygon>
                    <polygon id="Path" fill="#FFBD86" points="33.2887566 48.4748661 21.2203252 36.4064347 18.2032173 43.1949273 21.2203252 48.4748661 26.21741 49.98342"></polygon>
                    <polygon id="Path" fill="#FED2A4" points="21.2203252 36.4064347 9.1518938 36.4064347 12.9232786 43.1949273 21.2203252 48.4748661"></polygon>
                    <polygon id="Path" fill="#FFBD86" points="21.2203252 48.4748661 9.1518938 36.4064347 6.13478595 43.1949273 9.1518938 48.4748661 14.1489787 49.98342"></polygon>
                    <polygon id="Path" fill="#6E6E6E" points="45.3571879 49.98342 42.3400801 51.4919739 9.1518938 51.4919739 6.13478595 49.98342 9.1518938 48.4748661 42.3400801 48.4748661"></polygon>
                    <polygon id="Path" fill="#5A5A5A" points="42.3400801 48.4748661 45.3571879 49.98342 42.3400801 51.4919739 25.7459869 51.4919739 25.7459869 48.4748661"></polygon>
                    <polygon id="Path" fill="#FF9F00" points="9.1518938 51.4919739 3.11767811 51.4919739 3.11767811 24.3380033 6.51192443 21.3208954 9.1518938 24.3380033"></polygon>
                    <polygon id="Path" fill="#FF7816" points="48.3742958 51.4919739 42.3400801 51.4919739 42.3400801 24.3380033 45.7343264 21.3208954 48.3742958 24.3380033"></polygon>
                    <polygon id="Path" fill="#FF9F00" points="48.3742958 12.0684314 48.3742958 24.3380033 3.11767811 24.3380033 3.11767811 12.0684314 25.7459869 3.01710785"></polygon>
                    <polygon id="Path" fill="#FF7816" points="48.3742958 12.0684314 48.3742958 24.3380033 25.7459869 24.3380033 25.7459869 3.01710785"></polygon>
                    <polygon id="Path" fill="#5A5A5A" points="18.2032173 15.0855392 21.2203252 15.0855392 21.2203252 21.3208954 18.2032173 21.3208954"></polygon>
                    <polygon id="Path" fill="#5A5A5A" points="24.237433 15.0855392 27.2545409 15.0855392 27.2545409 21.3208954 24.237433 21.3208954"></polygon>
                    <polygon id="Path" fill="#444444" points="30.2716487 15.0855392 33.2887566 15.0855392 33.2887566 21.3208954 30.2716487 21.3208954"></polygon>
                    <polygon id="Path" fill="#444444" points="25.7459869 15.0855392 27.2545409 15.0855392 27.2545409 21.3208954 25.7459869 21.3208954"></polygon>
                    <polygon id="Path" fill="#5A5A5A" points="51.4919739 9.05132354 49.2794281 14.6934723 25.7459869 6.45653224 2.21254575 15.0855392 0 9.44339047 25.7459869 0"></polygon>
                    <polygon id="Path" fill="#444444" points="51.4919739 9.05132354 49.2794281 14.6934723 25.7459869 6.45653224 25.7459869 0"></polygon>
                </g>
            </g>
        </g>
    </g>
</svg>