<?xml version="1.0" encoding="utf-8"?>
<!-- Generator: Adobe Illustrator 22.1.0, SVG Export Plug-In . SVG Version: 6.00 Build 0)  -->
<svg version="1.1" id="Слой_1" xmlns="http://www.w3.org/2000/svg" xmlns:xlink="http://www.w3.org/1999/xlink" x="0px" y="0px"
	 viewBox="0 0 336.4 255.1" style="enable-background:new 0 0 336.4 255.1;" xml:space="preserve">
<style type="text/css">
	.st0{fill:url(#SVGID_1_);}
	.st1{fill:#FFFFFF;stroke:#808080;stroke-width:2;stroke-miterlimit:10;}
	.st2{fill:#FFFFFF;stroke:#808080;stroke-width:3;stroke-miterlimit:10;}
	.st3{fill:url(#SVGID_2_);}
	.st4{fill:#FFFFFF;}
</style>
<title>Comp_2</title>
<g id="Слой_2_1_">
	<g id="Слой_1-2">
		
			<radialGradient id="SVGID_1_" cx="-675.8" cy="583.1053" r="102.4761" gradientTransform="matrix(6.123234e-17 -1 1.52 9.307316e-17 -718.12 -424.06)" gradientUnits="userSpaceOnUse">
			<stop  offset="0" style="stop-color:#ADF7BE"/>
			<stop  offset="1" style="stop-color:#E0F1F7;stop-opacity:0"/>
		</radialGradient>
		<path class="st0" d="M336.4,255.1c-26.3-66.4-96.6-108.6-168.2-108.6S26.3,188.7,0,255.1H336.4z"/>
		<rect x="146.3" y="202.9" class="st1" width="55.3" height="42.6"/>
		<path class="st2" d="M47.5,1.5h253c7.7,0,13.9,5.9,13.9,13.2v175c0,7.3-6.2,13.2-13.9,13.2h-253c-7.7,0-13.9-5.9-13.9-13.2v-175
			C33.5,7.4,39.8,1.5,47.5,1.5z"/>
		<circle class="st1" cx="174" cy="184.5" r="5.8"/>
		<path class="st2" d="M99.2,245.5h149.5c1.9,0,3.5,1.6,3.5,3.5v4.6l0,0H95.7l0,0V249C95.7,247.1,97.3,245.5,99.2,245.5z"/>
		
			<radialGradient id="SVGID_2_" cx="174.75" cy="505.18" r="150.7512" gradientTransform="matrix(1 0 0 1.0408 0 -360.6009)" gradientUnits="userSpaceOnUse">
			<stop  offset="0" style="stop-color:#7EFCD3"/>
			<stop  offset="0.8214" style="stop-color:#2793C2"/>
			<stop  offset="1" style="stop-color:#287FB0"/>
		</radialGradient>
		<path class="st3" d="M49,8.5h250c5,0,9,4,9,9v151H40v-151C40,12.5,44,8.5,49,8.5z"/>
		<path class="st4" d="M170.1,40.9c7.3-2.1,11.4,3,12.6,3.4c0.6-0.2,2.1-1.6,2-2.3c-0.2-1.4-5.1-4.2-7.8-4.8
			c-4.7-1.1-9.5,0.1-13.2,3.2c-0.6,0.5-1.9,1.3-1.3,2.3C164.6,46.4,165,42.4,170.1,40.9z M179.4,48c1.7-2.3-4.5-4.6-7.8-3.8
			c-1.2,0.2-2.4,0.8-3.4,1.5c-1.4,1-1.6,1.5-0.3,2.8c2.3,2.4,2.4-2.3,7.1-0.7c0.6,0.2,1.1,0.5,1.6,0.8C177.3,49.1,177.9,50,179.4,48
			z M173.3,50.7c-1.1,0-2.1,0.9-2.2,2c0,1.1,0.9,2.1,2,2.2s2.1-0.9,2.2-2v-0.1C175.3,51.7,174.4,50.7,173.3,50.7L173.3,50.7z
			 M210.6,85.6c-2.2,2.3-2,4.6-1.7,8.2c-1.5,1.4-3.3,2.5-5.3,3.1c-2.5,0.7-5.1,0.9-7.8,0.6c-6.8-0.7-4.6-2.5-11.5-5.8
			c-5.5-2.6-8.2-1.5-9-3.8c-1.1-3.6,4.6-3.7,8.2-4.7c4.4-1.2,16.4-4.5,17.9-7.9c1.3-2.9,3.6-16.3,2.4-19c-0.4-0.9-1.9-1.2-2.9-1.5
			c-2.4-0.6-4.9-1-7.4-1.2c-4.4-0.5-12-1.3-16.3-1v0.1c0.1,2.3-1.6,4.2-3.9,4.3c-2.3,0.1-4.2-1.6-4.3-3.9c0-0.1,0-0.3,0-0.4l0,0
			c-4.2-0.2-22.6,0.8-25.9,3.1c-2.4,1.8,0.9,17.7,1.9,19.5c1.5,2.8,7.4,4.5,10.6,5.6c4.1,1.4,8.2,2.6,12.4,3.6
			c3.7,0.7,3.7,4.6,0,5.4c-1.4,0.3-2.8,0.7-4.1,1.3c-2.4,1-4.7,2.4-6.7,4.2c-1.3,1.2-1.2,1.4-3.3,1.9c-1.6,0.3-3.3,0.5-5,0.4
			c-3,0.1-5.9-0.8-8.4-2.4c-4.3-2.9-0.9-3.2-2.8-7.5c-4.3-10-18.8-3.8-15.2,6.1c1.4,4.2,5.9,6.4,10.1,5.1c2.4-0.8,1.6-2.4,7.4,0.5
			c3.5,1.8,6.8,4,9.8,6.5c-1.2,4.8-2.6,10.8-1.1,17.7c-2.9-1.5-5.8-4.4-10-3c-4,1.3-3.2,7.1-1.4,10.6c2.2,4.3,7,9.6,11.7,10.7
			c2.2,0.6,4.5,0.7,6.8,0.4c2.1-0.4,3.9-1.4,7.5-2.9l8.6-4.3h-0.1c-10.7-0.4-22.1-6.5-16.2-25.8c1.5-4.8,7.6-12.7,16.4-13.2
			c4.9-0.3,9.6,0.3,12.8,2.5c2.2,1.5,4.1,3.6,5.3,6c0.1,0.3,0.4,0.7,0.5,1c0.4,1,0.4,1-0.4,1.2l-5.6,1.9c-2.8,0.7-4-1-4.8-1.9
			c-3.7-4.2-8.4-3.3-11.9-0.3c-3.8,3.2-6.2,11.6-3.4,16.7c1.4,2.6,4.5,4.3,8.8,4.1c4.6,0.2,10.1-5.3,10.9-8.3h-11.1l17.9-7.3
			c1.5-0.5,1.4,1.1,1.3,2.8c-0.6,4.2-1.8,8.2-3.5,12.1l9.5-4.7c0.7-1.7,0.9-5.9,0.9-8c-0.1-3.1-0.8-4.8-1.3-7.5
			c1-1,11.1-7.4,12.3-7.9c2.2-0.9,1.8-0.8,3.6,0.1c3.8,1.8,8.4,0.3,10.4-3.3C228.4,87.1,218.2,77.9,210.6,85.6L210.6,85.6z
			 M131.2,94.9c-5.3,1.1-6.3-6.7-1.6-7.7S136,93.9,131.2,94.9z M152.1,69.3c-1.3-0.4-2.5-0.9-2.7-2.4c-0.2-1-0.3-1.9-0.2-2.9
			c0.3-2.3,5.3-2.2,7.9-2.3C156.5,62.7,152.5,68.9,152.1,69.3z M157.2,71.6c0.5-1.1,4.6-8.1,5.5-10l3.7-0.2l-6.6,11.3L157.2,71.6z
			 M170.1,75.4c-2.7-0.4-5.1-1.3-7.5-1.8c0.3-1.2,6.4-11.5,7.2-12.4c7.5-0.1,16.4-0.2,23.5,0.7c4,0.5,4.7-1.1,4.3,3.5
			c-0.2,2.1-0.3,2.7-1.5,3.3c-3.9,2-13.5,4.9-17.8,6C175,75.5,173.6,76,170.1,75.4L170.1,75.4z M217.5,94.9
			c-5.1,0.8-6.3-6.6-1.4-7.6c2-0.4,4,1,4.4,3C221,92.3,219.6,94.4,217.5,94.9L217.5,94.9L217.5,94.9z M204.3,122.4
			c-4.1,2.1-16.4,8.4-16.4,8.4c-5.6,2.9-21,11.3-24.5,11.7c1.4,0.4,29.6,0.2,33.7,0.2c1.8,0,3.8,0.1,5.4-0.5
			c5.2-2.3,14.1-14.2,10.8-19.5C211.4,119.6,207.3,120.8,204.3,122.4z"/>
	</g>
</g>
</svg>
