<svg xmlns="http://www.w3.org/2000/svg" width="39.063" height="39" viewBox="0 0 39.063 39">
  <metadata><?xpacket begin="﻿" id="W5M0MpCehiHzreSzNTczkc9d"?>
<x:xmpmeta xmlns:x="adobe:ns:meta/" x:xmptk="Adobe XMP Core 5.6-c138 79.159824, 2016/09/14-01:09:01        ">
   <rdf:RDF xmlns:rdf="http://www.w3.org/1999/02/22-rdf-syntax-ns#">
      <rdf:Description rdf:about=""/>
   </rdf:RDF>
</x:xmpmeta>
                                                                                                    
                                                                                                    
                                                                                                    
                                                                                                    
                                                                                                    
                                                                                                    
                                                                                                    
                                                                                                    
                                                                                                    
                                                                                                    
                                                                                                    
                                                                                                    
                                                                                                    
                                                                                                    
                                                                                                    
                                                                                                    
                                                                                                    
                                                                                                    
                                                                                                    
                                                                                                    
                           
<?xpacket end="w"?></metadata>
<defs>
    <style>
      .cls-1 {
        fill: #4a6eca;
        fill-rule: evenodd;
      }
    </style>
  </defs>
  <path id="Прямоугольник_скругл._углы_1_копия_4" data-name="Прямоугольник, скругл. углы 1 копия 4" class="cls-1" d="M759.406,306h0.063a19.5,19.5,0,0,1,0,39h-0.063A19.5,19.5,0,0,1,759.406,306Zm-3.4,19.885h1.611V335h3.576v-9.118h2.527l0.686-3.3h-3.361s-0.262-2.659.237-3.171a1.821,1.821,0,0,1,1.308-.465,3.312,3.312,0,0,1,1.689.717L765,316.756a9.454,9.454,0,0,0-2.989-.743,4.909,4.909,0,0,0-2.529.575,3.169,3.169,0,0,0-1.355,1.678,14.777,14.777,0,0,0-.414,3.885v0.432h-1.66Z" transform="translate(-739.906 -306)"/>
</svg>
