<svg xmlns="http://www.w3.org/2000/svg" width="39.06" height="39" viewBox="0 0 39.06 39">
  <metadata><?xpacket begin="﻿" id="W5M0MpCehiHzreSzNTczkc9d"?>
<x:xmpmeta xmlns:x="adobe:ns:meta/" x:xmptk="Adobe XMP Core 5.6-c138 79.159824, 2016/09/14-01:09:01        ">
   <rdf:RDF xmlns:rdf="http://www.w3.org/1999/02/22-rdf-syntax-ns#">
      <rdf:Description rdf:about=""/>
   </rdf:RDF>
</x:xmpmeta>
                                                                                                    
                                                                                                    
                                                                                                    
                                                                                                    
                                                                                                    
                                                                                                    
                                                                                                    
                                                                                                    
                                                                                                    
                                                                                                    
                                                                                                    
                                                                                                    
                                                                                                    
                                                                                                    
                                                                                                    
                                                                                                    
                                                                                                    
                                                                                                    
                                                                                                    
                                                                                                    
                           
<?xpacket end="w"?></metadata>
<defs>
    <style>
      .cls-1 {
        fill: #3a569e;
        fill-rule: evenodd;
      }
    </style>
  </defs>
  <path id="Прямоугольник_скругл._углы_1_копия_4" data-name="Прямоугольник, скругл. углы 1 копия 4" class="cls-1" d="M1162.41,4124h0.06a19.5,19.5,0,1,1,0,39h-0.06A19.5,19.5,0,1,1,1162.41,4124Zm-3.4,19.88h1.61V4153h3.57v-9.12h2.53l0.69-3.3h-3.36s-0.27-2.66.23-3.17a1.853,1.853,0,0,1,1.31-.46,3.372,3.372,0,0,1,1.69.71l0.72-2.9a9.262,9.262,0,0,0-2.99-.75,4.822,4.822,0,0,0-2.52.58,3.109,3.109,0,0,0-1.36,1.68,15.024,15.024,0,0,0-.41,3.88v0.43h-1.66Z" transform="translate(-1142.91 -4124)"/>
</svg>
