<svg xmlns="http://www.w3.org/2000/svg" xmlns:xlink="http://www.w3.org/1999/xlink" viewBox="0 0 256.83 256.83"><defs><style>.cls-1{fill:url(#Безымянный_градиент_9);}.cls-2{fill:#8aa9bd;}.cls-3{fill:url(#Безымянный_градиент_49);}.cls-4{fill:url(#Безымянный_градиент_49-2);}.cls-5{fill:url(#Безымянный_градиент_49-3);}.cls-6{fill:url(#Безымянный_градиент_49-4);}.cls-7{fill:url(#Безымянный_градиент_49-5);}.cls-8{fill:url(#Безымянный_градиент_49-6);}.cls-9{fill:url(#Безымянный_градиент_49-7);}.cls-10{fill:url(#Безымянный_градиент_49-8);}.cls-11{fill:url(#Безымянный_градиент_49-9);}</style><linearGradient id="Безымянный_градиент_9" x1="128.42" y1="22.45" x2="128.42" y2="347.95" gradientUnits="userSpaceOnUse"><stop offset="0" stop-color="#fff"/><stop offset="0.56" stop-color="#e8f7ff"/><stop offset="1" stop-color="#fff"/></linearGradient><linearGradient id="Безымянный_градиент_49" x1="188.13" y1="39.44" x2="188.13" y2="228.75" gradientUnits="userSpaceOnUse"><stop offset="0" stop-color="#85dec2"/><stop offset="1" stop-color="#558cad"/></linearGradient><linearGradient id="Безымянный_градиент_49-2" x1="56.44" y1="39.44" x2="56.44" y2="228.75" xlink:href="#Безымянный_градиент_49"/><linearGradient id="Безымянный_градиент_49-3" x1="119.12" y1="39.44" x2="119.12" y2="228.75" xlink:href="#Безымянный_градиент_49"/><linearGradient id="Безымянный_градиент_49-4" x1="78.65" y1="39.44" x2="78.65" y2="228.75" xlink:href="#Безымянный_градиент_49"/><linearGradient id="Безымянный_градиент_49-5" x1="213.98" y1="39.44" x2="213.98" y2="228.75" xlink:href="#Безымянный_градиент_49"/><linearGradient id="Безымянный_градиент_49-6" x1="90.29" y1="39.44" x2="90.29" y2="228.75" xlink:href="#Безымянный_градиент_49"/><linearGradient id="Безымянный_градиент_49-7" x1="148.27" y1="39.44" x2="148.27" y2="228.75" xlink:href="#Безымянный_градиент_49"/><linearGradient id="Безымянный_градиент_49-8" x1="135.07" y1="39.44" x2="135.07" y2="228.75" xlink:href="#Безымянный_градиент_49"/><linearGradient id="Безымянный_градиент_49-9" x1="84.98" y1="39.44" x2="84.98" y2="228.75" xlink:href="#Безымянный_градиент_49"/></defs><title>Globus_Blank_new_1</title><g id="Слой_2" data-name="Слой 2"><g id="Слой_1-2" data-name="Слой 1"><circle class="cls-1" cx="128.42" cy="128.42" r="126.93"/><path class="cls-2" d="M128.42,3a125.43,125.43,0,0,1,88.69,214.13A125.43,125.43,0,1,1,39.72,39.72,124.62,124.62,0,0,1,128.42,3m0-3A128.42,128.42,0,1,0,256.83,128.42,128.41,128.41,0,0,0,128.42,0Z"/><path class="cls-3" d="M220,129.43c-.39,1.82-.84,3.49-1.1,5.19-.62,4.11-3.71,6-6.85,7.92a5.15,5.15,0,0,0-1.82,1.74c-1.82,3.25-3.48,6.58-5.31,9.83-.66,1.15-1,2.16-.07,3.26,2.48,2.83,1.58,6.24,1.62,9.48,0,.38-.58.84-1,1.14-1.81,1.32-3.65,2.59-5.49,3.87-1.64,1.15-1.82,3-1.94,4.69-.24,3.18-2.12,5.6-3.51,8.25-1.68,3.22-3.44,6.4-5.11,9.62a2.61,2.61,0,0,1-2.42,1.63c-2.79.14-5.6.68-8.36.5a4,4,0,0,1-2.81-2.59c-.39-2.2-.73-4.32-2.21-6a11.07,11.07,0,0,1-2.4-7,11.87,11.87,0,0,0-1.41-3.92c-1.52-3.29-3.36-6.5-1.91-10.32.42-1.13,1-2.21,1.39-3.34a3.83,3.83,0,0,0,.37-1.89,33.66,33.66,0,0,0-4.78-12.31c-1.76-2.58-1.72-4,.2-6.41,1-1.21.92-1.88-.52-2.44-.3-.12-.73-.34-.77-.57-.3-1.77-1.71-1.4-2.88-1.7a26.35,26.35,0,0,1-3-1.4,6.67,6.67,0,0,0-2.88-.79c-1.78.2-3.5.89-5.27,1.24-2.94.6-5.9,1.17-8.88,1.59a3.93,3.93,0,0,1-2.45-.7,18.23,18.23,0,0,1-3.47-3,5.33,5.33,0,0,1-1-2.71,2.58,2.58,0,0,0-1.75-2.35c-3.16-1.18-3.41-4.19-4.21-6.8-.14-.46.34-1.25.74-1.7a2.58,2.58,0,0,0,.6-2.71c-1.39-4.84.28-9.07,4-12.46,1.88-1.73,4-3.63,4.67-6.35a7.91,7.91,0,0,1,2.84-4.3c1.32-1.08,2.54-2.28,3.86-3.36.31-.26,1.15-.46,1.22-.35,1.32,2,3.36,1.23,5,1,3.44-.42,6.84-1.23,10.25-1.93a14.33,14.33,0,0,0,2-.79c1.23-.45,2,.13,1.9,1.39-.18,1.55.67,2.59,1.68,3.55s1.82,1.73,2.74,2.58a1.92,1.92,0,0,0,.78.57c1.82.36,3.65.74,5.49,1a1.72,1.72,0,0,0,1.95-1.34,9.14,9.14,0,0,1,1.78-2.3c2.63,1.56,4.63,3.28,7.82,2.73,2-.34,4.12.34,6.16.74a4.14,4.14,0,0,0,5.06-4.69c-.15-1-.3-2.06-.5-3.48-1.23.19-2.52.09-3.48.61a4.16,4.16,0,0,1-5-.47c-1.84-1.37-3.49-2.79-3.95-5.36,1.54.36,2.65,0,3.19-1.79-2,.31-3.8.46-5.57.93a2,2,0,0,0-1.58,2.74c.17.58,0,1.78-.31,1.88-1,.32-1.73-.2-2.05-1.29a3.27,3.27,0,0,0-.85-1.07c-.24-.27-.76-.54-.74-.78.13-2-1.44-3-2.32-4.37a2.35,2.35,0,0,0-1.67-.83,4.15,4.15,0,0,1-3.45-1.89,3,3,0,0,0-1.19-1.12c-.53-.2-1.6-.28-1.71,0-.3.58-.52,1.69-.19,2a26.81,26.81,0,0,0,4.15,3.35,4.82,4.82,0,0,1,2.42,2.88c-2.77,1.22-3.87.8-5.45-1.47a34.16,34.16,0,0,0-4-4.7c-1.51-1.5-3.21-.82-4.17,1.66a11.53,11.53,0,0,0-1.19-.31c-1.44-.23-2.68-.1-3.51,1.42a28.15,28.15,0,0,1-2.83,4.18,5,5,0,0,1-2.42,1.9,75.69,75.69,0,0,1-8,.89,1.45,1.45,0,0,1-1.07-.61c-1-1.53-.53-5.77.7-7.19A3.69,3.69,0,0,1,145,80.72c1.53.07,3.07,0,4.61.06.86,0,1.08-.32,1.36-1.19,1-3-1.34-3.66-3.1-4.78a2.09,2.09,0,0,1-.81-1.12,16.26,16.26,0,0,1,2.92-.69c2.54-.1,4.65-1,5.83-3.27,1-1.89,2.15-3.14,4.43-3.35,1.61-.14,2.37-1.38,2.55-3a11.65,11.65,0,0,1,.75-2.3l.53.05a12.87,12.87,0,0,1,1,2c.67,2.23,1.86,3.06,4.07,2.65,2-.38,4.07-.8,5.81-1.15.86-.89,1.62-1.63,2.32-2.42.41-.46.65-1.07,1.09-1.49a8.07,8.07,0,0,1,2.59-2c.36-.13,1.23,1.17,1.85,1.84a2.66,2.66,0,0,1,.31.56,5.53,5.53,0,0,0,1.72-5.53,28.57,28.57,0,0,1-3.33.41,6.46,6.46,0,0,1-2.41-.47c-1.65-.68-1.93-2-.94-3.44.58-.87,1-1.82,1.64-2.94-2.05-.41-3,.75-3.86,1.68a10.25,10.25,0,0,0-2.81,4.71,20.53,20.53,0,0,1-2.22,5.23,2.44,2.44,0,0,1-4.22-.24c-.27-.53-.58-1-.72-1.28l-5.39.28c-.16,0-.45,0-.47-.09a23.31,23.31,0,0,1-.88-3.76c0-.42.67-1.23,1.15-1.33,2.66-.57,4.33-2.38,6-4.28,4.66-5.16,10.53-7.51,17.38-6.35,3.75.64,7.36,2.15,11,3.28.17.06.3.27.61.57-2.36,1.62-4.62.09-6.84.08.31,1.45,3,4.3,4.21,4.17.85-.09,1.63-1,2.41-1.54.43-.3.78-.71,1.2-1,.87-.59,1.79-1.12,2.66-1.71.55-.37,1.06-.81,1.59-1.23l.13.58c.5.31,1.32,1,1.47.86,2.25-1.9,5-1,7.53-1.52,1.44-.28,2.84-.82,4.29-1a2.7,2.7,0,0,1,2,.79A117.71,117.71,0,0,1,232.6,68a120.91,120.91,0,0,1,14.15,36.18c.59,2.71,1,5.46,1.47,8.26-2.12.12-3.81-.35-5-2.06-1.41-2-3.31-2.56-5.79-2.54-6,0-11.45-2-16.67-4.83-1.91-1-4-1.75-6.18-2.69-.22,2.36,0,4.16,1.69,5.61,1.21,1,2.21,2.28,3.4,3.33a2,2,0,0,0,1.46.08c1.4-.3,2.77-.73,4.17-1a2.66,2.66,0,0,1,3.08,1.3,19.13,19.13,0,0,0,2.59,2.75c1.19,1.24,1,1.5-.29,2.44-2.51,1.83-4.8,4-7.32,5.79a42.18,42.18,0,0,1-7.12,4.38c-1.91.86-4.45-1.16-5.23-3.18a48.86,48.86,0,0,0-2.88-5.5,23,23,0,0,1-1.76-3.12,7.12,7.12,0,0,0-3.76-4.56,5.16,5.16,0,0,1-2.81-3.2c-.62-1.7-1.41-3.34-2.14-5-1.45.31-1.57,1.05-1.23,2.48,1.17,5,4.35,9,6.92,13.24,2.19,3.63,4.4,7.22,5.4,11.41a5.31,5.31,0,0,0,1,2.06c.32.39,1.24.84,1.49.67,2.09-1.42,4.4-.6,6.59-.8C218.62,129.37,219.43,129.43,220,129.43Z"/><path class="cls-4" d="M88.34,66.08c-2.42,2-4.58,3.35-7.3,3.38-4,0-7.43,2.1-11.08,3.34a1.9,1.9,0,0,0-1,1.37l4.17-.39c.87-.07,1.5,0,1.47,1.21,0,.35.58.78,1,1.06.64.46,1.34.82,2.36,1.44-2.7.64-4,3.39-7.25,2.6l2.39-2.35c-.65-1.14-1.64-1-2.59-.45s-2,1.39-3,2c-1.56,1-3.18,1.86-4.75,2.84a7.52,7.52,0,0,0-1.35,1.18c-1,1-1.92,2.15-3,3a6.4,6.4,0,0,1-2.34,1c-1.16.31-2,.73-2,2.16a5,5,0,0,1-3,5A41.23,41.23,0,0,0,46.92,97c-2.3,1.51-2.72,3.61-1.81,6.34A8,8,0,0,1,45,107c0,.3-.89.67-1.34.63a1.52,1.52,0,0,1-1.08-.92c-.44-1.63-.71-3.31-1.08-5a11.29,11.29,0,0,0-.7-1.52l-.42,2.71c-.68-.82-1.12-1.33-1.54-1.87-1.4-1.79-2.86-1.81-4.28-.09-.69.83-1.46,1.6-2.28,2.5-.29-.46-.44-.74-.62-1-1.5-2.11-4-2.18-5.79-.23-1.25,1.38-2.55,2.73-3.91,4a3,3,0,0,0-1,3.64,18.85,18.85,0,0,1,.38,3.88c.34,2.88,1.77,4.37,4.62,4.72a3.06,3.06,0,0,0,3.52-1.82,5,5,0,0,1,.75-1.64c.62-.56,1.51-1.34,2.16-1.24,1.22.2,1,1.44.75,2.33-.26,1.06-.74,2.07-1,3.12-.42,1.42,0,2,1.47,2.25.17,0,.34,0,.5,0,3.88.31,4.14.61,4,4.45a17.29,17.29,0,0,0,.13,3c.29,1.91,1.74,2.43,3.51,1.95a7.29,7.29,0,0,1,3.9.35,2.58,2.58,0,0,0,3.32-1.33c.87-1.35,2.13-1.77,4-1.73l-1.11,2.29,2.28,1.06,2.1-4.42c2.29,2.78,5,3,7.88,3.13a7.63,7.63,0,0,1,3.84,2,28.87,28.87,0,0,0,9.23,5,7.46,7.46,0,0,1,2.7,1.87,16.7,16.7,0,0,1,2,2.84c1.13,1.77.92,2.51-1,3.52L79.7,146c1.49,1.35,3.23-1.68,4.43.57a4,4,0,0,0-.38.75c-.06.22-.1.58,0,.7a.77.77,0,0,0,.71.08,13.69,13.69,0,0,0,1.22-.82c1.27-.82,3.64-.28,4.06,1.14s1.3,1.12,2,.77a3.58,3.58,0,0,1,3.39.08c2.14,1,4.4,1.68,6.56,2.6a2.22,2.22,0,0,1,1.23,1.29,11.78,11.78,0,0,1-4,11,3,3,0,0,0-.8,1.78c-.27,2.52-.29,5.06-.65,7.56a14.52,14.52,0,0,1-1.41,3.83,2.67,2.67,0,0,1-2.81,1.9c-2.92,0-6.73,4.46-7.13,7.35-.58,4.2-2.26,8-6.24,10-1,.52-2.52.08-4.16.08a24.53,24.53,0,0,0,1.11,2.41c1.07,1.79,1.06,1.8-.64,3a24.85,24.85,0,0,0-2.93,2.39c-1.12,1-1.93,2.12-1.42,3.91.25.88-.34,2-.48,3a7.34,7.34,0,0,0-.1,1.93c.33,2.93.72,5.85,1.07,8.74,1.79.54,2.91,2.45,2.77,4.73a3.49,3.49,0,0,1-3.86-1.38A7.79,7.79,0,0,0,68.44,223,8.23,8.23,0,0,1,64,218.54c-.42-1-1.18-1.85-1.69-2.81a4.38,4.38,0,0,1-.47-1.62,43.1,43.1,0,0,0-.29-4.56,3.43,3.43,0,0,0-1.45-1.94c-1.66-1.07-1.32-2.85-1.34-4.2-.11-8.2-1.7-16.33-1-24.57.32-4-1.92-7-5.73-8.24a3.29,3.29,0,0,1-2.58-3.37c0-2-1.3-3.11-2.71-4.26a19.27,19.27,0,0,1-2.89-3.22,13.34,13.34,0,0,1-2-3.19,15.4,15.4,0,0,1-.61-3.61c-.07-.52.16-1.11,0-1.56-1.06-2.71-.07-5,1.3-7.27,1-1.69,2-3.38,2.89-5.16a4.68,4.68,0,0,0-.28-4.44c-1-1.79-1.61-2-3.56-1.29a3.75,3.75,0,0,1-2.2,0c-2.81-.89-4.5-3.15-6-5.48a3.55,3.55,0,0,0-3-1.93,6.25,6.25,0,0,1-4.24-2,6.19,6.19,0,0,0-5.18-2,2.59,2.59,0,0,1-1.31-.13,75.71,75.71,0,0,1-7.77-4.25c-1.85-1.26-2.41-3.25-2.06-5.67A115.86,115.86,0,0,1,18.65,81c2.09-4.71,4.68-9.19,7.16-13.71A103.72,103.72,0,0,1,37.89,50.4c.81-1,1.55-1.77,2.86-.72a1.35,1.35,0,0,0,.93.21C45.8,49.37,50,49.32,54,48a8.41,8.41,0,0,0,6-5.91c1.27-4,1.28-4,5.34-3,.83.22,1.67.38,2.57.58l-4.66,1.86,3.3,4.23,6.73-.73a22.78,22.78,0,0,1-1.72,2.48,3.19,3.19,0,0,1-1.57,1c-2.26.42-4.54.7-6.82,1.06-.25,0-.63.13-.7.3-1,2.5-3.38,2.47-5.44,3-2.78.66-4.91,2.4-6.91,4.25a3.17,3.17,0,0,0-.1,4,1.3,1.3,0,0,0,.48.4c1.25.47,2.52.89,3.77,1.35,1.54.57,3.07,1.18,4.57,1.75-.3,1.33-.63,2.83-1,4.39a2.39,2.39,0,0,0,2.89-1.13Q64.86,62.2,69,56.59c1.51-2,5.62-2.76,7.53-1.3.58.43.66,1.51.9,2.81L84,57C83.6,60.58,83.39,64.41,88.34,66.08Z"/><path class="cls-5" d="M145.8,31.55c-1.48.15-2.65.23-3.82.4-1.95.28-3.72.7-3.93,3.26A3.34,3.34,0,0,1,135.76,38c-1.74.72-3.41,1.62-5.37,2.57L134.47,43c-2.22.52-4.09,1.15-5.29-1.65l-.24.67c.51.77,1,1.54,1.59,2.43-2.64.63-5.23,1.16-7.78,1.89a11.3,11.3,0,0,0-4.22,1.77,13.83,13.83,0,0,1-7.65,3,1.55,1.55,0,0,0-1.58,1.49c-.38,2-3.76,4.35-5.76,4.22-1.43-.09-3.26-2.27-3.44-4a7.08,7.08,0,0,1,2.25-6.63c2.55-2.34,1.78-6.29-1.25-8.07-1.89-1.1-3.75-2.26-6.1-2.28-.75,0-1.49-.69-2.56-1.22,2.79-.38,5.14-.6,7.45-1.05a20.06,20.06,0,0,0,4.33-1.39,19.19,19.19,0,0,1,11.42-1.15,65.41,65.41,0,0,0,6.57.57,1.46,1.46,0,0,0,1-.13c2.46-2.11,5.66-1.3,8.42-2.16s5.3.45,7.93.76c1.85.22,3.68.6,5.51.92C145.22,31.1,145.37,31.27,145.8,31.55Z"/><path class="cls-6" d="M72.05,37.32a2.41,2.41,0,0,1,3.09-1.18A22.55,22.55,0,0,0,78,37a17.91,17.91,0,0,0,3-.1c-.32,1.49-1.35,1.78-2.52,1.83-.91.05-1.73.12-1.42,1.2,3.29,1,6.45,2,9.64,3,1,.28,1.29.71,1,1.64a3.61,3.61,0,0,0-.07.49c-.44,2.61-.17,3,2.76,3.49A8.25,8.25,0,0,1,88.52,50c-1,.44-2.22.59-3.3,1s-2.41.25-2.41,2c0,.29-.55.81-.88.84a9.2,9.2,0,0,1-3.36-.12,2.27,2.27,0,0,1-1.19-1.89A3.52,3.52,0,0,1,79,49.65a11.17,11.17,0,0,1,2.84-.73A9.62,9.62,0,0,0,83,48.44a5.79,5.79,0,0,0-.69-1.19c-2.14-2.19-4.88-3-7.83-3.26-2-.2-3.94-.4-5.89-.74-.56-.1-1.37-.61-1.48-1.08a1.45,1.45,0,0,1,1.39-1.84c1.09-.15,2.2-.17,3.28-.37a9.76,9.76,0,0,0,1.79-.73Z"/><path class="cls-7" d="M218.29,163.53a11.41,11.41,0,0,1,.13,8.87c-1.31,3-2.27,6.24-3.57,9.28-.77,1.79-3,1.91-4.39.44-2.25-2.44-2.37-3.51-.18-6.15a3.33,3.33,0,0,0,.59-3.45,3.13,3.13,0,0,1,2.17-3.67c.21,0,.51,0,.63-.12C215.23,167,216.77,165.25,218.29,163.53Z"/><path class="cls-8" d="M102.88,29.08a13.69,13.69,0,0,1-7.19,3.41,30.28,30.28,0,0,0-11.4,4.37c-.9.54-1.65.69-2.41-.36a3,3,0,0,0-1.64-.81A9.18,9.18,0,0,1,77.71,35a3.53,3.53,0,0,1,.89-.63c1.1-.33,2.23-.56,3.35-.86.36-.1.87-.21,1-.47,1.48-3,4.31-2.51,6.87-2.74a8.11,8.11,0,0,0,2.88-.36c2.86-1.47,6-.53,8.92-1.2C101.88,28.68,102.21,28.89,102.88,29.08Z"/><path class="cls-9" d="M141.37,69.4c-.18-1.64,1.79-2.86.13-4.13.94-1.82,2.51-1.87,4.07-1.74,1.35.11,2-.18,2-1.75,0-.65.69-1.37,1.2-1.94.14-.15.9,0,1.13.23a1.41,1.41,0,0,1,.35,1.22c-.43.89-.07,1.3.66,1.7.32.17.74.45.83.76a5.28,5.28,0,0,0,3.43,3.92c-1.55,2.52-5.3,3.94-6.78,2.69l1.29-.87C148,67,148,67,149.82,65.27c-1.13-.33-2.19-1-2.83-.74-2,.88-2.14,1.47-1.32,3.37Z"/><path class="cls-10" d="M134.16,53.3c-1.3-.78-2.39-1.43-3.44-2.13-.05,0,.16-.75.39-.84a10.89,10.89,0,0,1,1.75-.41,39.41,39.41,0,0,1,4.24-1.1,6.75,6.75,0,0,1,2.32.55c-.28.63-.39,1.53-.88,1.82A46.59,46.59,0,0,1,134.16,53.3Z"/><path class="cls-11" d="M86.24,71.07a4.52,4.52,0,0,1,1.31.81c.37.47.92,1.38.75,1.59a3.14,3.14,0,0,1-1.89,1.14,20.55,20.55,0,0,1-3.91-.2c-.32,0-.84-.3-.87-.51a1.39,1.39,0,0,1,.51-.94c.94-.81,1.89-1.6,2.91-2.32a2.72,2.72,0,0,1,1.83-.42Z"/></g></g></svg>