<svg xmlns="http://www.w3.org/2000/svg" width="97.406" height="39.094" viewBox="0 0 97.406 39.094">
  <metadata><?xpacket begin="﻿" id="W5M0MpCehiHzreSzNTczkc9d"?>
<x:xmpmeta xmlns:x="adobe:ns:meta/" x:xmptk="Adobe XMP Core 5.6-c142 79.160924, 2017/07/13-01:06:39        ">
   <rdf:RDF xmlns:rdf="http://www.w3.org/1999/02/22-rdf-syntax-ns#">
      <rdf:Description rdf:about=""/>
   </rdf:RDF>
</x:xmpmeta>
                                                                                                    
                                                                                                    
                                                                                                    
                                                                                                    
                                                                                                    
                                                                                                    
                                                                                                    
                                                                                                    
                                                                                                    
                                                                                                    
                                                                                                    
                                                                                                    
                                                                                                    
                                                                                                    
                                                                                                    
                                                                                                    
                                                                                                    
                                                                                                    
                                                                                                    
                                                                                                    
                           
<?xpacket end="w"?></metadata>
<defs>
    <style>
      .cls-1 {
        fill: #fff;
        fill-rule: evenodd;
      }
    </style>
  </defs>
  <path id="Фигура_3" data-name="Фигура 3" class="cls-1" d="M282.472,68.276c-0.827,2.665-5.044,11.117-4.177,13.368,2.559,6.646,21.621,6.985,25.823-4.112l1.437-3.814,0.863-2.212,1.483-.031,4.7-.145c1.671-.052,3.037-0.113,2.4,1.515s-0.978,2.2-1.98,2.659c-2.45,1.13-6.2.324-5.769,1.935,0.12,1.065,2.882,7.13,3.683,7.871,1.772,1.638,7.16,1.13,9.662.984l-3.684-7.534a3.1,3.1,0,0,0-1.051-1.194,5.523,5.523,0,0,0,1.8-.268c2.213-.633,2.387-2.18,3.936-5.724,1.314-3-.538-3.468-4.032-3.449l-2.351.012c-3.988-.025-8.057.1-12.047,0.144l-4.427.1c-2.914.063-.827-0.164-0.392,1.451,0.785,2.12-3.253,10.182-4.362,11.736-0.841,1.572-7.5,2.966-8.041.147-0.225-1.293,2.261-7.021,2.837-8.376C291.231,67.589,287.173,68.22,282.472,68.276Zm42.909,0.073c-0.795,2.584-5.043,11.117-4.177,13.367,2.56,6.646,21,7.171,25.2-3.926,0.509-1.406,2.3-6.407,1.853-8.034a1.741,1.741,0,0,0-1.42-1.411l-6.906.02c-0.637,0,.974.4,1.325,1.534,0.7,2.272-3.2,10.109-4.362,11.736-0.716,1.4-7.5,2.966-8.041.147-0.225-1.293,2.261-7.022,2.837-8.376C334.14,67.663,330.082,68.294,325.381,68.35ZM286.762,89.877a0.134,0.134,0,0,0-.029-0.127,0.174,0.174,0,0,0-.148-0.067h-2.323a0.677,0.677,0,0,0-.608.337l-2.58,3.911,0.048-3.911a0.365,0.365,0,0,0-.093-0.23,0.359,0.359,0,0,0-.289-0.108h-2.322a0.333,0.333,0,0,0-.193.067,0.288,0.288,0,0,0-.115.127,0.475,0.475,0,0,0-.023.1l0.354,6.546a0.319,0.319,0,0,0,.381.307h2.565A0.71,0.71,0,0,0,282,96.5l4.722-6.516a0.548,0.548,0,0,0,.045-0.1h0Zm9.155,2.318a3.3,3.3,0,0,1-1.359,1.751,5.174,5.174,0,0,1-2.838.648h-1.453l-0.659,1.96a0.391,0.391,0,0,1-.153.195,0.408,0.408,0,0,1-.237.081h-2.366a0.213,0.213,0,0,1-.182-0.081,0.2,0.2,0,0,1-.023-0.195l2.218-6.6a0.388,0.388,0,0,1,.153-0.194,0.406,0.406,0,0,1,.236-0.082h4.117a3.008,3.008,0,0,1,2.24.7,1.663,1.663,0,0,1,.306,1.808m-2.852-.031a0.483,0.483,0,0,0-.013-0.418,0.389,0.389,0,0,0-.363-0.163h-1.4l-0.378,1.123h1.4a0.8,0.8,0,0,0,.461-0.143,0.765,0.765,0,0,0,.293-0.4h0Zm12.375-2.482h-2.047a0.4,0.4,0,0,0-.236.082,0.391,0.391,0,0,0-.154.194l-1.009,3-1.366-3.074a0.363,0.363,0,0,0-.361-0.2h-1.783a0.4,0.4,0,0,0-.236.082,0.385,0.385,0,0,0-.154.194l-2.217,6.6a0.2,0.2,0,0,0,.023.195,0.212,0.212,0,0,0,.182.081h2.047a0.41,0.41,0,0,0,.237-0.081,0.391,0.391,0,0,0,.153-0.195l0.933-2.777,1.446,2.839a0.374,0.374,0,0,0,.368.214h1.772a0.408,0.408,0,0,0,.237-0.081,0.4,0.4,0,0,0,.153-0.195l2.217-6.6a0.2,0.2,0,0,0-.023-0.194,0.212,0.212,0,0,0-.182-0.082h0Zm15.254,2.552h0a1.616,1.616,0,0,0-.394-1.708,2.526,2.526,0,0,0-1.08-.618,5.577,5.577,0,0,0-1.726-.236,5.839,5.839,0,0,0-3.968,1.295,3.852,3.852,0,0,0-1.134,1.7L312,93.846a2.235,2.235,0,0,0-.009,1.7,1.952,1.952,0,0,0,1.124,1,5.277,5.277,0,0,0,1.884.3,7.63,7.63,0,0,0,1.973-.237,5.523,5.523,0,0,0,1.5-.618,3.43,3.43,0,0,0,1.543-1.708,0.161,0.161,0,0,0-.019-0.156,0.177,0.177,0,0,0-.149-0.065h-2.377a0.662,0.662,0,0,0-.479.261,1.762,1.762,0,0,1-.5.4,1.709,1.709,0,0,1-.756.135,1.038,1.038,0,0,1-.721-0.212,0.532,0.532,0,0,1-.1-0.608l0.519-1.545a1.077,1.077,0,0,1,.507-0.608,1.725,1.725,0,0,1,.864-0.213,1.158,1.158,0,0,1,.665.135,0.672,0.672,0,0,1,.235.4,0.293,0.293,0,0,0,.3.261h2.378a0.331,0.331,0,0,0,.192-0.065,0.308,0.308,0,0,0,.124-0.156h0Zm9.531,0.415-0.408,1.214a3.891,3.891,0,0,1-1.126,1.713,4.605,4.605,0,0,1-1.77.976,7.831,7.831,0,0,1-2.2.289,5.94,5.94,0,0,1-2-.289,1.863,1.863,0,0,1-1.114-.976,2.321,2.321,0,0,1,.032-1.733l0.395-1.175a3.866,3.866,0,0,1,1.895-2.25,6.677,6.677,0,0,1,3.207-.747,4.134,4.134,0,0,1,2.7.747,1.889,1.889,0,0,1,.39,2.231h0Zm-2.92-.155a0.543,0.543,0,0,0-.1-0.613,1.067,1.067,0,0,0-.747-0.218,1.783,1.783,0,0,0-.892.213,1.077,1.077,0,0,0-.507.608l-0.519,1.545a0.532,0.532,0,0,0,.1.608,1.086,1.086,0,0,0,.749.212,1.757,1.757,0,0,0,.893-0.217,1.092,1.092,0,0,0,.508-0.613l0.513-1.526h0Zm13.825-2.73h0a0.213,0.213,0,0,0-.182-0.082h-2.014a0.765,0.765,0,0,0-.566.276L336.1,92.41l-0.618-2.451a0.35,0.35,0,0,0-.381-0.276h-2.014a0.407,0.407,0,0,0-.237.082,0.388,0.388,0,0,0-.153.194l-2.217,6.6a0.2,0.2,0,0,0,.023.195,0.212,0.212,0,0,0,.182.081h1.992a0.407,0.407,0,0,0,.236-0.081,0.4,0.4,0,0,0,.154-0.195l1.064-3.166,0.309,1.471a0.31,0.31,0,0,0,.1.163,0.372,0.372,0,0,0,.277.092h0.749a0.725,0.725,0,0,0,.286-0.067,0.733,0.733,0,0,0,.262-0.189l1.3-1.471-1.064,3.166a0.2,0.2,0,0,0,.023.195,0.21,0.21,0,0,0,.181.081h1.993a0.407,0.407,0,0,0,.236-0.081,0.391,0.391,0,0,0,.153-0.195l2.217-6.6A0.2,0.2,0,0,0,341.13,89.765Zm-31.7,5.749a1.224,1.224,0,1,1-1.219-1.34A1.283,1.283,0,0,1,309.431,95.514Zm-32.3-26.453L264.442,74.3c2.58,0,6.063.006,7.965,0.006-0.506,2.157-4.544,6.031-7.786,5.922-3.671.194-5.967-1.608-6.776-4.061-1.2-3.645.51-8.727,2.925-10.82,2.523-2.195,5.867-2.827,8.473.176a3.027,3.027,0,0,0,3.422,1.374l4.008-1.371c0.548-.188.557-0.187,0.251-0.872-0.118-.265-0.264-0.52-0.371-0.735a11.784,11.784,0,0,0-3.793-4.286c-2.217-1.577-5.621-2.046-9.068-1.814-6.2.418-10.578,6.024-11.627,9.467-4.191,13.767,3.894,18.15,11.517,18.441,4.8,0.09,4.8,8.02,4.8,10.327,0.336-.676,8.909-19.538,10.494-25.878C278.985,68.956,278.207,68.727,277.132,69.061Z" transform="translate(-250.938 -57.75)"/>
</svg>
