<svg id="logo" xmlns="http://www.w3.org/2000/svg" width="150.094" height="58.281" viewBox="0 0 150.094 58.281">
  <metadata><?xpacket begin="﻿" id="W5M0MpCehiHzreSzNTczkc9d"?>
<x:xmpmeta xmlns:x="adobe:ns:meta/" x:xmptk="Adobe XMP Core 5.6-c142 79.160924, 2017/07/13-01:06:39        ">
   <rdf:RDF xmlns:rdf="http://www.w3.org/1999/02/22-rdf-syntax-ns#">
      <rdf:Description rdf:about=""/>
   </rdf:RDF>
</x:xmpmeta>
                                                                                                    
                                                                                                    
                                                                                                    
                                                                                                    
                                                                                                    
                                                                                                    
                                                                                                    
                                                                                                    
                                                                                                    
                                                                                                    
                                                                                                    
                                                                                                    
                                                                                                    
                                                                                                    
                                                                                                    
                                                                                                    
                                                                                                    
                                                                                                    
                                                                                                    
                                                                                                    
                           
<?xpacket end="w"?></metadata>
<defs>
    <style>
      .cls-1 {
        fill: #fff;
      }

      .cls-1, .cls-2 {
        fill-rule: evenodd;
      }

      .cls-2 {
        fill: #00cc7a;
      }
    </style>
  </defs>
  <path id="Эллипс_1" data-name="Эллипс 1" class="cls-1" d="M346.409,77.791c-4.2,11.1-22.645,10.572-25.2,3.926-0.866-2.251,3.382-10.783,4.177-13.367,4.7-.056,8.759-0.687,6.314,5.057-0.576,1.354-3.062,7.083-2.837,8.376,0.544,2.82,7.325,1.255,8.041-.147,1.161-1.626,5.067-9.463,4.362-11.736-0.351-1.133-1.962-1.533-1.325-1.534l6.906-.02a1.741,1.741,0,0,1,1.42,1.411C348.71,71.385,346.918,76.385,346.409,77.791ZM317.665,77.3a5.523,5.523,0,0,1-1.8.268,3.1,3.1,0,0,1,1.051,1.194l3.684,7.534c-2.5.146-7.89,0.654-9.662-.984-0.8-.74-3.563-6.806-3.683-7.871-0.428-1.611,3.319-.805,5.769-1.935,1-.462,1.349-1.046,1.98-2.659s-0.729-1.567-2.4-1.515l-4.7.145-1.483.031-0.863,2.212-1.437,3.814c-4.2,11.1-23.264,10.758-25.823,4.112-0.867-2.251,3.35-10.7,4.177-13.368,4.7-.056,8.759-0.687,6.314,5.057-0.576,1.355-3.062,7.082-2.837,8.376,0.544,2.82,7.2,1.425,8.041-.147,1.109-1.554,5.147-9.616,4.362-11.736-0.435-1.615-2.522-1.388.392-1.451l4.427-.1c3.99-.047,8.059-0.168,12.047-0.144l2.351-.012c3.494-.019,5.346.445,4.032,3.449C320.052,75.116,319.878,76.664,317.665,77.3Zm-49.287,18.76c0-2.306,0-10.237-4.8-10.327-6.439-.246-13.207-3.412-12.628-12.687a4.374,4.374,0,0,1-2.409-.4c-1.017-.485-0.785-0.52-1.98-0.038a80.318,80.318,0,0,0-6.767,4.359,23.076,23.076,0,0,1,.739,4.115,15.154,15.154,0,0,1-.471,4.382c-0.1.057-2.314,1.174-5.2,2.629a25.309,25.309,0,0,0,1.918-6.648c0.087-.94.142-1.79-0.691-1.533l-9.869,4.031c2,0,4.646.005,6.121,0.005-0.392,1.659-3.468,4.64-5.982,4.556-2.39.125-4.07-.832-4.853-2.26-1.535-2.8-.208-7.4,1.866-9.188,1.957-1.688,4.55-2.175,6.571.136a2.355,2.355,0,0,0,2.654,1.057l3.108-1.055c0.425-.145.431-0.144,0.195-0.671-0.092-.2-0.2-0.4-0.288-0.564a9.1,9.1,0,0,0-2.941-3.3c-1.72-1.213-4.359-1.575-7.033-1.4-4.806.321-8.2,4.634-9.016,7.283-3.25,10.591,3.02,13.963,8.931,14.186,0.029,0,.056,0,0.085.006-2.709,1.363-4.716,2.373-4.731,2.38a22.29,22.29,0,0,1-4.12,1.6,8.821,8.821,0,0,1-3.724-.192c-2.577-.6-5.234-3.5-6.444-5.887-0.957-1.885-1.419-5.083.8-5.815,2.326-.77,3.934.829,5.532,1.633a20.587,20.587,0,0,1,.629-9.732,29.1,29.1,0,0,0-5.383-3.57c-3.162-1.609-2.74-.709-4.072-0.29a4.476,4.476,0,0,1-5.557-2.832c-1.969-5.441,6-8.828,8.38-3.35,1.034,2.38-.8,2.517,1.545,4.116A8.364,8.364,0,0,0,213.12,72.1a11.667,11.667,0,0,0,2.729-.228,2.612,2.612,0,0,0,1.843-1.022,14.358,14.358,0,0,1,3.687-2.289,12.731,12.731,0,0,1,2.265-.718c2.016-.423,2.025-2.571,0-2.971a65.007,65.007,0,0,1-6.853-1.958c-1.768-.607-5.017-1.544-5.864-3.093-0.546-1-2.361-9.769-1.025-10.741,1.791-1.3,11.938-1.818,14.27-1.716v0.027a2.266,2.266,0,1,0,4.531,0c0-.014,0-0.028,0-0.041a63.456,63.456,0,0,1,8.968.54,28.1,28.1,0,0,1,4.069.681,2.39,2.39,0,0,1,1.578.814c0.648,1.472-.575,8.863-1.313,10.442-0.865,1.852-7.452,3.66-9.881,4.323-1.955.533-5.1,0.623-4.493,2.579,0.411,1.319,1.892.679,4.93,2.12,3.811,1.806,2.617,2.833,6.349,3.194a11.294,11.294,0,0,0,4.27-.355,7.436,7.436,0,0,0,2.917-1.717c-0.149-1.983-.27-3.284.938-4.52a4.376,4.376,0,0,1,6.154-.606c1.891-3.168,5.63-6.7,10.5-7.026,3.447-.232,6.851.237,9.068,1.814a11.784,11.784,0,0,1,3.793,4.286c0.107,0.214.253,0.47,0.371,0.735,0.306,0.684.3,0.684-.251,0.872L272.665,66.9a3.027,3.027,0,0,1-3.422-1.374c-2.606-3-5.95-2.371-8.473-.176-2.415,2.093-4.129,7.174-2.925,10.82,0.809,2.453,3.1,4.255,6.776,4.061,3.242,0.11,7.28-3.765,7.786-5.922-1.9,0-5.385-.006-7.965-0.006l12.69-5.241c1.075-.334,1.853-0.1,1.74,1.118C277.287,76.519,268.714,95.381,268.378,96.056Zm-65.962-29.7c-2.627.532-2.057,4.805,0.86,4.212C205.923,70.029,205.089,65.814,202.416,66.354ZM213.16,53.537a5.69,5.69,0,0,0,.114,1.6,1.743,1.743,0,0,0,1.51,1.345,39.343,39.343,0,0,0,2.646-4.206C215.963,52.344,213.346,52.3,213.16,53.537Zm8.049-1.45c-0.521,1.093-1.136,1.214-1.7,2.32a34.689,34.689,0,0,0-1.637,3.417l1.21,0.492,3.634-6.229h-1.507Zm7.965,7.357A64.267,64.267,0,0,0,239,56.156c0.654-.343.705-0.707,0.813-1.842,0.243-2.537-.141-1.657-2.363-1.916a111.618,111.618,0,0,0-12.94-.375,76.429,76.429,0,0,0-3.957,6.823c1.333,0.259,2.632.724,4.133,0.968A8.639,8.639,0,0,0,229.174,59.444Zm20.9,6.908a2.134,2.134,0,0,0,.751,4.2A1.824,1.824,0,0,0,251.3,70.4a29.227,29.227,0,0,1,.766-3.108c0.011-.035.027-0.073,0.038-0.108A2,2,0,0,0,250.077,66.352ZM234.508,90.306s6.783-3.469,9.04-4.635c1.645-.85,3.907-1.516,4.954.167,1.817,2.923-3.073,9.462-5.948,10.733a7.6,7.6,0,0,1-2.956.3c-2.282-.006-17.78.087-18.576-0.128C222.926,96.513,231.437,91.9,234.508,90.306Zm43.717-.556a0.333,0.333,0,0,1,.193-0.067h2.322a0.359,0.359,0,0,1,.289.108,0.365,0.365,0,0,1,.093.23l-0.048,3.911,2.58-3.911a0.677,0.677,0,0,1,.608-0.337h2.323a0.174,0.174,0,0,1,.148.067,0.134,0.134,0,0,1,.029.127,0.548,0.548,0,0,1-.045.1L282,96.5a0.71,0.71,0,0,1-.608.337h-2.565a0.319,0.319,0,0,1-.381-0.307l-0.354-6.546a0.475,0.475,0,0,1,.023-0.1A0.288,0.288,0,0,1,278.225,89.75Zm10.793,0.016a0.406,0.406,0,0,1,.236-0.082h4.117a3.008,3.008,0,0,1,2.24.7,1.663,1.663,0,0,1,.306,1.808,3.3,3.3,0,0,1-1.359,1.751,5.174,5.174,0,0,1-2.838.648h-1.453l-0.659,1.96a0.391,0.391,0,0,1-.153.195,0.408,0.408,0,0,1-.237.081h-2.366a0.213,0.213,0,0,1-.182-0.081,0.2,0.2,0,0,1-.023-0.195l2.218-6.6A0.388,0.388,0,0,1,289.018,89.765Zm3.293,2.941a0.8,0.8,0,0,0,.461-0.143,0.765,0.765,0,0,0,.293-0.4,0.483,0.483,0,0,0-.013-0.418,0.389,0.389,0,0,0-.363-0.163h-1.4l-0.378,1.123h1.4Zm5.937-2.941a0.4,0.4,0,0,1,.236-0.082h1.783a0.363,0.363,0,0,1,.361.2l1.366,3.074,1.009-3a0.391,0.391,0,0,1,.154-0.194,0.4,0.4,0,0,1,.236-0.082h2.047a0.212,0.212,0,0,1,.182.082,0.2,0.2,0,0,1,.023.194l-2.217,6.6a0.4,0.4,0,0,1-.153.195,0.408,0.408,0,0,1-.237.081h-1.772a0.374,0.374,0,0,1-.368-0.214l-1.446-2.839-0.933,2.777a0.391,0.391,0,0,1-.153.195,0.41,0.41,0,0,1-.237.081h-2.047a0.212,0.212,0,0,1-.182-0.081,0.2,0.2,0,0,1-.023-0.195l2.217-6.6A0.385,0.385,0,0,1,298.248,89.765Zm9.964,4.409a1.345,1.345,0,1,1-1.219,1.34A1.284,1.284,0,0,1,308.212,94.175Zm4.18-1.5a3.852,3.852,0,0,1,1.134-1.7,5.839,5.839,0,0,1,3.968-1.295,5.577,5.577,0,0,1,1.726.236,2.526,2.526,0,0,1,1.08.618,1.616,1.616,0,0,1,.394,1.708,0.308,0.308,0,0,1-.124.156,0.331,0.331,0,0,1-.192.065H318a0.293,0.293,0,0,1-.3-0.261,0.672,0.672,0,0,0-.235-0.4,1.158,1.158,0,0,0-.665-0.135,1.725,1.725,0,0,0-.864.213,1.077,1.077,0,0,0-.507.608l-0.519,1.545a0.532,0.532,0,0,0,.1.608,1.038,1.038,0,0,0,.721.212,1.709,1.709,0,0,0,.756-0.135,1.762,1.762,0,0,0,.5-0.4,0.662,0.662,0,0,1,.479-0.261h2.377a0.177,0.177,0,0,1,.149.065,0.161,0.161,0,0,1,.019.156,3.43,3.43,0,0,1-1.543,1.708,5.523,5.523,0,0,1-1.5.618,7.63,7.63,0,0,1-1.973.237,5.277,5.277,0,0,1-1.884-.3,1.952,1.952,0,0,1-1.124-1,2.235,2.235,0,0,1,.009-1.7Zm9.637,0a3.866,3.866,0,0,1,1.895-2.25,6.677,6.677,0,0,1,3.207-.747,4.134,4.134,0,0,1,2.7.747,1.889,1.889,0,0,1,.39,2.231l-0.408,1.214a3.891,3.891,0,0,1-1.126,1.713,4.605,4.605,0,0,1-1.77.976,7.831,7.831,0,0,1-2.2.289,5.94,5.94,0,0,1-2-.289,1.863,1.863,0,0,1-1.114-.976,2.321,2.321,0,0,1,.032-1.733Zm2.613,1.968a1.086,1.086,0,0,0,.749.212,1.757,1.757,0,0,0,.893-0.217,1.092,1.092,0,0,0,.508-0.613l0.513-1.526a0.543,0.543,0,0,0-.1-0.613,1.067,1.067,0,0,0-.747-0.218,1.783,1.783,0,0,0-.892.213,1.077,1.077,0,0,0-.507.608l-0.519,1.545A0.532,0.532,0,0,0,324.642,94.638Zm8.21-4.873a0.407,0.407,0,0,1,.237-0.082H335.1a0.35,0.35,0,0,1,.381.276L336.1,92.41l2.266-2.451a0.765,0.765,0,0,1,.566-0.276h2.014a0.213,0.213,0,0,1,.182.082,0.2,0.2,0,0,1,.022.194l-2.217,6.6a0.391,0.391,0,0,1-.153.195,0.407,0.407,0,0,1-.236.081h-1.993a0.21,0.21,0,0,1-.181-0.081,0.2,0.2,0,0,1-.023-0.195l1.064-3.166-1.3,1.471a0.733,0.733,0,0,1-.262.189,0.725,0.725,0,0,1-.286.067h-0.749a0.372,0.372,0,0,1-.277-0.092,0.31,0.31,0,0,1-.1-0.163l-0.309-1.471-1.064,3.166a0.4,0.4,0,0,1-.154.195,0.407,0.407,0,0,1-.236.081h-1.992a0.212,0.212,0,0,1-.182-0.081,0.2,0.2,0,0,1-.023-0.195l2.217-6.6A0.388,0.388,0,0,1,332.852,89.765Z" transform="translate(-198.25 -38.625)"/>
  <path id="Эллипс_2" data-name="Эллипс 2" class="cls-2" d="M224.726,40.842c4.023-1.173,6.3,1.677,6.934,1.886a2.1,2.1,0,0,0,1.1-1.254c-0.106-.779-2.795-2.3-4.318-2.648a8.465,8.465,0,0,0-7.267,1.736c-0.329.292-1.061,0.723-.718,1.282C221.693,43.857,221.915,41.661,224.726,40.842Zm5.133,3.9c0.948-1.248-2.478-2.508-4.278-2.083a4.247,4.247,0,0,0-1.852.845c-0.8.567-.9,0.808-0.176,1.549,1.287,1.317,1.3-1.289,3.883-.4a3.23,3.23,0,0,1,.865.457C228.653,45.376,229.009,45.86,229.859,44.741Zm-3.4,1.491a1.145,1.145,0,1,0,1.12,1.145A1.135,1.135,0,0,0,226.462,46.232Z" transform="translate(-198.25 -38.625)"/>
</svg>
