<svg xmlns="http://www.w3.org/2000/svg" width="94" height="38" viewBox="0 0 94 38">
  <metadata><?xpacket begin="﻿" id="W5M0MpCehiHzreSzNTczkc9d"?>
<x:xmpmeta xmlns:x="adobe:ns:meta/" x:xmptk="Adobe XMP Core 5.6-c142 79.160924, 2017/07/13-01:06:39        ">
   <rdf:RDF xmlns:rdf="http://www.w3.org/1999/02/22-rdf-syntax-ns#">
      <rdf:Description rdf:about=""/>
   </rdf:RDF>
</x:xmpmeta>
                                                                                                    
                                                                                                    
                                                                                                    
                                                                                                    
                                                                                                    
                                                                                                    
                                                                                                    
                                                                                                    
                                                                                                    
                                                                                                    
                                                                                                    
                                                                                                    
                                                                                                    
                                                                                                    
                                                                                                    
                                                                                                    
                                                                                                    
                                                                                                    
                                                                                                    
                                                                                                    
                           
<?xpacket end="w"?></metadata>
<defs>
    <style>
      .cls-1 {
        fill: #0064a5;
        fill-rule: evenodd;
      }
    </style>
  </defs>
  <path id="Фигура_3_копия" data-name="Фигура 3 копия" class="cls-1" d="M229.452,3993.22c-0.8,2.59-4.866,10.8-4.03,12.99,2.469,6.46,20.858,6.79,24.912-4l1.386-3.7,0.834-2.15,1.43-.04,4.536-.14c1.613-.05,2.931-0.1,2.316,1.48s-0.944,2.13-1.911,2.58c-2.363,1.1-5.978.32-5.565,1.88,0.116,1.04,2.78,6.93,3.553,7.65,1.709,1.6,6.908,1.1,9.322.96l-3.554-7.32a2.95,2.95,0,0,0-1.015-1.16,5.427,5.427,0,0,0,1.737-.26c2.136-.62,2.3-2.12,3.8-5.57,1.267-2.92-.52-3.37-3.891-3.35l-2.268.01c-3.847-.02-7.772.09-11.623,0.14l-4.27.09c-2.812.06-.8-0.16-0.378,1.41,0.757,2.06-3.139,9.9-4.209,11.41-0.811,1.53-7.232,2.89-7.757.14-0.217-1.25,2.181-6.82,2.737-8.14C237.9,3992.55,233.987,3993.16,229.452,3993.22Zm41.4,0.07c-0.767,2.51-4.866,10.8-4.03,12.99,2.47,6.46,20.263,6.97,24.317-3.81,0.491-1.37,2.22-6.23,1.788-7.81a1.7,1.7,0,0,0-1.37-1.38l-6.663.02c-0.614,0,.94.39,1.279,1.49,0.679,2.21-3.089,9.83-4.209,11.41-0.691,1.37-7.233,2.89-7.757.15-0.217-1.26,2.181-6.83,2.737-8.15C279.3,3992.62,275.384,3993.23,270.848,3993.29Zm-37.258,20.92a0.125,0.125,0,0,0-.027-0.12,0.173,0.173,0,0,0-.143-0.06h-2.241a0.663,0.663,0,0,0-.587.32l-2.49,3.81,0.047-3.81a0.343,0.343,0,0,0-.09-0.22,0.34,0.34,0,0,0-.278-0.1H225.54a0.331,0.331,0,0,0-.186.06,0.256,0.256,0,0,0-.11.12,0.475,0.475,0,0,0-.023.1l0.341,6.37a0.309,0.309,0,0,0,.368.3H228.4a0.683,0.683,0,0,0,.587-0.33l4.555-6.34a0.365,0.365,0,0,0,.044-0.1h0Zm8.833,2.26a3.22,3.22,0,0,1-1.312,1.7,4.963,4.963,0,0,1-2.737.63h-1.4l-0.636,1.91a0.423,0.423,0,0,1-.148.19,0.41,0.41,0,0,1-.228.08h-2.283a0.211,0.211,0,0,1-.175-0.08,0.2,0.2,0,0,1-.022-0.19l2.139-6.42a0.356,0.356,0,0,1,.148-0.18,0.346,0.346,0,0,1,.228-0.08h3.971a2.871,2.871,0,0,1,2.161.68,1.63,1.63,0,0,1,.3,1.76m-2.751-.03a0.486,0.486,0,0,0-.013-0.41,0.389,0.389,0,0,0-.351-0.16h-1.349l-0.364,1.09h1.349a0.77,0.77,0,0,0,.444-0.13,0.807,0.807,0,0,0,.284-0.39h0Zm11.938-2.41h-1.975a0.348,0.348,0,0,0-.228.08,0.361,0.361,0,0,0-.148.18l-0.973,2.92-1.319-2.99a0.346,0.346,0,0,0-.348-0.19H244.9a0.346,0.346,0,0,0-.228.08,0.356,0.356,0,0,0-.148.18l-2.139,6.42a0.2,0.2,0,0,0,.022.19,0.211,0.211,0,0,0,.175.08h1.976a0.415,0.415,0,0,0,.228-0.08,0.438,0.438,0,0,0,.148-0.19l0.9-2.7,1.4,2.76a0.359,0.359,0,0,0,.355.21h1.71a0.415,0.415,0,0,0,.228-0.08,0.438,0.438,0,0,0,.148-0.19l2.139-6.42a0.183,0.183,0,0,0-.022-0.18,0.189,0.189,0,0,0-.176-0.08h0Zm14.717,2.48h0a1.576,1.576,0,0,0-.381-1.66,2.369,2.369,0,0,0-1.042-.6,5.16,5.16,0,0,0-1.665-.23,5.647,5.647,0,0,0-3.828,1.25,3.821,3.821,0,0,0-1.094,1.66l-0.381,1.14a2.189,2.189,0,0,0-.009,1.65,1.9,1.9,0,0,0,1.084.97,4.991,4.991,0,0,0,1.819.3,7.45,7.45,0,0,0,1.9-.23,5.446,5.446,0,0,0,1.442-.61,3.305,3.305,0,0,0,1.489-1.66,0.16,0.16,0,0,0-.019-0.15,0.173,0.173,0,0,0-.143-0.06h-2.294a0.629,0.629,0,0,0-.462.25,1.746,1.746,0,0,1-.484.39,1.593,1.593,0,0,1-.728.13,0.987,0.987,0,0,1-.7-0.21,0.515,0.515,0,0,1-.1-0.59l0.5-1.5a1.04,1.04,0,0,1,.489-0.59,1.63,1.63,0,0,1,.834-0.21,1.175,1.175,0,0,1,.641.13,0.674,0.674,0,0,1,.227.39,0.279,0.279,0,0,0,.293.25h2.293a0.331,0.331,0,0,0,.186-0.06,0.289,0.289,0,0,0,.12-0.15h0Zm9.194,0.4-0.394,1.18a3.787,3.787,0,0,1-1.086,1.67,4.4,4.4,0,0,1-1.707.94,7.4,7.4,0,0,1-2.122.29,5.6,5.6,0,0,1-1.935-.29,1.787,1.787,0,0,1-1.075-.94,2.289,2.289,0,0,1,.031-1.69l0.381-1.14a3.755,3.755,0,0,1,1.829-2.19,6.438,6.438,0,0,1,3.093-.72,3.988,3.988,0,0,1,2.609.72,1.849,1.849,0,0,1,.376,2.17h0Zm-2.817-.15a0.535,0.535,0,0,0-.093-0.6,1.027,1.027,0,0,0-.721-0.21,1.677,1.677,0,0,0-.859.21,1.038,1.038,0,0,0-.49.59l-0.5,1.5a0.515,0.515,0,0,0,.095.59,1.033,1.033,0,0,0,.722.21,1.691,1.691,0,0,0,.862-0.21,1.055,1.055,0,0,0,.491-0.6l0.494-1.48h0Zm13.338-2.65h0a0.19,0.19,0,0,0-.176-0.08h-1.943a0.758,0.758,0,0,0-.546.26l-2.186,2.39-0.6-2.39a0.34,0.34,0,0,0-.367-0.26h-1.944a0.348,0.348,0,0,0-.228.08,0.367,0.367,0,0,0-.148.18l-2.139,6.42a0.2,0.2,0,0,0,.022.19,0.213,0.213,0,0,0,.176.08h1.922a0.415,0.415,0,0,0,.228-0.08,0.438,0.438,0,0,0,.148-0.19l1.026-3.08,0.3,1.43a0.287,0.287,0,0,0,.1.16,0.357,0.357,0,0,0,.268.09h0.722a0.606,0.606,0,0,0,.276-0.07,0.652,0.652,0,0,0,.253-0.18l1.252-1.43-1.027,3.08a0.2,0.2,0,0,0,.022.19,0.212,0.212,0,0,0,.175.08h1.922a0.415,0.415,0,0,0,.229-0.08,0.438,0.438,0,0,0,.148-0.19l2.139-6.42A0.183,0.183,0,0,0,286.042,4014.11Zm-30.582,5.58a1.182,1.182,0,1,1-1.176-1.3A1.241,1.241,0,0,1,255.46,4019.69Zm-31.16-25.71-12.243,5.09c2.489,0,5.849.01,7.684,0.01-0.488,2.1-4.384,5.86-7.511,5.76-3.542.19-5.756-1.57-6.538-3.95a11.2,11.2,0,0,1,2.822-10.52c2.434-2.13,5.66-2.75,8.175.17a2.92,2.92,0,0,0,3.3,1.34l3.867-1.34c0.529-.18.537-0.18,0.242-0.84-0.114-.26-0.255-0.51-0.358-0.72a11.4,11.4,0,0,0-3.659-4.16c-2.139-1.54-5.423-1.99-8.749-1.77-5.979.41-10.205,5.86-11.217,9.21-4.043,13.38,3.757,17.64,11.112,17.92,4.626,0.09,4.627,7.8,4.627,10.04,0.324-.66,8.594-18.99,10.124-25.15C226.087,3993.88,225.337,3993.65,224.3,3993.98Z" transform="translate(-199 -3983)"/>
</svg>
