<svg xmlns="http://www.w3.org/2000/svg" xmlns:xlink="http://www.w3.org/1999/xlink" viewBox="0 0 77.57 140.75"><defs><style>.cls-1{opacity:0;fill:url(#Безымянный_градиент_18);}.cls-2,.cls-3,.cls-4{fill:none;stroke:#c0cee7;stroke-miterlimit:10;}.cls-2{stroke-width:0.5px;}.cls-3{stroke-width:0.75px;}.cls-4{stroke-width:0.25px;}.cls-5{fill:#fff;opacity:0.5;}</style><linearGradient id="Безымянный_градиент_18" x1="16.11" y1="7.14" x2="48.61" y2="48.64" gradientUnits="userSpaceOnUse"><stop offset="0.01" stop-color="#dbffee"/><stop offset="1" stop-color="#c9ddff" stop-opacity="0"/></linearGradient></defs><title>Phone_2</title><g id="Слой_2" data-name="Слой 2"><g id="Режим_изоляции" data-name="Режим изоляции"><path class="cls-1" d="M4.42,59.41V17.65c0-8,6.61-13.81,14.22-14.48,0,0,10.6-1,19.79-1,10,0,20.5,1,20.5,1,7.91.61,14.22,6.52,14.22,14.48v6.67Z"/><path class="cls-2" d="M1.53,40.37h1v9.34H1.8A1.52,1.52,0,0,1,.25,48.24V41.59A1.26,1.26,0,0,1,1.53,40.37Z"/><path class="cls-2" d="M1.53,28.94h1v9.33H1.8A1.52,1.52,0,0,1,.25,36.81V30.15A1.25,1.25,0,0,1,1.53,28.94Z"/><path class="cls-2" d="M76,64.38H75V52.62h.73a1.73,1.73,0,0,1,1.56,1.85v8.38A1.43,1.43,0,0,1,76,64.38Z"/><path class="cls-3" d="M60,139.37s-15.43,1-21.25,1-21.25-1-21.25-1a15,15,0,0,1-15-15v-108c0-8.25,7-14.31,15-15,0,0,11.18-1,20.88-1C49,.38,60,1.38,60,1.38c8.35.62,15,6.74,15,15v108A15,15,0,0,1,60,139.37Z"/><rect class="cls-2" x="8.06" y="15.82" width="61.45" height="106.55"/><rect class="cls-2" x="31.78" y="8.37" width="15" height="3" rx="1.5" ry="1.5"/><circle class="cls-4" cx="27.28" cy="9.87" r="1.74"/><circle class="cls-4" cx="22.28" cy="9.87" r="1.74"/><circle class="cls-4" cx="54.28" cy="9.87" r="2.2" transform="translate(29.44 59.14) rotate(-73.55)"/><path class="cls-5" d="M48.82,55.73a1.71,1.71,0,0,0-1.73,1.68V64a1.73,1.73,0,0,0,3.45,0V57.41A1.7,1.7,0,0,0,48.82,55.73Zm-19.75,0a1.7,1.7,0,0,0-1.72,1.68V64a1.73,1.73,0,0,0,3.45,0V57.41A1.7,1.7,0,0,0,29.07,55.73Zm2.39,12A1.31,1.31,0,0,0,32.76,69h1.48v3.68a1.67,1.67,0,1,0,3.33,0V69h2.59v3.68a1.67,1.67,0,1,0,3.33,0V69H45a1.31,1.31,0,0,0,1.3-1.31V55.76H31.46ZM42.92,50.08l.77-1.33a.55.55,0,0,0-.21-.77.56.56,0,0,0-.77.2l-.83,1.44a8.54,8.54,0,0,0-5.87,0l-.83-1.44a.56.56,0,0,0-.77-.2.55.55,0,0,0-.21.77L35,50.08a6.37,6.37,0,0,0-3.49,5H46.4A6.38,6.38,0,0,0,42.92,50.08ZM35.8,53.17a.82.82,0,1,1,0-1.64.82.82,0,0,1,0,1.64Zm6.39,0a.82.82,0,1,1,.83-.82A.82.82,0,0,1,42.19,53.17Z"/><rect class="cls-2" x="28.23" y="127.2" width="21.11" height="7.34" rx="2.17" ry="2.17"/></g></g></svg>