<svg xmlns="http://www.w3.org/2000/svg" xmlns:xlink="http://www.w3.org/1999/xlink" viewBox="0 0 78.25 142.75"><defs><style>.cls-1{opacity:0;fill:url(#Безымянный_градиент_18);}.cls-2,.cls-3,.cls-4{fill:none;stroke:#c0cee7;stroke-miterlimit:10;}.cls-2{stroke-width:0.5px;}.cls-3{stroke-width:0.75px;}.cls-4{stroke-width:0.25px;}.cls-5{fill:#fff;opacity:0.5;}</style><linearGradient id="Безымянный_градиент_18" x1="14.13" y1="2.92" x2="49.9" y2="44.38" gradientUnits="userSpaceOnUse"><stop offset="0.01" stop-color="#dbffee"/><stop offset="1" stop-color="#c9ddff" stop-opacity="0"/></linearGradient></defs><title>phone_1</title><g id="Слой_2" data-name="Слой 2"><g id="Режим_изоляции" data-name="Режим изоляции"><path class="cls-1" d="M5.12,56.75V10.06a7.71,7.71,0,0,1,7.71-7.71H65.56a7.71,7.71,0,0,1,7.71,7.71v6.76Z"/><path class="cls-2" d="M.25,28.37h.9A1.67,1.67,0,0,1,2.81,30v9.67a1.67,1.67,0,0,1-1.67,1.67H.25a0,0,0,0,1,0,0v-13a0,0,0,0,1,0,0Z" transform="translate(3.06 69.75) rotate(-180)"/><path class="cls-2" d="M.25,43.56h.9a1.67,1.67,0,0,1,1.67,1.67V54.9a1.67,1.67,0,0,1-1.67,1.67H.25a0,0,0,0,1,0,0v-13A0,0,0,0,1,.25,43.56Z" transform="translate(3.06 100.12) rotate(-180)"/><path class="cls-2" d="M75.44,21.37h.9A1.67,1.67,0,0,1,78,23v9.67a1.67,1.67,0,0,1-1.67,1.67h-.9a0,0,0,0,1,0,0v-13A0,0,0,0,1,75.44,21.37Z"/><rect class="cls-3" x="2.94" y="0.38" width="72.5" height="142" rx="9.12" ry="9.12"/><rect class="cls-2" x="8.46" y="14.82" width="61.45" height="109.38"/><rect class="cls-2" x="32.19" y="6.37" width="15" height="3" rx="1.5" ry="1.5"/><circle class="cls-4" cx="25.69" cy="7.87" r="2.34"/><circle class="cls-2" cx="39.19" cy="132.87" r="5.5"/><path class="cls-5" d="M45.36,61.19a4.69,4.69,0,0,0,3.5,4.51c-1.25,3.64-4,6.19-5.16,6.23-1.88.07-1.74-1-3.89-.89s-1.32.75-3.33.89S29,64,30.92,58.71,38.35,56,39.81,56s4.87-2.36,8.24,1A4.68,4.68,0,0,0,45.36,61.19Zm-5.55-6.33s-.87-4.17,3.89-5.51A5,5,0,0,1,39.81,54.86Z"/></g></g></svg>