<svg xmlns="http://www.w3.org/2000/svg" xmlns:xlink="http://www.w3.org/1999/xlink" viewBox="0 0 34 47.36"><defs><style>.cls-1{fill:url(#Безымянный_градиент_19);}.cls-2{fill:#fff;}</style><linearGradient id="Безымянный_градиент_19" x1="17" y1="-0.05" x2="17" y2="42.66" gradientUnits="userSpaceOnUse"><stop offset="0" stop-color="#e61c7e"/><stop offset="1" stop-color="#fc520f"/></linearGradient></defs><title>PIN_red</title><g id="Слой_2" data-name="Слой 2"><g id="Слой_1-2" data-name="Слой 1"><path class="cls-1" d="M31,17c0,12.94-14,26.22-14,26.22S3,29.94,3,17a14,14,0,0,1,28,0Z"/><path class="cls-2" d="M17,3A14,14,0,0,1,31,17c0,12.94-14,26.22-14,26.22S3,29.94,3,17A14,14,0,0,1,17,3m0-3A17,17,0,0,0,0,17C0,31.07,14.33,44.82,14.94,45.4l2.06,2,2.07-2C19.68,44.82,34,31.07,34,17A17,17,0,0,0,17,0Z"/><circle class="cls-2" cx="16.38" cy="17.32" r="5.09"/></g></g></svg>