<svg xmlns="http://www.w3.org/2000/svg" xmlns:xlink="http://www.w3.org/1999/xlink" viewBox="0 0 36 49.74"><defs><style>.cls-1{fill:url(#Безымянный_градиент_36);}.cls-2{fill:#fff;}</style><linearGradient id="Безымянный_градиент_36" x1="18" y1="6.62" x2="18" y2="42.24" gradientUnits="userSpaceOnUse"><stop offset="0" stop-color="#24bf8b"/><stop offset="1" stop-color="#0b6ea6"/></linearGradient></defs><title>PIN_green</title><g id="Слой_2" data-name="Слой 2"><g id="Слой_1-2" data-name="Слой 1"><path class="cls-1" d="M32,18c0,12.94-14,26.22-14,26.22S4,30.94,4,18a14,14,0,0,1,28,0Z"/><path class="cls-2" d="M18,4A14,14,0,0,1,32,18c0,12.94-14,26.22-14,26.22S4,30.94,4,18A14,14,0,0,1,18,4m0-4A18,18,0,0,0,0,18C0,32.49,14.63,46.53,15.25,47.12L18,49.74l2.75-2.62C21.38,46.53,36,32.49,36,18A18,18,0,0,0,18,0Z"/><circle class="cls-2" cx="17.38" cy="18.32" r="5.09"/></g></g></svg>