<svg xmlns="http://www.w3.org/2000/svg" width="27.875" height="27.91" viewBox="0 0 27.875 27.91">
  <metadata><?xpacket begin="﻿" id="W5M0MpCehiHzreSzNTczkc9d"?>
<x:xmpmeta xmlns:x="adobe:ns:meta/" x:xmptk="Adobe XMP Core 5.6-c142 79.160924, 2017/07/13-01:06:39        ">
   <rdf:RDF xmlns:rdf="http://www.w3.org/1999/02/22-rdf-syntax-ns#">
      <rdf:Description rdf:about=""/>
   </rdf:RDF>
</x:xmpmeta>
                                                                                                    
                                                                                                    
                                                                                                    
                                                                                                    
                                                                                                    
                                                                                                    
                                                                                                    
                                                                                                    
                                                                                                    
                                                                                                    
                                                                                                    
                                                                                                    
                                                                                                    
                                                                                                    
                                                                                                    
                                                                                                    
                                                                                                    
                                                                                                    
                                                                                                    
                                                                                                    
                           
<?xpacket end="w"?></metadata>
<defs>
    <style>
      .cls-1 {
        fill: #838383;
        fill-rule: evenodd;
      }
    </style>
  </defs>
  <path id="Фигура_2" data-name="Фигура 2" class="cls-1" d="M638.438,4164.85a7.74,7.74,0,0,1-11.361,6.7,13.942,13.942,0,0,1-2.436.22,13.21,13.21,0,0,1-13.3-13.12,12.963,12.963,0,0,1,.269-2.63,7.538,7.538,0,0,1-1.06-3.85,7.658,7.658,0,0,1,7.715-7.61,7.741,7.741,0,0,1,4.1,1.17,13.282,13.282,0,0,1,15.577,12.92,12.976,12.976,0,0,1-.307,2.82A7.477,7.477,0,0,1,638.438,4164.85ZM636,4158.5a11.5,11.5,0,0,0-11.5-11.5,11.9,11.9,0,0,0-2.25.22,6.475,6.475,0,0,0-9.029,9.04,11.465,11.465,0,0,0,13.927,13.42,6.169,6.169,0,0,0,8.547-8.59A11.446,11.446,0,0,0,636,4158.5Zm-8.568,5.98a7.654,7.654,0,0,1-2.926.51,7.116,7.116,0,0,1-3.355-.7,4.376,4.376,0,0,1-1.542-1.37,2.938,2.938,0,0,1-.6-1.68,1.206,1.206,0,0,1,.39-0.89,1.381,1.381,0,0,1,.978-0.36,1.247,1.247,0,0,1,.825.29,2.1,2.1,0,0,1,.55.8,4.624,4.624,0,0,0,.537.95,2.125,2.125,0,0,0,.786.61,3.244,3.244,0,0,0,1.36.24,3.346,3.346,0,0,0,1.887-.49,1.373,1.373,0,0,0,.694-1.17,1.125,1.125,0,0,0-.361-0.88,2.475,2.475,0,0,0-1-.55,17.124,17.124,0,0,0-1.718-.43,13.81,13.81,0,0,1-2.456-.73,4.136,4.136,0,0,1-1.61-1.17,2.951,2.951,0,0,1-.606-1.88,3.044,3.044,0,0,1,.636-1.89,3.988,3.988,0,0,1,1.819-1.26,7.9,7.9,0,0,1,2.749-.43,7.459,7.459,0,0,1,2.186.29,4.77,4.77,0,0,1,1.546.77,3.279,3.279,0,0,1,.911,1.02,2.25,2.25,0,0,1,.294,1.06,1.251,1.251,0,0,1-.385.9,1.372,1.372,0,0,1-2.081-.79,3.085,3.085,0,0,0-1.088-.84,2.641,2.641,0,0,0-1.564-.35,2.9,2.9,0,0,0-1.623.4,1.052,1.052,0,0,0-.581.89,0.806,0.806,0,0,0,.188.54,1.6,1.6,0,0,0,.558.43,4.4,4.4,0,0,0,.754.29c0.26,0.07.7,0.18,1.3,0.32a20.39,20.39,0,0,1,2.071.54,6.574,6.574,0,0,1,1.6.73,3.154,3.154,0,0,1,1.055,1.11,3.309,3.309,0,0,1,.381,1.64,3.542,3.542,0,0,1-.656,2.09A4.313,4.313,0,0,1,627.432,4164.48Z" transform="translate(-610.563 -4144.56)"/>
</svg>
