<svg id="Группа_26" data-name="Группа 26" xmlns="http://www.w3.org/2000/svg" width="39.063" height="39" viewBox="0 0 39.063 39">
  <metadata><?xpacket begin="﻿" id="W5M0MpCehiHzreSzNTczkc9d"?>
<x:xmpmeta xmlns:x="adobe:ns:meta/" x:xmptk="Adobe XMP Core 5.6-c138 79.159824, 2016/09/14-01:09:01        ">
   <rdf:RDF xmlns:rdf="http://www.w3.org/1999/02/22-rdf-syntax-ns#">
      <rdf:Description rdf:about=""/>
   </rdf:RDF>
</x:xmpmeta>
                                                                                                    
                                                                                                    
                                                                                                    
                                                                                                    
                                                                                                    
                                                                                                    
                                                                                                    
                                                                                                    
                                                                                                    
                                                                                                    
                                                                                                    
                                                                                                    
                                                                                                    
                                                                                                    
                                                                                                    
                                                                                                    
                                                                                                    
                                                                                                    
                                                                                                    
                                                                                                    
                           
<?xpacket end="w"?></metadata>
<defs>
    <style>
      .cls-1 {
        fill: #41dcff;
      }

      .cls-2 {
        fill: #fff;
        fill-rule: evenodd;
      }
    </style>
  </defs>
  <rect id="Прямоугольник_скругл._углы_1_копия_5" data-name="Прямоугольник, скругл. углы 1 копия 5" class="cls-1" width="39.063" height="39" rx="19.5" ry="19.5"/>
  <path id="Фигура_6" data-name="Фигура 6" class="cls-2" d="M714.012,319.9a7.573,7.573,0,0,1-2.24.636,4.029,4.029,0,0,0,1.715-2.234,7.64,7.64,0,0,1-2.477.979,3.833,3.833,0,0,0-2.847-1.275,3.972,3.972,0,0,0-3.9,4.039,4.166,4.166,0,0,0,.1.921,10.957,10.957,0,0,1-8.04-4.22,4.124,4.124,0,0,0-.528,2.03,4.078,4.078,0,0,0,1.735,3.362,3.793,3.793,0,0,1-1.767-.5v0.051a4.009,4.009,0,0,0,3.129,3.96,3.765,3.765,0,0,1-1.762.069,3.924,3.924,0,0,0,3.644,2.805,7.654,7.654,0,0,1-4.844,1.729,7.745,7.745,0,0,1-.931-0.056,10.771,10.771,0,0,0,5.98,1.814c7.174,0,11.1-6.154,11.1-11.492,0-.175,0-0.349-0.011-0.522A8.083,8.083,0,0,0,714.012,319.9Z" transform="translate(-684 -306)"/>
</svg>
