<svg id="Группа_26" data-name="Группа 26" xmlns="http://www.w3.org/2000/svg" width="39.06" height="39" viewBox="0 0 39.06 39">
  <metadata><?xpacket begin="﻿" id="W5M0MpCehiHzreSzNTczkc9d"?>
<x:xmpmeta xmlns:x="adobe:ns:meta/" x:xmptk="Adobe XMP Core 5.6-c138 79.159824, 2016/09/14-01:09:01        ">
   <rdf:RDF xmlns:rdf="http://www.w3.org/1999/02/22-rdf-syntax-ns#">
      <rdf:Description rdf:about=""/>
   </rdf:RDF>
</x:xmpmeta>
                                                                                                    
                                                                                                    
                                                                                                    
                                                                                                    
                                                                                                    
                                                                                                    
                                                                                                    
                                                                                                    
                                                                                                    
                                                                                                    
                                                                                                    
                                                                                                    
                                                                                                    
                                                                                                    
                                                                                                    
                                                                                                    
                                                                                                    
                                                                                                    
                                                                                                    
                                                                                                    
                           
<?xpacket end="w"?></metadata>
<defs>
    <style>
      .cls-1 {
        fill: #00c9f7;
      }

      .cls-2 {
        fill: #fff;
        fill-rule: evenodd;
      }
    </style>
  </defs>
  <rect id="Прямоугольник_скругл._углы_1_копия_5" data-name="Прямоугольник, скругл. углы 1 копия 5" class="cls-1" width="39.06" height="39" rx="19.5" ry="19.5"/>
  <path id="Фигура_6" data-name="Фигура 6" class="cls-2" d="M1117.01,4137.9a7.7,7.7,0,0,1-2.24.64,4,4,0,0,0,1.72-2.24,7.525,7.525,0,0,1-2.48.98,3.855,3.855,0,0,0-2.85-1.27,3.975,3.975,0,0,0-3.9,4.04,4.712,4.712,0,0,0,.1.92,10.985,10.985,0,0,1-8.04-4.22,4.166,4.166,0,0,0-.52,2.03,4.056,4.056,0,0,0,1.73,3.36,3.716,3.716,0,0,1-1.77-.51v0.05a4.03,4.03,0,0,0,3.13,3.97,3.806,3.806,0,0,1-1.02.14,3.57,3.57,0,0,1-.74-0.08,3.927,3.927,0,0,0,3.65,2.81,7.7,7.7,0,0,1-4.85,1.73,7.26,7.26,0,0,1-.93-0.06,10.759,10.759,0,0,0,5.98,1.82c7.17,0,11.1-6.16,11.1-11.5,0-.17-0.01-0.34-0.01-0.52A8.055,8.055,0,0,0,1117.01,4137.9Z" transform="translate(-1087 -4124)"/>
</svg>
