<?xml version="1.0" encoding="UTF-8"?>
<svg width="14px" height="18px" viewBox="0 0 14 18" version="1.1" xmlns="http://www.w3.org/2000/svg" xmlns:xlink="http://www.w3.org/1999/xlink">
    <!-- Generator: sketchtool 52.3 (67297) - http://www.bohemiancoding.com/sketch -->
    <title>7116FFCC-8235-481D-9FF5-9852E37161B6</title>
    <desc>Created with sketchtool.</desc>
    <g id="Page-1" stroke="none" stroke-width="1" fill="none" fill-rule="evenodd">
        <g id="Desktop-HD_site_login" transform="translate(-589.000000, -281.119236)" fill="#008141">
            <g id="Desktop_field" transform="translate(565.000000, 272.000000)">
                <g id="Group-2" transform="translate(0.188200, 0.137269)">
                    <g id="Group-3" transform="translate(24.330462, 9.589503)">
                        <g id="icon_sacure">
                            <path d="M9.22363093,6.38559499 L3.54756571,6.38559499 L3.54756571,4.96656206 C3.54756571,3.40169137 4.82072763,2.12852945 6.38559832,2.12852945 C7.950469,2.12852945 9.22363093,3.40169137 9.22363093,4.96656206 L9.22363093,6.38559499 Z M11.3521637,6.38559499 L11.3521637,4.96656206 C11.3521637,2.22797184 9.12422179,-3.32583252e-06 6.38559832,-3.32583252e-06 C3.64697484,-3.32583252e-06 1.41903293,2.22797184 1.41903293,4.96656206 L1.41903293,6.38559499 L0.354766548,6.38559499 C0.158675466,6.38559499 4.08562073e-14,6.54427046 4.08562073e-14,6.74036154 L4.08562073e-14,15.6092592 C4.08562073e-14,16.3918608 0.63639804,17.0282588 1.41903293,17.0282588 L11.352197,17.0282588 C12.1347986,17.0282588 12.7711966,16.3918608 12.7711966,15.6092259 L12.7711966,6.74036154 C12.7711966,6.54427046 12.6125212,6.38559499 12.4164301,6.38559499 L11.3521637,6.38559499 Z" id="Fill-1"></path>
                        </g>
                    </g>
                </g>
            </g>
        </g>
    </g>
</svg>